<svg width="399" height="432" viewBox="0 0 399 432" fill="none" xmlns="http://www.w3.org/2000/svg">
<path fill-rule="evenodd" clip-rule="evenodd" d="M294.161 288.375C313.085 256.849 346.741 275.071 368.196 292.364C345.068 314.564 307.894 309.297 294.161 288.375Z" fill="#8BD092"/>
<path d="M294.732 290.429C296.202 289.88 297.705 289.42 299.226 289.035C299.025 289.084 298.824 289.136 298.623 289.186C302.566 288.196 306.624 287.707 310.683 287.563C311.869 287.521 313.058 287.508 314.246 287.523C314.035 287.52 313.826 287.517 313.615 287.515C316.732 287.555 319.844 287.779 322.938 288.161C326.05 288.545 329.141 289.088 332.199 289.781C333.892 290.165 335.574 290.594 337.244 291.071C337.035 291.012 336.826 290.951 336.617 290.892C339.528 291.724 342.4 292.695 345.209 293.826C345.798 294.062 346.473 294.095 347.07 293.861C347.626 293.643 348.193 293.136 348.412 292.57C348.638 291.983 348.71 291.301 348.447 290.709C348.19 290.128 347.761 289.61 347.156 289.367C343.744 287.994 340.242 286.868 336.691 285.908C333.208 284.966 329.668 284.223 326.1 283.684C322.5 283.14 318.866 282.805 315.225 282.716C311.547 282.627 307.864 282.737 304.212 283.204C300.773 283.645 297.35 284.386 294.066 285.503C293.695 285.63 293.326 285.763 292.958 285.899C292.381 286.115 291.862 286.628 291.617 287.19C291.378 287.737 291.336 288.495 291.582 289.051C291.837 289.627 292.268 290.159 292.873 290.393C293.478 290.626 294.111 290.66 294.732 290.429Z" fill="#3DB149"/>
<path d="M272.99 306.526C270.148 308.423 272.616 313.174 275.477 311.26C292.142 300.116 301.376 281.372 309.24 263.524C310.952 259.633 312.636 257.58 310.037 254.099C305.438 247.909 296.103 246.848 289.118 246.279C287.734 246.166 286.307 247.468 286.368 248.874C287.24 270.248 284.855 289.712 271.96 307.468C269.931 310.267 274.483 313.082 276.503 310.304" fill="#343434"/>
<path fill-rule="evenodd" clip-rule="evenodd" d="M276.136 310.919C272.782 267.108 221.061 254.121 201.168 295.438C180.518 338.317 187.495 366.868 222.264 392.198C253.521 414.971 288.548 416.188 318.333 378.607C353.051 334.794 313.408 294.395 276.136 310.919Z" fill="#EF4C41"/>
<path d="M295.015 331.952C296.927 333.114 298.7 334.471 300.253 336.085C299.839 335.65 299.425 335.214 299.011 334.779C300.194 336.035 301.218 337.415 302.048 338.928C301.763 338.408 301.479 337.89 301.194 337.37C301.907 338.705 302.453 340.11 302.828 341.575C302.684 341 302.539 340.426 302.396 339.852C302.789 341.459 302.97 343.097 302.965 344.751C302.973 344.151 302.979 343.55 302.987 342.949C302.957 345.123 302.609 347.264 302.023 349.355C302.194 348.757 302.363 348.16 302.534 347.562C301.691 350.487 300.407 353.249 298.848 355.86C297.962 357.342 298.146 359.647 298.747 361.176C299.417 362.885 300.753 364.273 302.435 365.007C304.117 365.742 306.045 365.779 307.752 365.108C309.633 364.37 310.588 363.086 311.583 361.42C315.373 355.077 317.633 347.37 316.546 339.955C315.393 332.092 310.512 325.248 303.762 321.15C303.23 320.828 302.7 320.505 302.168 320.183C301.018 319.684 299.819 319.507 298.575 319.65C296.787 319.863 295.121 320.777 293.987 322.178C292.817 323.624 292.267 325.518 292.487 327.365C292.675 328.953 293.574 331.078 295.015 331.952Z" fill="white"/>
<path fill-rule="evenodd" clip-rule="evenodd" d="M126.464 345.344C141.873 379.613 148.108 391.92 154.07 405.101C160.033 418.289 164.176 426.018 178.197 418.252C190.5 411.436 186.588 404.788 178.49 392.132C170.392 379.469 161.199 364.173 142.079 337.201" fill="#B3DA4C"/>
<path fill-rule="evenodd" clip-rule="evenodd" d="M98.7436 268.287C36.7172 292.994 81.5684 381.466 140.326 345.071C188.627 315.158 145.185 245.676 98.7436 268.287Z" fill="#B3DA4C"/>
<path fill-rule="evenodd" clip-rule="evenodd" d="M102.72 278.288C56.1749 296.773 90.047 363.489 134.113 336.2C170.328 313.772 137.561 261.354 102.72 278.288Z" fill="white"/>
<path d="M119.267 283.984C116.715 297.569 112.27 310.689 108.387 323.929C107.412 327.252 106.475 330.586 105.607 333.937C105.105 335.879 108.124 336.638 108.627 334.692C112.096 321.294 116.71 308.222 120.072 294.795C120.905 291.465 121.653 288.112 122.287 284.739C122.443 283.908 122.015 283.067 121.155 282.852C120.367 282.656 119.423 283.149 119.267 283.984Z" fill="#989898"/>
<path d="M130.65 291.882C127.995 303.826 125.078 315.717 121.708 327.481C121.475 328.295 122.038 329.169 122.84 329.368C123.683 329.578 124.494 329.052 124.727 328.236C128.097 316.472 131.015 304.581 133.67 292.637C133.854 291.81 133.376 290.959 132.537 290.749C131.732 290.549 130.835 291.053 130.65 291.882Z" fill="#989898"/>
<path d="M105.067 288.834C102.726 300.258 99.3824 311.402 95.9301 322.529C95.6793 323.338 96.2748 324.22 97.0623 324.416C97.918 324.629 98.698 324.094 98.9495 323.284C102.402 312.157 105.746 301.013 108.087 289.589C108.257 288.76 107.804 287.913 106.955 287.702C106.158 287.503 105.238 288.003 105.067 288.834Z" fill="#989898"/>
<path d="M152.193 401.557C160.574 398.313 168.549 394.099 176.165 389.346C176.885 388.897 177.163 387.966 176.726 387.218C176.308 386.502 175.317 386.208 174.598 386.657C167.217 391.264 159.492 395.412 151.369 398.556C150.578 398.862 150.04 399.589 150.28 400.468C150.488 401.223 151.402 401.863 152.193 401.557Z" fill="#343434"/>
<path d="M155.99 410.717C160.603 409.178 165.146 407.407 169.469 405.169C173.638 403.009 177.548 400.394 181.348 397.644C182.034 397.147 182.368 396.301 181.909 395.515C181.514 394.838 180.468 394.457 179.78 394.955C176.07 397.639 172.258 400.184 168.204 402.321C163.975 404.552 159.719 406.197 155.167 407.716C154.363 407.984 153.846 408.777 154.078 409.628C154.292 410.412 155.186 410.986 155.99 410.717Z" fill="#343434"/>
<path d="M64.2909 373.49C59.0759 368.281 53.8609 363.072 48.7132 357.797C46.3612 355.387 44.0244 352.96 41.7142 350.509C39.7872 348.464 38.0327 346.212 35.4302 345.001C31.4141 343.134 26.783 344.765 24.1087 348.081C22.8159 349.683 22.0379 351.747 21.9499 353.802C21.8467 356.21 22.7141 358.487 24.1484 360.395C25.1446 361.721 26.4248 362.861 27.573 364.053C28.8293 365.358 30.082 366.665 31.332 367.976C33.6405 370.394 35.9388 372.823 38.2296 375.257C42.0898 379.357 45.927 383.48 49.782 387.586C54.9711 393.112 60.1271 398.827 65.9818 403.668C69.066 406.219 72.8057 408.876 77.0121 408.555C80.8463 408.263 83.9509 405.07 86.21 402.255C88.4301 399.488 89.2657 396.087 88.2687 392.65C87.6387 390.477 86.5509 388.515 85.3306 386.624C83.7479 384.172 81.8996 381.892 80.0064 379.676C74.0203 372.669 67.4421 366.158 60.9618 359.616C56.3113 354.921 51.6469 350.241 46.9952 345.548C42.0589 340.565 37.2466 335.308 31.6742 331.016C27.8709 328.087 22.921 325.233 17.9551 326.644C15.5441 327.328 13.5089 328.917 11.6099 330.498C9.86863 331.947 8.23254 333.619 7.08353 335.584C5.95638 337.511 5.32917 339.689 5.42383 341.93C5.54188 344.702 6.55045 347.306 7.93928 349.685C9.5814 352.498 11.7165 355.016 13.7746 357.528C15.444 359.565 17.1646 361.562 18.9343 363.513C23.7491 368.821 28.9134 373.805 33.9764 378.874C34.47 379.367 35.2111 379.511 35.7817 379.034C36.2822 378.616 36.4357 377.725 35.9423 377.231C31.6631 372.946 27.3259 368.715 23.1647 364.314C19.4302 360.363 15.9267 356.213 12.5808 351.931C10.7643 349.606 9.04473 346.961 8.31883 344.148C7.77193 342.031 7.86104 340.133 8.62524 338.21C9.0089 337.244 9.39818 336.618 10.081 335.701C10.7769 334.767 11.3404 334.188 12.1979 333.39C13.0755 332.574 14.0154 331.827 14.9766 331.113C15.9478 330.391 16.739 329.83 17.8706 329.362C19.6537 328.627 21.7078 328.725 23.5772 329.323C26.0276 330.108 28.1329 331.531 30.1912 333.104C32.7678 335.073 35.1333 337.306 37.4484 339.571C40.1142 342.178 42.7148 344.853 45.3397 347.503C53.6313 355.87 62.0172 364.151 70.149 372.674C72.8896 375.546 75.5981 378.453 78.1748 381.475C79.1952 382.672 80.1918 383.889 81.1472 385.139C81.5685 385.689 81.9798 386.247 82.38 386.813C82.56 387.067 82.7375 387.324 82.9126 387.582C82.9975 387.708 83.0813 387.834 83.1639 387.959C83.2242 388.05 83.5396 388.54 83.3078 388.178C83.9046 389.11 84.4571 390.073 84.9356 391.072C85.1446 391.509 85.3354 391.955 85.5071 392.407C85.5851 392.61 85.6571 392.817 85.7255 393.024C85.5669 392.543 85.7907 393.255 85.8324 393.41C85.9394 393.808 86.0216 394.213 86.0826 394.62C86.11 394.806 86.1315 394.994 86.1472 395.182C86.1552 395.274 86.1608 395.367 86.1665 395.459C86.1779 395.67 86.152 395.089 86.1588 395.299C86.1616 395.359 86.1619 395.42 86.1623 395.481C86.1673 395.854 86.1445 396.227 86.0989 396.596C86.0775 396.772 86.048 396.946 86.0141 397.119C85.9476 397.462 86.0387 397.025 86.0253 397.085C86.0024 397.186 85.9761 397.286 85.9487 397.385C85.8496 397.744 85.7245 398.095 85.5792 398.439C85.5075 398.607 85.4302 398.773 85.3496 398.937C85.2973 399.042 85.1182 399.376 85.3557 398.933C85.3042 399.03 85.2493 399.126 85.1946 399.22C84.7618 399.97 84.2353 400.654 83.6741 401.311C83.4969 401.519 83.3166 401.724 83.1351 401.928C83.0464 402.026 82.9578 402.124 82.868 402.222C82.6986 402.407 83.0832 401.99 82.914 402.173C82.8552 402.235 82.7963 402.298 82.7376 402.36C82.3874 402.728 82.0255 403.084 81.652 403.43C81.31 403.745 80.9541 404.048 80.5859 404.333C80.4203 404.462 80.2506 404.587 80.0788 404.708C79.996 404.767 79.9109 404.824 79.8259 404.881C79.5156 405.089 80.0807 404.726 79.7657 404.92C79.4274 405.129 79.076 405.317 78.7149 405.483C78.5482 405.559 78.3788 405.628 78.2085 405.693C78.1246 405.725 78.0397 405.755 77.9549 405.784C77.7148 405.866 78.3141 405.678 77.9313 405.789C77.5806 405.891 77.2209 405.962 76.8589 406.008C76.6856 406.03 76.5105 406.044 76.336 406.053C76.905 406.024 76.2231 406.046 76.0615 406.04C75.6829 406.026 75.306 405.98 74.9333 405.912C74.841 405.894 74.7488 405.876 74.6569 405.855C75.1681 405.966 74.7853 405.883 74.6664 405.852C74.4591 405.799 74.2551 405.737 74.0524 405.671C73.6371 405.536 73.2313 405.371 72.8338 405.191C72.6301 405.099 72.4279 405.001 72.2286 404.899C72.1776 404.873 72.1268 404.846 72.0747 404.819C71.8666 404.711 72.3699 404.978 72.1621 404.865C72.0394 404.8 71.918 404.731 71.7979 404.663C69.6734 403.457 67.7623 401.883 65.9356 400.272C65.6671 400.035 65.4011 399.797 65.1354 399.555C64.9982 399.431 64.8621 399.306 64.7261 399.182C64.6833 399.142 64.4479 398.925 64.6907 399.15C64.5976 399.064 64.5046 398.977 64.4116 398.89C63.8031 398.322 63.2012 397.746 62.6042 397.166C61.259 395.858 59.9394 394.523 58.6311 393.177C51.2021 385.542 44.0329 377.656 36.7089 369.923C34.277 367.356 31.8363 364.798 29.384 362.251C28.2496 361.072 27.0099 359.945 26.0252 358.634C25.7011 358.202 25.5142 357.881 25.251 357.352C24.9848 356.816 24.836 356.38 24.729 355.969C24.6056 355.495 24.5366 355.008 24.5001 354.52C24.5221 354.806 24.4978 354.416 24.4983 354.385C24.496 354.267 24.4997 354.148 24.5033 354.029C24.5115 353.756 24.5381 353.483 24.5739 353.21C24.5888 353.095 24.6083 352.98 24.6289 352.866C24.6355 352.831 24.7154 352.453 24.6477 352.746C24.7002 352.52 24.765 352.299 24.8356 352.079C24.905 351.859 24.989 351.645 25.0752 351.431C25.1182 351.325 25.1657 351.221 25.2132 351.116C25.2333 351.073 25.4469 350.651 25.315 350.897C25.5304 350.494 25.7845 350.112 26.0581 349.745C26.442 349.232 26.4946 349.188 26.9042 348.802C27.692 348.058 28.1592 347.767 29.0706 347.353C29.2759 347.259 29.4869 347.178 29.6998 347.102C30.0516 346.976 29.455 347.172 29.8132 347.065C29.9214 347.033 30.0317 347.004 30.1407 346.977C30.3611 346.921 30.5837 346.88 30.807 346.843C30.9198 346.825 31.0322 346.811 31.1446 346.798C31.1973 346.791 31.6775 346.757 31.3706 346.77C31.8356 346.751 32.3007 346.783 32.7605 346.848C32.8784 346.864 32.9945 346.886 33.1107 346.908C33.4969 346.981 32.8595 346.842 33.2434 346.94C33.522 347.011 33.7941 347.103 34.0632 347.203C34.97 347.542 35.8712 348.126 36.6131 348.822C37.7194 349.86 38.7072 351.046 39.7463 352.15C44.526 357.226 49.421 362.192 54.3376 367.136C56.993 369.807 59.6586 372.469 62.3229 375.13C62.8165 375.623 63.5576 375.768 64.1282 375.291C64.6308 374.876 64.7855 373.984 64.2909 373.49Z" fill="#8BD092"/>
<path d="M303.958 38.9555C299.814 44.0739 295.67 49.1923 291.461 54.257C289.538 56.5711 287.598 58.8731 285.635 61.1539C283.997 63.0564 282.159 64.8248 281.325 67.25C280.038 70.9924 281.918 74.9562 285.113 77.0244C286.657 78.0244 288.564 78.5239 290.398 78.4111C292.548 78.279 294.491 77.2965 296.053 75.8447C297.138 74.8362 298.033 73.5926 298.985 72.4614C300.028 71.2237 301.073 69.9891 302.121 68.7565C304.056 66.4804 306 64.2123 307.95 61.9503C311.235 58.139 314.543 54.3459 317.833 50.5386C322.261 45.4138 326.861 40.3008 330.619 34.6481C332.599 31.6703 334.612 28.1001 333.936 24.3921C333.321 21.0119 330.195 18.5498 327.483 16.804C324.817 15.0884 321.718 14.6619 318.756 15.8672C316.884 16.629 315.241 17.778 313.675 19.0382C311.643 20.6726 309.789 22.5269 307.995 24.4153C302.325 30.386 297.15 36.8367 291.939 43.2035C288.199 47.7723 284.474 52.3523 280.735 56.9221C276.766 61.7718 272.542 66.5368 269.246 71.8875C266.996 75.5396 264.921 80.2034 266.636 84.4852C267.468 86.5641 269.069 88.225 270.651 89.7655C272.1 91.1782 273.738 92.4767 275.591 93.3151C277.408 94.1377 279.402 94.4925 281.385 94.2001C283.837 93.8376 286.057 92.6993 288.042 91.244C290.389 89.5234 292.429 87.392 294.469 85.3297C296.124 83.6568 297.739 81.9423 299.308 80.1883C303.577 75.4164 307.527 70.364 311.56 65.3937C311.952 64.9093 312.012 64.2373 311.535 63.7745C311.117 63.3686 310.311 63.315 309.917 63.7994C306.508 68.0003 303.151 72.2478 299.626 76.3546C296.463 80.0404 293.101 83.5395 289.606 86.9108C287.709 88.741 285.519 90.5149 283.087 91.4214C281.256 92.1042 279.561 92.2014 277.781 91.701C276.887 91.4498 276.295 91.1621 275.417 90.6406C274.522 90.109 273.954 89.6621 273.166 88.9742C272.359 88.2702 271.608 87.5044 270.884 86.7166C270.153 85.9207 269.58 85.2697 269.06 84.3076C268.24 82.7914 268.137 80.957 268.494 79.2402C268.964 76.9897 270.033 74.9866 271.239 73.0114C272.749 70.5387 274.514 68.2291 276.312 65.9612C278.381 63.35 280.516 60.7904 282.627 58.2116C289.291 50.0658 295.871 41.844 302.689 33.8257C304.986 31.1234 307.318 28.4463 309.764 25.8757C310.733 24.8577 311.722 23.859 312.743 22.8938C313.193 22.4683 313.651 22.0509 314.116 21.6427C314.326 21.4591 314.537 21.2775 314.751 21.0979C314.855 21.0108 314.958 20.9246 315.062 20.8395C315.137 20.7775 315.543 20.4517 315.243 20.6914C316.016 20.0743 316.82 19.4939 317.664 18.9758C318.032 18.7495 318.411 18.5385 318.796 18.3439C318.97 18.2557 319.147 18.1725 319.325 18.0925C318.912 18.2782 319.524 18.0131 319.658 17.9616C320.002 17.8295 320.354 17.7189 320.71 17.6269C320.873 17.5852 321.038 17.5486 321.203 17.5172C321.284 17.5015 321.367 17.4879 321.448 17.4742C321.634 17.4446 321.12 17.5216 321.306 17.496C321.359 17.488 321.414 17.482 321.467 17.476C321.798 17.4369 322.132 17.4225 322.465 17.4287C322.622 17.4314 322.78 17.4414 322.937 17.4554C323.248 17.4826 322.851 17.4423 322.906 17.4487C322.998 17.4596 323.089 17.4737 323.179 17.4888C323.508 17.5435 323.831 17.622 324.15 17.7192C324.306 17.7673 324.461 17.8206 324.614 17.877C324.712 17.9136 325.025 18.0418 324.61 17.8719C324.701 17.9087 324.791 17.9485 324.88 17.9884C325.587 18.3033 326.244 18.7076 326.88 19.1452C327.081 19.2833 327.28 19.4246 327.478 19.5669C327.574 19.6365 327.668 19.7062 327.764 19.7769C327.944 19.9102 327.538 19.6072 327.716 19.7405C327.777 19.787 327.838 19.8335 327.899 19.88C328.258 20.1569 328.609 20.4454 328.95 20.7452C329.262 21.0198 329.565 21.3079 329.852 21.6086C329.982 21.7437 330.109 21.883 330.233 22.0244C330.292 22.0926 330.351 22.1628 330.41 22.233C330.623 22.4895 330.248 22.0211 330.45 22.2829C330.668 22.5641 330.867 22.859 331.048 23.1644C331.131 23.3054 331.208 23.4496 331.282 23.5948C331.318 23.6664 331.352 23.7391 331.386 23.8118C331.481 24.0175 331.259 23.5024 331.393 23.8323C331.516 24.1345 331.612 24.4475 331.687 24.7649C331.722 24.9169 331.752 25.0711 331.776 25.2254C331.697 24.7225 331.78 25.3263 331.79 25.4705C331.812 25.8083 331.806 26.1475 331.781 26.485C331.774 26.5686 331.766 26.6523 331.756 26.7359C331.807 26.2712 331.768 26.6192 331.752 26.7277C331.724 26.9168 331.688 27.104 331.649 27.2901C331.567 27.6718 331.459 28.0477 331.335 28.4176C331.272 28.6073 331.204 28.796 331.132 28.9826C331.113 29.0303 331.094 29.078 331.075 29.1268C330.998 29.3218 331.189 28.8498 331.108 29.0448C331.062 29.16 331.012 29.2742 330.962 29.3873C330.087 31.3873 328.867 33.2318 327.605 35.0048C327.42 35.2654 327.232 35.524 327.043 35.7826C326.945 35.916 326.847 36.0485 326.749 36.1809C326.718 36.2226 326.546 36.4521 326.724 36.2153C326.656 36.3061 326.587 36.3968 326.519 36.4875C326.071 37.081 325.614 37.6695 325.154 38.2539C324.117 39.5709 323.053 40.8676 321.979 42.1553C315.885 49.4665 309.543 56.5703 303.352 63.7975C301.297 66.1971 299.25 68.6038 297.215 71.0196C296.274 72.1372 295.387 73.3436 294.313 74.3406C293.96 74.6687 293.692 74.8646 293.246 75.1477C292.794 75.434 292.421 75.6068 292.066 75.7401C291.656 75.8938 291.229 76.0004 290.799 76.0782C291.052 76.032 290.707 76.0899 290.68 76.0924C290.575 76.1053 290.469 76.1131 290.363 76.1209C290.119 76.1391 289.874 76.1408 289.629 76.1343C289.525 76.1318 289.421 76.1251 289.317 76.1175C289.285 76.1149 288.943 76.0789 289.209 76.1119C289.004 76.0862 288.801 76.0492 288.599 76.0069C288.397 75.9657 288.199 75.911 288.001 75.8542C287.903 75.8258 287.806 75.7934 287.708 75.7608C287.668 75.747 287.273 75.5964 287.504 75.6908C287.126 75.5368 286.762 75.3465 286.411 75.1375C285.919 74.844 285.875 74.8014 285.494 74.4733C284.761 73.8423 284.458 73.4542 284.005 72.6828C283.903 72.5092 283.811 72.3291 283.724 72.147C283.579 71.8461 283.809 72.3581 283.68 72.0497C283.642 71.9565 283.606 71.8612 283.572 71.7668C283.502 71.5762 283.444 71.3822 283.391 71.1872C283.365 71.0886 283.342 70.99 283.319 70.8914C283.308 70.8452 283.234 70.4216 283.274 70.6931C283.213 70.2817 283.199 69.8654 283.214 69.4507C283.217 69.3445 283.226 69.2392 283.235 69.134C283.263 68.784 283.199 69.3634 283.25 69.0131C283.288 68.7589 283.345 68.5085 283.409 68.2601C283.626 67.4228 284.06 66.5677 284.61 65.8438C285.429 64.7642 286.392 63.7762 287.276 62.7502C291.343 58.031 295.3 53.2196 299.237 48.391C301.364 45.783 303.481 43.1669 305.599 40.5519C305.991 40.0675 306.051 39.3955 305.574 38.9327C305.159 38.5247 304.352 38.4701 303.958 38.9555Z" fill="#EF4C41"/>
<path d="M167.531 242.888C170.654 242.888 173.258 240.282 173.258 237.161C173.258 234.039 170.652 231.434 167.531 231.434C164.41 231.434 161.804 234.039 161.804 237.161C161.804 240.282 164.41 242.888 167.531 242.888Z" fill="#989898"/>
<path d="M128.541 162.041C125.785 161.836 122.92 162.383 120.577 163.9C118.361 165.334 116.846 167.442 115.886 169.874C114.061 174.501 115.144 180.042 118.32 183.789C122.019 188.154 128.642 188.998 133.693 186.777C138.283 184.76 140.883 179.685 140.962 174.83C141.012 171.66 139.911 168.596 137.87 166.186C135.561 163.458 132.01 162.237 128.541 162.041C127.352 161.975 126.356 163.088 126.356 164.231C126.356 165.475 127.352 166.353 128.541 166.42C128.886 166.439 129.229 166.469 129.57 166.509C128.961 166.438 129.954 166.584 130.119 166.619C130.766 166.753 131.4 166.95 132.013 167.193C131.4 166.95 132.254 167.316 132.403 167.393C132.65 167.519 132.889 167.663 133.125 167.809C133.355 167.953 133.575 168.112 133.793 168.274C133.243 167.861 134.017 168.49 134.156 168.621C134.345 168.801 134.523 168.99 134.697 169.185C134.784 169.282 134.865 169.381 134.947 169.482C135.246 169.844 134.642 169.07 134.919 169.447C135.248 169.893 135.526 170.372 135.775 170.866C135.831 170.979 135.885 171.096 135.937 171.211C136.13 171.637 135.74 170.722 135.913 171.157C136.008 171.394 136.088 171.635 136.165 171.878C136.332 172.406 136.45 172.948 136.536 173.494C136.61 173.963 136.47 172.947 136.525 173.419C136.539 173.547 136.55 173.675 136.56 173.802C136.58 174.059 136.588 174.316 136.593 174.573C136.602 175.131 136.563 175.689 136.495 176.244C136.588 175.483 136.461 176.375 136.426 176.553C136.376 176.807 136.314 177.058 136.247 177.307C136.181 177.556 136.102 177.802 136.02 178.046C135.979 178.169 135.934 178.289 135.89 178.41C135.676 178.982 136.02 178.128 135.864 178.483C135.658 178.956 135.413 179.41 135.146 179.848C135.012 180.067 134.865 180.28 134.716 180.489C134.637 180.601 134.346 180.964 134.746 180.456C134.639 180.592 134.527 180.721 134.414 180.852C134.073 181.243 133.695 181.601 133.299 181.935C133.195 182.022 132.819 182.302 133.33 181.916C133.225 181.995 133.116 182.07 133.009 182.146C132.754 182.323 132.487 182.482 132.216 182.635C131.98 182.767 131.736 182.885 131.489 182.997C131.043 183.201 131.963 182.808 131.503 182.988C131.373 183.038 131.242 183.084 131.11 183.13C130.517 183.333 129.9 183.469 129.282 183.565C129.959 183.461 128.971 183.582 128.796 183.593C128.477 183.612 128.157 183.612 127.838 183.607C127.506 183.601 127.174 183.577 126.844 183.547C126.729 183.536 126.173 183.458 126.781 183.546C126.573 183.516 126.365 183.476 126.159 183.436C125.569 183.319 124.993 183.144 124.43 182.933C123.952 182.753 124.883 183.136 124.421 182.933C124.292 182.876 124.164 182.813 124.037 182.75C123.746 182.606 123.464 182.442 123.189 182.272C122.958 182.129 122.736 181.971 122.517 181.809C123.068 182.219 122.365 181.665 122.239 181.552C122.042 181.374 121.856 181.184 121.676 180.992C121.547 180.855 120.917 180.072 121.342 180.63C121.026 180.213 120.749 179.769 120.497 179.31C120.371 179.082 120.258 178.847 120.15 178.61C119.951 178.178 120.345 179.094 120.165 178.653C120.099 178.492 120.041 178.328 119.983 178.164C119.808 177.672 119.676 177.165 119.567 176.654C119.53 176.478 119.394 175.577 119.495 176.334C119.454 176.031 119.431 175.727 119.412 175.423C119.38 174.901 119.391 174.379 119.426 173.859C119.438 173.678 119.555 172.779 119.448 173.536C119.49 173.237 119.55 172.94 119.615 172.644C119.726 172.139 119.879 171.646 120.057 171.162C120.105 171.031 120.285 170.598 120.027 171.208C120.077 171.09 120.131 170.973 120.184 170.858C120.31 170.587 120.452 170.325 120.599 170.065C120.79 169.732 121.005 169.415 121.232 169.107C120.815 169.672 121.27 169.073 121.374 168.954C121.514 168.793 121.663 168.638 121.814 168.487C121.965 168.334 122.126 168.191 122.288 168.049C122.354 167.992 122.42 167.937 122.487 167.882C122.852 167.581 122.077 168.186 122.459 167.907C122.816 167.645 123.198 167.417 123.59 167.21C123.751 167.125 123.916 167.048 124.081 166.974C123.456 167.259 124.19 166.939 124.336 166.887C124.792 166.725 125.264 166.606 125.739 166.51C125.838 166.491 125.937 166.474 126.037 166.457C126.564 166.365 125.527 166.513 126.065 166.45C126.328 166.419 126.593 166.403 126.858 166.389C127.419 166.361 127.983 166.381 128.544 166.422C129.734 166.51 130.729 165.36 130.729 164.232C130.725 162.97 129.727 162.13 128.541 162.041Z" fill="#B3DA4C"/>
<path fill-rule="evenodd" clip-rule="evenodd" d="M197.777 93.311C196.467 98.4636 191.995 98.7614 187.963 99.9335C190.221 103.03 191.545 106.586 191.004 110.583C190.396 115.125 183.822 115.756 179.276 116.114C180.233 123.447 177.976 130.9 171.474 132.407C218.666 162.52 294.323 204.655 360.075 244.915C373.643 233.677 384.937 214.867 387.064 196.831C353.963 177.117 240.507 110.006 198.125 86.6649C198.453 88.7311 198.386 90.9114 197.777 93.311Z" fill="#FFA446"/>
<path fill-rule="evenodd" clip-rule="evenodd" d="M189.572 112.107C186.3 117.086 183.116 117.996 177.964 117.791C225.62 146.743 304.572 192.026 372.39 232.398C376.076 230.858 383.651 219.516 382.344 213.455C348.492 193.515 229.073 123.387 189.209 100.682C192.294 104.334 192.557 107.568 189.572 112.107Z" fill="#B3DA4C"/>
<path fill-rule="evenodd" clip-rule="evenodd" d="M171.483 131.896C177.758 131.761 182.192 126.204 180.011 120.289C179.096 117.811 181.816 115.94 183.968 116.338C188.734 117.219 195.434 110.561 191.179 105.611C189.94 104.168 189.873 101.422 191.906 100.534C197.198 98.2278 201.345 93.1402 199.108 87.1986C196.898 85.9815 194.87 84.8724 193.045 83.8845C181.286 81.4318 149.136 77.9503 129.511 76.8241C141.811 96.0869 166.974 129.511 166.974 129.511C168.228 130.322 169.514 131.148 170.815 131.976C171.023 131.931 171.244 131.902 171.483 131.896Z" fill="white"/>
<path fill-rule="evenodd" clip-rule="evenodd" d="M151.113 78.0359C130.062 74.5427 126.301 72.8924 125.781 74.656C124.922 76.0649 128.093 78.6642 140.926 94.5586C146.894 91.6925 150.388 84.8274 151.113 78.0359Z" fill="#343434"/>
<path d="M179.23 118.606C191.086 126.054 203.067 133.302 215.06 140.528C230.741 149.977 246.471 159.345 262.221 168.677C278.663 178.418 295.13 188.116 311.621 197.773C325.78 206.065 339.955 214.331 354.165 222.537C358.942 225.295 363.721 228.045 368.51 230.78C370.423 231.872 372.264 228.976 370.338 227.876C358.111 220.894 345.935 213.824 333.769 206.738C317.92 197.507 302.098 188.23 286.296 178.919C269.843 169.224 253.412 159.489 237.016 149.697C222.979 141.313 208.961 132.895 195.02 124.352C190.353 121.491 185.693 118.616 181.058 115.703C179.188 114.527 177.354 117.427 179.23 118.606Z" fill="#343434"/>
<path d="M187.826 103.252C200.453 110.544 213.091 117.82 225.722 125.108C241.936 134.464 258.141 143.833 274.328 153.234C291.036 162.938 307.726 172.675 324.372 182.485C338.493 190.807 352.593 199.17 366.582 207.713C370.039 209.824 373.486 211.947 376.92 214.096C378.793 215.268 380.627 212.367 378.748 211.192C366.28 203.392 353.649 195.849 341.005 188.338C324.869 178.753 308.674 169.267 292.459 159.815C275.788 150.098 259.092 140.424 242.384 130.769C228.279 122.618 214.165 114.484 200.052 106.347C196.586 104.348 193.121 102.35 189.656 100.348C187.744 99.2462 185.904 102.142 187.826 103.252Z" fill="#343434"/>
<path d="M165.653 131.678C169.363 134.152 174.341 135.293 178.288 132.657C181.691 130.387 183.498 126.281 183.17 122.228C182.891 118.787 181.322 115.636 178.792 113.283C178.066 114.153 177.339 115.022 176.611 115.892C180.006 118.543 184.596 120.198 188.71 118.187C191.995 116.581 193.867 112.919 193.897 109.351C193.935 104.58 190.886 100.508 186.764 98.3534C186.29 99.3837 185.814 100.413 185.34 101.443C189.755 103.084 194.908 102.824 198.575 99.6412C200.086 98.3301 201.207 96.5072 201.695 94.5691C202.252 92.3612 201.997 90.1436 201.204 88.0326C200.282 85.5774 198.449 83.588 196.454 81.9497C195.73 81.3546 194.539 81.7735 194.088 82.4875C193.543 83.352 193.904 84.2602 194.626 84.8535C195.053 85.2034 194.371 84.6312 194.779 84.9864C194.901 85.0925 195.019 85.2019 195.139 85.3114C195.369 85.523 195.591 85.7455 195.807 85.9713C196.248 86.4285 196.652 86.9208 197.026 87.4344C197.304 87.8161 196.82 87.1243 197.078 87.5129C197.152 87.6255 197.223 87.7415 197.295 87.8567C197.433 88.0816 197.559 88.3147 197.681 88.5476C197.799 88.7742 197.905 89.0072 198.006 89.2408C198.055 89.355 198.102 89.4717 198.146 89.5882C198.212 89.767 198.205 89.7421 198.123 89.5155C198.15 89.5919 198.175 89.6691 198.198 89.7462C198.342 90.1952 198.445 90.6572 198.519 91.1231C198.536 91.2358 198.551 91.3501 198.564 91.4635C198.611 91.86 198.541 91.0812 198.567 91.4776C198.585 91.7372 198.585 91.9978 198.578 92.2581C198.573 92.4773 198.554 92.6968 198.532 92.9144C198.521 93.0232 198.505 93.1309 198.49 93.2386C198.436 93.6209 198.564 92.8547 198.49 93.2317C198.401 93.6866 198.264 94.1325 198.099 94.5657C198.061 94.6654 198.02 94.7632 197.978 94.8618C197.828 95.2144 198.153 94.4999 197.985 94.8438C197.892 95.0345 197.787 95.2204 197.68 95.4035C197.572 95.5874 197.455 95.7649 197.332 95.9403C197.243 96.0683 196.725 96.7023 197.101 96.262C196.819 96.5911 196.508 96.8935 196.181 97.1768C196.015 97.3214 195.841 97.4552 195.666 97.5871C195.347 97.8244 196.012 97.3563 195.681 97.5782C195.557 97.6609 195.431 97.7399 195.303 97.8163C194.913 98.0522 194.502 98.2521 194.083 98.4289C193.976 98.4748 193.867 98.5153 193.758 98.5576C194.204 98.3881 193.823 98.5334 193.734 98.5634C193.468 98.6502 193.198 98.7218 192.927 98.7865C192.445 98.9019 191.953 98.9748 191.46 99.0223C191.899 98.9793 191.463 99.0172 191.385 99.0215C191.256 99.0279 191.125 99.0316 190.995 99.0336C190.684 99.0396 190.373 99.0272 190.063 99.0096C189.741 98.9906 189.422 98.9542 189.103 98.9126C189.047 98.9048 188.583 98.8287 188.974 98.898C188.784 98.864 188.595 98.823 188.407 98.7822C187.71 98.6289 187.028 98.4135 186.36 98.1654C184.551 97.4939 183.205 100.35 184.936 101.255C185.433 101.516 185.915 101.798 186.382 102.11C186.603 102.257 186.817 102.415 187.029 102.575C187.132 102.653 187.233 102.734 187.333 102.815C186.945 102.502 187.389 102.868 187.461 102.933C187.823 103.258 188.161 103.61 188.478 103.978C188.631 104.154 188.776 104.338 188.916 104.525C188.978 104.607 189.213 104.941 188.921 104.519C189.007 104.642 189.088 104.769 189.168 104.897C189.402 105.269 189.606 105.659 189.79 106.059C189.879 106.253 189.959 106.451 190.035 106.651C190.172 107.008 189.906 106.27 190.027 106.63C190.071 106.762 190.11 106.895 190.148 107.03C190.261 107.425 190.342 107.827 190.404 108.234C190.425 108.366 190.488 109.058 190.444 108.497C190.462 108.729 190.468 108.961 190.467 109.194C190.469 109.585 190.439 109.977 190.391 110.366C190.378 110.463 190.363 110.558 190.349 110.654C190.429 110.142 190.376 110.491 190.354 110.6C190.31 110.82 190.254 111.036 190.195 111.251C190.093 111.614 189.963 111.969 189.816 112.318C189.679 112.642 189.997 111.936 189.846 112.254C189.805 112.337 189.762 112.42 189.72 112.502C189.62 112.694 189.511 112.88 189.396 113.064C189.299 113.219 189.194 113.37 189.086 113.519C188.998 113.641 188.572 114.146 188.983 113.667C188.727 113.966 188.441 114.24 188.141 114.494C188.002 114.611 187.857 114.722 187.71 114.828C188.22 114.459 187.682 114.834 187.552 114.911C187.208 115.115 186.843 115.281 186.469 115.422C187.015 115.217 186.48 115.41 186.352 115.447C186.199 115.491 186.043 115.527 185.888 115.56C185.73 115.594 185.568 115.619 185.409 115.642C185.311 115.656 185.213 115.666 185.115 115.677C185.621 115.625 185.26 115.663 185.152 115.668C184.806 115.685 184.459 115.672 184.113 115.643C183.933 115.628 183.753 115.604 183.575 115.577C183.187 115.52 183.957 115.651 183.567 115.574C183.455 115.553 183.344 115.526 183.233 115.5C182.845 115.408 182.464 115.285 182.088 115.15C181.889 115.079 181.693 114.999 181.499 114.915C181.09 114.743 181.831 115.076 181.425 114.884C181.303 114.826 181.182 114.765 181.062 114.703C180.129 114.225 179.259 113.631 178.435 112.987C176.913 111.798 174.844 114.284 176.254 115.596C176.666 115.979 177.055 116.382 177.42 116.809C177.595 117.014 177.761 117.226 177.922 117.442C177.973 117.508 178.231 117.88 177.965 117.494C178.064 117.637 178.156 117.784 178.248 117.93C178.515 118.359 178.749 118.807 178.96 119.267C179.062 119.49 179.155 119.718 179.242 119.948C179.393 120.342 179.121 119.588 179.255 119.985C179.305 120.136 179.351 120.29 179.396 120.444C179.526 120.897 179.621 121.357 179.693 121.823C179.712 121.948 179.788 122.693 179.747 122.188C179.769 122.453 179.777 122.719 179.778 122.985C179.783 123.432 179.751 123.88 179.699 124.325C179.686 124.435 179.67 124.544 179.654 124.654C179.596 125.042 179.727 124.273 179.653 124.655C179.605 124.905 179.544 125.152 179.478 125.398C179.367 125.815 179.222 126.221 179.06 126.618C179.02 126.717 178.976 126.814 178.933 126.912C179.139 126.45 178.983 126.796 178.935 126.89C178.824 127.109 178.703 127.323 178.577 127.533C178.362 127.889 178.118 128.229 177.859 128.553C178.23 128.091 177.775 128.637 177.676 128.741C177.512 128.915 177.337 129.078 177.158 129.238C177.005 129.374 176.845 129.502 176.682 129.626C176.591 129.696 176.281 129.908 176.727 129.601C176.643 129.66 176.556 129.714 176.468 129.769C176.09 130.007 175.688 130.206 175.275 130.377C175.177 130.418 174.823 130.542 175.303 130.374C175.205 130.409 175.104 130.44 175.003 130.471C174.8 130.532 174.594 130.583 174.386 130.628C174.174 130.675 173.96 130.708 173.745 130.736C173.649 130.749 173.262 130.783 173.744 130.744C173.595 130.757 173.446 130.76 173.296 130.765C172.83 130.776 172.363 130.741 171.901 130.679C171.818 130.668 171.408 130.593 171.853 130.675C171.729 130.652 171.608 130.625 171.486 130.598C171.192 130.532 170.903 130.448 170.615 130.358C170.357 130.277 170.103 130.183 169.851 130.084C169.721 130.033 169.592 129.978 169.464 129.922C169.286 129.843 169.291 129.846 169.477 129.929C169.389 129.888 169.302 129.845 169.215 129.801C168.611 129.503 168.035 129.152 167.476 128.78C166.698 128.262 165.598 128.542 165.11 129.317C164.606 130.118 164.876 131.161 165.653 131.678Z" fill="#343434"/>
</svg>
