<svg width="181" height="256" viewBox="0 0 181 256" fill="none" xmlns="http://www.w3.org/2000/svg">
<path fill-rule="evenodd" clip-rule="evenodd" d="M177.301 172.989C188.652 154.078 208.841 165.008 221.711 175.382C207.837 188.699 185.539 185.539 177.301 172.989Z" fill="#8BD092"/>
<path d="M177.644 174.222C178.526 173.893 179.427 173.617 180.339 173.386C180.219 173.416 180.098 173.447 179.978 173.477C182.343 172.883 184.777 172.59 187.212 172.503C187.924 172.478 188.636 172.471 189.349 172.479C189.223 172.478 189.097 172.476 188.971 172.475C190.84 172.499 192.707 172.633 194.563 172.862C196.43 173.092 198.284 173.419 200.118 173.834C201.134 174.064 202.143 174.322 203.145 174.608C203.019 174.572 202.894 174.536 202.769 174.501C204.515 174.999 206.238 175.582 207.923 176.26C208.276 176.402 208.681 176.422 209.039 176.281C209.372 176.151 209.713 175.846 209.844 175.507C209.979 175.155 210.022 174.746 209.865 174.39C209.711 174.042 209.453 173.732 209.09 173.586C207.044 172.762 204.943 172.087 202.813 171.511C200.724 170.946 198.6 170.5 196.46 170.177C194.301 169.851 192.121 169.65 189.936 169.596C187.73 169.543 185.521 169.609 183.33 169.889C181.267 170.153 179.214 170.598 177.244 171.268C177.022 171.344 176.8 171.424 176.58 171.505C176.233 171.635 175.922 171.943 175.775 172.28C175.632 172.608 175.606 173.062 175.754 173.396C175.907 173.742 176.166 174.061 176.528 174.201C176.891 174.341 177.271 174.361 177.644 174.222Z" fill="#3DB149"/>
<path d="M164.604 183.878C162.898 185.016 164.379 187.866 166.095 186.718C176.092 180.033 181.631 168.789 186.348 158.082C187.375 155.749 188.385 154.517 186.827 152.429C184.067 148.716 178.468 148.08 174.278 147.738C173.448 147.67 172.592 148.451 172.628 149.295C173.152 162.116 171.721 173.792 163.986 184.443C162.769 186.121 165.499 187.81 166.711 186.144" fill="#343434"/>
<path fill-rule="evenodd" clip-rule="evenodd" d="M166.489 186.513C164.476 160.233 133.451 152.442 121.519 177.226C109.131 202.947 113.316 220.074 134.173 235.268C152.923 248.929 173.934 249.659 191.8 227.116C212.626 200.835 188.846 176.601 166.489 186.513Z" fill="#EF4C41"/>
<path d="M177.815 199.131C178.962 199.828 180.025 200.642 180.956 201.61C180.708 201.349 180.46 201.087 180.212 200.826C180.921 201.58 181.536 202.407 182.034 203.315C181.863 203.003 181.692 202.692 181.521 202.38C181.949 203.181 182.277 204.024 182.501 204.903C182.415 204.558 182.328 204.214 182.242 203.869C182.478 204.833 182.587 205.816 182.583 206.808C182.588 206.448 182.592 206.088 182.597 205.727C182.579 207.031 182.37 208.315 182.018 209.57C182.121 209.211 182.222 208.853 182.325 208.494C181.819 210.249 181.049 211.906 180.114 213.472C179.582 214.361 179.693 215.743 180.054 216.661C180.455 217.686 181.257 218.518 182.266 218.959C183.275 219.399 184.431 219.421 185.455 219.019C186.584 218.577 187.156 217.806 187.753 216.807C190.026 213.002 191.382 208.379 190.73 203.931C190.039 199.214 187.11 195.109 183.062 192.651C182.742 192.458 182.425 192.264 182.106 192.071C181.415 191.772 180.696 191.665 179.95 191.751C178.878 191.879 177.878 192.427 177.198 193.267C176.496 194.135 176.166 195.271 176.298 196.379C176.411 197.331 176.95 198.606 177.815 199.131Z" fill="white"/>
<path fill-rule="evenodd" clip-rule="evenodd" d="M76.7032 207.162C85.9467 227.719 89.6866 235.101 93.2633 243.008C96.8399 250.919 99.3249 255.555 107.736 250.897C115.116 246.808 112.769 242.82 107.911 235.228C103.054 227.632 97.5394 218.457 86.0701 202.277" fill="#B3DA4C"/>
<path fill-rule="evenodd" clip-rule="evenodd" d="M60.0788 160.939C22.8719 175.759 49.7761 228.83 85.022 206.999C113.996 189.055 87.9366 147.376 60.0788 160.939Z" fill="#B3DA4C"/>
<path fill-rule="evenodd" clip-rule="evenodd" d="M62.4647 166.939C34.5446 178.028 54.8629 218.048 81.296 201.678C103.02 188.225 83.3643 156.782 62.4647 166.939Z" fill="white"/>
<path d="M72.3873 170.356C70.8568 178.505 68.1906 186.375 65.8612 194.317C65.2763 196.311 64.7143 198.31 64.1938 200.321C63.8923 201.486 65.7031 201.941 66.005 200.773C68.0857 192.737 70.854 184.895 72.8704 176.841C73.3701 174.843 73.8188 172.833 74.199 170.809C74.2927 170.311 74.036 169.806 73.5199 169.677C73.0475 169.559 72.481 169.855 72.3873 170.356Z" fill="#989898"/>
<path d="M79.2159 175.093C77.6234 182.258 75.8733 189.391 73.8518 196.448C73.7119 196.936 74.0501 197.461 74.531 197.58C75.0367 197.706 75.5232 197.39 75.6631 196.901C77.6845 189.844 79.4347 182.711 81.0271 175.546C81.1375 175.051 80.8513 174.54 80.348 174.414C79.8647 174.294 79.3267 174.596 79.2159 175.093Z" fill="#989898"/>
<path d="M63.8709 173.265C62.4664 180.118 60.4607 186.803 58.3898 193.477C58.2394 193.963 58.5966 194.492 59.0689 194.609C59.5823 194.737 60.0501 194.416 60.201 193.93C62.2719 187.256 64.2776 180.571 65.6821 173.718C65.7839 173.221 65.5124 172.713 65.0029 172.586C64.5253 172.467 63.9731 172.767 63.8709 173.265Z" fill="#989898"/>
<path d="M92.1396 240.882C97.1671 238.936 101.951 236.408 106.519 233.557C106.951 233.288 107.118 232.73 106.856 232.281C106.605 231.851 106.011 231.675 105.579 231.944C101.152 234.708 96.5177 237.196 91.6454 239.082C91.1708 239.266 90.8478 239.702 90.9921 240.229C91.1165 240.682 91.665 241.066 92.1396 240.882Z" fill="#343434"/>
<path d="M94.4243 246.377C97.191 245.453 99.9166 244.391 102.509 243.049C105.01 241.753 107.356 240.184 109.635 238.534C110.047 238.237 110.247 237.729 109.972 237.258C109.735 236.851 109.107 236.623 108.695 236.922C106.469 238.532 104.183 240.058 101.751 241.34C99.2138 242.679 96.6608 243.665 93.9306 244.576C93.4481 244.737 93.1378 245.213 93.2772 245.723C93.4056 246.194 93.9418 246.538 94.4243 246.377Z" fill="#343434"/>
<path d="M39.4158 224.046C36.2876 220.921 33.1593 217.797 30.0714 214.633C28.6605 213.187 27.2588 211.731 25.873 210.261C24.7171 209.034 23.6646 207.683 22.1035 206.957C19.6944 205.837 16.9165 206.815 15.3123 208.804C14.5368 209.765 14.0701 211.004 14.0173 212.236C13.9554 213.681 14.4757 215.047 15.3361 216.191C15.9336 216.986 16.7016 217.67 17.3903 218.385C18.1439 219.168 18.8953 219.952 19.6452 220.738C21.0299 222.189 22.4086 223.646 23.7828 225.106C26.0983 227.565 28.4001 230.039 30.7125 232.501C33.8252 235.816 36.9181 239.245 40.4301 242.149C42.2802 243.679 44.5234 245.272 47.0466 245.08C49.3466 244.905 51.209 242.99 52.5641 241.301C53.8958 239.641 54.3971 237.601 53.799 235.539C53.4211 234.236 52.7686 233.059 52.0366 231.925C51.0871 230.454 49.9785 229.086 48.8428 227.757C45.252 223.554 41.306 219.648 37.4188 215.723C34.6292 212.907 31.8312 210.1 29.0409 207.285C26.0798 204.296 23.1931 201.142 19.8505 198.568C17.569 196.811 14.5998 195.099 11.621 195.945C10.1747 196.356 8.95387 197.309 7.81477 198.257C6.77025 199.126 5.78884 200.129 5.0996 201.308C4.42347 202.464 4.04723 203.771 4.10402 205.115C4.17482 206.777 4.77982 208.34 5.61292 209.767C6.59796 211.454 7.8787 212.965 9.11325 214.471C10.1147 215.693 11.1468 216.891 12.2084 218.061C15.0965 221.245 18.1943 224.235 21.2315 227.275C21.5275 227.571 21.9721 227.658 22.3144 227.372C22.6146 227.121 22.7067 226.586 22.4107 226.29C19.8438 223.72 17.2421 221.182 14.746 218.541C12.5058 216.172 10.4042 213.682 8.39715 211.114C7.30754 209.719 6.27604 208.133 5.8406 206.445C5.51254 205.175 5.56599 204.036 6.0244 202.883C6.25454 202.304 6.48805 201.928 6.89763 201.378C7.31508 200.818 7.65311 200.47 8.16746 199.992C8.69393 199.502 9.25772 199.054 9.83432 198.626C10.4169 198.193 10.8915 197.856 11.5703 197.576C12.6399 197.135 13.872 197.194 14.9934 197.552C16.4633 198.023 17.7262 198.877 18.9608 199.82C20.5065 201.001 21.9254 202.341 23.3142 203.699C24.9132 205.264 26.4733 206.868 28.0478 208.458C33.0215 213.476 38.0519 218.444 42.9298 223.556C44.5738 225.279 46.1985 227.023 47.7441 228.836C48.3562 229.554 48.954 230.284 49.5272 231.034C49.7799 231.364 50.0266 231.699 50.2666 232.038C50.3746 232.191 50.4811 232.344 50.5861 232.5C50.637 232.575 50.6873 232.65 50.7369 232.725C50.773 232.78 50.9622 233.074 50.8232 232.857C51.1812 233.416 51.5126 233.993 51.7996 234.593C51.925 234.855 52.0394 235.122 52.1425 235.393C52.1892 235.515 52.2324 235.639 52.2735 235.764C52.1783 235.475 52.3125 235.902 52.3376 235.995C52.4018 236.234 52.451 236.477 52.4877 236.721C52.5041 236.833 52.517 236.945 52.5264 237.058C52.5312 237.113 52.5346 237.169 52.538 237.224C52.5448 237.351 52.5293 237.002 52.5334 237.128C52.535 237.164 52.5352 237.201 52.5355 237.237C52.5385 237.461 52.5248 237.685 52.4974 237.907C52.4846 238.012 52.4669 238.116 52.4466 238.22C52.4067 238.426 52.4613 238.164 52.4533 238.2C52.4395 238.26 52.4238 238.32 52.4074 238.38C52.3479 238.595 52.2729 238.806 52.1857 239.012C52.1427 239.113 52.0963 239.212 52.0479 239.31C52.0166 239.374 51.9092 239.574 52.0516 239.308C52.0207 239.366 51.9878 239.424 51.955 239.481C51.6954 239.93 51.3795 240.341 51.0429 240.735C50.9366 240.859 50.8284 240.982 50.7196 241.105C50.6664 241.164 50.6132 241.222 50.5593 241.281C50.4577 241.392 50.6884 241.142 50.587 241.252C50.5517 241.289 50.5164 241.327 50.4811 241.364C50.2711 241.585 50.054 241.798 49.8299 242.005C49.6248 242.195 49.4113 242.376 49.1904 242.548C49.0911 242.625 48.9893 242.7 48.8862 242.772C48.8365 242.808 48.7855 242.842 48.7345 242.876C48.5484 243.001 48.8874 242.783 48.6984 242.899C48.4955 243.025 48.2847 243.138 48.0681 243.237C47.9681 243.283 47.8665 243.325 47.7643 243.363C47.714 243.382 47.6631 243.4 47.6122 243.418C47.4682 243.467 47.8277 243.354 47.5981 243.421C47.3877 243.482 47.1719 243.524 46.9548 243.552C46.8508 243.565 46.7458 243.574 46.6411 243.579C46.9824 243.562 46.5734 243.575 46.4765 243.571C46.2493 243.563 46.0232 243.535 45.7997 243.495C45.7443 243.484 45.689 243.473 45.6339 243.46C45.9406 243.527 45.7109 243.477 45.6396 243.459C45.5153 243.427 45.3928 243.39 45.2713 243.35C45.0221 243.269 44.7787 243.17 44.5403 243.062C44.4181 243.007 44.2968 242.948 44.1772 242.887C44.1467 242.871 44.1162 242.855 44.0849 242.839C43.9601 242.774 44.262 242.934 44.1374 242.867C44.0637 242.828 43.991 242.786 43.9189 242.745C42.6445 242.022 41.4981 241.078 40.4023 240.112C40.2413 239.969 40.0818 239.826 39.9223 239.681C39.8401 239.607 39.7584 239.532 39.6769 239.458C39.6512 239.434 39.51 239.303 39.6556 239.438C39.5998 239.387 39.544 239.335 39.4882 239.283C39.1232 238.942 38.7621 238.596 38.404 238.248C37.5971 237.463 36.8055 236.663 36.0207 235.856C31.5644 231.276 27.2639 226.545 22.8705 221.906C21.4117 220.367 19.9477 218.832 18.4767 217.304C17.7962 216.597 17.0526 215.921 16.4619 215.135C16.2674 214.876 16.1554 214.683 15.9974 214.366C15.8378 214.044 15.7485 213.783 15.6843 213.536C15.6103 213.252 15.5689 212.959 15.5471 212.667C15.5602 212.838 15.5456 212.605 15.5459 212.586C15.5446 212.515 15.5468 212.444 15.549 212.372C15.5538 212.208 15.5698 212.045 15.5913 211.881C15.6003 211.812 15.612 211.743 15.6243 211.675C15.6283 211.653 15.6762 211.427 15.6355 211.603C15.6671 211.467 15.7059 211.335 15.7483 211.202C15.7899 211.071 15.8403 210.942 15.892 210.814C15.9178 210.75 15.9463 210.688 15.9748 210.625C15.9868 210.599 16.115 210.346 16.0358 210.494C16.1651 210.252 16.3175 210.022 16.4816 209.802C16.7119 209.494 16.7434 209.468 16.9892 209.237C17.4617 208.791 17.742 208.616 18.2887 208.367C18.4118 208.311 18.5384 208.263 18.6661 208.217C18.8771 208.141 18.5193 208.259 18.7341 208.195C18.799 208.175 18.8652 208.158 18.9306 208.142C19.0628 208.109 19.1963 208.084 19.3303 208.062C19.3979 208.051 19.4654 208.042 19.5328 208.035C19.5644 208.03 19.8525 208.01 19.6683 208.018C19.9473 208.006 20.2263 208.025 20.5021 208.065C20.5728 208.074 20.6425 208.088 20.7122 208.101C20.9438 208.144 20.5615 208.061 20.7918 208.12C20.9589 208.162 21.1221 208.218 21.2835 208.278C21.8275 208.481 22.3681 208.831 22.8131 209.249C23.4767 209.871 24.0692 210.583 24.6925 211.245C27.5597 214.29 30.496 217.269 33.4452 220.234C35.0381 221.837 36.637 223.433 38.2353 225.03C38.5313 225.326 38.9759 225.413 39.3182 225.126C39.6196 224.878 39.7125 224.342 39.4158 224.046Z" fill="#8BD092"/>
<path d="M183.182 23.3731C180.696 26.4433 178.21 29.5136 175.685 32.5517C174.532 33.9399 173.368 35.3207 172.191 36.6888C171.208 37.8301 170.105 38.8909 169.605 40.3456C168.833 42.5906 169.961 44.9682 171.878 46.2089C172.804 46.8087 173.948 47.1083 175.048 47.0407C176.337 46.9615 177.503 46.3721 178.44 45.5012C179.091 44.8963 179.627 44.1503 180.199 43.4717C180.824 42.7293 181.451 41.9887 182.08 41.2493C183.24 39.884 184.407 38.5235 185.577 37.1666C187.547 34.8804 189.531 32.605 191.505 30.3212C194.161 27.2471 196.92 24.18 199.174 20.7892C200.362 19.0029 201.57 16.8614 201.164 14.6371C200.795 12.6095 198.92 11.1326 197.293 10.0853C195.694 9.05618 193.835 8.80035 192.059 9.5234C190.936 9.98038 189.95 10.6696 189.01 11.4255C187.791 12.4059 186.679 13.5182 185.603 14.651C182.202 18.2326 179.098 22.1021 175.972 25.9212C173.729 28.6619 171.494 31.4092 169.251 34.1504C166.871 37.0595 164.337 39.9178 162.36 43.1275C161.01 45.3182 159.765 48.1158 160.794 50.6843C161.293 51.9313 162.254 52.9276 163.202 53.8517C164.071 54.6991 165.054 55.478 166.165 55.981C167.255 56.4744 168.452 56.6872 169.641 56.5119C171.112 56.2944 172.444 55.6116 173.635 54.7386C175.042 53.7065 176.266 52.4279 177.49 51.1909C178.483 50.1874 179.451 49.1589 180.393 48.1067C182.953 45.2443 185.323 42.2136 187.742 39.2321C187.977 38.9416 188.013 38.5384 187.727 38.2609C187.476 38.0174 186.992 37.9852 186.756 38.2758C184.711 40.7957 182.697 43.3436 180.583 45.8071C178.686 48.018 176.669 50.117 174.573 52.1393C173.435 53.2371 172.121 54.3012 170.662 54.845C169.563 55.2546 168.547 55.3129 167.479 55.0127C166.943 54.8621 166.588 54.6895 166.061 54.3766C165.524 54.0578 165.184 53.7897 164.711 53.3771C164.227 52.9547 163.776 52.4954 163.342 52.0228C162.903 51.5454 162.56 51.1549 162.248 50.5778C161.756 49.6683 161.694 48.5679 161.909 47.538C162.191 46.188 162.831 44.9865 163.555 43.8017C164.461 42.3184 165.52 40.933 166.598 39.5726C167.839 38.0062 169.12 36.4708 170.386 34.9239C174.384 30.0376 178.331 25.1057 182.42 20.2959C183.798 18.6749 185.197 17.069 186.664 15.527C187.246 14.9164 187.839 14.3173 188.452 13.7383C188.721 13.4831 188.996 13.2327 189.275 12.9879C189.401 12.8777 189.528 12.7688 189.656 12.6611C189.718 12.6088 189.78 12.5571 189.842 12.5061C189.888 12.4689 190.131 12.2734 189.951 12.4172C190.415 12.047 190.897 11.6989 191.403 11.3881C191.624 11.2523 191.852 11.1258 192.083 11.0091C192.187 10.9561 192.293 10.9062 192.4 10.8582C192.152 10.9696 192.519 10.8106 192.599 10.7797C192.806 10.7005 193.017 10.6341 193.23 10.5789C193.328 10.5539 193.427 10.532 193.526 10.5131C193.575 10.5037 193.624 10.4955 193.673 10.4874C193.785 10.4696 193.476 10.5157 193.588 10.5004C193.62 10.4956 193.653 10.492 193.685 10.4884C193.883 10.465 194.083 10.4563 194.283 10.46C194.378 10.4617 194.472 10.4676 194.566 10.4761C194.753 10.4924 194.515 10.4682 194.548 10.472C194.603 10.4786 194.657 10.487 194.712 10.4961C194.909 10.5289 195.103 10.576 195.294 10.6343C195.388 10.6632 195.48 10.6951 195.572 10.729C195.631 10.7509 195.819 10.8278 195.57 10.7259C195.625 10.748 195.679 10.7719 195.732 10.7958C196.156 10.9847 196.55 11.2272 196.932 11.4897C197.052 11.5726 197.171 11.6573 197.29 11.7426C197.348 11.7844 197.404 11.8262 197.462 11.8686C197.57 11.9486 197.326 11.7668 197.433 11.8468C197.469 11.8747 197.506 11.9026 197.543 11.9305C197.758 12.0966 197.969 12.2696 198.173 12.4495C198.361 12.6142 198.542 12.787 198.715 12.9674C198.792 13.0485 198.869 13.132 198.943 13.2168C198.979 13.2577 199.014 13.2998 199.049 13.342C199.177 13.4958 198.952 13.2148 199.073 13.3719C199.204 13.5405 199.323 13.7174 199.432 13.9007C199.482 13.9852 199.528 14.0717 199.572 14.1588C199.594 14.2018 199.614 14.2454 199.635 14.289C199.691 14.4124 199.558 14.1034 199.638 14.3013C199.712 14.4826 199.77 14.6703 199.815 14.8607C199.836 14.9519 199.854 15.0444 199.868 15.1369C199.821 14.8352 199.871 15.1975 199.877 15.284C199.89 15.4866 199.887 15.6901 199.871 15.8925C199.867 15.9427 199.862 15.9929 199.856 16.043C199.887 15.7643 199.864 15.973 199.854 16.0381C199.838 16.1516 199.816 16.2638 199.792 16.3755C199.743 16.6044 199.678 16.8299 199.604 17.0518C199.566 17.1656 199.526 17.2788 199.482 17.3907C199.471 17.4194 199.46 17.448 199.448 17.4772C199.402 17.5942 199.516 17.311 199.468 17.428C199.44 17.4971 199.41 17.5656 199.38 17.6335C198.856 18.8332 198.123 19.9397 197.367 21.0032C197.255 21.1595 197.143 21.3146 197.029 21.4697C196.97 21.5498 196.912 21.6292 196.853 21.7087C196.834 21.7337 196.731 21.8713 196.838 21.7293C196.797 21.7837 196.756 21.8382 196.715 21.8926C196.446 22.2486 196.172 22.6016 195.896 22.9522C195.274 23.7422 194.636 24.52 193.992 25.2924C190.336 29.6781 186.532 33.9394 182.818 38.2746C181.586 39.7141 180.358 41.1577 179.137 42.6069C178.572 43.2773 178.04 44.001 177.396 44.599C177.184 44.7958 177.024 44.9133 176.756 45.0831C176.485 45.2549 176.261 45.3585 176.048 45.4385C175.802 45.5307 175.546 45.5946 175.288 45.6413C175.44 45.6136 175.233 45.6483 175.217 45.6498C175.154 45.6576 175.09 45.6622 175.027 45.6669C174.88 45.6778 174.733 45.6789 174.586 45.675C174.524 45.6734 174.461 45.6695 174.399 45.6648C174.38 45.6633 174.175 45.6417 174.335 45.6615C174.211 45.6461 174.09 45.6239 173.968 45.5985C173.848 45.5738 173.728 45.541 173.61 45.5069C173.551 45.4899 173.493 45.4704 173.434 45.4509C173.41 45.4426 173.173 45.3523 173.312 45.4089C173.085 45.3165 172.867 45.2024 172.656 45.077C172.361 44.901 172.335 44.8754 172.106 44.6786C171.666 44.3001 171.484 44.0673 171.213 43.6046C171.151 43.5004 171.097 43.3924 171.044 43.2831C170.957 43.1026 171.095 43.4097 171.018 43.2248C170.995 43.1689 170.974 43.1117 170.953 43.0551C170.911 42.9407 170.877 42.8244 170.844 42.7074C170.829 42.6483 170.815 42.5891 170.802 42.53C170.795 42.5022 170.75 42.2481 170.774 42.411C170.738 42.1642 170.729 41.9145 170.738 41.6658C170.74 41.6021 170.746 41.5389 170.751 41.4757C170.768 41.2658 170.729 41.6134 170.76 41.4033C170.782 41.2508 170.817 41.1006 170.855 40.9516C170.985 40.4493 171.246 39.9364 171.575 39.5021C172.067 38.8545 172.644 38.2619 173.175 37.6464C175.615 34.8156 177.988 31.9294 180.35 29.033C181.626 27.4686 182.896 25.8993 184.166 24.3306C184.401 24.0401 184.437 23.6369 184.151 23.3594C183.902 23.1146 183.418 23.0819 183.182 23.3731Z" fill="#EF4C41"/>
<path d="M101.344 145.704C103.217 145.704 104.779 144.141 104.779 142.269C104.779 140.396 103.216 138.833 101.344 138.833C99.4714 138.833 97.9082 140.396 97.9082 142.269C97.9082 144.141 99.4714 145.704 101.344 145.704Z" fill="#989898"/>
<path d="M77.9567 97.2069C76.3033 97.084 74.5848 97.4121 73.1797 98.3218C71.85 99.1823 70.9412 100.446 70.3655 101.906C69.2708 104.681 69.9201 108.005 71.8254 110.252C74.0441 112.87 78.0171 113.377 81.0473 112.045C83.8001 110.835 85.3601 107.791 85.4073 104.878C85.4375 102.977 84.7769 101.139 83.5529 99.6929C82.1675 98.057 80.0376 97.3242 77.9567 97.2069C77.2433 97.1672 76.6459 97.8348 76.6459 98.5203C76.6459 99.2664 77.2433 99.7931 77.9567 99.8338C78.1634 99.8451 78.3691 99.8631 78.5739 99.8867C78.2087 99.8442 78.8042 99.9321 78.9032 99.9529C79.2911 100.033 79.6714 100.151 80.0395 100.297C79.6714 100.151 80.1838 100.371 80.2735 100.417C80.4217 100.493 80.5651 100.579 80.7067 100.667C80.8444 100.753 80.9766 100.848 81.1068 100.946C80.7774 100.698 81.2417 101.075 81.3248 101.154C81.438 101.262 81.5447 101.375 81.6494 101.492C81.7013 101.55 81.7504 101.61 81.7995 101.67C81.9788 101.888 81.6164 101.423 81.7825 101.649C81.9797 101.917 82.1468 102.204 82.2959 102.5C82.3298 102.568 82.3619 102.638 82.3931 102.707C82.5091 102.963 82.2751 102.414 82.3789 102.675C82.4355 102.817 82.4837 102.962 82.5299 103.107C82.6299 103.424 82.7007 103.749 82.7526 104.077C82.797 104.358 82.713 103.748 82.746 104.032C82.7545 104.109 82.7611 104.185 82.7668 104.262C82.779 104.416 82.7838 104.57 82.7866 104.724C82.7923 105.059 82.7687 105.394 82.7281 105.727C82.7838 105.27 82.7073 105.805 82.6866 105.912C82.6564 106.064 82.6196 106.215 82.579 106.364C82.5393 106.513 82.4922 106.661 82.4431 106.807C82.4185 106.881 82.3912 106.953 82.3648 107.026C82.2364 107.369 82.4431 106.857 82.3497 107.069C82.226 107.353 82.0788 107.625 81.9184 107.888C81.8382 108.02 81.7504 108.147 81.6608 108.273C81.6136 108.34 81.439 108.558 81.6787 108.253C81.6145 108.335 81.5475 108.412 81.4796 108.491C81.2748 108.725 81.0483 108.94 80.8105 109.14C80.7482 109.192 80.5226 109.36 80.8293 109.129C80.7661 109.176 80.701 109.221 80.6368 109.267C80.4839 109.373 80.3235 109.468 80.1612 109.56C80.0196 109.639 79.8734 109.71 79.7252 109.777C79.4572 109.899 80.0093 109.664 79.7337 109.772C79.6554 109.802 79.577 109.829 79.4978 109.857C79.142 109.979 78.7721 110.06 78.4012 110.118C78.807 110.055 78.2143 110.128 78.1096 110.135C77.918 110.146 77.7264 110.146 77.5349 110.143C77.3357 110.14 77.1366 110.125 76.9384 110.107C76.8696 110.101 76.5364 110.054 76.9007 110.107C76.7761 110.089 76.6516 110.065 76.5279 110.04C76.174 109.97 75.8286 109.865 75.4908 109.739C75.2039 109.631 75.7626 109.861 75.4851 109.739C75.4077 109.705 75.3313 109.667 75.2549 109.629C75.0803 109.543 74.9114 109.445 74.7462 109.343C74.6075 109.256 74.4744 109.162 74.3432 109.065C74.6735 109.31 74.2517 108.978 74.1762 108.91C74.0582 108.804 73.9469 108.69 73.8384 108.575C73.761 108.492 73.3835 108.022 73.6383 108.357C73.4486 108.108 73.2825 107.841 73.1315 107.566C73.056 107.429 72.9881 107.288 72.923 107.146C72.8041 106.887 73.04 107.436 72.9324 107.171C72.8928 107.075 72.8578 106.977 72.8229 106.878C72.7182 106.583 72.6389 106.279 72.5738 105.972C72.5511 105.867 72.47 105.327 72.5304 105.781C72.5058 105.599 72.4917 105.416 72.4804 105.234C72.4615 104.921 72.4681 104.608 72.4889 104.296C72.4964 104.187 72.5662 103.648 72.5021 104.102C72.5276 103.922 72.5634 103.745 72.6021 103.567C72.6691 103.264 72.7606 102.968 72.8673 102.678C72.8965 102.6 73.0041 102.34 72.8494 102.705C72.8796 102.635 72.9116 102.565 72.9437 102.496C73.0192 102.333 73.1042 102.176 73.1929 102.02C73.3071 101.82 73.4363 101.63 73.5722 101.445C73.3222 101.784 73.5949 101.425 73.6572 101.353C73.7412 101.257 73.8308 101.164 73.9214 101.073C74.012 100.982 74.1083 100.896 74.2055 100.811C74.2451 100.777 74.2847 100.743 74.3253 100.71C74.5443 100.53 74.079 100.893 74.3083 100.725C74.5226 100.568 74.7519 100.431 74.9869 100.307C75.0831 100.256 75.1822 100.21 75.2813 100.166C74.9066 100.337 75.3464 100.145 75.4342 100.114C75.7078 100.016 75.991 99.9453 76.276 99.8877C76.3354 99.8763 76.3949 99.8659 76.4543 99.8555C76.7705 99.8007 76.1486 99.8895 76.4713 99.8517C76.6289 99.8328 76.7884 99.8234 76.9469 99.8148C77.2838 99.7978 77.6217 99.8101 77.9586 99.8347C78.672 99.8877 79.2694 99.1974 79.2694 98.5213C79.2666 97.7639 78.6683 97.2599 77.9567 97.2069Z" fill="#B3DA4C"/>
<path fill-rule="evenodd" clip-rule="evenodd" d="M119.493 55.9798C118.706 59.0706 116.024 59.2493 113.605 59.9524C114.96 61.8098 115.754 63.9428 115.43 66.3408C115.065 69.0653 111.122 69.4437 108.395 69.658C108.968 74.0569 107.614 78.528 103.715 79.4318C132.023 97.4954 177.406 122.77 216.848 146.92C224.987 140.179 231.761 128.896 233.038 118.077C213.181 106.252 145.125 65.9944 119.702 51.9931C119.898 53.2325 119.858 54.5404 119.493 55.9798Z" fill="#FFA446"/>
<path fill-rule="evenodd" clip-rule="evenodd" d="M114.569 67.2547C112.606 70.2417 110.697 70.7875 107.606 70.6643C136.193 88.0314 183.552 115.195 224.233 139.412C226.444 138.488 230.988 131.684 230.205 128.049C209.898 116.088 138.264 74.0212 114.351 60.4016C116.202 62.5921 116.36 64.532 114.569 67.2547Z" fill="#B3DA4C"/>
<path fill-rule="evenodd" clip-rule="evenodd" d="M103.714 79.1232C107.478 79.042 110.138 75.709 108.83 72.1606C108.281 70.6739 109.912 69.5516 111.203 69.7907C114.062 70.3192 118.081 66.3252 115.529 63.356C114.785 62.4903 114.745 60.8432 115.965 60.3106C119.14 58.927 121.627 55.8752 120.285 52.3111C118.959 51.581 117.743 50.9157 116.648 50.3231C109.594 48.8518 90.3092 46.7634 78.5365 46.0879C85.9152 57.6428 101.009 77.6927 101.009 77.6927C101.761 78.179 102.533 78.6746 103.313 79.1711C103.438 79.1443 103.571 79.1267 103.714 79.1232Z" fill="white"/>
<path fill-rule="evenodd" clip-rule="evenodd" d="M91.4893 46.8156C78.8617 44.7202 76.6052 43.7302 76.2938 44.7882C75.7781 45.6333 77.6805 47.1925 85.3786 56.7268C88.9583 55.0076 91.054 50.8895 91.4893 46.8156Z" fill="#343434"/>
<path d="M108.364 71.1521C115.475 75.6198 122.662 79.9677 129.856 84.3023C139.262 89.9701 148.698 95.5898 158.146 101.188C168.009 107.031 177.887 112.848 187.779 118.641C196.273 123.615 204.775 128.573 213.299 133.495C216.165 135.15 219.032 136.8 221.904 138.44C223.051 139.095 224.156 137.358 223.001 136.698C215.666 132.51 208.362 128.269 201.064 124.019C191.557 118.481 182.066 112.917 172.588 107.331C162.718 101.515 152.862 95.6762 143.026 89.8023C134.606 84.7731 126.198 79.7235 117.835 74.5989C115.035 72.8829 112.24 71.1583 109.46 69.4107C108.338 68.7052 107.238 70.4448 108.364 71.1521Z" fill="#343434"/>
<path d="M113.515 61.9428C121.09 66.3168 128.67 70.6815 136.247 75.0535C145.973 80.6654 155.694 86.2856 165.404 91.9251C175.426 97.7462 185.438 103.587 195.423 109.471C203.894 114.463 212.351 119.48 220.743 124.604C222.816 125.871 224.884 127.144 226.944 128.433C228.068 129.136 229.168 127.396 228.041 126.691C220.562 122.012 212.985 117.488 205.4 112.982C195.721 107.232 186.006 101.542 176.28 95.8726C166.28 90.0437 156.264 84.2408 146.242 78.4491C137.781 73.5597 129.315 68.6805 120.849 63.7993C118.77 62.6002 116.691 61.4017 114.613 60.201C113.466 59.54 112.362 61.2773 113.515 61.9428Z" fill="#343434"/>
<path d="M100.214 78.9946C102.439 80.4783 105.425 81.1626 107.793 79.5819C109.834 78.2197 110.918 75.7571 110.721 73.326C110.554 71.2618 109.612 69.3712 108.095 67.9601C107.659 68.4816 107.223 69.003 106.787 69.525C108.823 71.1155 111.577 72.1082 114.044 70.9017C116.015 69.9381 117.138 67.7416 117.156 65.6014C117.179 62.7397 115.35 60.2969 112.877 59.0044C112.593 59.6224 112.307 60.2399 112.023 60.858C114.671 61.8422 117.762 61.6863 119.962 59.7769C120.868 58.9904 121.541 57.8969 121.834 56.7343C122.168 55.4099 122.015 54.0796 121.539 52.8134C120.986 51.3406 119.886 50.1472 118.69 49.1645C118.256 48.8075 117.541 49.0588 117.271 49.4871C116.943 50.0057 117.16 50.5505 117.593 50.9064C117.849 51.1163 117.44 50.773 117.685 50.9861C117.758 51.0497 117.829 51.1154 117.901 51.1811C118.039 51.308 118.172 51.4414 118.302 51.5769C118.566 51.8512 118.809 52.1465 119.033 52.4546C119.2 52.6835 118.909 52.2685 119.064 52.5016C119.108 52.5692 119.151 52.6388 119.194 52.7079C119.277 52.8428 119.352 52.9826 119.426 53.1223C119.497 53.2582 119.56 53.398 119.621 53.5382C119.65 53.6066 119.678 53.6766 119.705 53.7465C119.744 53.8538 119.74 53.8389 119.691 53.7029C119.707 53.7487 119.722 53.795 119.736 53.8413C119.823 54.1106 119.884 54.3877 119.928 54.6672C119.939 54.7348 119.947 54.8034 119.955 54.8714C119.984 55.1093 119.942 54.6421 119.957 54.8799C119.968 55.0356 119.968 55.1919 119.964 55.3481C119.961 55.4796 119.949 55.6112 119.936 55.7418C119.929 55.807 119.92 55.8716 119.911 55.9362C119.879 56.1655 119.956 55.7059 119.911 55.9321C119.857 56.205 119.776 56.4724 119.677 56.7323C119.654 56.7921 119.629 56.8508 119.604 56.9099C119.514 57.1214 119.709 56.6928 119.608 56.8991C119.552 57.0135 119.489 57.125 119.425 57.2348C119.36 57.3452 119.29 57.4516 119.216 57.5569C119.163 57.6336 118.852 58.0139 119.078 57.7499C118.909 57.9473 118.722 58.1286 118.526 58.2986C118.427 58.3853 118.322 58.4656 118.217 58.5447C118.026 58.6871 118.425 58.4062 118.226 58.5394C118.152 58.589 118.076 58.6364 117.999 58.6822C117.765 58.8237 117.519 58.9436 117.267 59.0497C117.203 59.0772 117.138 59.1015 117.073 59.1268C117.34 59.0252 117.112 59.1123 117.058 59.1304C116.899 59.1824 116.736 59.2254 116.574 59.2641C116.285 59.3334 115.99 59.3771 115.694 59.4056C115.957 59.3798 115.696 59.4026 115.649 59.4052C115.571 59.409 115.493 59.4112 115.415 59.4124C115.229 59.416 115.042 59.4085 114.856 59.398C114.663 59.3866 114.471 59.3648 114.28 59.3398C114.247 59.3352 113.968 59.2895 114.203 59.3311C114.089 59.3107 113.975 59.2861 113.862 59.2616C113.444 59.1697 113.035 59.0404 112.635 58.8916C111.549 58.4888 110.742 60.2023 111.78 60.7452C112.079 60.9014 112.368 61.0708 112.648 61.2577C112.781 61.3461 112.909 61.4406 113.036 61.5365C113.098 61.5834 113.158 61.6323 113.219 61.6807C112.986 61.4928 113.252 61.7126 113.295 61.7513C113.512 61.9463 113.715 62.1575 113.905 62.378C113.997 62.4839 114.084 62.5943 114.168 62.7062C114.205 62.7556 114.346 62.9561 114.171 62.7027C114.223 62.7769 114.271 62.853 114.319 62.9297C114.459 63.1527 114.582 63.3869 114.692 63.6264C114.746 63.7432 114.794 63.8618 114.839 63.9819C114.921 64.1959 114.762 63.7534 114.834 63.9691C114.861 64.0484 114.884 64.1282 114.907 64.2089C114.975 64.4459 115.024 64.6873 115.061 64.9314C115.073 65.0106 115.111 65.4256 115.085 65.0892C115.095 65.2282 115.099 65.3674 115.099 65.5069C115.1 65.7419 115.082 65.9771 115.053 66.2102C115.045 66.2681 115.036 66.3254 115.027 66.3827C115.075 66.0759 115.044 66.2853 115.03 66.3508C115.004 66.4823 114.971 66.6119 114.935 66.7409C114.874 66.959 114.796 67.172 114.708 67.3809C114.625 67.5755 114.817 67.152 114.726 67.3425C114.701 67.3927 114.676 67.4424 114.65 67.4916C114.59 67.6064 114.525 67.7183 114.456 67.8284C114.398 67.9218 114.335 68.0123 114.27 68.1017C114.217 68.1748 113.962 68.4774 114.208 68.1901C114.054 68.3699 113.883 68.5341 113.703 68.6864C113.62 68.7566 113.533 68.8229 113.445 68.8866C113.75 68.6655 113.428 68.8905 113.35 68.9368C113.143 69.0591 112.924 69.1588 112.7 69.243C113.027 69.1199 112.707 69.2359 112.63 69.2581C112.538 69.2844 112.445 69.3058 112.351 69.3257C112.257 69.3461 112.16 69.3611 112.064 69.3751C112.006 69.3835 111.947 69.3892 111.888 69.3959C112.191 69.3646 111.975 69.3873 111.91 69.3907C111.702 69.4006 111.494 69.3927 111.287 69.3754C111.179 69.3669 111.071 69.352 110.964 69.3361C110.731 69.3019 111.193 69.3807 110.96 69.3344C110.892 69.3214 110.826 69.3052 110.759 69.2896C110.526 69.2344 110.298 69.1611 110.072 69.08C109.953 69.0374 109.835 68.989 109.719 68.9392C109.474 68.8357 109.918 69.0358 109.674 68.9203C109.602 68.8856 109.529 68.8487 109.457 68.8118C108.897 68.5252 108.375 68.169 107.881 67.7825C106.968 67.0691 105.727 68.5605 106.573 69.3474C106.82 69.5774 107.053 69.8187 107.272 70.0752C107.377 70.198 107.476 70.3252 107.573 70.4545C107.604 70.4941 107.759 70.7178 107.599 70.4861C107.658 70.5716 107.713 70.6596 107.769 70.7476C107.929 71.0046 108.07 71.2737 108.196 71.5496C108.257 71.6835 108.313 71.8203 108.365 71.958C108.456 72.1945 108.293 71.7423 108.373 71.9804C108.403 72.0709 108.43 72.1635 108.457 72.2554C108.535 72.527 108.592 72.8034 108.636 73.0828C108.647 73.1578 108.693 73.6046 108.668 73.3019C108.681 73.4609 108.686 73.6201 108.687 73.7796C108.689 74.0482 108.67 74.3164 108.639 74.5835C108.632 74.6498 108.622 74.7149 108.612 74.7811C108.577 75.0135 108.656 74.5523 108.611 74.7816C108.583 74.9313 108.546 75.0797 108.507 75.2274C108.44 75.4771 108.353 75.7208 108.256 75.9592C108.232 76.0184 108.205 76.0765 108.18 76.1351C108.303 75.8586 108.209 76.0657 108.181 76.1221C108.114 76.2538 108.042 76.3822 107.966 76.5078C107.837 76.7217 107.691 76.9253 107.535 77.1197C107.758 76.8424 107.485 77.1704 107.426 77.2327C107.327 77.3368 107.222 77.4348 107.115 77.5307C107.023 77.6125 106.927 77.689 106.829 77.7632C106.775 77.8053 106.589 77.9327 106.856 77.7487C106.806 77.7836 106.754 77.8164 106.701 77.8491C106.474 77.992 106.233 78.1111 105.986 78.2137C105.927 78.2383 105.714 78.313 106.002 78.2123C105.943 78.2332 105.883 78.2515 105.822 78.2702C105.701 78.3072 105.577 78.3372 105.452 78.3646C105.325 78.3924 105.197 78.4123 105.068 78.4295C105.01 78.4374 104.778 78.4572 105.067 78.4342C104.978 78.4417 104.888 78.4439 104.799 78.4466C104.519 78.4533 104.238 78.4322 103.962 78.395C103.912 78.3885 103.666 78.3432 103.932 78.3926C103.859 78.3787 103.786 78.3628 103.713 78.3464C103.536 78.3069 103.363 78.2565 103.19 78.2025C103.035 78.1541 102.883 78.0973 102.732 78.038C102.654 78.0077 102.576 77.9743 102.5 77.9409C102.393 77.8936 102.396 77.8953 102.508 77.9455C102.455 77.9205 102.402 77.8951 102.35 77.8686C101.988 77.6895 101.642 77.4792 101.307 77.2558C100.841 76.945 100.181 77.1133 99.8877 77.5783C99.5858 78.0587 99.7473 78.6839 100.214 78.9946Z" fill="#343434"/>
</svg>
