<svg width="540" height="693" viewBox="0 0 540 693" fill="none" xmlns="http://www.w3.org/2000/svg">
<path d="M311.612 131.331C293.308 102.815 262.055 85.459 228.052 86.1129C219.87 86.2725 211.788 88.1005 204.033 90.581C200.498 91.7129 197.131 93.3038 193.776 94.8724C191.792 95.8043 189.603 86.3577 189.002 84.995C182.322 69.8383 171.78 57.8753 158.177 48.5335C144.546 39.1683 128.053 34.6345 111.663 34.1021C100.968 33.7542 76.6026 35.2253 73.1244 47.2259C59.2621 95.0906 34.7478 139.59 14.835 185.07C14.3704 186.124 14.9557 187.649 16.3172 187.521C45.1496 184.829 72.3683 191.383 95.3884 209.275C103.184 215.329 121.242 230.347 121.149 240.978C121.113 245.396 125.785 248.62 129.171 250.322C133.368 252.423 137.944 251.611 141.738 249.293C152.961 242.427 169.397 243.429 182.008 245.062C207.541 248.364 230.202 263.377 247.924 281.306C248.638 282.021 250.082 281.908 250.526 280.923C272.433 232.311 291.796 182.461 311.639 132.979C312.422 131.028 309.539 129.405 308.753 131.382" fill="#DB6565"/>
<path fill-rule="evenodd" clip-rule="evenodd" d="M83.504 54.5624C126.054 33.3882 178.527 63.9631 187.644 106.011C225.895 84.947 275.811 101.315 296.923 135.618C296.923 135.618 257.463 234.823 243.494 265.647C217.667 238.817 173.559 221.352 134.482 236.946C116.816 202.685 76.7157 174.145 31.5105 179.212C48.5458 140.059 72.5465 93.4772 83.504 54.5624Z" fill="white"/>
<path d="M183.598 109.794C178.818 121.953 174.103 134.136 169.421 146.334C167.491 151.363 165.563 156.393 163.624 161.421C162.628 164.005 161.629 166.587 160.626 169.167C160.377 169.808 160.128 170.449 159.879 171.091C159.752 171.416 159.625 171.739 159.5 172.065C159.463 172.157 159.247 172.713 159.461 172.165C159.376 172.384 159.289 172.603 159.205 172.822C158.657 174.227 158.108 175.631 157.557 177.034C151.846 191.604 146.005 206.122 140.11 220.618C139.296 222.623 138.479 224.627 137.661 226.632C137.206 227.748 137.376 229.003 138.526 229.639C139.486 230.171 141.076 229.894 141.533 228.774C147.761 213.501 153.937 198.209 159.981 182.862C164.17 172.221 168.283 161.551 172.38 150.874C174.412 145.579 176.445 140.285 178.487 134.994C179.635 132.021 180.786 129.048 181.942 126.077C182.236 125.317 182.533 124.556 182.829 123.795C182.905 123.602 182.979 123.408 183.055 123.216C183.071 123.172 183.321 122.529 183.143 122.99C183.323 122.53 183.502 122.068 183.681 121.609C184.348 119.9 185.016 118.193 185.685 116.486C186.279 114.968 186.876 113.451 187.471 111.934C187.912 110.812 187.766 109.569 186.606 108.927C185.654 108.404 184.04 108.669 183.598 109.794Z" fill="#989898"/>
<path d="M96.9944 75.5626C97.4796 75.4523 97.9665 75.3521 98.4551 75.2619C98.7009 75.2158 98.9479 75.1741 99.1941 75.1337C99.3729 75.1034 99.8512 75.0385 99.0995 75.1469C99.2401 75.1264 99.3793 75.1051 99.5191 75.086C100.525 74.9453 101.536 74.842 102.55 74.7744C104.651 74.6352 106.76 74.6475 108.861 74.7849C109.395 74.82 109.926 74.8629 110.46 74.9122C110.593 74.9242 110.727 74.9383 110.86 74.9517C111.195 74.9842 110.588 74.9232 110.592 74.9234C110.659 74.9276 110.726 74.9375 110.793 74.9453C111.079 74.9779 111.365 75.0105 111.648 75.0473C112.751 75.1859 113.851 75.3572 114.945 75.5547C117.151 75.956 119.336 76.4692 121.494 77.0803C124.022 77.7959 126.51 78.6412 128.958 79.5945C128.773 79.5233 128.589 79.4508 128.405 79.3796C134.543 81.7794 140.421 84.8507 145.931 88.4649C147.47 89.4745 148.979 90.5299 150.457 91.6261C150.299 91.5075 150.14 91.3904 149.981 91.2718C155.161 95.1219 160.001 99.5054 164.059 104.537C164.196 104.708 164.332 104.879 164.468 105.051C163.95 104.399 164.391 104.954 164.515 105.115C164.777 105.457 165.035 105.8 165.289 106.148C165.768 106.802 166.232 107.468 166.68 108.146C167.317 109.11 168.68 109.591 169.712 108.917C170.676 108.287 171.164 106.914 170.483 105.884C167.589 101.506 164.053 97.5522 160.201 93.9978C155.933 90.0602 151.245 86.5551 146.325 83.4745C141.388 80.3833 136.173 77.7204 130.751 75.5893C125.358 73.4687 119.792 71.7915 114.052 70.9335C108.566 70.1124 103.028 69.9929 97.5536 70.9549C96.9567 71.0598 96.3606 71.1797 95.7697 71.3133C94.6382 71.5685 93.8906 72.9627 94.2553 74.0509C94.6557 75.2391 95.7867 75.8338 96.9944 75.5626Z" fill="#989898"/>
<path d="M90.9175 93.9846C93.3633 93.6572 95.8304 93.5183 98.2968 93.5319C99.5892 93.5387 100.88 93.5882 102.169 93.6733C102.845 93.7179 103.52 93.7723 104.194 93.8375C104.337 93.8513 104.48 93.8651 104.623 93.8804C105.205 93.9403 104.116 93.8236 104.698 93.8892C105.023 93.9248 105.346 93.9632 105.669 94.0038C111.23 94.6954 116.711 95.9997 122.026 97.7641C123.394 98.2182 124.752 98.704 126.098 99.2193C126.263 99.2832 126.869 99.5216 126.147 99.237C126.292 99.2937 126.439 99.3511 126.583 99.4092C126.947 99.5541 127.311 99.7005 127.673 99.8482C128.344 100.123 129.012 100.407 129.677 100.698C132.337 101.862 134.944 103.146 137.484 104.551C140.002 105.942 142.454 107.453 144.822 109.085C145.407 109.489 145.988 109.9 146.562 110.319C146.701 110.42 146.84 110.524 146.98 110.625C147.22 110.802 146.484 110.254 146.826 110.511C146.887 110.557 146.948 110.602 147.01 110.649C147.299 110.867 147.587 111.086 147.874 111.307C148.995 112.175 150.092 113.073 151.162 114.003C153.221 115.794 155.178 117.705 156.993 119.743C157.424 120.227 157.849 120.719 158.263 121.218C158.47 121.465 158.672 121.715 158.876 121.966C158.941 122.048 159.301 122.504 159.031 122.159C158.774 121.834 159.003 122.124 159.05 122.187C159.117 122.271 159.181 122.355 159.245 122.44C160.037 123.473 160.793 124.536 161.502 125.627C161.842 126.15 162.172 126.682 162.492 127.22C163.085 128.214 164.524 128.644 165.524 127.991C166.528 127.335 166.928 126.02 166.295 124.958C163.465 120.205 159.817 115.93 155.758 112.184C151.443 108.204 146.626 104.744 141.563 101.779C136.371 98.7396 130.877 96.2355 125.214 94.2042C119.847 92.2786 114.299 90.8225 108.659 89.9708C103.36 89.171 97.9498 88.838 92.6049 89.3547C92.0064 89.4132 91.4096 89.4817 90.8137 89.5617C90.2222 89.6404 89.7172 89.7834 89.2844 90.2267C88.9002 90.6185 88.6171 91.2684 88.6545 91.8261C88.7275 92.9151 89.6921 94.1496 90.9175 93.9846Z" fill="#989898"/>
<path d="M83.6971 112.143C84.038 112.09 83.0909 112.232 83.4344 112.184C83.4839 112.176 83.5334 112.169 83.5829 112.162C83.7078 112.144 83.8318 112.127 83.9573 112.111C84.2362 112.074 84.5141 112.042 84.7941 112.013C85.3427 111.956 85.8928 111.912 86.4425 111.88C87.5725 111.815 88.7047 111.799 89.8353 111.822C91.0521 111.847 92.2655 111.917 93.4768 112.025C93.763 112.05 94.0499 112.078 94.3361 112.107C94.7202 112.146 93.7455 112.042 94.1303 112.084C94.192 112.091 94.2523 112.097 94.3133 112.105C94.4972 112.125 94.6803 112.146 94.8639 112.169C95.5159 112.248 96.1675 112.337 96.8166 112.434C102.347 113.263 107.783 114.712 113.061 116.543C113.77 116.789 114.476 117.042 115.18 117.304C115.517 117.428 115.852 117.556 116.188 117.683C116.356 117.747 116.524 117.813 116.693 117.877C117.021 118.004 116.444 117.779 116.443 117.779C116.577 117.829 116.711 117.883 116.845 117.937C118.225 118.482 119.594 119.056 120.95 119.655C123.7 120.87 126.402 122.199 129.042 123.64C131.617 125.046 134.136 126.561 136.573 128.197C137.166 128.594 137.754 128.999 138.334 129.412C138.615 129.611 138.896 129.811 139.174 130.015C139.314 130.115 139.452 130.217 139.59 130.319C139.659 130.37 139.951 130.586 139.599 130.326C139.23 130.053 139.617 130.34 139.689 130.394C140.793 131.223 141.873 132.081 142.926 132.971C144.954 134.683 146.884 136.515 148.656 138.491C149.082 138.967 149.499 139.451 149.906 139.944C150.086 140.164 150.264 140.386 150.442 140.608C150.61 140.817 150.056 140.112 150.28 140.402C150.326 140.46 150.372 140.52 150.416 140.577C150.517 140.706 150.615 140.834 150.712 140.965C151.439 141.931 152.122 142.928 152.749 143.963C153.037 144.439 153.314 144.922 153.576 145.413C154.125 146.434 155.639 146.818 156.609 146.184C157.648 145.502 157.965 144.242 157.379 143.151C154.913 138.566 151.363 134.565 147.506 131.105C143.107 127.155 138.187 123.763 133.062 120.825C127.668 117.729 121.994 115.142 116.162 112.985C110.773 110.99 105.216 109.394 99.5511 108.409C94.6243 107.551 89.5209 107.062 84.5307 107.605C83.8409 107.681 83.1543 107.783 82.4682 107.892C81.9492 107.974 81.3842 108.512 81.1436 108.947C80.8807 109.422 80.7781 110.104 80.9537 110.629C81.1357 111.172 81.4806 111.691 82.0087 111.954C82.5761 112.231 83.0835 112.239 83.6971 112.143Z" fill="#989898"/>
<path d="M75.646 128.9C76.9013 128.908 78.1559 128.951 79.4077 129.024C80.0564 129.063 80.7062 129.109 81.3549 129.164C81.654 129.189 81.9537 129.217 82.2527 129.245C82.4033 129.26 82.5531 129.275 82.7037 129.289C82.7797 129.297 82.8535 129.305 82.9295 129.312C83.364 129.356 82.3773 129.251 82.8109 129.299C85.4552 129.597 88.085 130.003 90.6943 130.525C96.1886 131.624 101.589 133.188 106.839 135.144C107.15 135.26 107.462 135.377 107.773 135.497C107.928 135.555 108.084 135.616 108.238 135.676C108.585 135.809 108.056 135.604 108.035 135.596C108.152 135.641 108.267 135.686 108.383 135.732C109.042 135.993 109.698 136.259 110.351 136.533C111.679 137.087 112.996 137.669 114.3 138.275C116.883 139.477 119.421 140.78 121.898 142.189C124.362 143.59 126.767 145.094 129.097 146.707C129.663 147.098 130.225 147.498 130.783 147.903C130.914 147.999 131.044 148.093 131.175 148.189C131.239 148.238 131.303 148.286 131.37 148.334C130.823 147.936 131.103 148.135 131.233 148.232C131.506 148.436 131.779 148.644 132.05 148.852C133.139 149.689 134.209 150.552 135.255 151.446C137.281 153.174 139.217 155.01 141.031 156.959C141.934 157.927 142.805 158.925 143.643 159.951C143.828 160.179 143.999 160.443 144.204 160.651C144.196 160.643 143.843 160.189 144.057 160.464C144.103 160.522 144.148 160.581 144.194 160.64C144.308 160.786 144.421 160.934 144.534 161.082C144.912 161.583 145.283 162.09 145.643 162.605C146.001 163.114 146.348 163.63 146.688 164.151C147.319 165.121 148.694 165.594 149.721 164.922C150.69 164.288 151.165 162.927 150.491 161.89C147.542 157.355 143.914 153.265 139.904 149.645C135.628 145.786 130.911 142.396 125.972 139.442C121.01 136.473 115.791 133.935 110.414 131.815C104.968 129.667 99.3844 127.891 93.6637 126.628C88.3218 125.448 82.8589 124.691 77.3876 124.511C76.7745 124.491 76.1604 124.479 75.5466 124.476C74.3875 124.468 73.3083 125.574 73.3874 126.741C73.4646 127.967 74.4072 128.892 75.646 128.9Z" fill="#989898"/>
<path d="M69.5339 145.183C70.057 145.221 70.5793 145.264 71.1007 145.312C71.3678 145.336 71.6341 145.362 71.901 145.389C72.0281 145.403 72.1545 145.415 72.2816 145.429C72.5386 145.454 71.7407 145.37 71.9976 145.399C72.0778 145.409 72.1573 145.416 72.2375 145.426C73.3731 145.552 74.5063 145.698 75.6374 145.865C78.0405 146.217 80.433 146.654 82.8083 147.161C88.0132 148.277 93.1451 149.741 98.1578 151.533C98.8126 151.767 99.465 152.006 100.116 152.252C100.423 152.367 100.731 152.485 101.039 152.604C101.189 152.661 101.508 152.795 100.889 152.545C100.965 152.576 101.044 152.605 101.119 152.636C101.293 152.704 101.466 152.773 101.638 152.841C102.951 153.365 104.255 153.914 105.549 154.487C108.19 155.657 110.786 156.929 113.323 158.311C115.867 159.694 118.35 161.188 120.758 162.799C121.362 163.202 121.96 163.613 122.552 164.031C122.849 164.241 123.144 164.452 123.438 164.665C123.575 164.765 123.714 164.866 123.851 164.967C123.92 165.017 123.988 165.068 124.058 165.119C124.248 165.259 123.584 164.766 123.994 165.071C125.156 165.942 126.297 166.842 127.411 167.773C129.655 169.65 131.792 171.653 133.794 173.788C134.788 174.847 135.749 175.94 136.672 177.062C136.89 177.326 137.105 177.593 137.317 177.861C137.371 177.929 137.423 177.996 137.477 178.062C137.094 177.596 137.277 177.808 137.36 177.914C137.492 178.084 137.623 178.252 137.753 178.422C138.195 179.002 138.627 179.59 139.048 180.185C139.469 180.783 139.881 181.387 140.282 181.999C140.916 182.965 142.284 183.443 143.314 182.77C144.281 182.137 144.762 180.771 144.085 179.737C140.765 174.675 136.728 170.087 132.202 166.071C127.669 162.047 122.667 158.539 117.411 155.524C112.25 152.563 106.829 150.094 101.267 147.989C96.1551 146.054 90.9099 144.468 85.5841 143.243C80.7781 142.137 75.9066 141.337 70.9949 140.887C70.4735 140.838 69.9512 140.795 69.428 140.757C68.907 140.718 68.2502 141.063 67.8987 141.422C67.5145 141.814 67.2314 142.464 67.2688 143.021C67.3569 144.314 68.2956 145.091 69.5339 145.183Z" fill="#989898"/>
<path d="M63.3757 162.586C64.6745 162.68 65.9723 162.796 67.2672 162.933C67.0762 162.913 66.8874 162.892 66.6964 162.872C72.4874 163.491 78.2346 164.58 83.7963 166.32C85.4271 166.831 87.0406 167.396 88.634 168.017C88.4495 167.946 88.2657 167.873 88.0811 167.802C92.6688 169.596 97.0689 171.853 101.193 174.546C102.444 175.363 103.667 176.219 104.866 177.108C104.708 176.989 104.549 176.872 104.391 176.753C107.289 178.912 110.031 181.277 112.61 183.809C113.385 184.571 114.146 185.347 114.891 186.136C115.686 186.976 117.245 186.968 118.02 186.101C118.845 185.177 118.837 183.873 117.985 182.972C114.909 179.721 111.591 176.697 108.023 173.995C104.644 171.434 101.094 169.122 97.3336 167.159C93.7921 165.311 90.0911 163.764 86.3044 162.494C82.8447 161.334 79.3024 160.428 75.7195 159.744C72.0347 159.04 68.305 158.575 64.5668 158.264C64.1355 158.228 63.7041 158.195 63.2719 158.163C62.7501 158.126 62.0949 158.468 61.7426 158.828C61.3584 159.22 61.0753 159.87 61.1127 160.428C61.1507 160.988 61.3467 161.571 61.7777 161.957C62.2445 162.374 62.753 162.54 63.3757 162.586Z" fill="#989898"/>
<path d="M200.325 122.893C201.704 122.52 203.097 122.202 204.502 121.94C204.841 121.876 205.18 121.816 205.519 121.76C205.69 121.73 205.86 121.703 206.031 121.677C206.108 121.665 206.465 121.609 206.059 121.672C205.631 121.738 206.108 121.667 206.191 121.654C206.915 121.549 207.644 121.457 208.372 121.377C211.323 121.058 214.296 120.953 217.262 121.027C218.804 121.066 220.345 121.154 221.881 121.286C222.251 121.318 222.62 121.353 222.988 121.391C223.081 121.4 223.173 121.409 223.266 121.419C223.554 121.449 222.672 121.354 223.084 121.4C223.306 121.425 223.528 121.449 223.75 121.475C224.531 121.567 225.31 121.67 226.087 121.785C229.203 122.244 232.295 122.878 235.343 123.67C238.849 124.581 242.298 125.705 245.674 127.021C245.489 126.949 245.305 126.877 245.121 126.806C250.789 129.022 256.25 131.783 261.357 135.096C262.791 136.025 264.194 137 265.567 138.016C265.409 137.898 265.25 137.781 265.091 137.662C268.082 139.884 270.916 142.313 273.537 144.961C274.351 145.783 275.878 145.806 276.665 144.926C277.475 144.019 277.501 142.677 276.63 141.797C272.724 137.85 268.338 134.381 263.691 131.348C259.049 128.317 254.108 125.743 248.985 123.624C243.735 121.453 238.314 119.705 232.757 118.504C227.371 117.342 221.852 116.663 216.339 116.584C211.15 116.511 205.928 117.007 200.87 118.192C200.278 118.331 199.687 118.481 199.1 118.64C197.982 118.944 197.21 120.256 197.586 121.378C197.973 122.531 199.131 123.218 200.325 122.893Z" fill="#989898"/>
<path d="M193.804 141.071C196.517 140.894 199.242 140.898 201.958 141.02C203.447 141.087 204.935 141.191 206.419 141.325C206.793 141.359 207.167 141.395 207.541 141.433C207.712 141.449 207.883 141.469 208.054 141.485C207.253 141.404 208.006 141.481 208.206 141.504C209.008 141.594 209.808 141.691 210.608 141.799C217.195 142.673 223.716 144.065 230.1 145.905C233.778 146.966 237.414 148.184 240.982 149.573C240.797 149.502 240.613 149.429 240.429 149.358C245.823 151.465 251.094 153.958 255.993 157.058C257.288 157.876 258.552 158.739 259.783 159.651C259.624 159.533 259.465 159.416 259.307 159.297C261.944 161.259 264.422 163.45 266.55 165.962C266.9 166.376 267.627 166.605 268.149 166.592C268.681 166.578 269.319 166.33 269.679 165.927C270.54 164.963 270.447 163.745 269.644 162.798C266.447 159.023 262.463 155.942 258.306 153.295C253.707 150.366 248.773 147.974 243.719 145.941C238.225 143.73 232.586 141.898 226.845 140.442C221.449 139.074 215.966 138.02 210.439 137.343C205.43 136.729 200.37 136.365 195.322 136.563C194.781 136.584 194.24 136.613 193.698 136.648C192.544 136.723 191.457 137.685 191.539 138.912C191.616 140.067 192.568 141.152 193.804 141.071Z" fill="#989898"/>
<path d="M185.784 159.762C187.931 159.431 190.104 159.299 192.275 159.291C193.445 159.287 194.615 159.32 195.783 159.384C196.407 159.418 197.031 159.461 197.655 159.511C197.972 159.537 198.29 159.564 198.608 159.594C198.752 159.608 198.897 159.623 199.04 159.637C199.221 159.655 199.916 159.735 199.098 159.641C204.624 160.271 210.074 161.39 215.418 162.933C218.616 163.855 221.77 164.927 224.871 166.135C224.687 166.063 224.503 165.991 224.319 165.92C230.219 168.226 235.942 171.031 241.279 174.45C242.742 175.387 244.173 176.371 245.569 177.404C245.411 177.285 245.252 177.168 245.093 177.05C248.689 179.722 252.055 182.73 254.937 186.165C255.13 186.396 255.321 186.629 255.51 186.863C255.603 186.978 255.71 187.091 255.791 187.215C255.793 187.22 255.417 186.735 255.621 186.999C255.672 187.065 255.723 187.13 255.772 187.195C256.144 187.679 256.505 188.171 256.856 188.669C257.203 189.161 257.637 189.543 258.24 189.689C258.757 189.813 259.436 189.735 259.889 189.44C260.828 188.825 261.37 187.417 260.659 186.407C257.496 181.91 253.57 178.02 249.223 174.669C244.541 171.059 239.476 167.993 234.161 165.408C228.776 162.789 223.15 160.624 217.413 158.912C212.181 157.351 206.826 156.159 201.405 155.487C196.681 154.9 191.871 154.609 187.128 155.146C186.645 155.201 186.163 155.265 185.681 155.339C185.084 155.432 184.593 155.553 184.152 156.004C183.768 156.396 183.485 157.046 183.522 157.604C183.56 158.164 183.756 158.747 184.187 159.133C184.595 159.497 185.212 159.85 185.784 159.762Z" fill="#989898"/>
<path d="M180.255 178.102C183.352 177.798 186.472 177.776 189.576 177.976C190.479 178.035 191.38 178.114 192.281 178.208C192.09 178.187 191.901 178.167 191.71 178.147C194.399 178.433 197.07 178.873 199.712 179.451C202.396 180.039 205.05 180.764 207.661 181.618C209.124 182.096 210.575 182.617 212.008 183.175C211.824 183.104 211.64 183.031 211.455 182.96C216.291 184.845 220.966 187.167 225.327 189.986C226.474 190.727 227.597 191.504 228.694 192.318C228.536 192.199 228.376 192.082 228.218 191.964C228.548 192.21 228.876 192.459 229.202 192.712C229.689 193.089 230.161 193.357 230.802 193.342C231.333 193.328 231.971 193.08 232.331 192.677C232.718 192.245 233 191.674 232.961 191.077C232.925 190.541 232.741 189.893 232.296 189.548C229.506 187.384 226.561 185.438 223.476 183.72C220.366 181.989 217.135 180.479 213.822 179.178C210.281 177.787 206.672 176.591 202.979 175.671C199.319 174.761 195.606 174.131 191.854 173.752C188.384 173.401 184.881 173.313 181.4 173.57C180.982 173.601 180.565 173.638 180.148 173.678C179.566 173.736 179.037 173.916 178.618 174.343C178.234 174.735 177.951 175.385 177.988 175.943C178.026 176.503 178.222 177.086 178.653 177.472C179.081 177.851 179.666 178.16 180.255 178.102Z" fill="#989898"/>
<path d="M171.35 196.298C174.993 196.096 178.649 196.264 182.276 196.648C182.085 196.628 181.896 196.607 181.705 196.587C185.241 196.967 188.754 197.557 192.228 198.32C195.897 199.124 199.527 200.116 203.097 201.279C205.138 201.944 207.159 202.667 209.159 203.446C208.974 203.375 208.791 203.302 208.606 203.231C214.448 205.511 220.127 208.264 225.42 211.64C226.848 212.55 228.244 213.508 229.605 214.516C229.447 214.397 229.287 214.28 229.129 214.161C231.724 216.088 234.189 218.202 236.406 220.557C237.009 221.196 237.591 221.854 238.154 222.529C238.499 222.944 239.235 223.171 239.753 223.159C240.285 223.145 240.923 222.897 241.282 222.494C241.669 222.062 241.952 221.491 241.912 220.894C241.871 220.287 241.636 219.831 241.247 219.365C238.161 215.661 234.452 212.54 230.527 209.761C226.356 206.807 221.874 204.303 217.247 202.14C212.304 199.828 207.179 197.883 201.959 196.295C197.054 194.803 192.045 193.625 186.977 192.842C182.291 192.118 177.527 191.684 172.782 191.813C172.27 191.827 171.758 191.849 171.247 191.876C170.092 191.94 169.006 192.923 169.088 194.14C169.165 195.302 170.114 196.366 171.35 196.298Z" fill="#989898"/>
<path d="M166.365 212.623C169.06 212.333 171.775 212.301 174.479 212.474C175.267 212.524 176.056 212.593 176.841 212.676C176.65 212.656 176.462 212.635 176.271 212.615C179.039 212.913 181.785 213.401 184.496 214.04C187.254 214.688 189.975 215.485 192.657 216.395C194.189 216.915 195.708 217.472 197.217 218.059C197.032 217.987 196.849 217.915 196.664 217.844C199.197 218.832 201.697 219.907 204.167 221.051C206.577 222.168 208.957 223.35 211.309 224.584C212.598 225.258 213.879 225.951 215.152 226.655C215.648 226.929 216.289 227.001 216.834 226.845C217.356 226.694 217.913 226.283 218.159 225.79C218.691 224.715 218.38 223.383 217.294 222.782C214.34 221.148 211.345 219.586 208.303 218.122C204.972 216.519 201.584 215.051 198.138 213.711C194.854 212.435 191.51 211.306 188.106 210.386C184.765 209.485 181.366 208.786 177.928 208.382C174.453 207.974 170.955 207.807 167.464 208.086C167.062 208.118 166.662 208.156 166.262 208.198C165.679 208.262 165.156 208.431 164.733 208.863C164.349 209.255 164.066 209.905 164.103 210.463C164.141 211.023 164.337 211.606 164.768 211.992C165.189 212.37 165.779 212.686 166.365 212.623Z" fill="#989898"/>
<path d="M66.4584 362.57C74.995 384.174 83.5409 405.781 92.0806 427.389C92.7781 429.147 94.6171 429.753 96.3234 429.236C139.025 416.275 180.339 396.087 221.372 378.651C223.025 377.951 223.874 376.108 223.218 374.406C214.814 352.617 205.694 331.074 195.903 309.872C195.143 308.244 193.391 307.353 191.66 308.026C150.243 324.06 109.575 341.946 68.303 358.324" fill="#638CD7"/>
<path d="M109.949 354.543C109.709 343.26 109.172 331.951 107.687 320.754C107.141 316.634 106.46 312.517 105.423 308.489C104.655 305.504 103.703 302.464 102.182 299.767C101.59 298.717 100.887 297.686 100.036 296.828C98.6441 295.424 96.9498 294.283 95.2084 293.357C93.3064 292.346 91.2975 291.542 89.2915 290.762C88.3404 290.393 87.3868 290.032 86.4375 289.657C85.9727 289.474 85.5081 289.287 85.0457 289.097C84.9269 289.047 84.7933 288.97 84.6685 288.939C85.1113 289.045 84.9574 289.064 84.8061 288.998C84.5146 288.873 84.2239 288.746 83.9342 288.614C82.0876 287.777 80.2907 286.809 78.6748 285.577C78.6392 285.549 78.6028 285.522 78.5671 285.494C78.3851 285.351 78.4251 285.384 78.6867 285.59C78.6669 285.546 78.5013 285.438 78.4765 285.418C78.2678 285.243 78.0614 285.065 77.8614 284.882C77.472 284.528 77.0988 284.155 76.745 283.764C76.4173 283.402 76.142 282.975 75.8025 282.628C76.1764 283.012 75.8693 282.718 75.7851 282.598C75.7022 282.479 75.6201 282.359 75.54 282.238C75.3775 281.992 75.2214 281.741 75.0722 281.487C74.7889 281.003 74.5301 280.505 74.295 279.996C74.1832 279.755 74.0804 279.511 73.9783 279.266C74.1775 279.741 73.9673 279.232 73.9373 279.153C73.8609 278.944 73.7865 278.734 73.717 278.522C73.5247 277.941 73.3586 277.351 73.2164 276.755C73.1378 276.426 73.0654 276.096 73.0004 275.765C72.9647 275.578 72.929 275.391 72.8974 275.203C72.8889 275.153 72.8264 274.544 72.8567 274.993C72.7729 273.761 72.7763 272.532 72.9021 271.303C72.917 271.151 72.9197 270.982 72.9552 270.834C72.9409 270.894 72.8868 271.282 72.9463 270.902C72.9954 270.593 73.0457 270.285 73.1053 269.978C73.2198 269.394 73.3582 268.814 73.5203 268.241C73.6673 267.719 73.8353 267.204 74.0191 266.694C74.1253 266.403 74.2401 266.115 74.3535 265.827C74.5411 265.349 74.2106 266.142 74.3464 265.842C74.4214 265.677 74.4918 265.512 74.5681 265.348C75.0693 264.264 75.6491 263.219 76.2927 262.213C76.5894 261.751 76.8981 261.297 77.2198 260.852C77.3886 260.617 77.5605 260.386 77.7362 260.158C77.7681 260.115 77.8 260.073 77.8325 260.033C77.9791 259.845 77.962 259.868 77.7794 260.099C77.8617 260.058 78.0177 259.803 78.0781 259.731C78.8521 258.79 79.6767 257.893 80.544 257.039C81.3955 256.2 82.2877 255.401 83.2121 254.641C83.6428 254.288 84.0797 253.943 84.5233 253.606C84.5966 253.55 85.0269 253.221 84.5981 253.548C84.7246 253.452 84.8535 253.361 84.9831 253.269C85.2404 253.085 85.4981 252.903 85.7597 252.723C87.6646 251.416 89.67 250.253 91.7506 249.252C92.2379 249.018 92.7274 248.792 93.2228 248.577C93.465 248.472 93.7098 248.367 93.9544 248.267C94.0652 248.221 94.1753 248.176 94.2854 248.132C94.484 248.053 94.4619 248.06 94.2189 248.159C94.3282 248.115 94.4368 248.073 94.5474 248.031C95.7367 247.572 96.9415 247.148 98.1597 246.772C99.3058 246.418 100.467 246.106 101.638 245.85C102.187 245.731 102.738 245.624 103.292 245.53C103.539 245.488 103.786 245.45 104.034 245.414C104.179 245.394 104.33 245.359 104.476 245.354C103.903 245.379 104.563 245.346 104.678 245.333C105.721 245.224 106.77 245.171 107.818 245.188C108.327 245.197 108.834 245.22 109.342 245.262C109.592 245.283 109.843 245.311 110.092 245.337C110.412 245.37 110.243 245.233 110.031 245.325C110.134 245.281 110.457 245.389 110.569 245.409C111.547 245.574 112.512 245.81 113.453 246.118C113.71 246.203 113.965 246.293 114.219 246.388C114.391 246.453 114.664 246.629 114.85 246.638C114.762 246.601 114.674 246.564 114.586 246.527C114.67 246.563 114.754 246.6 114.837 246.637C114.962 246.694 115.086 246.752 115.21 246.81C115.459 246.928 115.706 247.053 115.95 247.182C116.913 247.692 117.832 248.282 118.702 248.938C118.78 248.996 118.858 249.056 118.935 249.116C119.344 249.428 118.564 248.803 118.96 249.138C119.17 249.315 119.384 249.49 119.591 249.67C120.037 250.061 120.469 250.468 120.887 250.889C121.304 251.308 121.708 251.742 122.096 252.186C122.205 252.31 122.309 252.441 122.421 252.564C122.779 252.954 122.289 252.358 122.49 252.639C122.72 252.962 122.951 253.284 123.172 253.614C123.84 254.608 124.45 255.642 124.966 256.724C125.093 256.989 125.214 257.256 125.327 257.526C125.391 257.675 125.622 257.978 125.345 257.555C125.386 257.62 125.419 257.748 125.444 257.815C125.629 258.313 125.791 258.82 125.926 259.335C126.044 259.778 126.141 260.226 126.217 260.677C126.245 260.841 126.294 261.516 126.254 260.861C126.27 261.134 126.311 261.405 126.327 261.678C126.379 262.505 126.359 263.336 126.28 264.16C126.259 264.38 126.225 264.599 126.204 264.82C126.206 264.802 126.285 264.284 126.231 264.613C126.214 264.721 126.198 264.83 126.179 264.939C126.107 265.372 126.02 265.804 125.925 266.232C125.177 269.569 123.878 272.759 123.372 276.155C123.209 277.241 123.142 278.315 123.053 279.406C123.038 279.587 123.01 279.767 122.993 279.948C123.059 279.212 122.995 279.904 122.961 280.085C122.907 280.379 122.841 280.672 122.759 280.96C122.692 281.197 122.614 281.432 122.526 281.662C122.504 281.719 122.48 281.775 122.459 281.83C122.351 282.118 122.716 281.254 122.588 281.528C122.542 281.626 122.499 281.726 122.452 281.824C122.218 282.323 121.973 282.815 121.775 283.329C121.357 284.41 121.303 285.616 121.407 286.76C121.502 287.803 121.669 288.84 121.879 289.864C122.153 291.199 122.408 292.588 122.984 293.828C123.831 295.651 125.143 297.275 126.441 298.794C127.885 300.485 129.441 302.077 130.994 303.667C132.467 305.175 133.959 306.672 135.332 308.273C135.6 308.586 135.864 308.905 136.118 309.229C136.186 309.317 136.252 309.405 136.321 309.493C136.574 309.821 136.015 309.073 136.252 309.402C136.564 309.834 136.917 310.216 137.273 310.612C138.326 311.784 139.374 312.963 140.417 314.144C144.353 318.612 148.218 323.142 152.18 327.588C154.133 329.78 156.11 331.949 158.124 334.085C158.871 334.877 160.301 334.95 161.069 334.14C161.853 333.315 161.925 332.043 161.124 331.195C156.944 326.764 152.936 322.179 148.941 317.583C146.97 315.316 145.001 313.048 143.014 310.796C142.516 310.233 142.018 309.671 141.517 309.11C140.974 308.501 140.455 307.809 139.854 307.256C139.383 306.821 140.096 307.417 139.77 307.208C139.673 307.147 139.444 306.765 139.32 306.601C139.207 306.453 139.092 306.306 138.977 306.159C138.676 305.782 138.364 305.414 138.046 305.051C135.161 301.761 131.88 298.837 129.079 295.47C128.76 295.088 128.449 294.699 128.148 294.303C128.03 294.147 127.946 293.853 128.158 294.319C128.11 294.212 128.003 294.103 127.935 294.007C127.792 293.804 127.653 293.6 127.519 293.391C127.287 293.034 127.068 292.667 126.869 292.291C126.785 292.131 126.703 291.969 126.628 291.804C126.584 291.711 126.535 291.615 126.5 291.518C126.429 291.355 126.451 291.389 126.568 291.621C126.534 291.489 126.501 291.358 126.468 291.227C126.168 290.026 125.887 288.815 125.685 287.594C125.653 287.395 125.625 287.195 125.595 286.996C125.532 286.577 125.641 287.494 125.605 287.088C125.596 286.986 125.583 286.884 125.575 286.784C125.544 286.45 125.525 286.115 125.528 285.778C125.53 285.533 125.57 285.289 125.573 285.046C125.566 285.787 125.518 285.406 125.568 285.169C125.591 285.063 125.617 284.957 125.648 284.852C125.7 284.674 125.776 284.506 125.834 284.332C125.541 285.216 125.766 284.509 125.883 284.268C126.407 283.184 126.84 282.097 127.031 280.905C127.197 279.873 127.225 278.846 127.329 277.81C127.349 277.605 127.375 277.403 127.399 277.199C127.451 276.754 127.322 277.692 127.392 277.251C127.407 277.152 127.423 277.052 127.439 276.952C127.512 276.502 127.597 276.053 127.692 275.607C128.06 273.89 128.582 272.213 129.082 270.532C130.144 266.962 130.882 263.375 130.252 259.649C129.44 254.85 126.484 250.316 122.931 247.089C119.405 243.886 115.184 241.835 110.457 241.218C105.852 240.616 101.124 241.468 96.7351 242.863C87.3025 245.862 78.2612 251.532 72.7989 259.962C70.0821 264.155 68.4562 269.129 68.6464 274.156C68.8384 279.232 71.1728 284.462 74.9637 287.867C78.2802 290.847 82.3793 292.541 86.4862 294.126C87.4551 294.5 88.4249 294.869 89.3902 295.255C89.6391 295.356 89.8881 295.456 90.1362 295.558C90.2184 295.593 90.3014 295.626 90.3823 295.66C90.8264 295.844 89.9194 295.459 90.3589 295.65C90.8439 295.861 91.3262 296.074 91.8033 296.301C92.6999 296.726 93.5797 297.189 94.4251 297.709C94.8224 297.953 95.2113 298.212 95.5905 298.484C95.758 298.604 95.9213 298.755 96.0977 298.863C95.5844 298.55 95.9234 298.725 96.0541 298.834C96.1843 298.94 96.3121 299.051 96.4379 299.162C96.8717 299.545 97.277 299.949 97.6414 300.399C97.7266 300.505 97.8043 300.621 97.893 300.724C97.3878 300.139 97.7037 300.467 97.8201 300.635C97.99 300.881 98.1503 301.131 98.3041 301.386C98.6273 301.923 98.9195 302.48 99.1881 303.047C99.3282 303.343 99.4622 303.64 99.5905 303.941C99.6579 304.098 99.722 304.254 99.7874 304.412C99.8481 304.559 99.907 304.815 99.7134 304.225C99.7531 304.346 99.8064 304.465 99.8523 304.584C101.112 307.901 101.909 311.391 102.562 314.87C102.973 317.063 103.315 319.268 103.613 321.479C103.689 322.047 103.766 322.616 103.834 323.188C103.772 322.657 103.871 323.505 103.885 323.61C103.929 323.985 103.973 324.362 104.015 324.737C104.153 325.957 104.278 327.177 104.395 328.398C104.937 334.078 105.278 339.775 105.51 345.475C105.632 348.488 105.722 351.503 105.786 354.518C105.809 355.606 106.709 356.656 107.855 356.614C108.955 356.572 109.975 355.709 109.949 354.543Z" fill="#343434"/>
<path d="M83.5076 378.516C85.3878 377.768 87.2673 377.02 89.1481 376.274C89.3578 376.191 89.5674 376.108 89.7778 376.023C90.0927 375.898 89.3239 376.204 89.8325 376.002C89.937 375.961 90.0422 375.919 90.1466 375.878C90.6165 375.691 91.0864 375.504 91.5568 375.319C92.466 374.959 93.3752 374.598 94.2844 374.238C97.8915 372.809 101.499 371.381 105.105 369.951C112.261 367.113 119.414 364.267 126.549 361.379C133.616 358.519 140.665 355.618 147.687 352.654C155.068 349.537 162.419 346.349 169.734 343.081C177.641 339.547 185.508 335.919 193.331 332.203C194.363 331.713 195.394 331.221 196.423 330.728C197.408 330.257 197.797 328.816 197.234 327.896C196.615 326.886 195.454 326.583 194.403 327.086C186.466 330.883 178.488 334.593 170.466 338.203C163.126 341.507 155.748 344.73 148.34 347.878C141.3 350.87 134.229 353.795 127.142 356.675C120.109 359.533 113.06 362.347 106.004 365.148C105.801 365.228 105.6 365.308 105.398 365.388C105.297 365.428 105.195 365.469 105.095 365.508C105.519 365.34 105.165 365.481 105.059 365.522C104.603 365.703 104.147 365.883 103.691 366.064C102.803 366.416 101.914 366.769 101.025 367.121C99.2339 367.831 97.4419 368.54 95.6512 369.249C91.8594 370.752 88.0683 372.254 84.2775 373.761C83.3467 374.131 82.4159 374.501 81.4852 374.871C81.0194 375.057 80.6105 375.688 80.4863 376.144C80.3549 376.628 80.4091 377.268 80.6744 377.703C81.328 378.77 82.4226 378.947 83.5076 378.516Z" fill="#343434"/>
<path d="M177.282 389.042C179.919 387.959 182.564 386.893 185.213 385.842C184.741 386.029 184.27 386.215 183.799 386.404C190.78 383.635 197.804 380.971 204.792 378.222C206.335 377.616 207.552 376.984 208.436 375.493C209.237 374.142 209.472 372.508 209.082 370.987C208.693 369.465 207.705 368.145 206.353 367.343C205.143 366.626 203.223 366.155 201.847 366.697C191.732 370.676 181.565 374.511 171.509 378.64C170.113 379.212 169.035 380.89 168.655 382.277C168.249 383.765 168.447 385.38 169.193 386.729C169.964 388.122 171.294 389.164 172.83 389.583C174.46 390.024 175.782 389.658 177.282 389.042Z" fill="white"/>
<path fill-rule="evenodd" clip-rule="evenodd" d="M361.458 405.73C168.418 335.575 93.0582 616.763 256.593 676.054C362.711 714.522 434.042 670.862 458.543 580.745C479.754 492.246 433.605 431.879 361.458 405.73Z" fill="#FFA446"/>
<path d="M173.516 502.33C188.113 514.621 203.901 525.435 220.461 534.9C237.038 544.373 254.342 552.503 272.002 559.739C289.547 566.928 307.464 573.174 325.556 578.84C344.566 584.793 363.739 590.409 383.272 594.377C403.551 598.494 424.184 600.797 444.88 600.977C447.513 600.999 450.145 600.988 452.777 600.95C454.851 600.919 456.618 599.208 456.618 597.109C456.618 595.052 454.862 593.238 452.777 593.268C432.482 593.564 412.252 591.944 392.333 588.322C372.654 584.741 353.395 579.324 334.277 573.498C316.396 568.048 298.666 562.073 281.268 555.232C264.039 548.457 247.064 540.748 230.698 531.817C214.48 522.969 198.7 512.829 184.385 501.363C182.555 499.897 180.747 498.407 178.952 496.897C177.368 495.562 175.075 495.343 173.521 496.897C172.144 498.271 171.92 500.989 173.516 502.33Z" fill="#343434"/>
<path d="M351.219 402.619C337.866 414.542 326.588 428.713 317.283 443.979C312.679 451.533 308.551 459.378 304.863 467.419C300.77 476.339 296.545 485.193 292.613 494.185C284.625 512.453 277.35 531.046 271.253 550.036C265.247 568.739 260.464 587.832 256.781 607.124C253.117 626.308 250.501 645.672 247.838 665.016C247.496 667.51 247.153 670.002 246.804 672.496C246.519 674.548 247.302 676.619 249.486 677.219C251.281 677.711 253.922 676.605 254.209 674.536C256.902 655.139 259.419 635.709 262.847 616.423C266.243 597.314 270.636 578.367 276.255 559.786C281.882 541.177 288.654 522.911 296.247 505.018C300.09 495.963 304.13 486.99 308.322 478.092C312.162 469.94 315.909 461.775 320.35 453.922C328.996 438.632 339.23 424.729 351.844 412.51C353.414 410.989 355.015 409.504 356.644 408.05C358.192 406.667 358.051 404.029 356.644 402.619C355.112 401.082 352.77 401.234 351.219 402.619Z" fill="#343434"/>
<path d="M275.354 395.789C272.967 403.601 270.321 411.332 267.88 419.124C265.233 427.577 262.784 436.107 261.017 444.792C259.247 453.483 258.064 462.408 258.387 471.292C258.7 479.928 260.458 488.486 264.343 496.245C268.449 504.443 274.997 511.146 282.653 516.103C287.949 519.532 293.78 522.333 299.766 524.318C305.443 526.201 311.485 527.216 317.474 527.119C323.61 527.017 329.734 525.792 335.497 523.702C340.983 521.714 346.231 519.156 350.967 515.733C359.216 509.774 365.854 502.115 372.167 494.207C378.358 486.453 384.333 478.443 391.572 471.61C392.455 470.778 393.353 469.965 394.271 469.177C394.744 468.771 395.22 468.37 395.703 467.977C395.919 467.803 396.135 467.629 396.35 467.457C396.602 467.258 397.567 466.575 396.558 467.291C398.623 465.831 400.694 464.43 402.818 463.055C405.5 461.319 408.249 459.676 411.083 458.203C412.523 457.453 413.989 456.768 415.471 456.104C415.656 456.021 416.129 455.786 415.294 456.176C415.454 456.101 415.626 456.038 415.789 455.971C416.118 455.836 416.45 455.706 416.782 455.576C417.564 455.272 418.355 454.987 419.154 454.721C420.559 454.254 421.985 453.85 423.432 453.527C424.142 453.369 424.858 453.228 425.577 453.112C425.746 453.084 425.915 453.06 426.083 453.035C426.808 452.919 425.846 453.093 425.821 453.068C425.901 453.145 426.946 452.946 427.084 452.935C428.121 452.841 429.039 452.57 429.8 451.81C430.466 451.143 430.966 450.051 430.925 449.095C430.839 447.167 429.227 445.063 427.084 445.254C420.365 445.857 414.05 448.116 408.052 451.138C405.193 452.578 402.428 454.199 399.727 455.916C397.57 457.29 395.399 458.626 393.345 460.155C385.229 466.197 378.648 473.8 372.372 481.67C366.278 489.312 360.385 497.201 353.249 503.926C352.353 504.772 351.437 505.596 350.5 506.398C350.085 506.755 349.665 507.103 349.242 507.449C349.004 507.642 348.764 507.836 348.523 508.027C348.415 508.112 348.307 508.195 348.2 508.281C347.835 508.571 348.927 507.728 348.41 508.12C346.463 509.592 344.45 510.966 342.338 512.191C341.196 512.852 340.031 513.465 338.84 514.032C338.124 514.372 337.405 514.704 336.677 515.022C336.509 515.097 336.34 515.169 336.171 515.241C335.635 515.476 337.048 514.884 336.207 515.227C335.79 515.395 335.372 515.567 334.952 515.733C332.145 516.828 329.262 517.735 326.319 518.39C325.675 518.534 325.028 518.664 324.378 518.783C324.016 518.849 323.654 518.91 323.289 518.968C323.129 518.993 322.968 519.018 322.805 519.043C322.67 519.062 321.79 519.203 322.47 519.092C323.153 518.982 322.034 519.142 321.898 519.156C321.539 519.195 321.179 519.231 320.817 519.264C320.101 519.327 319.382 519.374 318.663 519.402C317.272 519.46 315.879 519.457 314.488 519.391C313.813 519.361 313.138 519.314 312.464 519.253C312.146 519.225 311.828 519.192 311.513 519.159C311.355 519.142 311.195 519.123 311.037 519.103C310.879 519.084 310.719 519.065 310.561 519.043C310.744 519.067 310.924 519.092 311.106 519.114C308.28 518.592 305.51 518.077 302.758 517.218C301.296 516.761 299.852 516.244 298.428 515.68C298.116 515.556 297.745 515.465 297.46 515.288C298.149 515.713 297.895 515.473 297.651 515.368C297.488 515.299 297.328 515.23 297.165 515.158C296.388 514.818 295.616 514.461 294.85 514.096C292.14 512.796 289.486 511.356 286.948 509.746C285.96 509.119 284.993 508.463 284.044 507.775C283.806 507.603 283.571 507.429 283.336 507.252C283.234 507.175 283.129 507.095 283.027 507.017C282.626 506.719 283.829 507.648 283.267 507.203C282.819 506.846 282.371 506.489 281.932 506.119C280.287 504.739 278.733 503.254 277.286 501.67C276.592 500.906 275.92 500.118 275.279 499.308C275.191 499.195 275.088 499.084 275.008 498.965C275.005 498.963 275.633 499.789 275.29 499.328C275.152 499.142 275.011 498.957 274.875 498.769C274.568 498.352 274.27 497.928 273.977 497.5C272.86 495.857 271.853 494.143 270.963 492.368C270.736 491.917 270.518 491.461 270.307 491.002C270.213 490.797 270.122 490.593 270.031 490.388C269.895 490.081 269.508 489.094 270.02 490.38C269.658 489.47 269.295 488.56 268.972 487.634C268.328 485.776 267.797 483.879 267.365 481.96C267.15 480.992 266.959 480.019 266.793 479.04C266.713 478.562 266.635 478.084 266.566 477.605C266.561 477.561 266.514 477.182 266.505 477.182C266.508 477.182 266.646 478.266 266.575 477.694C266.539 477.409 266.503 477.124 266.469 476.839C265.997 472.766 265.908 468.655 266.091 464.562C266.185 462.453 266.351 460.348 266.577 458.25C266.635 457.705 266.699 457.157 266.765 456.613C266.796 456.369 266.826 456.126 266.857 455.885C266.873 455.764 266.887 455.642 266.904 455.521C266.998 454.788 266.763 456.544 266.865 455.811C267.017 454.743 267.172 453.676 267.346 452.612C268.759 443.943 270.979 435.421 273.484 427.01C275.873 418.986 278.553 411.055 281.102 403.081C281.661 401.333 282.211 399.586 282.745 397.833C283.331 395.911 282.045 393.561 280.063 393.11C278 392.634 275.981 393.732 275.354 395.789Z" fill="#343434"/>
<path d="M209.227 644.427C211.779 637.374 213.527 630.066 215.943 622.968C216.621 620.982 217.351 619.016 218.166 617.086C218.036 617.393 217.909 617.697 217.779 618.004C219.416 614.147 221.404 610.436 223.956 607.104C223.757 607.364 223.555 607.622 223.356 607.881C225.253 605.429 227.438 603.222 229.89 601.325C229.63 601.525 229.373 601.726 229.113 601.925C231.701 599.946 234.563 598.218 237.561 596.935C237.254 597.065 236.949 597.192 236.643 597.322C239.482 596.127 242.463 595.347 245.513 594.93C245.173 594.977 244.833 595.021 244.493 595.068C248.69 594.515 252.934 594.642 257.121 595.201C256.781 595.154 256.44 595.11 256.1 595.063C263.312 596.047 270.302 598.245 277.076 600.858C278.901 601.563 280.721 602.29 282.523 603.051C282.216 602.921 281.912 602.794 281.605 602.664C287.346 605.091 292.945 607.967 297.903 611.777C297.643 611.578 297.386 611.376 297.126 611.177C300.115 613.486 302.827 616.13 305.142 619.119C304.943 618.859 304.741 618.602 304.542 618.342C306.82 621.306 308.67 624.56 310.124 628.003C309.994 627.696 309.867 627.392 309.737 627.085C312.831 634.479 313.854 642.475 315.154 650.325C316.597 659.038 318.049 667.781 320.59 676.256C322.114 681.338 324.044 686.307 326.402 691.06C327.295 692.863 329.994 693.507 331.656 692.437C333.503 691.248 333.99 689.114 333.033 687.184C332.297 685.699 331.606 684.192 330.956 682.666C331.086 682.973 331.214 683.277 331.344 683.584C328.125 675.933 326.104 667.87 324.553 659.735C323.77 655.637 323.095 651.52 322.412 647.403C321.718 643.214 321.091 638.991 320.195 634.838C318.843 628.584 316.512 622.381 312.989 617.017C309.56 611.794 305.142 607.472 300.054 603.875C294.668 600.065 288.648 597.269 282.548 594.816C275.569 592.01 268.455 589.463 261.03 588.117C253.189 586.695 244.949 586.435 237.281 588.919C233.507 590.141 229.951 591.982 226.691 594.236C223.771 596.252 221.089 598.605 218.816 601.337C214.37 606.681 211.4 612.883 209.069 619.398C206.888 625.498 205.289 631.786 203.321 637.954C202.845 639.442 202.347 640.919 201.816 642.387C201.493 643.28 201.739 644.549 202.204 645.345C202.671 646.142 203.583 646.902 204.499 647.11C206.664 647.602 208.494 646.451 209.227 644.427Z" fill="#343434"/>
<path d="M416.89 500.508C418.682 502.35 420.382 504.271 421.966 506.295C421.394 505.554 420.822 504.816 420.252 504.075C422.821 507.407 425.019 510.99 426.656 514.873C426.288 513.999 425.918 513.125 425.55 512.251C426.866 515.448 427.768 518.769 428.246 522.192C428.116 521.219 427.986 520.248 427.853 519.275C428.398 523.453 428.304 527.653 427.759 531.825C427.889 530.852 428.019 529.882 428.152 528.908C427.22 535.68 425.179 542.23 422.721 548.587C421.709 551.2 422.464 554.715 423.827 557.04C425.262 559.493 427.64 561.326 430.383 562.081C433.215 562.86 436.303 562.46 438.836 560.975C441.491 559.421 442.804 557.195 443.877 554.419C448.132 543.419 451.348 531.14 449.797 519.272C449.374 516.04 448.907 512.896 447.939 509.782C446.946 506.583 445.586 503.456 444.048 500.483C441.09 494.765 436.878 489.589 432.407 484.991C428.24 480.705 421.076 480.81 416.893 484.991C412.62 489.265 412.726 496.222 416.89 500.508Z" fill="white"/>
<path d="M337.576 275.431C331.387 282.838 325.198 290.245 318.916 297.573C316.045 300.921 313.151 304.25 310.223 307.548C307.779 310.3 305.046 312.85 303.769 316.385C301.799 321.84 304.464 327.692 309.1 330.795C311.34 332.295 314.124 333.07 316.813 332.946C319.967 332.801 322.836 331.405 325.158 329.313C326.771 327.859 328.11 326.057 329.532 324.421C331.088 322.631 332.648 320.845 334.212 319.062C337.098 315.77 339.999 312.49 342.908 309.219C347.807 303.708 352.74 298.224 357.647 292.719C364.253 285.308 371.109 277.919 376.744 269.72C379.713 265.401 382.744 260.214 381.837 254.765C381.011 249.797 376.485 246.119 372.55 243.499C368.683 240.925 364.15 240.23 359.783 241.929C357.022 243.003 354.589 244.65 352.265 246.462C349.25 248.811 346.491 251.486 343.819 254.213C335.375 262.835 327.647 272.172 319.866 281.385C314.282 287.996 308.72 294.624 303.138 301.236C297.211 308.254 290.914 315.142 285.963 322.909C282.583 328.21 279.436 334.998 281.853 341.311C283.026 344.377 285.335 346.847 287.617 349.14C289.709 351.243 292.081 353.183 294.777 354.454C297.421 355.7 300.336 356.265 303.248 355.881C306.849 355.405 310.129 353.787 313.071 351.699C316.549 349.231 319.586 346.153 322.623 343.177C325.087 340.763 327.491 338.287 329.831 335.752C336.195 328.855 342.097 321.54 348.12 314.347C348.705 313.646 348.808 312.662 348.12 311.974C347.516 311.369 346.335 311.273 345.748 311.974C340.657 318.053 335.641 324.202 330.383 330.141C325.665 335.471 320.658 340.523 315.461 345.384C312.64 348.024 309.39 350.574 305.805 351.847C303.106 352.807 300.62 352.911 298.024 352.138C296.719 351.749 295.858 351.314 294.582 350.53C293.282 349.731 292.461 349.063 291.322 348.037C290.155 346.987 289.071 345.848 288.028 344.677C286.974 343.494 286.15 342.527 285.409 341.106C284.242 338.865 284.132 336.175 284.695 333.667C285.435 330.379 287.045 327.468 288.858 324.601C291.127 321.011 293.765 317.666 296.451 314.383C299.542 310.603 302.729 306.9 305.88 303.169C315.831 291.382 325.659 279.481 335.831 267.884C339.259 263.976 342.737 260.105 346.379 256.393C347.822 254.923 349.294 253.482 350.813 252.091C351.481 251.477 352.162 250.876 352.853 250.288C353.164 250.024 353.478 249.763 353.795 249.504C353.949 249.379 354.103 249.255 354.257 249.133C354.369 249.044 354.971 248.575 354.526 248.92C355.673 248.033 356.864 247.2 358.112 246.46C358.657 246.137 359.217 245.836 359.786 245.56C360.043 245.434 360.304 245.316 360.567 245.203C359.957 245.466 360.86 245.091 361.057 245.019C361.564 244.833 362.082 244.679 362.606 244.552C362.846 244.495 363.089 244.445 363.332 244.402C363.451 244.381 363.572 244.363 363.691 244.345C363.965 244.306 363.21 244.407 363.483 244.374C363.562 244.363 363.641 244.356 363.72 244.348C364.206 244.298 364.695 244.285 365.183 244.301C365.414 244.309 365.645 244.327 365.874 244.351C366.33 244.398 365.749 244.33 365.829 244.34C365.963 244.359 366.096 244.381 366.229 244.405C366.709 244.493 367.181 244.615 367.646 244.765C367.874 244.839 368.099 244.921 368.322 245.007C368.466 245.063 368.922 245.258 368.316 244.999C368.449 245.055 368.58 245.115 368.71 245.176C369.738 245.653 370.692 246.261 371.615 246.916C371.906 247.123 372.194 247.335 372.481 247.548C372.62 247.652 372.757 247.756 372.896 247.862C373.157 248.061 372.568 247.608 372.827 247.808C372.914 247.877 373.003 247.947 373.091 248.016C373.611 248.43 374.119 248.861 374.612 249.308C375.064 249.717 375.5 250.146 375.915 250.594C376.102 250.794 376.285 251.001 376.463 251.211C376.549 251.313 376.633 251.417 376.718 251.521C377.024 251.902 376.486 251.207 376.775 251.595C377.088 252.012 377.373 252.449 377.631 252.901C377.75 253.109 377.861 253.322 377.965 253.537C378.016 253.642 378.064 253.75 378.113 253.857C378.247 254.161 377.933 253.401 378.122 253.887C378.295 254.333 378.43 254.794 378.532 255.26C378.581 255.484 378.62 255.711 378.652 255.937C378.547 255.198 378.656 256.085 378.667 256.297C378.692 256.792 378.676 257.289 378.63 257.783C378.618 257.906 378.605 258.028 378.588 258.15C378.674 257.471 378.609 257.98 378.584 258.138C378.538 258.415 378.481 258.688 378.419 258.96C378.291 259.518 378.123 260.066 377.935 260.605C377.838 260.882 377.734 261.157 377.624 261.429C377.595 261.498 377.566 261.568 377.538 261.639C377.42 261.923 377.71 261.235 377.587 261.519C377.516 261.687 377.441 261.853 377.366 262.018C376.039 264.929 374.208 267.605 372.319 270.175C372.042 270.552 371.761 270.927 371.477 271.302C371.331 271.495 371.184 271.687 371.038 271.879C370.991 271.939 370.734 272.272 371 271.929C370.899 272.06 370.796 272.192 370.694 272.323C370.024 273.183 369.341 274.035 368.654 274.881C367.104 276.787 365.516 278.664 363.913 280.527C354.817 291.104 345.363 301.371 336.127 311.822C333.061 315.293 330.008 318.773 326.971 322.268C325.565 323.884 324.238 325.632 322.643 327.069C322.118 327.542 321.721 327.823 321.061 328.228C320.392 328.637 319.841 328.882 319.318 329.069C318.714 329.285 318.086 329.432 317.453 329.536C317.825 329.474 317.319 329.551 317.278 329.554C317.124 329.571 316.969 329.58 316.813 329.589C316.456 329.61 316.096 329.607 315.737 329.592C315.585 329.586 315.432 329.574 315.281 329.56C315.235 329.556 314.733 329.496 315.123 329.55C314.822 329.508 314.527 329.449 314.231 329.382C313.936 329.317 313.647 329.233 313.358 329.145C313.215 329.101 313.073 329.051 312.931 329.002C312.872 328.98 312.297 328.751 312.634 328.894C312.083 328.66 311.554 328.373 311.044 328.059C310.33 327.618 310.267 327.554 309.716 327.065C308.655 326.123 308.22 325.548 307.574 324.407C307.428 324.15 307.298 323.884 307.174 323.616C306.969 323.171 307.293 323.927 307.112 323.472C307.058 323.335 307.008 323.194 306.96 323.055C306.862 322.774 306.782 322.489 306.708 322.201C306.671 322.056 306.64 321.911 306.609 321.766C306.594 321.698 306.495 321.076 306.548 321.475C306.468 320.87 306.455 320.26 306.487 319.653C306.495 319.497 306.51 319.343 306.525 319.189C306.575 318.677 306.468 319.524 306.551 319.012C306.611 318.641 306.7 318.275 306.8 317.912C307.136 316.69 307.793 315.447 308.614 314.398C309.84 312.835 311.272 311.409 312.591 309.925C318.658 303.101 324.566 296.139 330.444 289.152C333.62 285.378 336.782 281.592 339.944 277.807C340.53 277.106 340.633 276.123 339.944 275.434C339.345 274.826 338.163 274.728 337.576 275.431Z" fill="#8BD092"/>
<path d="M430.098 106.511C440.171 112.291 450.243 118.07 460.24 123.978C464.808 126.678 469.359 129.408 473.879 132.186C477.651 134.505 481.245 137.209 485.7 137.981C492.576 139.171 498.949 134.787 501.654 128.645C502.962 125.677 503.297 122.217 502.587 119.057C501.754 115.351 499.499 112.244 496.534 109.933C494.474 108.325 492.058 107.117 489.822 105.775C487.375 104.307 484.933 102.834 482.493 101.355C477.988 98.6253 473.495 95.8756 469.01 93.115C461.454 88.4652 453.924 83.7704 446.373 79.1104C436.21 72.8378 426.02 66.2639 415.126 61.3064C409.386 58.694 402.607 56.19 396.341 58.4066C390.629 60.4257 387.219 66.5577 384.94 71.7686C382.701 76.8895 382.827 82.4052 385.756 87.2225C387.607 90.2681 390.068 92.8057 392.701 95.1801C396.116 98.2589 399.864 100.967 403.654 103.561C415.638 111.758 428.318 118.957 440.863 126.245C449.865 131.474 458.883 136.675 467.886 141.903C477.442 147.453 486.921 153.47 497.16 157.708C504.148 160.601 512.85 162.907 519.823 158.721C523.208 156.69 525.651 153.436 527.89 150.252C529.943 147.332 531.744 144.117 532.684 140.657C533.607 137.262 533.665 133.691 532.6 130.322C531.282 126.155 528.678 122.608 525.588 119.56C521.935 115.957 517.652 113.004 513.49 110.03C510.114 107.617 506.676 105.288 503.183 103.047C493.679 96.9528 483.776 91.4937 473.993 85.8658C473.039 85.3188 471.853 85.4033 471.181 86.3631C470.591 87.205 470.724 88.6237 471.678 89.1724C479.947 93.9303 488.282 98.5842 496.42 103.568C503.723 108.041 510.757 112.914 517.606 118.053C521.324 120.842 525.026 124.157 527.286 128.138C528.988 131.134 529.632 134.058 529.26 137.295C529.073 138.922 528.738 140.034 528.077 141.709C527.402 143.417 526.783 144.529 525.807 146.094C524.807 147.697 523.685 149.219 522.516 150.7C521.336 152.196 520.363 153.375 518.834 154.551C516.424 156.403 513.26 157.097 510.171 156.956C506.121 156.769 502.335 155.471 498.558 153.924C493.83 151.988 489.314 149.563 484.862 147.07C479.736 144.2 474.682 141.2 469.601 138.249C453.552 128.93 437.394 119.781 421.524 110.16C416.175 106.918 410.861 103.608 405.7 100.071C403.657 98.6697 401.641 97.2281 399.674 95.7207C398.807 95.0571 397.952 94.3766 397.111 93.6807C396.733 93.3677 396.357 93.0506 395.985 92.7292C395.804 92.573 395.625 92.4166 395.448 92.2598C395.319 92.1462 394.638 91.5308 395.139 91.9862C393.848 90.813 392.612 89.5764 391.474 88.2527C390.977 87.6748 390.503 87.0744 390.056 86.4582C389.854 86.1805 389.66 85.8958 389.47 85.6084C389.91 86.2758 389.277 85.2849 389.149 85.0658C388.823 84.5039 388.532 83.9228 388.272 83.3289C388.153 83.0566 388.043 82.7791 387.942 82.5001C387.892 82.3632 387.846 82.224 387.799 82.0865C387.695 81.7711 387.973 82.6439 387.877 82.3272C387.848 82.2365 387.822 82.1433 387.797 82.0519C387.636 81.4865 387.517 80.91 387.435 80.3289C387.395 80.0537 387.368 79.7763 387.349 79.4994C387.309 78.9496 387.35 79.6523 387.346 79.5553C387.339 79.3923 387.338 79.2302 387.339 79.0678C387.342 78.4808 387.388 77.8954 387.468 77.3133C387.508 77.0277 387.557 76.7442 387.613 76.4615C387.649 76.2799 387.784 75.699 387.605 76.4702C387.643 76.3011 387.687 76.1329 387.732 75.9665C388.082 74.6486 388.602 73.3912 389.185 72.1611C389.369 71.7726 389.559 71.3868 389.752 71.0024C389.846 70.8161 389.941 70.6315 390.037 70.4448C390.219 70.0936 389.805 70.886 389.987 70.5384C390.051 70.4202 390.115 70.3001 390.179 70.1818C390.56 69.4781 390.964 68.787 391.39 68.1086C391.781 67.4881 392.198 66.8814 392.64 66.296C392.839 66.0321 393.046 65.7724 393.258 65.5174C393.359 65.3942 393.465 65.2722 393.571 65.1503C393.958 64.7075 393.247 65.4914 393.647 65.0667C394.075 64.6092 394.533 64.1797 395.014 63.7793C395.236 63.5943 395.465 63.4192 395.697 63.2508C395.812 63.1679 395.929 63.0882 396.046 63.0085C396.377 62.7857 395.543 63.3169 396.08 62.9914C396.571 62.6924 397.089 62.4367 397.621 62.2173C397.875 62.1132 398.136 62.0192 398.397 61.9342C397.544 62.2124 398.572 61.8978 398.82 61.8409C399.402 61.7067 399.994 61.6222 400.589 61.5723C400.737 61.561 400.884 61.5515 401.033 61.5455C400.209 61.586 400.826 61.5562 401.019 61.5533C401.356 61.5491 401.692 61.5598 402.028 61.5761C402.715 61.6113 403.4 61.6949 404.078 61.8054C404.426 61.8619 404.774 61.9277 405.119 62.0012C405.207 62.0207 405.295 62.04 405.386 62.0591C405.747 62.1391 404.872 61.9398 405.234 62.0251C405.447 62.074 405.66 62.1287 405.871 62.1836C409.598 63.1454 413.151 64.7538 416.591 66.4524C417.097 66.7023 417.6 66.9565 418.103 67.2141C418.363 67.3471 418.621 67.4804 418.879 67.6136C418.96 67.6564 419.408 67.8907 418.946 67.6479C419.123 67.7401 419.3 67.8342 419.477 67.9282C420.636 68.5421 421.788 69.1719 422.935 69.8082C425.518 71.2453 428.074 72.7333 430.617 74.242C445.053 82.8017 459.198 91.8501 473.515 100.602C478.268 103.507 483.032 106.395 487.808 109.261C490.018 110.587 492.367 111.793 494.403 113.382C495.073 113.905 495.489 114.317 496.107 115.013C496.732 115.72 497.138 116.321 497.469 116.902C497.852 117.572 498.157 118.285 498.413 119.013C498.262 118.586 498.459 119.169 498.471 119.217C498.523 119.396 498.567 119.578 498.61 119.76C498.71 120.179 498.782 120.606 498.839 121.034C498.864 121.216 498.881 121.399 498.897 121.581C498.901 121.638 498.935 122.244 498.918 121.771C498.93 122.136 498.923 122.499 498.906 122.863C498.891 123.225 498.851 123.587 498.808 123.946C498.786 124.126 498.757 124.304 498.727 124.483C498.714 124.557 498.563 125.286 498.662 124.857C498.5 125.559 498.271 126.245 498.006 126.915C497.633 127.854 497.571 127.942 497.106 128.697C496.214 130.152 495.623 130.787 494.407 131.792C494.133 132.019 493.845 132.229 493.553 132.432C493.07 132.768 493.897 132.225 493.396 132.535C493.244 132.628 493.088 132.717 492.934 132.803C492.621 132.978 492.3 133.133 491.975 133.28C491.811 133.354 491.646 133.422 491.48 133.488C491.403 133.52 490.687 133.768 491.148 133.622C490.449 133.844 489.728 133.986 489.002 134.076C488.816 134.099 488.63 134.114 488.445 134.128C487.828 134.176 488.854 134.126 488.23 134.135C487.777 134.141 487.325 134.112 486.875 134.07C485.356 133.927 483.746 133.41 482.332 132.657C480.222 131.533 478.233 130.134 476.199 128.882C466.843 123.125 457.357 117.585 447.848 112.086C442.711 109.114 437.564 106.161 432.417 103.207C431.464 102.66 430.278 102.745 429.606 103.705C429.012 104.542 429.143 105.963 430.098 106.511Z" fill="#FFA446"/>
<path d="M357 192C361.362 192 365 188.36 365 184C365 179.64 361.36 176 357 176C352.64 176 349 179.64 349 184C349 188.36 352.64 192 357 192Z" fill="#3DB149"/>
<path d="M109.5 548C112.499 548 115 545.497 115 542.5C115 539.503 112.497 537 109.5 537C106.503 537 104 539.503 104 542.5C104 545.497 106.503 548 109.5 548Z" fill="#DB6565"/>
<path d="M498.375 250.139C489.139 249.452 479.539 251.285 471.689 256.366C464.262 261.173 459.185 268.235 455.969 276.386C449.854 291.889 453.481 310.455 464.125 323.011C476.518 337.637 498.712 340.468 515.639 333.026C531.017 326.265 539.731 309.262 539.994 292.993C540.163 282.37 536.473 272.102 529.636 264.025C521.897 254.887 509.999 250.794 498.375 250.139C494.389 249.917 491.052 253.646 491.052 257.475C491.052 261.643 494.389 264.585 498.375 264.812C499.529 264.876 500.678 264.976 501.822 265.108C499.782 264.87 503.109 265.362 503.662 265.478C505.829 265.927 507.953 266.587 510.009 267.401C507.953 266.587 510.816 267.813 511.317 268.071C512.144 268.494 512.945 268.975 513.736 269.466C514.506 269.947 515.244 270.48 515.971 271.024C514.132 269.64 516.725 271.748 517.189 272.186C517.822 272.788 518.417 273.422 519.003 274.077C519.293 274.399 519.567 274.732 519.841 275.07C520.842 276.285 518.818 273.692 519.746 274.954C520.848 276.449 521.781 278.055 522.614 279.708C522.804 280.088 522.983 280.479 523.157 280.865C523.805 282.291 522.498 279.227 523.078 280.685C523.394 281.477 523.663 282.286 523.921 283.099C524.48 284.869 524.875 286.686 525.165 288.513C525.413 290.087 524.944 286.68 525.128 288.265C525.176 288.693 525.213 289.121 525.244 289.549C525.313 290.41 525.339 291.271 525.355 292.132C525.387 294.001 525.255 295.871 525.028 297.731C525.339 295.179 524.912 298.169 524.796 298.766C524.628 299.616 524.422 300.456 524.195 301.291C523.974 302.125 523.71 302.949 523.436 303.768C523.299 304.18 523.146 304.582 522.999 304.988C522.282 306.906 523.436 304.043 522.914 305.231C522.224 306.816 521.401 308.337 520.505 309.806C520.057 310.54 519.567 311.253 519.066 311.955C518.802 312.33 517.827 313.545 519.166 311.845C518.808 312.299 518.433 312.732 518.054 313.17C516.91 314.48 515.645 315.679 514.316 316.799C513.968 317.09 512.708 318.03 514.422 316.736C514.068 317 513.705 317.253 513.346 317.507C512.492 318.099 511.596 318.632 510.689 319.144C509.898 319.588 509.081 319.984 508.254 320.359C506.757 321.041 509.84 319.725 508.301 320.328C507.864 320.497 507.426 320.65 506.983 320.803C504.996 321.484 502.929 321.939 500.858 322.261C503.124 321.912 499.814 322.319 499.229 322.356C498.158 322.419 497.088 322.419 496.018 322.404C494.906 322.382 493.794 322.303 492.686 322.203C492.302 322.166 490.441 321.902 492.476 322.198C491.78 322.097 491.084 321.965 490.393 321.828C488.416 321.437 486.487 320.851 484.6 320.143C482.997 319.541 486.118 320.824 484.568 320.143C484.136 319.953 483.709 319.741 483.282 319.53C482.307 319.049 481.363 318.5 480.44 317.93C479.665 317.449 478.922 316.921 478.189 316.377C480.034 317.75 477.678 315.896 477.256 315.516C476.597 314.919 475.975 314.285 475.369 313.64C474.937 313.181 472.828 310.556 474.251 312.426C473.192 311.031 472.264 309.542 471.421 308.004C470.999 307.238 470.619 306.451 470.255 305.659C469.591 304.212 470.909 307.281 470.308 305.802C470.087 305.263 469.892 304.714 469.697 304.164C469.112 302.516 468.669 300.815 468.305 299.104C468.178 298.512 467.725 295.496 468.062 298.032C467.925 297.018 467.846 295.998 467.783 294.979C467.678 293.23 467.715 291.482 467.831 289.739C467.873 289.131 468.263 286.12 467.904 288.656C468.047 287.652 468.247 286.659 468.463 285.666C468.837 283.976 469.349 282.323 469.944 280.701C470.108 280.263 470.709 278.81 469.844 280.854C470.013 280.458 470.192 280.067 470.371 279.682C470.793 278.773 471.268 277.896 471.763 277.025C472.401 275.91 473.123 274.848 473.882 273.813C472.485 275.709 474.009 273.702 474.357 273.301C474.826 272.762 475.327 272.244 475.833 271.737C476.339 271.225 476.877 270.744 477.42 270.269C477.641 270.079 477.862 269.894 478.089 269.709C479.312 268.7 476.713 270.728 477.994 269.793C479.191 268.917 480.472 268.151 481.785 267.459C482.322 267.173 482.876 266.915 483.429 266.666C481.337 267.622 483.793 266.55 484.283 266.376C485.812 265.832 487.394 265.436 488.986 265.113C489.318 265.05 489.65 264.992 489.982 264.934C491.748 264.627 488.274 265.124 490.077 264.913C490.957 264.807 491.848 264.754 492.734 264.707C494.616 264.612 496.503 264.68 498.385 264.818C502.371 265.113 505.707 261.257 505.707 257.481C505.692 253.25 502.349 250.434 498.375 250.139Z" fill="#8BD092"/>
</svg>
