<svg width="146" height="265" viewBox="0 0 146 265" fill="none" xmlns="http://www.w3.org/2000/svg">
<path d="M88.0435 68.0037C89.556 68.0037 90.8175 66.6863 90.8175 65.1083C90.8175 63.5303 89.5553 62.2129 88.0435 62.2129C86.5317 62.2129 85.2695 63.5303 85.2695 65.1083C85.2695 66.6863 86.5317 68.0037 88.0435 68.0037Z" fill="#3DB149"/>
<path d="M77.0512 47.5317C70.7042 37.211 59.8675 30.9296 48.0768 31.1663C45.2397 31.2241 42.4373 31.8857 39.7483 32.7834C38.5225 33.1931 37.3551 33.7689 36.1919 34.3366C35.5037 34.6739 34.7447 31.2549 34.5364 30.7617C32.2202 25.2761 28.5649 20.9465 23.848 17.5654C19.1212 14.176 13.4026 12.5351 7.71936 12.3424C4.01065 12.2164 -4.43792 12.7489 -5.64399 17.0922C-10.4507 34.4156 -18.951 50.5208 -25.8557 66.9813C-26.0168 67.3627 -25.8139 67.9147 -25.3418 67.8684C-15.3442 66.8942 -5.90617 69.2661 2.07601 75.7416C4.7791 77.9329 11.0407 83.3681 11.0083 87.2156C10.9959 88.8148 12.616 89.9815 13.79 90.5974C15.2453 91.358 16.8321 91.0639 18.1478 90.2251C22.0391 87.74 27.7383 88.1026 32.1113 88.6938C40.9648 89.8889 48.8225 95.3226 54.9676 101.811C55.2149 102.07 55.7157 102.029 55.8699 101.673C63.4661 84.0789 70.18 66.037 77.0607 48.1282C77.3319 47.4223 76.3323 46.8346 76.0597 47.5502" fill="#DB6565"/>
<path fill-rule="evenodd" clip-rule="evenodd" d="M-2.04553 19.7481C12.7086 12.0847 30.9036 23.1504 34.0648 38.3685C47.3283 30.745 64.6365 36.6689 71.957 49.0842C71.957 49.0842 58.2745 84.9888 53.4306 96.1448C44.4752 86.4343 29.181 80.1131 15.6309 85.7572C9.50533 73.3573 -4.39934 63.028 -20.0742 64.8619C-14.1672 50.6913 -5.84503 33.8323 -2.04553 19.7481Z" fill="white"/>
<path d="M32.6636 39.7368C31.006 44.1376 29.3711 48.5469 27.7478 52.9616C27.0785 54.7817 26.4098 56.6021 25.7376 58.4219C25.3922 59.357 25.0459 60.2916 24.6981 61.2253C24.6117 61.4575 24.5253 61.6896 24.4389 61.9217C24.3948 62.0392 24.3511 62.1563 24.3076 62.2741C24.2949 62.3077 24.2199 62.5088 24.294 62.3105C24.2647 62.3897 24.2345 62.4691 24.2052 62.5484C24.0153 63.0568 23.8249 63.5649 23.634 64.0727C21.6536 69.3459 19.6281 74.6004 17.5842 79.8468C17.3018 80.5726 17.0185 81.2978 16.7349 82.0235C16.5771 82.4272 16.6361 82.8816 17.0348 83.1119C17.3678 83.3041 17.919 83.204 18.0776 82.7987C20.237 77.2711 22.3787 71.7366 24.4743 66.1819C25.927 62.3309 27.3531 58.4692 28.7737 54.6048C29.4782 52.6884 30.1832 50.7723 30.8913 48.8574C31.2893 47.7813 31.6885 46.7052 32.0892 45.6301C32.1914 45.355 32.2943 45.0798 32.3968 44.8042C32.4231 44.7344 32.4489 44.6643 32.4751 44.5945C32.481 44.5787 32.5676 44.3461 32.5059 44.5127C32.5681 44.3464 32.6302 44.1793 32.6924 44.013C32.9236 43.3947 33.1552 42.7766 33.3873 42.1589C33.5931 41.6096 33.8002 41.0605 34.0066 40.5115C34.1593 40.1055 34.1087 39.6553 33.7066 39.4232C33.3764 39.2338 32.8168 39.3298 32.6636 39.7368Z" fill="#989898"/>
<path d="M2.63131 27.3487C2.79954 27.3088 2.96837 27.2725 3.1378 27.2399C3.22302 27.2232 3.30867 27.2081 3.39405 27.1935C3.45606 27.1825 3.6219 27.159 3.36123 27.1982C3.40998 27.1908 3.45826 27.1831 3.50674 27.1762C3.85565 27.1253 4.20624 27.0879 4.55755 27.0634C5.28619 27.013 6.01734 27.0175 6.74594 27.0672C6.93111 27.0799 7.11542 27.0954 7.30038 27.1133C7.34669 27.1176 7.39321 27.1227 7.43925 27.1276C7.55548 27.1393 7.34497 27.1173 7.34621 27.1173C7.36939 27.1189 7.39273 27.1225 7.41586 27.1253C7.51502 27.1371 7.61419 27.1489 7.71255 27.1622C8.095 27.2123 8.47624 27.2743 8.85561 27.3458C9.6207 27.4911 10.3782 27.6768 11.1264 27.898C12.0029 28.157 12.866 28.4629 13.7145 28.8079C13.6505 28.7822 13.5868 28.7559 13.5228 28.7302C15.6512 29.5987 17.6893 30.7103 19.5999 32.0183C20.1335 32.3837 20.657 32.7657 21.1695 33.1624C21.1146 33.1195 21.0594 33.0771 21.0045 33.0342C22.8004 34.4276 24.4789 36.0141 25.8859 37.8353C25.9334 37.897 25.9806 37.9591 26.0278 38.0213C25.8481 37.7851 26.001 37.9861 26.0439 38.0445C26.1349 38.1682 26.2244 38.2923 26.3123 38.4182C26.4784 38.6551 26.6392 38.8961 26.7945 39.1413C27.0155 39.4903 27.4882 39.6644 27.846 39.4203C28.1802 39.1923 28.3494 38.6957 28.1133 38.3228C27.11 36.7381 25.8837 35.3073 24.5481 34.0208C23.0681 32.5957 21.4427 31.3271 19.7366 30.2122C18.0248 29.0934 16.2165 28.1296 14.3364 27.3583C12.4662 26.5908 10.5363 25.9838 8.54583 25.6733C6.64359 25.3761 4.72354 25.3329 2.82521 25.681C2.61824 25.719 2.41155 25.7624 2.20663 25.8108C1.81429 25.9031 1.55508 26.4077 1.68151 26.8016C1.82036 27.2316 2.21253 27.4469 2.63131 27.3487Z" fill="#989898"/>
<path d="M0.523962 34.0156C1.37202 33.8971 2.22748 33.8468 3.08272 33.8518C3.53087 33.8542 3.97839 33.8721 4.4254 33.9029C4.65988 33.9191 4.89372 33.9388 5.12741 33.9624C5.17715 33.9674 5.22689 33.9724 5.27637 33.9779C5.47824 33.9996 5.10041 33.9573 5.30245 33.9811C5.41492 33.994 5.52686 34.0079 5.63901 34.0226C7.56736 34.2729 9.46781 34.7449 11.3109 35.3835C11.785 35.5478 12.2561 35.7237 12.7229 35.9102C12.7801 35.9333 12.99 36.0196 12.7397 35.9166C12.7901 35.9371 12.8409 35.9579 12.891 35.9789C13.0172 36.0314 13.1432 36.0843 13.2689 36.1378C13.5015 36.2372 13.733 36.3399 13.9637 36.4454C14.8861 36.8667 15.79 37.3313 16.6706 37.8397C17.5438 38.3432 18.394 38.8901 19.2152 39.4809C19.418 39.627 19.6195 39.7757 19.8187 39.9275C19.8669 39.964 19.9151 40.0017 19.9634 40.0381C20.0468 40.1021 19.7914 39.9039 19.9101 39.9968C19.9314 40.0137 19.9526 40.0299 19.9739 40.0468C20.0741 40.1257 20.174 40.2052 20.2737 40.2851C20.6622 40.599 21.0428 40.9242 21.4135 41.2609C22.1274 41.9089 22.8062 42.6006 23.4354 43.3381C23.5849 43.5134 23.7323 43.6914 23.8759 43.8719C23.9477 43.9614 24.0178 44.052 24.0883 44.1428C24.1111 44.1724 24.2358 44.3373 24.1422 44.2127C24.0532 44.0948 24.1325 44.1999 24.1489 44.2226C24.1719 44.253 24.1942 44.2836 24.2165 44.3143C24.4911 44.6883 24.7531 45.0728 24.9989 45.4678C25.117 45.6571 25.2314 45.8497 25.3423 46.0442C25.548 46.4041 26.0469 46.5598 26.3938 46.3232C26.7417 46.086 26.8804 45.61 26.6611 45.2257C25.6798 43.5054 24.4149 41.9581 23.0073 40.6024C21.5109 39.1619 19.8409 37.9097 18.0853 36.8368C16.2848 35.7366 14.3797 34.8303 12.4161 34.0951C10.5553 33.3982 8.63154 32.8712 6.67584 32.5629C4.83831 32.2735 2.96239 32.1529 1.10905 32.3399C0.90152 32.3611 0.694583 32.3859 0.487974 32.4148C0.282866 32.4433 0.107734 32.4951 -0.0423147 32.6555C-0.17555 32.7973 -0.273695 33.0325 -0.260737 33.2344C-0.235427 33.6285 0.0990512 34.0753 0.523962 34.0156Z" fill="#989898"/>
<path d="M-1.98102 40.5881C-1.86281 40.5687 -2.19122 40.6202 -2.0721 40.6027C-2.05493 40.6001 -2.03777 40.5975 -2.02061 40.5949C-1.97732 40.5883 -1.93431 40.5821 -1.89081 40.5763C-1.7941 40.5629 -1.69771 40.5514 -1.60062 40.5409C-1.41041 40.5203 -1.21966 40.5046 -1.02906 40.4927C-0.637246 40.4692 -0.244649 40.4634 0.147386 40.4716C0.569304 40.4807 0.990077 40.5062 1.41006 40.5451C1.50933 40.5543 1.60881 40.5643 1.70803 40.5748C1.84121 40.5892 1.50326 40.5515 1.63666 40.5666C1.65807 40.5691 1.679 40.5713 1.70014 40.5743C1.76389 40.5814 1.82737 40.5891 1.89107 40.5975C2.11715 40.6259 2.34307 40.6582 2.56814 40.6933C4.48584 40.9934 6.37061 41.5177 8.2009 42.1805C8.44656 42.2696 8.69163 42.3611 8.93558 42.4558C9.05245 42.5009 9.16879 42.547 9.28513 42.5931C9.34354 42.6163 9.40169 42.64 9.4601 42.6631C9.57397 42.7091 9.37398 42.6279 9.3735 42.6276C9.41999 42.6459 9.46644 42.6655 9.51288 42.685C9.99156 42.8824 10.4661 43.0898 10.9364 43.3067C11.89 43.7466 12.8268 44.2276 13.7423 44.7489C14.6353 45.2579 15.5086 45.8063 16.3538 46.3984C16.5592 46.5421 16.763 46.6887 16.9642 46.8379C17.0617 46.91 17.159 46.9826 17.2557 47.0562C17.3039 47.0926 17.3519 47.1296 17.3998 47.1665C17.4236 47.1848 17.5248 47.263 17.403 47.1689C17.2749 47.07 17.4092 47.1738 17.4341 47.1935C17.8167 47.4935 18.1913 47.804 18.5564 48.1262C19.2596 48.7456 19.9288 49.4088 20.5433 50.124C20.6912 50.2964 20.8358 50.4714 20.9768 50.6497C21.0394 50.7293 21.1009 50.8097 21.1625 50.89C21.2208 50.9658 21.029 50.7108 21.1066 50.8156C21.1226 50.8367 21.1383 50.8582 21.1538 50.879C21.1885 50.9255 21.2225 50.9721 21.2562 51.0192C21.5083 51.369 21.7451 51.7298 21.9625 52.1044C22.0625 52.2767 22.1586 52.4515 22.2494 52.6291C22.4399 52.9987 22.9646 53.1376 23.3009 52.9081C23.6613 52.6616 23.7713 52.2052 23.5682 51.8106C22.713 50.1513 21.4819 48.7032 20.1447 47.4507C18.6192 46.0211 16.9133 44.7936 15.1363 43.7301C13.2657 42.6098 11.2983 41.6734 9.27612 40.8926C7.40763 40.1709 5.48049 39.5931 3.51634 39.2365C1.80796 38.9261 0.0383842 38.749 -1.69197 38.9458C-1.93114 38.973 -2.16923 39.0101 -2.40715 39.0493C-2.5871 39.0792 -2.78301 39.2738 -2.86643 39.4312C-2.95761 39.6032 -2.99318 39.8502 -2.93228 40.0402C-2.86917 40.2367 -2.74958 40.4244 -2.56647 40.5195C-2.36972 40.62 -2.19379 40.6227 -1.98102 40.5881Z" fill="#989898"/>
<path d="M-4.7682 46.6527C-4.33294 46.6556 -3.89792 46.6709 -3.46384 46.6975C-3.23892 46.7114 -3.01361 46.7282 -2.78867 46.748C-2.68495 46.7572 -2.58102 46.7671 -2.47735 46.7776C-2.42514 46.7827 -2.37319 46.7883 -2.32098 46.7934C-2.29464 46.7961 -2.26904 46.799 -2.24269 46.8017C-2.09202 46.8175 -2.43416 46.7794 -2.2838 46.7971C-1.36689 46.9048 -0.45502 47.0518 0.449739 47.2408C2.35489 47.6385 4.22761 48.2046 6.04795 48.9124C6.15581 48.9542 6.26388 48.9969 6.37169 49.04C6.42548 49.0612 6.47949 49.0831 6.53301 49.1048C6.65322 49.1531 6.46977 49.0788 6.46247 49.0759C6.50311 49.0922 6.543 49.1086 6.58337 49.1253C6.81176 49.2197 7.03908 49.316 7.26555 49.4151C7.72605 49.6158 8.18271 49.8261 8.63504 50.0458C9.53073 50.4806 10.4106 50.9524 11.2697 51.4622C12.1239 51.9693 12.9579 52.5134 13.7658 53.0972C13.9621 53.2389 14.1569 53.3836 14.3505 53.5303C14.3959 53.5651 14.441 53.599 14.4863 53.6338C14.5086 53.6513 14.5309 53.6688 14.554 53.686C14.3644 53.5423 14.4614 53.6141 14.5065 53.6494C14.6012 53.7232 14.6958 53.7982 14.7898 53.8736C15.1675 54.1767 15.5385 54.4891 15.9012 54.8124C16.6036 55.4381 17.2748 56.1023 17.904 56.8076C18.2169 57.1582 18.5192 57.5192 18.8097 57.8906C18.8739 57.9731 18.9331 58.0686 19.0043 58.1439C19.0014 58.141 18.8789 57.9767 18.9531 58.0762C18.9691 58.0972 18.9848 58.1188 19.0007 58.1399C19.0402 58.193 19.0793 58.2466 19.1185 58.3001C19.2497 58.4813 19.3783 58.665 19.5032 58.851C19.6271 59.0353 19.7477 59.2222 19.8655 59.4108C20.0842 59.7617 20.5609 59.9329 20.917 59.6898C21.2533 59.4603 21.4178 58.9676 21.1843 58.5923C20.1618 56.951 18.9036 55.4707 17.513 54.1605C16.0304 52.7642 14.395 51.5372 12.6823 50.4679C10.9616 49.3934 9.15192 48.475 7.28748 47.7075C5.39921 46.9301 3.46305 46.2873 1.47941 45.8304C-0.372903 45.4033 -2.26716 45.1292 -4.16434 45.0642C-4.37691 45.0568 -4.58986 45.0525 -4.80269 45.0515C-5.20459 45.0487 -5.5788 45.4487 -5.5514 45.871C-5.52461 46.3147 -5.19778 46.6497 -4.7682 46.6527Z" fill="#989898"/>
<path d="M-6.8893 52.5455C-6.70789 52.5593 -6.52679 52.5749 -6.34601 52.5923C-6.2534 52.601 -6.16105 52.6102 -6.06849 52.6201C-6.02443 52.6252 -5.98059 52.6294 -5.93654 52.6344C-5.84741 52.6437 -6.12408 52.6131 -6.035 52.6237C-6.00721 52.6272 -5.97962 52.6299 -5.95183 52.6335C-5.55807 52.679 -5.1651 52.7319 -4.77292 52.7924C-3.93962 52.9197 -3.11003 53.0778 -2.2864 53.2615C-0.481611 53.6651 1.29786 54.1952 3.03601 54.8436C3.26304 54.9286 3.48927 55.0151 3.71492 55.1039C3.82154 55.1457 3.92837 55.1882 4.03494 55.2313C4.08702 55.2522 4.19784 55.3003 3.98314 55.21C4.00939 55.2212 4.03666 55.2317 4.06292 55.2429C4.12299 55.2677 4.18307 55.2925 4.24267 55.317C4.69816 55.5069 5.15035 55.7054 5.59895 55.913C6.51463 56.3363 7.41498 56.7969 8.29447 57.2968C9.17665 57.7976 10.0377 58.3382 10.8726 58.9211C11.0819 59.067 11.2895 59.2159 11.4946 59.3672C11.5977 59.4432 11.7 59.5194 11.8017 59.5966C11.8495 59.6327 11.8977 59.6691 11.9452 59.7058C11.9689 59.7241 11.9927 59.7424 12.0169 59.761C12.0829 59.8116 11.8524 59.6331 11.9946 59.7435C12.3976 60.0586 12.7931 60.3844 13.1794 60.7215C13.9575 61.4007 14.6987 62.1258 15.3928 62.8982C15.7375 63.2817 16.0708 63.6771 16.3908 64.0832C16.4664 64.1789 16.5409 64.2753 16.6144 64.3724C16.6329 64.397 16.651 64.4212 16.6698 64.4453C16.5371 64.2764 16.6006 64.3533 16.6294 64.3917C16.6752 64.453 16.7205 64.5141 16.7655 64.5756C16.9188 64.7854 17.0686 64.9984 17.2145 65.2137C17.3606 65.4299 17.5034 65.6487 17.6425 65.87C17.8624 66.2197 18.3368 66.3928 18.6939 66.149C19.0292 65.9202 19.196 65.4256 18.9613 65.0515C17.8101 63.2193 16.41 61.559 14.8409 60.1055C13.269 58.6491 11.5344 57.3793 9.71209 56.2882C7.92234 55.2166 6.04267 54.323 4.11397 53.5613C2.34155 52.8607 0.522796 52.2869 -1.32391 51.8433C-2.99038 51.4431 -4.67957 51.1536 -6.3827 50.9905C-6.56348 50.9731 -6.74457 50.9575 -6.92599 50.9437C-7.10665 50.9296 -7.3344 51.0544 -7.45628 51.1844C-7.58951 51.3262 -7.68766 51.5614 -7.6747 51.7632C-7.64417 52.2309 -7.31867 52.5124 -6.8893 52.5455Z" fill="#989898"/>
<path d="M-9.0239 58.8451C-8.57356 58.8792 -8.12352 58.9209 -7.67455 58.9706C-7.74076 58.9634 -7.80623 58.9559 -7.87245 58.9486C-5.86443 59.1725 -3.87161 59.5667 -1.94309 60.1966C-1.37762 60.3815 -0.818126 60.5859 -0.265625 60.8107C-0.32962 60.785 -0.393348 60.7587 -0.457344 60.733C1.13343 61.382 2.65915 62.199 4.08933 63.1737C4.52279 63.4695 4.94706 63.779 5.36292 64.1008C5.30801 64.0579 5.25284 64.0155 5.19794 63.9726C6.20292 64.7539 7.15374 65.6099 8.04801 66.5262C8.31664 66.8019 8.5806 67.0827 8.83894 67.3683C9.11458 67.6724 9.65515 67.6696 9.92382 67.3556C10.2101 67.0215 10.2072 66.5494 9.91167 66.2232C8.84532 65.0468 7.69461 63.9522 6.45741 62.9743C5.28591 62.0475 4.05469 61.2107 2.75094 60.5001C1.52292 59.8312 0.239607 59.2715 -1.07341 58.8118C-2.27306 58.3919 -3.50135 58.0642 -4.74373 57.8166C-6.02141 57.5618 -7.31467 57.3936 -8.61088 57.2809C-8.76043 57.2677 -8.91002 57.2558 -9.05989 57.2444C-9.24082 57.2308 -9.46803 57.3546 -9.59018 57.4851C-9.72341 57.6269 -9.82156 57.8621 -9.8086 58.0639C-9.79542 58.2666 -9.72746 58.4778 -9.57802 58.6174C-9.41616 58.7682 -9.23982 58.8285 -9.0239 58.8451Z" fill="#989898"/>
<path d="M38.4602 44.4789C38.9383 44.3438 39.4216 44.2288 39.9087 44.1339C40.0263 44.1108 40.1439 44.0891 40.2614 44.0687C40.3207 44.0581 40.3796 44.048 40.4389 44.0387C40.4657 44.0345 40.5894 44.0143 40.4486 44.0371C40.3003 44.0608 40.4655 44.035 40.4943 44.0306C40.7456 43.9925 40.9981 43.959 41.2507 43.9303C42.2739 43.8148 43.3047 43.7768 44.3333 43.8034C44.868 43.8177 45.4023 43.8494 45.9349 43.8974C46.0632 43.9089 46.1911 43.9214 46.3188 43.9352C46.3511 43.9387 46.3828 43.9419 46.4151 43.9453C46.5148 43.9561 46.2091 43.9219 46.3518 43.9384C46.4291 43.9475 46.5059 43.9562 46.5829 43.9658C46.8538 43.999 47.1237 44.0363 47.3933 44.0779C48.4738 44.2439 49.5458 44.4735 50.6026 44.7602C51.8185 45.09 53.0145 45.4965 54.1849 45.9727C54.1209 45.947 54.0572 45.9207 53.9932 45.895C55.9586 46.6971 57.8524 47.6963 59.6232 48.8953C60.1203 49.2318 60.6069 49.5845 61.0829 49.9523C61.028 49.9094 60.9729 49.867 60.918 49.8241C61.9549 50.6284 62.9377 51.5075 63.8464 52.4657C64.1287 52.7631 64.6582 52.7717 64.9313 52.453C65.2119 52.1249 65.2211 51.6393 64.9191 51.3207C63.5646 49.8922 62.0436 48.6365 60.4324 47.5388C58.8226 46.442 57.1096 45.5102 55.3332 44.7435C53.5125 43.9577 51.6328 43.325 49.7061 42.8905C47.8385 42.4697 45.9248 42.2239 44.0133 42.1955C42.2137 42.1691 40.403 42.3484 38.6493 42.7775C38.444 42.8276 38.2391 42.8819 38.0356 42.9397C37.6477 43.0498 37.3803 43.5246 37.5105 43.9305C37.6446 44.3479 38.0463 44.5963 38.4602 44.4789Z" fill="#989898"/>
<path d="M36.2009 51.0583C37.142 50.9942 38.0869 50.9956 39.0286 51.0399C39.5448 51.0639 40.0608 51.1015 40.5753 51.1502C40.7051 51.1626 40.8347 51.1754 40.9644 51.1891C41.0238 51.195 41.0831 51.2022 41.1424 51.2082C40.8644 51.1788 41.1257 51.2064 41.195 51.2148C41.4731 51.2476 41.7506 51.2826 42.0279 51.3215C44.3119 51.6381 46.573 52.1419 48.7866 52.8079C50.0621 53.1919 51.3228 53.6325 52.5599 54.1353C52.4959 54.1096 52.4322 54.0833 52.3682 54.0576C54.2385 54.8199 56.0661 55.7223 57.7649 56.8442C58.2139 57.1403 58.6524 57.4528 59.0791 57.7828C59.0241 57.7399 58.969 57.6975 58.9141 57.6546C59.8287 58.3646 60.6878 59.1578 61.4256 60.0668C61.547 60.2165 61.7991 60.2995 61.9802 60.2947C62.1646 60.2899 62.3858 60.2001 62.5105 60.0541C62.809 59.7052 62.7769 59.2644 62.4984 58.9217C61.3899 57.5556 60.0084 56.4403 58.5669 55.4822C56.9722 54.4224 55.2616 53.5566 53.5091 52.8208C51.6039 52.0205 49.6488 51.3574 47.6581 50.8306C45.787 50.3353 43.8859 49.9538 41.9692 49.7089C40.2323 49.4868 38.478 49.3548 36.7274 49.4265C36.5397 49.4341 36.3524 49.4446 36.1645 49.4573C35.7643 49.4845 35.3872 49.8328 35.4157 50.2768C35.4423 50.6947 35.7725 51.0877 36.2009 51.0583Z" fill="#989898"/>
<path d="M33.4157 57.8225C34.1602 57.7029 34.9139 57.6551 35.6666 57.6523C36.0722 57.6505 36.4779 57.6628 36.8829 57.6858C37.0993 57.698 37.3157 57.7136 37.5321 57.7318C37.642 57.7412 37.7523 57.751 37.8627 57.7619C37.9124 57.7669 37.9626 57.7722 38.0124 57.7772C38.0751 57.7838 38.316 57.8129 38.0323 57.7789C39.9485 58.007 41.8385 58.4117 43.6912 58.9702C44.8001 59.3041 45.8938 59.6918 46.9693 60.129C46.9053 60.1033 46.8416 60.077 46.7776 60.0512C48.8236 60.886 50.8079 61.9013 52.6588 63.1387C53.1659 63.4776 53.662 63.8339 54.1462 64.2077C54.0913 64.1648 54.0362 64.1224 53.9813 64.0795C55.2281 65.0465 56.3951 66.1354 57.3945 67.3785C57.4613 67.462 57.5277 67.5464 57.5933 67.6311C57.6255 67.6727 57.6624 67.7138 57.6906 67.7584C57.6915 67.7602 57.561 67.5848 57.6316 67.6802C57.6492 67.7042 57.6671 67.7277 57.6842 67.7514C57.8129 67.9265 57.9383 68.1044 58.06 68.2846C58.1802 68.4627 58.3309 68.6012 58.5397 68.6539C58.7191 68.6988 58.9544 68.6706 59.1114 68.5636C59.437 68.3412 59.625 67.8317 59.3788 67.4661C58.2819 65.8386 56.9205 64.4305 55.4133 63.2177C53.7897 61.9112 52.0333 60.8016 50.1905 59.866C48.3231 58.9182 46.3725 58.1346 44.383 57.5149C42.5691 56.9499 40.712 56.5187 38.8323 56.2754C37.1945 56.063 35.5263 55.9577 33.8819 56.152C33.7142 56.1718 33.5471 56.1952 33.3802 56.222C33.1731 56.2553 33.0028 56.2993 32.8499 56.4627C32.7166 56.6045 32.6185 56.8397 32.6315 57.0416C32.6446 57.2442 32.7126 57.4554 32.862 57.5951C33.0036 57.7269 33.2176 57.8544 33.4157 57.8225Z" fill="#989898"/>
<path d="M31.4985 64.4599C32.5725 64.35 33.6542 64.3421 34.7305 64.4147C35.0436 64.436 35.3562 64.4643 35.6684 64.4983C35.6022 64.491 35.5367 64.4835 35.4705 64.4763C36.4029 64.5798 37.3291 64.739 38.2452 64.9484C39.1759 65.161 40.0961 65.4235 41.0015 65.7328C41.5088 65.9058 42.0118 66.0941 42.5089 66.2961C42.4449 66.2704 42.3811 66.2441 42.3172 66.2184C43.9939 66.9005 45.6151 67.7411 47.1273 68.7611C47.5247 69.0295 47.9143 69.3104 48.2946 69.6052C48.2397 69.5623 48.1846 69.5199 48.1297 69.477C48.244 69.5661 48.3579 69.6562 48.4709 69.7478C48.6398 69.8842 48.8035 69.9814 49.0255 69.9758C49.2099 69.9709 49.4311 69.8812 49.5558 69.7351C49.6899 69.5786 49.7879 69.3723 49.7742 69.1562C49.7617 68.9619 49.6979 68.7274 49.5436 68.6027C48.5763 67.8195 47.5552 67.1153 46.4852 66.4935C45.407 65.8671 44.2866 65.3203 43.138 64.8494C41.91 64.346 40.6585 63.9133 39.378 63.5804C38.109 63.2509 36.8216 63.0228 35.5206 62.8857C34.3172 62.7588 33.1026 62.7269 31.8955 62.8199C31.7507 62.8312 31.606 62.8445 31.4613 62.8591C31.2597 62.8798 31.0762 62.9451 30.931 63.0998C30.7978 63.2416 30.6997 63.4768 30.7126 63.6787C30.7258 63.8813 30.7937 64.0925 30.9432 64.2322C31.0915 64.3692 31.2942 64.481 31.4985 64.4599Z" fill="#989898"/>
<path d="M28.4153 71.0458C29.6786 70.9727 30.9462 71.0333 32.2038 71.1723C32.1376 71.1651 32.0721 71.1576 32.0059 71.1503C33.2322 71.2878 34.4502 71.5015 35.6548 71.7774C36.9271 72.0686 38.1855 72.4275 39.4237 72.8486C40.1313 73.0892 40.8322 73.3509 41.5256 73.6326C41.4616 73.6069 41.3978 73.5806 41.3338 73.5549C43.3597 74.38 45.3287 75.3765 47.1639 76.5982C47.659 76.9276 48.1431 77.2744 48.6151 77.6391C48.5602 77.5962 48.505 77.5538 48.4501 77.5109C49.3499 78.2084 50.2045 78.9732 50.9735 79.8258C51.1823 80.057 51.3845 80.295 51.5794 80.5393C51.6993 80.6896 51.9544 80.7716 52.134 80.7673C52.3184 80.7624 52.5396 80.6727 52.6643 80.5266C52.7984 80.3701 52.8964 80.1638 52.8827 79.9477C52.8685 79.728 52.7868 79.5629 52.6522 79.3943C51.582 78.0536 50.2957 76.9241 48.935 75.9184C47.4886 74.8493 45.9345 73.9428 44.33 73.16C42.616 72.3232 40.839 71.6193 39.0289 71.0446C37.328 70.5046 35.5914 70.0784 33.8339 69.795C32.2092 69.5329 30.5572 69.3756 28.912 69.4225C28.7345 69.4275 28.5567 69.4355 28.3798 69.4453C27.9793 69.4684 27.6027 69.8242 27.631 70.2649C27.6575 70.6854 27.9868 71.0705 28.4153 71.0458Z" fill="#989898"/>
<path d="M26.6848 76.9539C27.619 76.849 28.5607 76.8373 29.4982 76.9002C29.7714 76.9183 30.0449 76.9431 30.3174 76.9733C30.2512 76.966 30.1857 76.9585 30.1195 76.9512C31.0794 77.0588 32.0316 77.2357 32.9715 77.4667C33.9279 77.7014 34.8714 77.9899 35.8015 78.3193C36.3325 78.5073 36.8595 78.7088 37.3825 78.9212C37.3185 78.8955 37.2548 78.8692 37.1908 78.8435C38.0693 79.2012 38.9362 79.5903 39.7924 80.0043C40.628 80.4084 41.4535 80.8363 42.2691 81.2828C42.716 81.527 43.1602 81.7776 43.6014 82.0324C43.7735 82.1317 43.9957 82.1579 44.1849 82.1011C44.3658 82.0468 44.5589 81.898 44.6442 81.7193C44.8288 81.3304 44.7207 80.8483 44.3442 80.6309C43.32 80.0395 42.2815 79.4741 41.2266 78.9442C40.0715 78.3641 38.8968 77.8328 37.702 77.3478C36.5631 76.8859 35.4035 76.4773 34.2234 76.1444C33.065 75.8182 31.8862 75.5652 30.6941 75.4191C29.4891 75.2715 28.2763 75.211 27.0658 75.3119C26.9263 75.3237 26.7878 75.3373 26.649 75.3526C26.4469 75.3756 26.2654 75.4369 26.1187 75.5933C25.9855 75.7351 25.8874 75.9703 25.9003 76.1722C25.9135 76.3748 25.9815 76.586 26.1309 76.7257C26.2767 76.8626 26.4813 76.9768 26.6848 76.9539Z" fill="#989898"/>
<path d="M-5.07467 142.805C-2.11462 150.625 0.848647 158.445 3.80978 166.265C4.05164 166.901 4.6893 167.121 5.28097 166.933C20.0878 162.243 34.4132 154.936 48.6413 148.626C49.2145 148.372 49.5088 147.705 49.2814 147.089C46.3672 139.203 43.2051 131.407 39.8099 123.733C39.5464 123.144 38.9389 122.821 38.3387 123.065C23.9776 128.868 9.87583 135.341 -4.43506 141.269" fill="#638CD7"/>
<path d="M10.0093 139.901C9.92593 135.817 9.73969 131.724 9.22498 127.672C9.03556 126.18 8.79943 124.69 8.43987 123.232C8.1735 122.152 7.84345 121.052 7.31607 120.076C7.1107 119.696 6.86684 119.323 6.57184 119.012C6.08924 118.504 5.50171 118.091 4.8979 117.756C4.23838 117.39 3.54179 117.099 2.84622 116.817C2.51644 116.683 2.18579 116.552 1.85662 116.417C1.69543 116.35 1.53432 116.283 1.37401 116.214C1.33282 116.196 1.28649 116.168 1.24319 116.157C1.39675 116.195 1.34337 116.202 1.29091 116.178C1.18984 116.133 1.08904 116.087 0.988577 116.039C0.348278 115.736 -0.27478 115.386 -0.835096 114.94C-0.847451 114.93 -0.860079 114.92 -0.872435 114.91C-0.935555 114.858 -0.921675 114.87 -0.830979 114.945C-0.837833 114.929 -0.895275 114.89 -0.903871 114.882C-0.976232 114.819 -1.04779 114.755 -1.11714 114.689C-1.25215 114.56 -1.38158 114.425 -1.50426 114.284C-1.61789 114.153 -1.71335 113.999 -1.83106 113.873C-1.70143 114.012 -1.8079 113.905 -1.83709 113.862C-1.86584 113.819 -1.89432 113.775 -1.92209 113.732C-1.97844 113.643 -2.03257 113.552 -2.0843 113.46C-2.18254 113.285 -2.27225 113.104 -2.35378 112.92C-2.39255 112.833 -2.42821 112.745 -2.46361 112.656C-2.39454 112.828 -2.46741 112.644 -2.47781 112.615C-2.50431 112.539 -2.53011 112.463 -2.55421 112.387C-2.62088 112.176 -2.67847 111.963 -2.72779 111.747C-2.75504 111.628 -2.78016 111.509 -2.80269 111.389C-2.81507 111.321 -2.82744 111.254 -2.83839 111.186C-2.84134 111.167 -2.86303 110.947 -2.8525 111.109C-2.88156 110.664 -2.88039 110.219 -2.83677 109.774C-2.83161 109.719 -2.83067 109.658 -2.81836 109.604C-2.82334 109.626 -2.84207 109.766 -2.82144 109.629C-2.80443 109.517 -2.78698 109.405 -2.76631 109.295C-2.72661 109.083 -2.67862 108.873 -2.6224 108.666C-2.57145 108.477 -2.51318 108.29 -2.44945 108.106C-2.41262 108.001 -2.37283 107.896 -2.33349 107.792C-2.26846 107.619 -2.38304 107.906 -2.33596 107.798C-2.30996 107.738 -2.28555 107.678 -2.2591 107.619C-2.0853 107.226 -1.88425 106.848 -1.66109 106.484C-1.55822 106.317 -1.45115 106.153 -1.3396 105.992C-1.28109 105.907 -1.22149 105.823 -1.16056 105.74C-1.14949 105.725 -1.13842 105.71 -1.12717 105.695C-1.07633 105.627 -1.08225 105.635 -1.14559 105.719C-1.11704 105.704 -1.06293 105.612 -1.04202 105.586C-0.773631 105.245 -0.487685 104.921 -0.18695 104.612C0.108284 104.308 0.417673 104.019 0.738196 103.744C0.887538 103.616 1.03903 103.491 1.19286 103.369C1.21826 103.349 1.36747 103.23 1.21879 103.348C1.26267 103.313 1.30736 103.28 1.35231 103.247C1.4415 103.18 1.53088 103.115 1.62159 103.05C2.2821 102.576 2.97747 102.156 3.6989 101.793C3.86789 101.709 4.03761 101.627 4.2094 101.549C4.29339 101.511 4.37827 101.473 4.46307 101.437C4.5015 101.42 4.53967 101.404 4.57784 101.388C4.64672 101.359 4.63906 101.362 4.5548 101.397C4.5927 101.382 4.63034 101.367 4.6687 101.351C5.08107 101.185 5.49885 101.032 5.92127 100.896C6.31867 100.767 6.72132 100.654 7.12746 100.562C7.31762 100.519 7.50887 100.48 7.70095 100.446C7.78638 100.431 7.87218 100.417 7.95816 100.404C8.00832 100.397 8.06069 100.384 8.11142 100.382C7.91289 100.391 8.14145 100.379 8.18164 100.375C8.5431 100.335 8.9069 100.316 9.27037 100.322C9.44685 100.326 9.62273 100.334 9.79864 100.349C9.88552 100.357 9.97225 100.367 10.0588 100.376C10.1699 100.388 10.111 100.339 10.0376 100.372C10.0732 100.356 10.1852 100.395 10.2241 100.402C10.5632 100.462 10.8979 100.547 11.2243 100.659C11.3133 100.69 11.4018 100.722 11.4898 100.757C11.5495 100.78 11.644 100.844 11.7086 100.847C11.678 100.834 11.6477 100.82 11.6172 100.807C11.6461 100.82 11.6753 100.833 11.7039 100.847C11.7473 100.867 11.7904 100.888 11.8335 100.909C11.9198 100.952 12.0053 100.997 12.0899 101.044C12.4239 101.229 12.7426 101.442 13.0443 101.679C13.0715 101.701 13.0984 101.722 13.1249 101.744C13.2668 101.857 12.9963 101.631 13.1337 101.752C13.2067 101.816 13.2806 101.879 13.3524 101.945C13.5073 102.086 13.6568 102.233 13.8019 102.386C13.9464 102.537 14.0865 102.694 14.2211 102.855C14.2591 102.9 14.295 102.948 14.3339 102.992C14.458 103.133 14.288 102.917 14.3577 103.019C14.4375 103.136 14.5176 103.253 14.5943 103.372C14.8258 103.732 15.0374 104.106 15.2163 104.498C15.2603 104.594 15.3022 104.69 15.3416 104.788C15.3635 104.842 15.4439 104.951 15.3476 104.798C15.3621 104.822 15.3734 104.868 15.382 104.892C15.4463 105.073 15.5022 105.256 15.5493 105.442C15.5901 105.603 15.6237 105.765 15.65 105.928C15.6597 105.988 15.6769 106.232 15.6629 105.995C15.6685 106.093 15.6827 106.192 15.6883 106.291C15.7062 106.59 15.6993 106.89 15.6718 107.189C15.6647 107.268 15.653 107.348 15.6456 107.428C15.6463 107.421 15.6736 107.234 15.655 107.353C15.649 107.392 15.6435 107.431 15.6368 107.471C15.6118 107.627 15.5818 107.784 15.5487 107.939C15.2893 109.146 14.8389 110.301 14.6635 111.53C14.6072 111.923 14.584 112.312 14.5531 112.706C14.5479 112.772 14.5381 112.837 14.5322 112.903C14.5549 112.636 14.5328 112.887 14.5211 112.952C14.5024 113.059 14.4795 113.165 14.4511 113.269C14.4277 113.355 14.4007 113.44 14.3702 113.523C14.3627 113.544 14.3544 113.564 14.3472 113.584C14.3097 113.688 14.4361 113.375 14.3917 113.475C14.3758 113.51 14.3607 113.546 14.3447 113.582C14.2633 113.762 14.1786 113.94 14.1096 114.127C13.9648 114.518 13.9461 114.954 13.9822 115.368C14.015 115.746 14.0731 116.121 14.146 116.492C14.2408 116.975 14.3294 117.478 14.5291 117.926C14.8227 118.586 15.2777 119.174 15.7276 119.723C16.2285 120.336 16.768 120.912 17.3066 121.487C17.8174 122.033 18.3347 122.575 18.8106 123.154C18.9035 123.268 18.9951 123.383 19.0831 123.5C19.1068 123.532 19.1298 123.564 19.1535 123.596C19.2413 123.714 19.0476 123.444 19.1298 123.563C19.238 123.719 19.3602 123.857 19.4837 124.001C19.849 124.425 20.2122 124.852 20.5738 125.279C21.9388 126.896 23.2789 128.536 24.6526 130.145C25.3299 130.938 26.0154 131.723 26.7138 132.496C26.973 132.783 27.4686 132.809 27.7349 132.516C28.0067 132.218 28.0318 131.757 27.754 131.45C26.3047 129.847 24.9148 128.187 23.5297 126.524C22.8462 125.703 22.1634 124.883 21.4743 124.067C21.3018 123.864 21.1291 123.66 20.9554 123.457C20.767 123.237 20.587 122.986 20.3786 122.786C20.2153 122.629 20.4627 122.845 20.3497 122.769C20.3158 122.747 20.2365 122.609 20.1935 122.549C20.1545 122.495 20.1145 122.442 20.0746 122.389C19.9702 122.253 19.8621 122.12 19.7518 121.988C18.7515 120.797 17.6136 119.739 16.6425 118.521C16.5319 118.382 16.4239 118.241 16.3197 118.098C16.2786 118.042 16.2495 117.935 16.3231 118.104C16.3064 118.065 16.2694 118.026 16.2457 117.991C16.1962 117.918 16.1481 117.844 16.1016 117.768C16.021 117.639 15.9452 117.506 15.8762 117.37C15.8469 117.312 15.8185 117.254 15.7925 117.194C15.7774 117.16 15.7602 117.125 15.7481 117.09C15.7235 117.031 15.7311 117.044 15.7717 117.127C15.76 117.08 15.7484 117.032 15.7372 116.985C15.633 116.55 15.5356 116.112 15.4657 115.67C15.4546 115.598 15.4449 115.526 15.4344 115.454C15.4124 115.302 15.4505 115.634 15.438 115.487C15.4347 115.45 15.4302 115.413 15.4273 115.377C15.4168 115.256 15.4102 115.135 15.4111 115.013C15.4118 114.924 15.4258 114.836 15.4267 114.748C15.4244 115.016 15.4077 114.878 15.4251 114.792C15.4331 114.754 15.442 114.716 15.4528 114.678C15.4707 114.613 15.4972 114.553 15.5174 114.489C15.4155 114.809 15.4937 114.554 15.5342 114.466C15.7159 114.074 15.8662 113.681 15.9325 113.249C15.9898 112.876 15.9998 112.504 16.0358 112.129C16.0427 112.055 16.0517 111.982 16.0598 111.908C16.0781 111.747 16.0333 112.086 16.0576 111.927C16.0629 111.891 16.0681 111.855 16.0736 111.819C16.099 111.656 16.1286 111.493 16.1616 111.332C16.2892 110.71 16.4703 110.103 16.6435 109.495C17.0118 108.203 17.2676 106.905 17.0491 105.556C16.7676 103.819 15.7425 102.178 14.5106 101.01C13.288 99.8512 11.8245 99.1088 10.1852 98.8854C8.58866 98.6676 6.94898 98.9758 5.42728 99.4807C2.15652 100.566 -0.978515 102.618 -2.87255 105.669C-3.81462 107.187 -4.37837 108.987 -4.31242 110.806C-4.24585 112.644 -3.43641 114.536 -2.12192 115.769C-0.971918 116.847 0.449418 117.461 1.8735 118.034C2.20944 118.17 2.54573 118.303 2.88045 118.443C2.96677 118.479 3.05308 118.516 3.13914 118.552C3.16764 118.565 3.19641 118.577 3.22447 118.59C3.37844 118.656 3.06396 118.517 3.21634 118.586C3.38453 118.662 3.55174 118.739 3.7172 118.821C4.02809 118.975 4.33316 119.143 4.6263 119.331C4.76406 119.419 4.8989 119.513 5.03038 119.611C5.08846 119.655 5.14509 119.709 5.20627 119.749C5.02826 119.635 5.14583 119.699 5.19114 119.738C5.23628 119.777 5.28062 119.817 5.32424 119.857C5.47464 119.995 5.61519 120.142 5.74155 120.304C5.77107 120.343 5.79802 120.385 5.82879 120.422C5.6536 120.21 5.76315 120.329 5.80349 120.39C5.86243 120.479 5.91799 120.569 5.97132 120.662C6.08339 120.856 6.18471 121.058 6.27784 121.263C6.32643 121.37 6.37289 121.477 6.4174 121.586C6.44077 121.643 6.46299 121.7 6.48565 121.757C6.5067 121.81 6.52713 121.903 6.45999 121.689C6.47376 121.733 6.49226 121.776 6.50817 121.819C6.94509 123.02 7.22129 124.283 7.44763 125.542C7.59032 126.336 7.7087 127.134 7.81202 127.934C7.83846 128.14 7.86534 128.346 7.88867 128.552C7.86738 128.36 7.90154 128.667 7.90637 128.705C7.92176 128.841 7.93687 128.977 7.95155 129.113C7.99931 129.555 8.04289 129.996 8.08317 130.438C8.27112 132.494 8.38964 134.556 8.47009 136.619C8.51243 137.709 8.54354 138.8 8.56556 139.892C8.5735 140.285 8.88587 140.665 9.28321 140.65C9.66468 140.635 10.0181 140.322 10.0093 139.901Z" fill="#343434"/>
<path d="M0.838665 148.577C1.49064 148.306 2.14235 148.036 2.79451 147.766C2.86721 147.736 2.93991 147.706 3.01287 147.675C3.12205 147.63 2.85546 147.74 3.03182 147.667C3.06804 147.652 3.10453 147.637 3.14075 147.622C3.30367 147.555 3.4666 147.487 3.62971 147.42C3.94498 147.29 4.26024 147.159 4.57551 147.029C5.82626 146.512 7.07719 145.995 8.3275 145.477C10.8089 144.45 13.2891 143.42 15.7634 142.375C18.2136 141.34 20.6578 140.29 23.0927 139.217C25.6522 138.089 28.2012 136.935 30.7374 135.752C33.4792 134.473 36.2071 133.16 38.9199 131.815C39.2775 131.638 39.635 131.46 39.992 131.282C40.3336 131.111 40.4685 130.59 40.2731 130.257C40.0584 129.891 39.6559 129.781 39.2914 129.963C36.5395 131.338 33.773 132.68 30.9913 133.987C28.4461 135.183 25.888 136.349 23.3192 137.489C20.878 138.571 18.4264 139.63 15.9689 140.672C13.5303 141.707 11.0859 142.725 8.63922 143.739C8.56892 143.768 8.49933 143.797 8.42903 143.826C8.39424 143.84 8.35874 143.855 8.32395 143.869C8.47104 143.808 8.34841 143.859 8.31148 143.874C8.15336 143.94 7.9955 144.005 7.83738 144.071C7.52932 144.198 7.22099 144.326 6.91293 144.453C6.29174 144.71 5.67037 144.967 5.04945 145.223C3.73463 145.767 2.42007 146.311 1.10562 146.856C0.782876 146.99 0.460136 147.124 0.137396 147.258C-0.0241066 147.325 -0.165899 147.554 -0.208946 147.719C-0.254531 147.894 -0.235726 148.126 -0.143725 148.283C0.0828992 148.669 0.462445 148.733 0.838665 148.577Z" fill="#343434"/>
<path d="M33.3538 152.386C34.268 151.994 35.1852 151.609 36.1037 151.228C35.94 151.296 35.7767 151.364 35.6135 151.432C38.0342 150.43 40.4695 149.466 42.8927 148.471C43.4279 148.251 43.8497 148.023 44.1562 147.483C44.4341 146.994 44.5155 146.403 44.3804 145.852C44.2455 145.301 43.9028 144.823 43.4341 144.533C43.0146 144.274 42.3486 144.103 41.8715 144.299C38.3643 145.739 34.8387 147.128 31.3519 148.622C30.868 148.829 30.4941 149.436 30.3624 149.938C30.2214 150.477 30.2902 151.061 30.5489 151.55C30.8162 152.054 31.2773 152.431 31.81 152.582C32.3751 152.742 32.8336 152.61 33.3538 152.386Z" fill="white"/>
<path fill-rule="evenodd" clip-rule="evenodd" d="M65.8441 168.045C-1.09247 142.654 -27.2232 244.423 29.4822 265.882C66.2784 279.804 91.0122 264.003 99.508 231.387C106.863 199.357 90.8607 177.509 65.8441 168.045Z" fill="#FFA446"/>
<path d="M0.679094 203.008C5.74052 207.456 11.2152 211.37 16.9573 214.795C22.7053 218.224 28.7053 221.166 34.8291 223.785C40.9126 226.387 47.1255 228.648 53.3988 230.698C59.9905 232.853 66.6387 234.885 73.4115 236.321C80.4433 237.812 87.5977 238.645 94.7742 238.71C95.687 238.718 96.5997 238.714 97.5125 238.7C98.2316 238.689 98.8442 238.07 98.8442 237.31C98.8442 236.566 98.2354 235.909 97.5125 235.92C90.475 236.027 83.4606 235.441 76.5535 234.13C69.7298 232.834 63.0519 230.873 56.4228 228.765C50.2224 226.792 44.0746 224.63 38.042 222.154C32.0678 219.702 26.1818 216.912 20.5068 213.68C14.8835 210.477 9.4117 206.807 4.44808 202.657C3.81336 202.127 3.18632 201.588 2.56406 201.041C2.01468 200.558 1.21985 200.479 0.681012 201.041C0.203537 201.539 0.125876 202.522 0.679094 203.008Z" fill="#343434"/>
<path d="M62.2954 166.919C57.6655 171.234 53.7546 176.363 50.5283 181.888C48.9319 184.622 47.5004 187.461 46.2214 190.371C44.8024 193.6 43.3374 196.804 41.974 200.059C39.2041 206.671 36.6815 213.4 34.5674 220.273C32.4849 227.042 30.8262 233.952 29.5491 240.934C28.2787 247.877 27.3717 254.885 26.4484 261.887C26.3295 262.789 26.2106 263.691 26.0898 264.594C25.9911 265.336 26.2624 266.086 27.0198 266.303C27.6421 266.481 28.5577 266.081 28.6574 265.332C29.5913 258.312 30.4638 251.28 31.6527 244.3C32.8301 237.383 34.3536 230.526 36.3018 223.801C38.2529 217.066 40.601 210.455 43.2338 203.98C44.5665 200.702 45.9673 197.455 47.4208 194.234C48.7526 191.284 50.0518 188.329 51.5916 185.487C54.5897 179.953 58.1381 174.921 62.5121 170.499C63.0567 169.948 63.6118 169.411 64.1766 168.884C64.7135 168.384 64.6646 167.429 64.1766 166.919C63.6454 166.362 62.8333 166.418 62.2954 166.919Z" fill="#343434"/>
<path d="M35.9895 164.448C35.162 167.275 34.2445 170.073 33.3979 172.893C32.4803 175.953 31.6308 179.04 31.0182 182.183C30.4045 185.329 29.9942 188.559 30.1064 191.774C30.2147 194.9 30.8245 197.997 32.1716 200.805C33.5954 203.772 35.8658 206.198 38.5207 207.993C40.3567 209.233 42.3788 210.247 44.4546 210.966C46.423 211.647 48.5179 212.014 50.5946 211.979C52.7222 211.942 54.8459 211.499 56.844 210.743C58.7462 210.023 60.566 209.097 62.2084 207.858C65.0684 205.702 67.3705 202.93 69.5594 200.068C71.7061 197.262 73.778 194.362 76.2881 191.889C76.594 191.588 76.9056 191.294 77.2239 191.009C77.3879 190.862 77.5528 190.717 77.7206 190.574C77.7954 190.511 77.8701 190.448 77.9449 190.386C78.0322 190.314 78.3668 190.067 78.0168 190.326C78.733 189.798 79.4512 189.291 80.1875 188.793C81.1175 188.165 82.0706 187.57 83.0533 187.037C83.5529 186.766 84.061 186.517 84.5749 186.277C84.6392 186.247 84.8031 186.162 84.5136 186.303C84.5692 186.276 84.6286 186.253 84.6852 186.229C84.7993 186.18 84.9143 186.133 85.0294 186.086C85.3007 185.976 85.5749 185.873 85.852 185.777C86.3391 185.608 86.8338 185.462 87.3353 185.345C87.5817 185.288 87.83 185.237 88.0793 185.194C88.1378 185.184 88.1962 185.176 88.2547 185.166C88.5059 185.124 88.1723 185.187 88.1636 185.178C88.1915 185.206 88.5539 185.134 88.6018 185.13C88.9614 185.096 89.2797 184.998 89.5433 184.723C89.7744 184.482 89.9479 184.087 89.9336 183.74C89.9038 183.043 89.3449 182.281 88.6018 182.35C86.272 182.569 84.0821 183.386 82.0025 184.48C81.0111 185.001 80.0523 185.588 79.1156 186.209C78.3677 186.707 77.6151 187.19 76.9027 187.743C74.0887 189.93 71.8068 192.682 69.6303 195.53C67.5172 198.296 65.474 201.151 62.9994 203.585C62.6887 203.891 62.3714 204.19 62.0464 204.48C61.9025 204.609 61.7568 204.735 61.6101 204.86C61.5277 204.93 61.4442 205 61.3608 205.069C61.3234 205.1 61.286 205.13 61.2486 205.161C61.1221 205.266 61.5008 204.961 61.3215 205.103C60.6465 205.636 59.9485 206.133 59.216 206.576C58.82 206.816 58.4164 207.038 58.0032 207.243C57.7548 207.366 57.5056 207.486 57.2534 207.601C57.1949 207.628 57.1364 207.654 57.0779 207.68C56.8919 207.765 57.3819 207.551 57.0904 207.675C56.9456 207.736 56.8008 207.798 56.6551 207.858C55.6819 208.255 54.6819 208.583 53.6618 208.82C53.4384 208.872 53.214 208.919 52.9887 208.962C52.8631 208.986 52.7375 209.008 52.611 209.029C52.5553 209.038 52.4997 209.047 52.4432 209.056C52.3962 209.063 52.0913 209.114 52.3272 209.074C52.564 209.034 52.1757 209.092 52.1287 209.097C52.004 209.111 51.8794 209.124 51.7538 209.136C51.5055 209.159 51.2562 209.176 51.0069 209.186C50.5246 209.207 50.0414 209.206 49.5591 209.182C49.3252 209.171 49.0913 209.154 48.8573 209.132C48.7471 209.122 48.6368 209.11 48.5275 209.098C48.4728 209.092 48.4172 209.085 48.3626 209.078C48.3079 209.071 48.2523 209.064 48.1977 209.056C48.261 209.065 48.3233 209.074 48.3866 209.082C47.4067 208.893 46.446 208.707 45.492 208.396C44.9848 208.231 44.4843 208.044 43.9905 207.839C43.8822 207.794 43.7537 207.761 43.655 207.697C43.8937 207.851 43.8055 207.764 43.7211 207.726C43.6645 207.701 43.6089 207.676 43.5524 207.65C43.2829 207.527 43.0154 207.398 42.7499 207.266C41.8103 206.796 40.8898 206.274 40.0097 205.692C39.6674 205.465 39.3318 205.227 39.0029 204.978C38.9205 204.916 38.839 204.853 38.7575 204.789C38.722 204.761 38.6856 204.732 38.6501 204.704C38.5111 204.596 38.9281 204.932 38.7335 204.771C38.5782 204.642 38.4229 204.513 38.2704 204.379C37.6999 203.879 37.1611 203.342 36.6597 202.769C36.419 202.492 36.186 202.207 35.9636 201.914C35.9329 201.873 35.8974 201.833 35.8696 201.79C35.8687 201.789 36.0863 202.088 35.9674 201.921C35.9195 201.854 35.8706 201.787 35.8236 201.719C35.7172 201.568 35.6136 201.415 35.512 201.259C35.1246 200.665 34.7756 200.045 34.4669 199.402C34.3883 199.239 34.3126 199.074 34.2397 198.908C34.2071 198.834 34.1754 198.76 34.1438 198.686C34.0968 198.574 33.9626 198.217 34.14 198.683C34.0144 198.353 33.8888 198.024 33.7766 197.689C33.5532 197.016 33.3691 196.33 33.2195 195.635C33.1448 195.285 33.0786 194.933 33.0211 194.578C32.9933 194.405 32.9664 194.232 32.9425 194.059C32.9405 194.043 32.9242 193.906 32.9214 193.906C32.9223 193.906 32.9703 194.298 32.9453 194.091C32.9329 193.988 32.9204 193.885 32.9089 193.782C32.7449 192.308 32.7143 190.82 32.7775 189.339C32.8101 188.575 32.8677 187.813 32.9463 187.054C32.9664 186.857 32.9885 186.659 33.0115 186.461C33.022 186.373 33.0326 186.285 33.0431 186.198C33.0489 186.154 33.0537 186.11 33.0594 186.066C33.092 185.801 33.0105 186.436 33.046 186.171C33.0987 185.785 33.1524 185.399 33.2128 185.013C33.7028 181.876 34.4727 178.792 35.3413 175.747C36.1697 172.843 37.0988 169.973 37.9828 167.087C38.1765 166.455 38.3673 165.822 38.5523 165.188C38.7556 164.492 38.3097 163.641 37.6223 163.478C36.907 163.306 36.2071 163.703 35.9895 164.448Z" fill="#343434"/>
<path d="M13.062 254.436C13.9469 251.883 14.5529 249.238 15.3909 246.669C15.6258 245.95 15.8789 245.239 16.1617 244.54C16.1167 244.651 16.0726 244.761 16.0275 244.872C16.5951 243.476 17.2845 242.133 18.1694 240.927C18.1004 241.022 18.0304 241.115 17.9614 241.209C18.6191 240.321 19.3765 239.522 20.227 238.836C20.1368 238.908 20.0477 238.981 19.9575 239.053C20.855 238.337 21.8473 237.711 22.8866 237.247C22.7802 237.294 22.6747 237.34 22.5683 237.387C23.553 236.955 24.5866 236.672 25.6441 236.521C25.5262 236.538 25.4082 236.554 25.2903 236.571C26.7457 236.371 28.2175 236.417 29.6691 236.619C29.5511 236.602 29.4332 236.586 29.3153 236.569C31.8158 236.925 34.2396 237.721 36.5886 238.667C37.2214 238.922 37.8523 239.185 38.4774 239.46C38.371 239.413 38.2655 239.367 38.1591 239.32C40.1495 240.199 42.0911 241.24 43.8102 242.619C43.7201 242.547 43.6309 242.474 43.5408 242.402C44.5772 243.237 45.5178 244.194 46.3203 245.276C46.2513 245.182 46.1813 245.089 46.1122 244.994C46.9023 246.067 47.5437 247.245 48.048 248.491C48.003 248.38 47.9588 248.27 47.9138 248.159C48.9867 250.835 49.3414 253.729 49.792 256.57C50.2925 259.723 50.7959 262.888 51.677 265.955C52.2053 267.794 52.8745 269.593 53.6924 271.313C54.0021 271.966 54.9378 272.199 55.5141 271.811C56.1545 271.381 56.3233 270.609 55.9915 269.91C55.7365 269.373 55.4968 268.827 55.2715 268.275C55.3166 268.386 55.3607 268.496 55.4057 268.607C54.2897 265.838 53.5888 262.92 53.051 259.976C52.7796 258.493 52.5457 257.002 52.3089 255.512C52.0682 253.996 51.8506 252.468 51.5399 250.965C51.0711 248.701 50.2628 246.457 49.0413 244.515C47.8524 242.625 46.3203 241.061 44.5561 239.759C42.6884 238.38 40.6011 237.368 38.4861 236.48C36.0661 235.464 33.5991 234.543 31.0248 234.055C28.3057 233.541 25.4485 233.447 22.7898 234.346C21.4811 234.788 20.2481 235.454 19.1177 236.27C18.1052 237 17.1752 237.851 16.387 238.84C14.8453 240.774 13.8156 243.019 13.0073 245.377C12.2508 247.584 11.6967 249.86 11.014 252.093C10.8491 252.631 10.6765 253.166 10.4924 253.697C10.3802 254.02 10.4656 254.48 10.6267 254.768C10.7887 255.056 11.1051 255.331 11.4224 255.406C12.1732 255.584 12.8079 255.168 13.062 254.436Z" fill="#343434"/>
<path d="M85.0653 202.348C85.6866 203.015 86.2762 203.71 86.8256 204.443C86.6271 204.175 86.4287 203.908 86.2312 203.639C87.1219 204.845 87.8841 206.142 88.4517 207.547C88.3242 207.231 88.1957 206.915 88.0682 206.598C88.5246 207.755 88.8371 208.957 89.003 210.196C88.9579 209.844 88.9129 209.493 88.8669 209.14C89.0557 210.653 89.0231 212.173 88.8343 213.683C88.8793 213.331 88.9244 212.979 88.9704 212.627C88.6473 215.078 87.9397 217.449 87.0874 219.749C86.7364 220.695 86.9982 221.967 87.4709 222.809C87.9685 223.696 88.793 224.36 89.7441 224.633C90.7259 224.915 91.7969 224.77 92.6752 224.233C93.5956 223.67 94.051 222.865 94.423 221.86C95.8986 217.879 97.0137 213.435 96.4758 209.139C96.3291 207.97 96.167 206.832 95.8315 205.705C95.4873 204.547 95.0155 203.415 94.4825 202.339C93.4566 200.27 91.9963 198.396 90.446 196.732C89.0011 195.181 86.5169 195.219 85.0662 196.732C83.5849 198.279 83.6214 200.797 85.0653 202.348Z" fill="white"/>
<path d="M77.3501 121.42C75.2041 124.101 73.0582 126.782 70.8798 129.434C69.8843 130.646 68.8809 131.851 67.8655 133.044C67.0181 134.04 66.0702 134.963 65.6274 136.243C64.9444 138.217 65.8687 140.335 67.4761 141.458C68.2528 142.001 69.218 142.281 70.1507 142.236C71.244 142.184 72.2391 141.679 73.044 140.921C73.6036 140.395 74.0678 139.743 74.5609 139.151C75.1005 138.503 75.6412 137.857 76.1834 137.212C77.1842 136.02 78.1901 134.833 79.1987 133.649C80.8977 131.655 82.6082 129.67 84.3098 127.677C86.6002 124.995 88.9775 122.321 90.9314 119.353C91.9609 117.79 93.0119 115.913 92.6973 113.941C92.411 112.143 90.8419 110.812 89.4773 109.863C88.1364 108.932 86.5646 108.68 85.0504 109.295C84.0931 109.684 83.2494 110.28 82.4433 110.936C81.3981 111.786 80.4413 112.754 79.5149 113.741C76.587 116.862 73.9071 120.241 71.209 123.575C69.2729 125.968 67.3442 128.367 65.4086 130.76C63.3537 133.3 61.1701 135.793 59.4533 138.604C58.2814 140.522 57.1901 142.979 58.0281 145.264C58.4348 146.373 59.2356 147.267 60.027 148.097C60.7524 148.859 61.5747 149.561 62.5095 150.021C63.4265 150.472 64.4372 150.676 65.4468 150.537C66.6957 150.365 67.833 149.779 68.8531 149.024C70.0591 148.13 71.1122 147.016 72.1653 145.939C73.0194 145.066 73.8532 144.169 74.6645 143.252C76.8712 140.756 78.9177 138.108 81.006 135.505C81.2091 135.251 81.2447 134.895 81.006 134.646C80.7967 134.427 80.3874 134.392 80.1838 134.646C78.4183 136.846 76.6791 139.072 74.8561 141.221C73.2199 143.15 71.4838 144.979 69.6817 146.738C68.7034 147.693 67.5766 148.616 66.3335 149.077C65.3976 149.425 64.5356 149.462 63.6353 149.182C63.1831 149.042 62.8843 148.884 62.442 148.601C61.9913 148.311 61.7066 148.07 61.3114 147.698C60.9068 147.318 60.531 146.906 60.1694 146.482C59.804 146.054 59.5182 145.704 59.2613 145.19C58.8567 144.379 58.8185 143.405 59.0137 142.497C59.2702 141.307 59.8286 140.254 60.4572 139.216C61.2439 137.917 62.1588 136.706 63.0899 135.518C64.1619 134.15 65.2668 132.81 66.3597 131.459C69.8099 127.193 73.2178 122.886 76.745 118.689C77.9337 117.275 79.1396 115.874 80.4026 114.53C80.9029 113.998 81.4133 113.477 81.9398 112.973C82.1717 112.751 82.4077 112.533 82.6475 112.321C82.7553 112.225 82.8641 112.13 82.9741 112.037C83.0274 111.992 83.0808 111.947 83.1342 111.902C83.1729 111.87 83.3818 111.701 83.2274 111.825C83.6252 111.504 84.0381 111.203 84.471 110.935C84.6599 110.818 84.8541 110.709 85.0514 110.609C85.1404 110.564 85.231 110.521 85.322 110.48C85.1106 110.575 85.4236 110.44 85.4921 110.413C85.668 110.346 85.8475 110.29 86.0292 110.245C86.1124 110.224 86.1967 110.206 86.2809 110.19C86.3223 110.183 86.3641 110.176 86.4055 110.17C86.5002 110.155 86.2385 110.192 86.3333 110.18C86.3605 110.176 86.3882 110.173 86.4154 110.171C86.584 110.153 86.7535 110.148 86.9226 110.154C87.0027 110.156 87.0828 110.163 87.1623 110.172C87.3204 110.189 87.1189 110.164 87.1466 110.168C87.1932 110.175 87.2393 110.183 87.2853 110.191C87.4518 110.223 87.6156 110.267 87.7768 110.322C87.8559 110.348 87.9338 110.378 88.0113 110.409C88.061 110.429 88.2191 110.5 88.0092 110.406C88.0553 110.427 88.1008 110.448 88.1458 110.47C88.5022 110.643 88.833 110.863 89.1528 111.1C89.2539 111.175 89.3538 111.252 89.4533 111.329C89.5014 111.367 89.5491 111.404 89.5972 111.443C89.6878 111.515 89.4836 111.351 89.5731 111.423C89.6035 111.448 89.6344 111.473 89.6647 111.498C89.8453 111.648 90.0212 111.804 90.1923 111.966C90.3488 112.114 90.5001 112.269 90.644 112.431C90.7089 112.504 90.7722 112.579 90.834 112.655C90.8638 112.691 90.8931 112.729 90.9225 112.767C91.0287 112.905 90.8419 112.653 90.9424 112.794C91.0507 112.945 91.1496 113.103 91.2391 113.266C91.2805 113.342 91.3187 113.419 91.3548 113.496C91.3726 113.535 91.3893 113.573 91.4061 113.612C91.4527 113.722 91.3438 113.447 91.4092 113.623C91.4694 113.784 91.516 113.951 91.5516 114.12C91.5683 114.201 91.5819 114.283 91.5929 114.365C91.5568 114.098 91.5945 114.419 91.5982 114.495C91.6071 114.675 91.6013 114.854 91.5856 115.033C91.5814 115.078 91.5767 115.122 91.571 115.166C91.6008 114.92 91.5783 115.104 91.5694 115.162C91.5537 115.262 91.5338 115.361 91.5123 115.459C91.4678 115.661 91.4097 115.859 91.3443 116.055C91.3108 116.155 91.2747 116.254 91.2365 116.353C91.2266 116.378 91.2166 116.403 91.2067 116.429C91.1658 116.531 91.2663 116.283 91.2239 116.385C91.1993 116.446 91.1732 116.506 91.147 116.566C90.6869 117.62 90.0521 118.588 89.3973 119.518C89.301 119.655 89.2036 119.79 89.1052 119.926C89.0544 119.996 89.0037 120.065 88.9529 120.135C88.9367 120.157 88.8477 120.277 88.9398 120.153C88.9047 120.2 88.8692 120.248 88.8336 120.296C88.6012 120.607 88.3646 120.915 88.1264 121.221C87.5889 121.911 87.0383 122.59 86.4824 123.265C83.3284 127.093 80.0503 130.809 76.8476 134.591C75.7846 135.847 74.7257 137.107 73.6726 138.372C73.1854 138.957 72.7253 139.589 72.172 140.109C71.9899 140.281 71.8523 140.382 71.6235 140.529C71.3917 140.677 71.2006 140.766 71.019 140.833C70.8096 140.912 70.5919 140.965 70.3726 141.002C70.5014 140.98 70.326 141.008 70.3119 141.009C70.2585 141.015 70.2046 141.018 70.1507 141.022C70.0266 141.029 69.902 141.028 69.7775 141.023C69.7246 141.02 69.6717 141.016 69.6194 141.011C69.6032 141.009 69.4294 140.988 69.5645 141.007C69.4603 140.992 69.3577 140.971 69.2551 140.947C69.1531 140.923 69.0526 140.892 68.9526 140.861C68.9029 140.845 68.8537 140.827 68.8045 140.809C68.7841 140.801 68.5846 140.718 68.7014 140.77C68.5103 140.685 68.3271 140.581 68.1502 140.468C67.9027 140.308 67.8807 140.285 67.6896 140.108C67.3217 139.767 67.1709 139.559 66.9469 139.146C66.8961 139.053 66.8511 138.957 66.8082 138.86C66.737 138.699 66.8495 138.972 66.7867 138.808C66.7679 138.758 66.7506 138.707 66.7339 138.657C66.6999 138.555 66.6721 138.452 66.6465 138.348C66.6339 138.295 66.6229 138.243 66.6124 138.19C66.6072 138.166 66.5727 137.94 66.591 138.085C66.5633 137.866 66.5591 137.645 66.57 137.425C66.5727 137.369 66.5779 137.313 66.5831 137.257C66.6004 137.072 66.5633 137.379 66.592 137.193C66.613 137.059 66.6439 136.927 66.6784 136.795C66.7951 136.353 67.0228 135.903 67.3075 135.524C67.7325 134.958 68.2293 134.441 68.6867 133.905C70.7903 131.435 72.8389 128.915 74.877 126.386C75.9783 125.02 77.0748 123.65 78.1713 122.28C78.3744 122.027 78.41 121.671 78.1713 121.421C77.9635 121.202 77.5537 121.166 77.3501 121.42Z" fill="#8BD092"/>
<path d="M108.793 26.6435C112.285 28.7353 115.778 30.8271 119.244 32.9651C120.828 33.9422 122.406 34.9304 123.974 35.9359C125.282 36.7751 126.528 37.7538 128.073 38.0332C130.457 38.4641 132.667 36.8774 133.605 34.6545C134.058 33.5802 134.174 32.328 133.928 31.1841C133.639 29.843 132.857 28.7185 131.829 27.8818C131.115 27.3002 130.277 26.8628 129.502 26.3772C128.653 25.8457 127.807 25.3126 126.961 24.7772C125.399 23.7894 123.84 22.7943 122.285 21.7951C119.665 20.1123 117.054 18.4131 114.436 16.7265C110.912 14.4563 107.379 12.0771 103.601 10.2828C101.611 9.33735 99.2602 8.43111 97.0876 9.23335C95.107 9.9641 93.9247 12.1834 93.1344 14.0694C92.3579 15.9227 92.4018 17.919 93.4172 19.6625C94.0591 20.7648 94.9124 21.6832 95.8254 22.5425C97.0094 23.6568 98.309 24.637 99.6234 25.5758C103.779 28.5424 108.176 31.148 112.525 33.7857C115.647 35.6783 118.774 37.5607 121.896 39.4526C125.209 41.4613 128.496 43.6391 132.046 45.1729C134.47 46.22 137.487 47.0546 139.905 45.5397C141.079 44.8043 141.926 43.6267 142.702 42.4742C143.414 41.4177 144.038 40.2538 144.364 39.0016C144.684 37.7731 144.704 36.4805 144.335 35.2612C143.878 33.753 142.975 32.4693 141.904 31.3663C140.637 30.0623 139.152 28.9935 137.709 27.917C136.538 27.0439 135.346 26.2007 134.135 25.3897C130.839 23.1841 127.405 21.2083 124.013 19.1715C123.683 18.9735 123.271 19.0041 123.038 19.3515C122.834 19.6562 122.88 20.1696 123.21 20.3682C126.078 22.0902 128.968 23.7746 131.79 25.5784C134.322 27.1974 136.761 28.961 139.136 30.8207C140.425 31.8301 141.709 33.0302 142.492 34.4707C143.083 35.5551 143.306 36.6132 143.177 37.7851C143.112 38.3737 142.996 38.7762 142.767 39.3826C142.533 40.0005 142.318 40.4032 141.98 40.9696C141.633 41.5495 141.244 42.1006 140.839 42.6366C140.429 43.1781 140.092 43.6048 139.562 44.0304C138.726 44.7006 137.629 44.9519 136.558 44.9007C135.154 44.8329 133.841 44.3631 132.531 43.8033C130.892 43.1027 129.326 42.2251 127.782 41.3227C126.005 40.2839 124.252 39.1984 122.49 38.13C116.925 34.7575 111.323 31.4461 105.82 27.964C103.965 26.7906 102.122 25.593 100.333 24.3128C99.6242 23.8055 98.9252 23.2838 98.2433 22.7382C97.9427 22.498 97.6462 22.2517 97.3546 21.9999C97.2234 21.8866 97.0932 21.7718 96.9641 21.6555C96.9014 21.599 96.8393 21.5424 96.7778 21.4856C96.7331 21.4445 96.497 21.2218 96.6708 21.3866C96.2232 20.962 95.7947 20.5144 95.3999 20.0353C95.2275 19.8262 95.0633 19.6089 94.9084 19.3859C94.8382 19.2854 94.7708 19.1823 94.7052 19.0783C94.8575 19.3199 94.638 18.9612 94.5938 18.882C94.4806 18.6786 94.3797 18.4683 94.2895 18.2533C94.2485 18.1548 94.2104 18.0543 94.1753 17.9533C94.158 17.9038 94.1418 17.8534 94.1257 17.8037C94.0897 17.6895 94.1861 18.0054 94.1526 17.8908C94.1425 17.8579 94.1336 17.8242 94.1248 17.7911C94.069 17.5865 94.0279 17.3779 93.9993 17.1676C93.9856 17.068 93.9763 16.9676 93.9696 16.8673C93.9557 16.6683 93.9699 16.9227 93.9685 16.8876C93.9662 16.8286 93.9658 16.7699 93.9661 16.7111C93.9672 16.4987 93.9832 16.2868 94.0108 16.0761C94.0247 15.9728 94.0419 15.8702 94.061 15.7678C94.0735 15.7021 94.1205 15.4919 94.0583 15.771C94.0717 15.7098 94.0869 15.6489 94.1023 15.5887C94.2238 15.1117 94.4039 14.6566 94.6063 14.2114C94.6701 14.0708 94.736 13.9312 94.8027 13.7921C94.8354 13.7246 94.8683 13.6578 94.9016 13.5903C94.9646 13.4632 94.8212 13.7499 94.8843 13.6242C94.9065 13.5813 94.9286 13.5379 94.9508 13.4951C95.083 13.2404 95.223 12.9903 95.3709 12.7447C95.5063 12.5202 95.6508 12.3006 95.8044 12.0887C95.8733 11.9932 95.945 11.8992 96.0184 11.8069C96.0537 11.7623 96.0904 11.7182 96.1271 11.674C96.2612 11.5138 96.0149 11.7975 96.1533 11.6438C96.3019 11.4782 96.4605 11.3228 96.6273 11.1778C96.7043 11.1109 96.7838 11.0475 96.8644 10.9866C96.9041 10.9566 96.9446 10.9277 96.9852 10.8989C97.1002 10.8182 96.8108 11.0105 96.9969 10.8927C97.1674 10.7845 97.347 10.6919 97.5313 10.6125C97.6196 10.5748 97.7098 10.5408 97.8006 10.5101C97.5047 10.6107 97.8611 10.4969 97.9472 10.4763C98.1489 10.4277 98.3543 10.3971 98.5605 10.3791C98.6117 10.375 98.663 10.3715 98.7144 10.3694C98.4289 10.3841 98.6428 10.3733 98.7098 10.3722C98.8266 10.3707 98.9431 10.3746 99.0594 10.3805C99.2977 10.3932 99.5351 10.4234 99.7704 10.4634C99.891 10.4839 100.012 10.5077 100.131 10.5343C100.162 10.5414 100.192 10.5484 100.224 10.5553C100.349 10.5842 100.046 10.5121 100.171 10.543C100.245 10.5607 100.319 10.5804 100.392 10.6003C101.684 10.9484 102.916 11.5306 104.109 12.1453C104.285 12.2358 104.459 12.3277 104.634 12.421C104.724 12.4691 104.813 12.5174 104.903 12.5656C104.931 12.5811 105.086 12.6659 104.926 12.578C104.987 12.6114 105.049 12.6454 105.11 12.6794C105.512 12.9016 105.911 13.1295 106.309 13.3599C107.205 13.88 108.091 14.4185 108.973 14.9646C113.978 18.0625 118.883 21.3373 123.847 24.505C125.496 25.5563 127.147 26.6016 128.804 27.6388C129.57 28.1188 130.384 28.5551 131.09 29.1302C131.323 29.3196 131.467 29.4685 131.681 29.7206C131.898 29.9763 132.039 30.194 132.154 30.4043C132.286 30.6468 132.392 30.9049 132.481 31.1682C132.428 31.0137 132.497 31.2247 132.501 31.2419C132.519 31.3067 132.534 31.3727 132.549 31.4386C132.584 31.5904 132.609 31.7447 132.629 31.8999C132.637 31.9657 132.643 32.032 132.649 32.0977C132.65 32.1181 132.662 32.3376 132.656 32.1665C132.66 32.2985 132.658 32.4298 132.652 32.5617C132.646 32.6928 132.633 32.8235 132.618 32.9538C132.61 33.0186 132.6 33.0832 132.59 33.1478C132.585 33.1747 132.533 33.4387 132.567 33.2835C132.511 33.5375 132.432 33.7857 132.34 34.0283C132.21 34.3679 132.189 34.3999 132.028 34.6733C131.718 35.1996 131.513 35.4297 131.092 35.7932C130.997 35.8755 130.897 35.9513 130.796 36.0247C130.628 36.1464 130.915 35.95 130.741 36.0622C130.689 36.0959 130.635 36.1279 130.581 36.1591C130.473 36.2225 130.361 36.2785 130.249 36.332C130.192 36.3585 130.134 36.3831 130.077 36.407C130.05 36.4187 129.802 36.5086 129.962 36.4557C129.719 36.5358 129.469 36.5873 129.218 36.6198C129.153 36.6283 129.089 36.6335 129.024 36.6388C128.81 36.6562 129.166 36.6379 128.95 36.6411C128.793 36.6434 128.636 36.633 128.48 36.6178C127.953 36.5661 127.395 36.3789 126.905 36.1063C126.173 35.6994 125.483 35.1933 124.778 34.7402C121.534 32.6566 118.245 30.6513 114.947 28.661C113.166 27.5855 111.381 26.5167 109.597 25.4478C109.266 25.2499 108.855 25.2805 108.622 25.6278C108.416 25.9308 108.462 26.445 108.793 26.6435Z" fill="#FFA446"/>
<path d="M120.734 72.0502C117.531 71.8016 114.202 72.465 111.481 74.3041C108.905 76.0438 107.145 78.5997 106.03 81.5495C103.909 87.1605 105.167 93.8802 108.857 98.4244C113.155 103.718 120.851 104.743 126.72 102.049C132.052 99.602 135.074 93.4482 135.165 87.56C135.224 83.7155 133.944 79.9991 131.573 77.0761C128.89 73.7688 124.764 72.2872 120.734 72.0502C119.352 71.9699 118.195 73.3195 118.195 74.7055C118.195 76.2139 119.352 77.2787 120.734 77.3609C121.134 77.3839 121.532 77.4202 121.929 77.468C121.222 77.382 122.375 77.5598 122.567 77.6018C123.318 77.7643 124.055 78.0033 124.768 78.2977C124.055 78.0033 125.048 78.4468 125.221 78.5405C125.508 78.6934 125.786 78.8674 126.06 79.0452C126.327 79.2192 126.583 79.4122 126.835 79.6091C126.197 79.1083 127.097 79.871 127.257 80.0297C127.477 80.2477 127.683 80.4771 127.886 80.7141C127.987 80.8307 128.082 80.9512 128.177 81.0735C128.524 81.5132 127.822 80.5746 128.144 81.0315C128.526 81.5725 128.85 82.1537 129.138 82.752C129.204 82.8897 129.266 83.0311 129.327 83.1707C129.552 83.6869 129.098 82.5781 129.299 83.1057C129.409 83.3925 129.502 83.685 129.592 83.9794C129.786 84.6198 129.923 85.2774 130.023 85.9389C130.109 86.5086 129.946 85.2755 130.01 85.849C130.027 86.0039 130.04 86.1587 130.051 86.3136C130.074 86.6252 130.084 86.9368 130.089 87.2484C130.1 87.9252 130.054 88.6019 129.976 89.2749C130.084 88.3515 129.935 89.4335 129.895 89.6496C129.837 89.9573 129.765 90.2613 129.687 90.5634C129.61 90.8654 129.519 91.1637 129.424 91.46C129.376 91.6091 129.323 91.7544 129.272 91.9016C129.023 92.5955 129.424 91.5594 129.243 91.9895C129.003 92.563 128.718 93.1136 128.407 93.6451C128.252 93.9108 128.082 94.1689 127.908 94.4232C127.817 94.5589 127.479 94.9986 127.943 94.383C127.819 94.5474 127.689 94.7042 127.557 94.8629C127.161 95.337 126.722 95.7709 126.261 96.1762C126.141 96.2814 125.704 96.6216 126.298 96.1533C126.175 96.2489 126.049 96.3406 125.925 96.4324C125.629 96.6465 125.318 96.8396 125.004 97.025C124.729 97.1856 124.446 97.329 124.159 97.4647C123.64 97.7113 124.709 97.2353 124.176 97.4532C124.024 97.5144 123.872 97.5699 123.719 97.6253C123.029 97.8719 122.313 98.0363 121.595 98.1529C122.381 98.0268 121.233 98.174 121.03 98.1874C120.659 98.2103 120.288 98.2103 119.916 98.2046C119.531 98.1969 119.145 98.1682 118.761 98.1319C118.628 98.1185 117.983 98.0229 118.688 98.13C118.447 98.0937 118.206 98.0459 117.966 97.9962C117.281 97.8547 116.612 97.6425 115.957 97.3863C115.401 97.1684 116.484 97.633 115.946 97.3863C115.796 97.3175 115.648 97.241 115.5 97.1646C115.162 96.9906 114.835 96.7918 114.515 96.5853C114.246 96.4114 113.988 96.2202 113.734 96.0233C114.374 96.5203 113.557 95.8493 113.411 95.7117C113.182 95.4956 112.967 95.2662 112.756 95.033C112.607 94.8667 111.875 93.9165 112.369 94.5933C112.001 94.0886 111.68 93.5495 111.387 92.9932C111.241 92.716 111.109 92.4311 110.983 92.1444C110.753 91.6206 111.21 92.7313 111.002 92.196C110.925 92.001 110.857 91.8022 110.79 91.6034C110.587 91.0069 110.433 90.3913 110.307 89.7719C110.263 89.5578 110.106 88.4662 110.223 89.3838C110.175 89.0168 110.148 88.6478 110.126 88.2788C110.089 87.6461 110.102 87.0133 110.142 86.3824C110.157 86.1626 110.292 85.0729 110.168 85.9905C110.217 85.6273 110.287 85.2679 110.362 84.9085C110.492 84.2967 110.669 83.6983 110.875 83.1114C110.932 82.9528 111.141 82.427 110.841 83.1669C110.899 83.0235 110.961 82.882 111.024 82.7425C111.17 82.4137 111.334 82.0963 111.506 81.7809C111.727 81.3775 111.978 80.9932 112.241 80.6185C111.757 81.3048 112.285 80.5784 112.405 80.4331C112.568 80.2381 112.742 80.0508 112.917 79.8672C113.093 79.6818 113.279 79.5078 113.467 79.3358C113.544 79.2669 113.621 79.2 113.7 79.1331C114.124 78.768 113.223 79.5021 113.667 79.1637C114.082 78.8464 114.526 78.5692 114.981 78.3187C115.167 78.2155 115.359 78.1218 115.551 78.032C114.826 78.378 115.677 77.9899 115.847 77.9268C116.378 77.7299 116.926 77.5865 117.478 77.4699C117.593 77.447 117.708 77.4259 117.823 77.4049C118.436 77.294 117.231 77.4737 117.856 77.3973C118.162 77.359 118.471 77.3399 118.778 77.3227C119.43 77.2883 120.085 77.3132 120.737 77.3629C122.119 77.4699 123.276 76.0744 123.276 74.7075C123.271 73.1762 122.112 72.1572 120.734 72.0502Z" fill="#8BD092"/>
</svg>
