<svg width="374" height="550" viewBox="0 0 374 550" fill="none" xmlns="http://www.w3.org/2000/svg">
<path d="M250.882 137.307C254.07 137.307 256.728 134.647 256.728 131.461C256.728 128.275 254.068 125.615 250.882 125.615C247.696 125.615 245.036 128.275 245.036 131.461C245.036 134.647 247.696 137.307 250.882 137.307Z" fill="#3DB149"/>
<path d="M227.715 95.9717C214.339 75.1333 191.501 62.4504 166.652 62.9282C160.673 63.0449 154.767 64.3807 149.1 66.1934C146.517 67.0205 144.056 68.1831 141.605 69.3294C140.155 70.0104 138.555 63.1071 138.116 62.1114C133.235 51.0353 125.531 42.2932 115.59 35.4666C105.629 28.6228 93.5769 25.3097 81.5997 24.9206C73.7836 24.6664 55.9784 25.7414 53.4367 34.511C43.3066 69.4888 25.3924 102.007 10.8409 135.243C10.5014 136.013 10.9291 137.127 11.924 137.034C32.9937 135.067 52.8841 139.856 69.7064 152.931C75.4031 157.355 88.5994 168.33 88.531 176.098C88.5049 179.327 91.9191 181.683 94.3933 182.926C97.4603 184.462 100.805 183.868 103.577 182.175C111.778 177.157 123.789 177.889 133.005 179.083C151.664 181.496 168.224 192.467 181.174 205.568C181.696 206.091 182.751 206.008 183.076 205.289C199.085 169.765 213.234 133.336 227.735 97.1762C228.307 95.751 226.2 94.5643 225.626 96.0092" fill="#DB6565"/>
<path fill-rule="evenodd" clip-rule="evenodd" d="M61.0211 39.8719C92.1152 24.3986 130.461 46.7416 137.123 77.4686C165.075 62.0759 201.552 74.0369 216.98 99.1048C216.98 99.1048 188.144 171.6 177.936 194.125C159.062 174.519 126.83 161.756 98.2737 173.152C85.3643 148.115 56.0605 127.259 23.0261 130.962C35.4749 102.35 53.0137 68.3095 61.0211 39.8719Z" fill="white"/>
<path d="M134.168 80.2331C130.674 89.1188 127.229 98.0217 123.808 106.935C122.397 110.61 120.988 114.286 119.571 117.96C118.843 119.849 118.113 121.736 117.38 123.621C117.198 124.09 117.016 124.558 116.834 125.027C116.741 125.264 116.649 125.501 116.557 125.739C116.531 125.806 116.373 126.212 116.529 125.812C116.467 125.972 116.404 126.132 116.342 126.292C115.941 127.319 115.54 128.345 115.138 129.37C110.964 140.017 106.696 150.627 102.388 161.22C101.793 162.685 101.196 164.149 100.598 165.615C100.266 166.43 100.39 167.347 101.23 167.812C101.932 168.2 103.094 167.998 103.428 167.18C107.979 156.019 112.492 144.844 116.909 133.629C119.97 125.853 122.976 118.056 125.97 110.253C127.454 106.384 128.94 102.515 130.432 98.6486C131.271 96.4758 132.113 94.3032 132.957 92.1323C133.172 91.577 133.389 91.0212 133.605 90.4649C133.661 90.3239 133.715 90.1823 133.77 90.0414C133.783 90.0096 133.965 89.5399 133.835 89.8763C133.966 89.5405 134.097 89.203 134.228 88.8672C134.715 87.6188 135.204 86.3709 135.693 85.1236C136.127 84.0146 136.563 82.9058 136.998 81.7974C137.32 80.9776 137.213 80.0687 136.366 79.5999C135.67 79.2176 134.49 79.4113 134.168 80.2331Z" fill="#989898"/>
<path d="M70.8818 55.2188C71.2363 55.1382 71.5921 55.0649 71.9492 54.9991C72.1288 54.9654 72.3093 54.9349 72.4893 54.9054C72.6199 54.8832 72.9694 54.8357 72.4201 54.915C72.5228 54.9 72.6246 54.8844 72.7267 54.8704C73.4621 54.7677 74.2009 54.6922 74.9413 54.6428C76.4769 54.5411 78.0178 54.55 79.5533 54.6505C79.9435 54.6761 80.332 54.7074 80.7218 54.7435C80.8194 54.7522 80.9174 54.7625 81.0144 54.7723C81.2594 54.7961 80.8157 54.7515 80.8183 54.7516C80.8672 54.7547 80.9164 54.762 80.9651 54.7677C81.1741 54.7915 81.3831 54.8153 81.5904 54.8422C82.3964 54.9435 83.1999 55.0687 83.9994 55.213C85.6118 55.5063 87.2083 55.8812 88.7851 56.3278C90.6323 56.8508 92.4511 57.4685 94.2395 58.1651C94.1046 58.1131 93.9703 58.0601 93.8354 58.0081C98.321 59.7618 102.616 62.0062 106.643 64.6473C107.767 65.3851 108.87 66.1563 109.951 66.9574C109.835 66.8707 109.719 66.7851 109.603 66.6985C113.388 69.512 116.925 72.7153 119.89 76.3924C119.99 76.5169 120.09 76.6424 120.189 76.768C119.811 76.2911 120.133 76.6969 120.223 76.8147C120.415 77.0645 120.604 77.3152 120.789 77.5693C121.139 78.0477 121.478 78.5344 121.805 79.0295C122.271 79.734 123.267 80.0856 124.021 79.5928C124.726 79.1324 125.082 78.1296 124.585 77.3768C122.47 74.177 119.886 71.288 117.071 68.6906C113.952 65.8131 110.526 63.2517 106.931 61.0005C103.323 58.7416 99.5122 56.7956 95.5499 55.2383C91.6087 53.6886 87.5414 52.463 83.3465 51.836C79.3376 51.2359 75.2911 51.1486 71.2904 51.8516C70.8542 51.9282 70.4186 52.0159 69.9868 52.1136C69.1599 52.3 68.6136 53.3188 68.8801 54.1141C69.1727 54.9824 69.9992 55.417 70.8818 55.2188Z" fill="#989898"/>
<path d="M66.4401 68.6808C68.2274 68.4416 70.0302 68.3401 71.8326 68.3501C72.7771 68.355 73.7202 68.3912 74.6623 68.4534C75.1565 68.4859 75.6493 68.5257 76.1418 68.5734C76.2466 68.5834 76.3514 68.5936 76.4557 68.6047C76.8811 68.6484 76.0849 68.5632 76.5107 68.6111C76.7477 68.6372 76.9836 68.6652 77.22 68.6949C81.2839 69.2003 85.2891 70.1534 89.1734 71.4428C90.1725 71.7746 91.1654 72.1296 92.1491 72.5062C92.2696 72.5529 92.712 72.7271 92.1845 72.5191C92.2906 72.5605 92.3978 72.6025 92.5034 72.645C92.7694 72.7509 93.0348 72.8578 93.2997 72.9658C93.79 73.1665 94.2779 73.3738 94.764 73.5869C96.708 74.4375 98.613 75.3755 100.469 76.4022C102.309 77.4188 104.101 78.5231 105.832 79.7159C106.259 80.0109 106.684 80.311 107.103 80.6177C107.205 80.6912 107.307 80.7674 107.408 80.8409C107.584 80.9702 107.046 80.57 107.296 80.7576C107.341 80.7917 107.385 80.8243 107.43 80.8585C107.642 81.0179 107.852 81.1783 108.062 81.3397C108.881 81.9735 109.683 82.6301 110.464 83.3098C111.969 84.6183 113.399 86.0149 114.725 87.5041C115.04 87.858 115.351 88.2174 115.654 88.5817C115.805 88.7626 115.953 88.9454 116.102 89.1287C116.15 89.1886 116.412 89.5215 116.215 89.27C116.027 89.0319 116.195 89.2441 116.229 89.2898C116.278 89.3513 116.325 89.4131 116.372 89.475C116.95 90.2302 117.503 91.0066 118.021 91.804C118.269 92.1864 118.511 92.5753 118.744 92.968C119.178 93.6946 120.229 94.0089 120.96 93.5313C121.694 93.0523 121.986 92.0911 121.524 91.3153C119.455 87.8418 116.79 84.7176 113.823 81.9804C110.67 79.0718 107.15 76.5435 103.45 74.3771C99.6558 72.1557 95.6408 70.3257 91.5025 68.8413C87.5809 67.4342 83.5266 66.3701 79.4051 65.7477C75.5325 65.1633 71.579 64.9199 67.6732 65.2975C67.2358 65.3402 66.7997 65.3903 66.3643 65.4487C65.932 65.5063 65.5629 65.6107 65.2467 65.9347C64.9659 66.221 64.7591 66.6959 64.7864 67.1035C64.8397 67.8993 65.5446 68.8014 66.4401 68.6808Z" fill="#989898"/>
<path d="M61.1639 81.9507C61.413 81.9116 60.7209 82.0156 60.972 81.9802C61.0081 81.9749 61.0443 81.9697 61.0805 81.9644C61.1717 81.951 61.2623 81.9386 61.354 81.9268C61.5578 81.8999 61.761 81.8765 61.9656 81.8554C62.3664 81.8137 62.7684 81.782 63.1701 81.7581C63.9959 81.7107 64.8233 81.6988 65.6495 81.7155C66.5387 81.7338 67.4254 81.7853 68.3105 81.8639C68.5197 81.8825 68.7294 81.9027 68.9385 81.9239C69.2192 81.9528 68.5069 81.8768 68.7881 81.9072C68.8332 81.9122 68.8773 81.9167 68.9219 81.9227C69.0562 81.9372 69.19 81.9526 69.3242 81.9697C69.8007 82.0271 70.2768 82.0922 70.7511 82.163C74.7927 82.7691 78.7648 83.8277 82.6221 85.1659C83.1398 85.3459 83.6563 85.5305 84.1704 85.7218C84.4167 85.8128 84.6619 85.9059 84.9071 85.9989C85.0302 86.0458 85.1527 86.0936 85.2758 86.1404C85.5158 86.2332 85.0943 86.0693 85.0933 86.0687C85.1913 86.1056 85.2892 86.1451 85.387 86.1846C86.3959 86.583 87.396 87.002 88.387 87.4398C90.3967 88.328 92.3711 89.2992 94.3005 90.3518C96.1824 91.3796 98.023 92.4869 99.8041 93.6824C100.237 93.9724 100.667 94.2685 101.091 94.5697C101.296 94.7153 101.501 94.8619 101.705 95.0105C101.806 95.0841 101.908 95.1586 102.009 95.2332C102.059 95.2702 102.272 95.4281 102.015 95.2381C101.745 95.0383 102.028 95.248 102.081 95.2877C102.887 95.8934 103.677 96.5203 104.446 97.1709C105.928 98.4216 107.338 99.7606 108.633 101.205C108.945 101.553 109.25 101.906 109.547 102.266C109.679 102.427 109.809 102.589 109.938 102.751C110.061 102.904 109.657 102.389 109.821 102.601C109.854 102.644 109.887 102.687 109.92 102.729C109.993 102.823 110.065 102.917 110.136 103.012C110.667 103.719 111.166 104.447 111.624 105.203C111.835 105.551 112.038 105.904 112.229 106.263C112.63 107.009 113.736 107.29 114.445 106.826C115.205 106.328 115.436 105.407 115.008 104.61C113.206 101.26 110.612 98.3359 107.793 95.8071C104.578 92.9205 100.983 90.4421 97.2384 88.2947C93.2961 86.0327 89.1497 84.1421 84.8881 82.5655C80.9503 81.1082 76.8889 79.9417 72.7495 79.2216C69.1491 78.5949 65.4198 78.2373 61.7731 78.6346C61.269 78.6897 60.7673 78.7646 60.2658 78.8438C59.8866 78.904 59.4737 79.2969 59.2979 79.6147C59.1058 79.9621 59.0308 80.4607 59.1591 80.8443C59.2922 81.2412 59.5442 81.6201 59.9301 81.8123C60.3447 82.015 60.7155 82.0206 61.1639 81.9507Z" fill="#989898"/>
<path d="M55.2803 94.1955C56.1976 94.2014 57.1144 94.2323 58.0292 94.2861C58.5033 94.3142 58.9781 94.348 59.4521 94.3881C59.6707 94.4065 59.8898 94.4266 60.1082 94.4477C60.2183 94.458 60.3278 94.4694 60.4378 94.4797C60.4933 94.4851 60.5473 94.491 60.6028 94.4964C60.9203 94.5284 60.1993 94.4515 60.5162 94.4871C62.4485 94.7046 64.3703 95.0015 66.277 95.3831C70.2921 96.1861 74.2388 97.329 78.0751 98.7581C78.3024 98.8426 78.5302 98.9287 78.7574 99.0158C78.8708 99.0586 78.9846 99.1029 79.0974 99.1467C79.3507 99.2443 78.9641 99.0942 78.9487 99.0884C79.0344 99.1211 79.1184 99.1544 79.2035 99.1881C79.6849 99.3786 80.1639 99.5731 80.6412 99.7732C81.6117 100.178 82.5741 100.603 83.5274 101.047C85.415 101.924 87.2693 102.877 89.0798 103.907C90.8801 104.93 92.6377 106.029 94.3403 107.208C94.7541 107.494 95.1645 107.786 95.5726 108.082C95.6682 108.152 95.7633 108.221 95.8588 108.291C95.9058 108.326 95.9528 108.362 96.0014 108.397C95.6018 108.106 95.8063 108.251 95.9013 108.323C96.1009 108.472 96.3004 108.623 96.4983 108.775C97.2945 109.387 98.0764 110.018 98.8406 110.671C100.321 111.934 101.735 113.275 103.062 114.7C103.721 115.407 104.358 116.136 104.97 116.886C105.106 117.053 105.23 117.246 105.38 117.398C105.374 117.392 105.116 117.06 105.272 117.261C105.306 117.303 105.339 117.347 105.373 117.39C105.456 117.497 105.538 117.605 105.621 117.713C105.897 118.079 106.169 118.45 106.432 118.825C106.693 119.197 106.947 119.575 107.195 119.956C107.656 120.664 108.661 121.01 109.411 120.519C110.12 120.056 110.467 119.061 109.975 118.303C107.82 114.989 105.168 112 102.237 109.355C99.113 106.535 95.6663 104.058 92.0568 101.899C88.4306 99.7294 84.6167 97.875 80.6874 96.3253C76.7079 94.7558 72.6275 93.4578 68.447 92.5354C64.5433 91.673 60.5512 91.1195 56.553 90.9883C56.105 90.9733 55.6562 90.9645 55.2076 90.9625C54.3607 90.9569 53.572 91.7645 53.6298 92.6173C53.6862 93.5132 54.375 94.1896 55.2803 94.1955Z" fill="#989898"/>
<path d="M50.8131 106.094C51.1954 106.122 51.5771 106.154 51.9581 106.189C52.1532 106.207 52.3479 106.225 52.5429 106.245C52.6358 106.255 52.7282 106.264 52.821 106.274C53.0088 106.293 52.4258 106.231 52.6135 106.252C52.6721 106.259 52.7302 106.265 52.7888 106.272C53.6186 106.364 54.4468 106.471 55.2733 106.593C57.0295 106.85 58.7778 107.169 60.5136 107.54C64.3172 108.355 68.0674 109.425 71.7305 110.735C72.2089 110.906 72.6857 111.081 73.1613 111.26C73.386 111.344 73.6111 111.43 73.8357 111.517C73.9455 111.56 74.179 111.657 73.7265 111.474C73.7819 111.497 73.8393 111.518 73.8947 111.541C74.0213 111.591 74.1479 111.641 74.2735 111.69C75.2334 112.074 76.1864 112.475 77.1318 112.894C79.0616 113.748 80.9591 114.678 82.8126 115.688C84.6717 116.699 86.4864 117.791 88.2459 118.967C88.687 119.262 89.1246 119.563 89.5568 119.868C89.774 120.022 89.9895 120.175 90.204 120.331C90.3046 120.404 90.4063 120.478 90.5064 120.552C90.5564 120.589 90.6065 120.626 90.6575 120.663C90.7966 120.766 90.3108 120.405 90.6105 120.628C91.4599 121.264 92.2933 121.922 93.1074 122.603C94.7473 123.974 96.3094 125.438 97.7722 126.998C98.4985 127.772 99.201 128.57 99.8754 129.39C100.035 129.584 100.192 129.778 100.347 129.974C100.386 130.024 100.424 130.073 100.463 130.121C100.184 129.781 100.317 129.936 100.378 130.013C100.475 130.137 100.57 130.26 100.665 130.385C100.988 130.808 101.304 131.238 101.611 131.673C101.919 132.109 102.22 132.551 102.513 132.998C102.977 133.704 103.977 134.054 104.729 133.561C105.436 133.1 105.787 132.101 105.293 131.345C102.866 127.646 99.9158 124.294 96.6091 121.359C93.2964 118.418 89.6407 115.854 85.8002 113.651C82.0283 111.488 78.0669 109.684 74.0022 108.145C70.2669 106.731 66.4339 105.572 62.542 104.677C59.03 103.869 55.4701 103.284 51.8807 102.955C51.4998 102.92 51.1181 102.888 50.7358 102.86C50.355 102.832 49.8751 103.084 49.6182 103.346C49.3374 103.632 49.1306 104.107 49.1579 104.515C49.2222 105.459 49.9082 106.028 50.8131 106.094Z" fill="#989898"/>
<path d="M46.3134 118.812C47.2625 118.881 48.2109 118.965 49.1571 119.066C49.0176 119.051 48.8796 119.036 48.74 119.021C52.9719 119.473 57.1717 120.269 61.236 121.541C62.4278 121.914 63.6069 122.327 64.7713 122.781C64.6364 122.729 64.5021 122.676 64.3672 122.624C67.7198 123.935 70.9352 125.584 73.9492 127.552C74.8628 128.149 75.7569 128.774 76.6333 129.424C76.5176 129.338 76.4013 129.252 76.2856 129.165C78.4036 130.743 80.4074 132.471 82.2921 134.321C82.8582 134.878 83.4145 135.445 83.9589 136.022C84.5399 136.636 85.6791 136.63 86.2453 135.996C86.8487 135.321 86.8425 134.368 86.2197 133.71C83.9724 131.334 81.5473 129.124 78.9399 127.15C76.471 125.278 73.8762 123.589 71.1286 122.154C68.5406 120.804 65.836 119.673 63.0689 118.745C60.5406 117.897 57.952 117.236 55.3338 116.736C52.6411 116.221 49.9156 115.882 47.1838 115.654C46.8687 115.627 46.5534 115.603 46.2376 115.58C45.8562 115.553 45.3774 115.803 45.12 116.066C44.8392 116.353 44.6324 116.828 44.6597 117.235C44.6874 117.644 44.8307 118.071 45.1456 118.353C45.4867 118.657 45.8583 118.779 46.3134 118.812Z" fill="#989898"/>
<path d="M146.391 89.806C147.398 89.5332 148.417 89.3011 149.443 89.1094C149.691 89.0629 149.939 89.019 150.187 88.9778C150.312 88.9564 150.436 88.9361 150.561 88.9173C150.617 88.9087 150.878 88.868 150.581 88.914C150.269 88.9619 150.617 88.9097 150.678 88.9008C151.207 88.8239 151.739 88.7564 152.272 88.6983C154.428 88.4651 156.6 88.3884 158.768 88.4422C159.895 88.4709 161.021 88.535 162.144 88.6318C162.414 88.6551 162.683 88.6804 162.953 88.7083C163.021 88.7153 163.088 88.7217 163.156 88.7287C163.366 88.7505 162.721 88.6814 163.022 88.7148C163.185 88.7331 163.347 88.7507 163.509 88.77C164.08 88.837 164.649 88.9123 165.217 88.9964C167.494 89.3315 169.753 89.7951 171.981 90.374C174.543 91.0398 177.064 91.8608 179.53 92.8222C179.395 92.7702 179.261 92.7172 179.126 92.6652C183.268 94.2847 187.259 96.3023 190.991 98.7233C192.039 99.4026 193.064 100.115 194.068 100.857C193.952 100.771 193.836 100.685 193.72 100.599C195.905 102.223 197.977 103.998 199.892 105.932C200.487 106.533 201.602 106.55 202.178 105.907C202.769 105.244 202.789 104.264 202.152 103.62C199.298 100.736 196.092 98.2006 192.697 95.9843C189.304 93.7697 185.694 91.8884 181.95 90.3402C178.113 88.7537 174.152 87.4763 170.091 86.599C166.155 85.7493 162.122 85.253 158.094 85.1956C154.301 85.1423 150.485 85.5044 146.789 86.3706C146.357 86.4719 145.925 86.5816 145.496 86.6982C144.679 86.9205 144.115 87.8791 144.389 88.6987C144.672 89.5416 145.519 90.0432 146.391 89.806Z" fill="#989898"/>
<path d="M141.625 103.09C143.608 102.961 145.6 102.964 147.584 103.053C148.672 103.101 149.76 103.178 150.844 103.276C151.118 103.301 151.391 103.327 151.664 103.354C151.789 103.366 151.914 103.381 152.039 103.393C151.453 103.334 152.004 103.389 152.15 103.406C152.736 103.472 153.321 103.543 153.905 103.622C158.719 104.261 163.484 105.278 168.149 106.623C170.837 107.398 173.494 108.288 176.101 109.303C175.966 109.251 175.832 109.198 175.697 109.146C179.639 110.685 183.491 112.507 187.071 114.773C188.017 115.371 188.941 116.001 189.84 116.668C189.725 116.581 189.608 116.496 189.493 116.409C191.42 117.842 193.231 119.444 194.786 121.279C195.041 121.582 195.573 121.749 195.954 121.74C196.343 121.73 196.809 121.549 197.072 121.254C197.701 120.549 197.633 119.659 197.046 118.967C194.71 116.209 191.799 113.957 188.761 112.023C185.4 109.883 181.795 108.135 178.102 106.649C174.087 105.033 169.966 103.694 165.771 102.631C161.827 101.63 157.821 100.86 153.782 100.366C150.121 99.9173 146.424 99.6507 142.735 99.7955C142.339 99.8108 141.944 99.8319 141.548 99.8576C140.705 99.9126 139.91 100.616 139.97 101.512C140.026 102.356 140.722 103.15 141.625 103.09Z" fill="#989898"/>
<path d="M135.765 116.748C137.334 116.507 138.923 116.41 140.509 116.404C141.364 116.401 142.219 116.426 143.072 116.472C143.528 116.497 143.984 116.528 144.44 116.565C144.672 116.584 144.905 116.604 145.137 116.626C145.242 116.636 145.348 116.647 145.453 116.657C145.585 116.67 146.093 116.729 145.495 116.66C149.533 117.121 153.516 117.938 157.421 119.066C159.758 119.74 162.062 120.523 164.329 121.405C164.194 121.353 164.06 121.3 163.925 121.248C168.237 122.934 172.419 124.984 176.32 127.482C177.388 128.167 178.434 128.886 179.454 129.641C179.339 129.554 179.222 129.468 179.107 129.382C181.734 131.334 184.194 133.533 186.3 136.043C186.441 136.211 186.581 136.382 186.719 136.553C186.787 136.637 186.865 136.72 186.924 136.81C186.926 136.814 186.651 136.459 186.8 136.652C186.837 136.7 186.874 136.748 186.91 136.796C187.182 137.149 187.446 137.508 187.702 137.872C187.956 138.232 188.273 138.512 188.713 138.618C189.092 138.709 189.587 138.652 189.918 138.436C190.605 137.987 191.001 136.958 190.482 136.22C188.17 132.934 185.301 130.091 182.125 127.642C178.703 125.004 175.001 122.763 171.118 120.874C167.182 118.961 163.071 117.378 158.879 116.127C155.056 114.986 151.142 114.116 147.181 113.624C143.729 113.196 140.213 112.983 136.748 113.375C136.394 113.415 136.042 113.463 135.69 113.517C135.254 113.584 134.895 113.673 134.573 114.003C134.292 114.289 134.085 114.764 134.112 115.171C134.14 115.581 134.283 116.007 134.598 116.289C134.897 116.555 135.348 116.813 135.765 116.748Z" fill="#989898"/>
<path d="M131.725 130.15C133.988 129.928 136.268 129.912 138.536 130.059C139.196 130.102 139.855 130.159 140.513 130.228C140.373 130.213 140.235 130.198 140.096 130.183C142.061 130.392 144.013 130.714 145.943 131.137C147.905 131.566 149.844 132.096 151.752 132.72C152.821 133.07 153.882 133.45 154.929 133.858C154.794 133.806 154.66 133.753 154.525 133.701C158.059 135.078 161.475 136.775 164.662 138.835C165.5 139.377 166.321 139.944 167.122 140.539C167.007 140.453 166.89 140.367 166.775 140.28C167.016 140.46 167.256 140.642 167.494 140.827C167.85 141.103 168.195 141.299 168.663 141.288C169.051 141.278 169.517 141.096 169.78 140.802C170.063 140.486 170.269 140.069 170.241 139.633C170.214 139.24 170.08 138.767 169.755 138.515C167.716 136.934 165.564 135.512 163.309 134.257C161.037 132.992 158.676 131.888 156.255 130.937C153.667 129.92 151.029 129.047 148.331 128.375C145.656 127.709 142.943 127.249 140.201 126.972C137.665 126.716 135.105 126.651 132.562 126.839C132.256 126.862 131.952 126.889 131.647 126.918C131.222 126.96 130.835 127.092 130.529 127.404C130.248 127.691 130.041 128.165 130.069 128.573C130.096 128.982 130.24 129.409 130.555 129.691C130.867 129.967 131.294 130.193 131.725 130.15Z" fill="#989898"/>
<path d="M125.217 143.448C127.88 143.3 130.551 143.423 133.202 143.703C133.062 143.689 132.924 143.674 132.784 143.659C135.369 143.936 137.936 144.368 140.474 144.925C143.156 145.513 145.808 146.238 148.417 147.088C149.909 147.574 151.386 148.102 152.847 148.671C152.712 148.619 152.578 148.566 152.443 148.514C156.712 150.18 160.862 152.192 164.729 154.659C165.773 155.324 166.793 156.024 167.788 156.761C167.672 156.674 167.556 156.588 167.44 156.502C169.337 157.91 171.138 159.454 172.758 161.176C173.198 161.643 173.624 162.123 174.035 162.616C174.288 162.92 174.825 163.085 175.204 163.077C175.593 163.067 176.059 162.886 176.322 162.591C176.604 162.275 176.811 161.858 176.782 161.422C176.752 160.978 176.58 160.645 176.296 160.304C174.041 157.597 171.33 155.317 168.462 153.286C165.414 151.128 162.139 149.297 158.757 147.717C155.145 146.027 151.4 144.606 147.585 143.446C144.001 142.355 140.341 141.495 136.637 140.922C133.213 140.393 129.731 140.076 126.264 140.17C125.89 140.18 125.515 140.196 125.142 140.216C124.298 140.263 123.505 140.981 123.565 141.871C123.62 142.72 124.314 143.498 125.217 143.448Z" fill="#989898"/>
<path d="M121.574 155.377C123.543 155.165 125.528 155.142 127.504 155.269C128.079 155.305 128.656 155.355 129.23 155.416C129.09 155.402 128.953 155.386 128.813 155.372C130.836 155.589 132.843 155.946 134.824 156.413C136.839 156.886 138.828 157.469 140.788 158.134C141.907 158.514 143.017 158.92 144.12 159.349C143.985 159.297 143.851 159.244 143.716 159.192C145.567 159.915 147.394 160.7 149.198 161.536C150.959 162.352 152.699 163.216 154.418 164.118C155.36 164.611 156.296 165.117 157.226 165.631C157.589 165.832 158.057 165.885 158.456 165.77C158.837 165.66 159.244 165.36 159.423 164.999C159.813 164.214 159.585 163.24 158.791 162.801C156.633 161.607 154.444 160.466 152.221 159.396C149.787 158.225 147.311 157.152 144.793 156.172C142.393 155.24 139.949 154.415 137.462 153.743C135.021 153.084 132.536 152.573 130.024 152.278C127.484 151.98 124.929 151.858 122.377 152.062C122.084 152.085 121.792 152.113 121.499 152.144C121.073 152.19 120.691 152.314 120.382 152.63C120.101 152.916 119.894 153.391 119.921 153.799C119.949 154.208 120.092 154.634 120.407 154.916C120.715 155.193 121.146 155.423 121.574 155.377Z" fill="#989898"/>
<path d="M54.6426 288.34C60.8809 304.128 67.1259 319.917 73.3664 335.708C73.8762 336.992 75.22 337.435 76.467 337.057C107.672 327.586 137.863 312.833 167.848 300.091C169.056 299.58 169.676 298.233 169.197 296.989C163.055 281.066 156.391 265.324 149.236 249.831C148.681 248.64 147.4 247.989 146.135 248.481C115.87 260.198 86.1505 273.269 55.9906 285.237" fill="#638CD7"/>
<path d="M86.4241 282.473C86.2484 274.228 85.8559 265.963 84.7712 257.782C84.372 254.77 83.8743 251.762 83.1166 248.818C82.5552 246.637 81.8596 244.416 80.7482 242.445C80.3153 241.677 79.8014 240.924 79.1797 240.297C78.1626 239.271 76.9244 238.437 75.6519 237.761C74.262 237.022 72.7939 236.434 71.3281 235.864C70.633 235.595 69.9362 235.331 69.2425 235.057C68.9028 234.923 68.5633 234.787 68.2254 234.647C68.1386 234.611 68.041 234.555 67.9497 234.532C68.2733 234.61 68.1608 234.623 68.0503 234.575C67.8373 234.483 67.6248 234.391 67.4131 234.294C66.0637 233.683 64.7506 232.976 63.5698 232.075C63.5437 232.055 63.5171 232.035 63.4911 232.015C63.358 231.91 63.3873 231.934 63.5784 232.084C63.564 232.053 63.4429 231.973 63.4248 231.959C63.2723 231.831 63.1215 231.701 62.9754 231.567C62.6908 231.308 62.4181 231.036 62.1595 230.75C61.92 230.486 61.7188 230.174 61.4708 229.92C61.744 230.2 61.5196 229.986 61.4581 229.898C61.3975 229.812 61.3375 229.724 61.2789 229.635C61.1602 229.456 61.0461 229.272 60.9371 229.086C60.7301 228.733 60.541 228.369 60.3692 227.997C60.2875 227.821 60.2123 227.643 60.1377 227.463C60.2833 227.811 60.1297 227.438 60.1078 227.381C60.0519 227.228 59.9976 227.074 59.9468 226.919C59.8063 226.495 59.6849 226.064 59.581 225.629C59.5235 225.388 59.4706 225.147 59.4231 224.905C59.397 224.768 59.3709 224.632 59.3479 224.494C59.3417 224.458 59.2959 224.013 59.3181 224.34C59.2569 223.44 59.2593 222.543 59.3513 221.644C59.3622 221.533 59.3641 221.41 59.3901 221.302C59.3796 221.345 59.3401 221.629 59.3836 221.351C59.4194 221.125 59.4562 220.9 59.4998 220.676C59.5834 220.249 59.6846 219.825 59.803 219.406C59.9104 219.025 60.0332 218.649 60.1675 218.276C60.2452 218.063 60.329 217.853 60.4119 217.643C60.549 217.293 60.3075 217.872 60.4067 217.654C60.4615 217.533 60.513 217.412 60.5687 217.292C60.935 216.501 61.3587 215.737 61.829 215.001C62.0458 214.664 62.2714 214.333 62.5065 214.007C62.6298 213.836 62.7554 213.667 62.8839 213.5C62.9072 213.469 62.9305 213.438 62.9542 213.409C63.0614 213.271 63.0489 213.288 62.9154 213.457C62.9756 213.427 63.0896 213.241 63.1337 213.188C63.6993 212.5 64.3019 211.845 64.9357 211.221C65.5579 210.608 66.2099 210.023 66.8854 209.469C67.2002 209.211 67.5194 208.958 67.8436 208.712C67.8972 208.671 68.2116 208.431 67.8983 208.669C67.9908 208.599 68.0849 208.533 68.1797 208.465C68.3676 208.331 68.556 208.198 68.7472 208.067C70.1392 207.111 71.6047 206.262 73.1251 205.53C73.4812 205.359 73.8389 205.194 74.2009 205.037C74.3779 204.96 74.5568 204.884 74.7355 204.81C74.8165 204.777 74.897 204.744 74.9774 204.711C75.1226 204.654 75.1064 204.659 74.9288 204.731C75.0087 204.699 75.0881 204.669 75.1689 204.638C76.038 204.302 76.9184 203.992 77.8087 203.718C78.6462 203.459 79.4948 203.231 80.3507 203.044C80.7514 202.957 81.1545 202.879 81.5593 202.811C81.7393 202.78 81.9202 202.752 82.1014 202.726C82.2071 202.711 82.3174 202.686 82.4244 202.681C82.006 202.7 82.4876 202.676 82.5723 202.666C83.3341 202.586 84.1008 202.548 84.8668 202.56C85.2387 202.567 85.6094 202.584 85.9801 202.614C86.1632 202.63 86.346 202.65 86.5284 202.669C86.7625 202.693 86.6385 202.593 86.4838 202.66C86.5588 202.629 86.7949 202.707 86.8769 202.722C87.5914 202.842 88.2968 203.015 88.9846 203.24C89.1723 203.302 89.3587 203.368 89.5443 203.437C89.6701 203.485 89.8692 203.613 90.0053 203.62C89.9409 203.593 89.877 203.566 89.8126 203.539C89.8736 203.565 89.9351 203.592 89.9955 203.619C90.0869 203.661 90.1777 203.703 90.2685 203.745C90.4504 203.832 90.6306 203.923 90.809 204.018C91.5128 204.39 92.1844 204.822 92.8202 205.3C92.8775 205.343 92.9343 205.387 92.9902 205.431C93.2892 205.659 92.7191 205.202 93.0087 205.447C93.1625 205.576 93.3184 205.704 93.4696 205.836C93.796 206.121 94.1112 206.419 94.4168 206.726C94.7215 207.033 95.0167 207.349 95.3005 207.674C95.3804 207.765 95.4561 207.861 95.5381 207.95C95.7997 208.235 95.4413 207.8 95.5882 208.005C95.7565 208.242 95.9253 208.477 96.0868 208.718C96.5747 209.444 97.0206 210.2 97.3977 210.99C97.4905 211.184 97.5787 211.379 97.6618 211.576C97.708 211.685 97.8774 211.907 97.6745 211.598C97.705 211.645 97.7288 211.738 97.7469 211.787C97.8824 212.152 98.0003 212.522 98.0996 212.898C98.1854 213.222 98.2563 213.549 98.3117 213.879C98.3321 213.999 98.3685 214.492 98.339 214.013C98.3507 214.213 98.3807 214.411 98.3924 214.611C98.4301 215.215 98.4156 215.822 98.3577 216.425C98.3427 216.585 98.318 216.745 98.3025 216.906C98.3039 216.893 98.3616 216.515 98.3222 216.755C98.3097 216.834 98.298 216.914 98.284 216.994C98.2313 217.31 98.1679 217.625 98.0984 217.938C97.5516 220.377 96.6023 222.708 96.2328 225.19C96.114 225.983 96.0651 226.768 96.0001 227.565C95.9892 227.698 95.9684 227.829 95.956 227.962C96.0039 227.424 95.9573 227.93 95.9326 228.062C95.8931 228.276 95.8448 228.491 95.7851 228.701C95.7358 228.875 95.6788 229.046 95.6147 229.214C95.5989 229.256 95.5813 229.296 95.5661 229.337C95.4871 229.548 95.7535 228.916 95.66 229.116C95.6263 229.188 95.5946 229.261 95.561 229.333C95.3894 229.697 95.2109 230.056 95.0655 230.433C94.7603 231.222 94.7207 232.103 94.7968 232.94C94.866 233.702 94.9885 234.46 95.1422 235.208C95.3419 236.184 95.5286 237.199 95.9495 238.104C96.5683 239.437 97.5272 240.623 98.4754 241.733C99.531 242.969 100.668 244.133 101.803 245.295C102.879 246.397 103.97 247.491 104.973 248.661C105.168 248.889 105.362 249.122 105.547 249.359C105.597 249.423 105.645 249.488 105.695 249.552C105.88 249.792 105.472 249.245 105.645 249.485C105.873 249.801 106.131 250.08 106.391 250.37C107.161 251.226 107.927 252.088 108.689 252.951C111.565 256.216 114.39 259.526 117.285 262.775C118.712 264.377 120.157 265.962 121.629 267.523C122.175 268.102 123.219 268.155 123.78 267.563C124.353 266.96 124.406 266.031 123.821 265.411C120.766 262.174 117.837 258.823 114.918 255.464C113.478 253.807 112.039 252.15 110.586 250.504C110.223 250.093 109.859 249.682 109.493 249.272C109.096 248.827 108.716 248.322 108.277 247.917C107.933 247.6 108.454 248.035 108.216 247.882C108.145 247.838 107.978 247.559 107.887 247.439C107.805 247.33 107.721 247.223 107.637 247.116C107.417 246.84 107.189 246.571 106.956 246.306C104.848 243.902 102.45 241.765 100.403 239.305C100.17 239.025 99.9427 238.741 99.7232 238.452C99.6365 238.338 99.5753 238.123 99.7302 238.463C99.695 238.385 99.6172 238.306 99.5672 238.236C99.4629 238.087 99.3616 237.938 99.2634 237.785C99.0935 237.524 98.9339 237.256 98.7885 236.982C98.7267 236.865 98.6669 236.746 98.6121 236.626C98.5802 236.557 98.5439 236.487 98.5186 236.416C98.4667 236.298 98.4826 236.322 98.5682 236.492C98.5436 236.396 98.5191 236.3 98.4955 236.204C98.2759 235.326 98.0706 234.441 97.9234 233.549C97.8999 233.404 97.8794 233.258 97.8574 233.112C97.8111 232.806 97.8912 233.476 97.8649 233.179C97.8579 233.105 97.8485 233.031 97.8425 232.957C97.8202 232.713 97.8063 232.468 97.8082 232.222C97.8098 232.043 97.8393 231.865 97.8412 231.687C97.8363 232.228 97.8012 231.95 97.8377 231.777C97.8546 231.699 97.8733 231.622 97.8961 231.545C97.9339 231.415 97.9898 231.293 98.0324 231.165C97.8176 231.811 97.9823 231.295 98.0676 231.119C98.4506 230.327 98.7675 229.532 98.9071 228.661C99.0279 227.907 99.0488 227.156 99.1248 226.399C99.1394 226.25 99.1584 226.102 99.1754 225.953C99.214 225.628 99.1196 226.313 99.1707 225.991C99.1818 225.918 99.1929 225.846 99.2046 225.772C99.2581 225.444 99.3205 225.115 99.39 224.789C99.6588 223.535 100.04 222.309 100.406 221.081C101.182 218.472 101.721 215.851 101.26 213.128C100.667 209.621 98.5067 206.308 95.9104 203.949C93.3339 201.609 90.2496 200.11 86.7948 199.659C83.4301 199.219 79.9745 199.842 76.7676 200.861C69.8745 203.053 63.2675 207.196 59.2759 213.356C57.2905 216.421 56.1024 220.055 56.2414 223.729C56.3817 227.439 58.0876 231.26 60.8578 233.749C63.2814 235.926 66.2768 237.165 69.2781 238.322C69.9861 238.596 70.6948 238.866 71.4002 239.148C71.5821 239.221 71.764 239.295 71.9454 239.369C72.0054 239.394 72.0661 239.419 72.1252 239.444C72.4497 239.578 71.7869 239.297 72.1081 239.436C72.4625 239.59 72.8149 239.746 73.1636 239.912C73.8188 240.223 74.4618 240.56 75.0795 240.941C75.3699 241.119 75.654 241.308 75.9311 241.507C76.0535 241.595 76.1729 241.705 76.3018 241.784C75.9267 241.555 76.1744 241.683 76.2699 241.763C76.365 241.841 76.4585 241.922 76.5504 242.003C76.8674 242.282 77.1636 242.578 77.4299 242.906C77.4921 242.984 77.5489 243.069 77.6138 243.144C77.2445 242.716 77.4754 242.956 77.5604 243.079C77.6846 243.259 77.8017 243.442 77.9141 243.628C78.1503 244.02 78.3638 244.427 78.5601 244.842C78.6625 245.058 78.7604 245.275 78.8542 245.495C78.9035 245.609 78.9503 245.724 78.9981 245.839C79.0424 245.947 79.0855 246.134 78.944 245.702C78.973 245.791 79.012 245.878 79.0455 245.965C79.9663 248.389 80.5484 250.939 81.0254 253.482C81.3262 255.084 81.5756 256.696 81.7934 258.311C81.8491 258.727 81.9057 259.142 81.9549 259.56C81.91 259.172 81.982 259.791 81.9922 259.869C82.0246 260.143 82.0565 260.418 82.0874 260.692C82.1881 261.584 82.2799 262.475 82.3648 263.367C82.7609 267.518 83.0107 271.681 83.1802 275.847C83.2695 278.049 83.335 280.252 83.3814 282.455C83.3982 283.25 84.0565 284.017 84.8939 283.986C85.6978 283.956 86.4427 283.325 86.4241 282.473Z" fill="#343434"/>
<path d="M67.1013 299.992C68.4753 299.445 69.8488 298.899 71.2232 298.354C71.3764 298.293 71.5296 298.232 71.6834 298.171C71.9135 298.079 71.3516 298.302 71.7233 298.155C71.7996 298.125 71.8765 298.094 71.9529 298.064C72.2962 297.928 72.6396 297.791 72.9833 297.656C73.6478 297.393 74.3122 297.129 74.9766 296.866C77.6125 295.821 80.2488 294.778 82.8838 293.733C88.1133 291.659 93.3403 289.579 98.5547 287.469C103.719 285.379 108.87 283.259 114.001 281.093C119.395 278.815 124.767 276.486 130.112 274.097C135.891 271.515 141.639 268.864 147.357 266.148C148.11 265.79 148.864 265.43 149.616 265.07C150.336 264.726 150.62 263.673 150.209 263.001C149.756 262.263 148.908 262.041 148.14 262.409C142.34 265.184 136.51 267.895 130.647 270.533C125.283 272.947 119.892 275.302 114.478 277.603C109.334 279.789 104.167 281.927 98.9879 284.031C93.8487 286.12 88.6971 288.176 83.5408 290.223C83.3926 290.282 83.246 290.34 83.0978 290.399C83.0245 290.428 82.9497 290.458 82.8763 290.487C83.1863 290.363 82.9279 290.466 82.8501 290.497C82.5168 290.629 82.1842 290.76 81.8509 290.893C81.2017 291.15 80.5519 291.408 79.9027 291.665C78.5935 292.184 77.284 292.702 75.9754 293.22C73.2045 294.318 70.434 295.416 67.6639 296.517C66.9837 296.788 66.3035 297.058 65.6234 297.329C65.283 297.465 64.9842 297.926 64.8935 298.259C64.7974 298.612 64.837 299.08 65.0309 299.398C65.5085 300.178 66.3084 300.307 67.1013 299.992Z" fill="#343434"/>
<path d="M135.629 307.685C137.555 306.893 139.488 306.115 141.424 305.346C141.079 305.483 140.735 305.619 140.391 305.757C145.493 303.733 150.625 301.787 155.732 299.778C156.86 299.335 157.749 298.874 158.395 297.784C158.98 296.796 159.152 295.602 158.867 294.491C158.583 293.378 157.861 292.414 156.873 291.828C155.989 291.304 154.585 290.96 153.58 291.356C146.188 294.263 138.758 297.066 131.41 300.084C130.39 300.502 129.602 301.728 129.325 302.741C129.027 303.829 129.172 305.009 129.718 305.995C130.281 307.013 131.253 307.774 132.375 308.08C133.566 308.403 134.533 308.135 135.629 307.685Z" fill="white"/>
<path fill-rule="evenodd" clip-rule="evenodd" d="M204.103 339.302C63.0359 288.035 7.96594 493.518 127.471 536.846C205.019 564.957 257.145 533.051 275.049 467.197C290.549 402.525 256.825 358.411 204.103 339.302Z" fill="#FFA446"/>
<path d="M66.761 409.894C77.4279 418.876 88.9656 426.779 101.067 433.695C113.181 440.618 125.826 446.558 138.731 451.846C151.552 457.1 164.646 461.665 177.867 465.805C191.758 470.155 205.769 474.259 220.043 477.159C234.862 480.167 249.94 481.85 265.064 481.982C266.988 481.998 268.912 481.99 270.835 481.962C272.351 481.939 273.642 480.689 273.642 479.155C273.642 477.652 272.359 476.326 270.835 476.348C256.004 476.565 241.221 475.381 226.665 472.734C212.284 470.117 198.21 466.158 184.24 461.901C171.172 457.918 158.216 453.552 145.502 448.553C132.912 443.602 120.507 437.969 108.547 431.442C96.6965 424.976 85.1648 417.567 74.7041 409.187C73.3664 408.116 72.0449 407.027 70.7336 405.924C69.5757 404.948 67.9006 404.788 66.7651 405.924C65.7588 406.928 65.5951 408.914 66.761 409.894Z" fill="#343434"/>
<path d="M196.62 337.029C186.862 345.742 178.62 356.098 171.821 367.253C168.457 372.774 165.44 378.506 162.744 384.382C159.754 390.901 156.666 397.371 153.793 403.942C147.955 417.292 142.639 430.879 138.184 444.756C133.795 458.424 130.299 472.376 127.608 486.474C124.931 500.493 123.019 514.643 121.073 528.78C120.823 530.602 120.572 532.423 120.317 534.245C120.109 535.745 120.681 537.258 122.277 537.697C123.589 538.056 125.519 537.248 125.729 535.737C127.697 521.562 129.536 507.363 132.041 493.269C134.522 479.305 137.733 465.459 141.839 451.881C145.951 438.282 150.9 424.934 156.448 411.859C159.257 405.241 162.209 398.684 165.272 392.182C168.079 386.225 170.817 380.258 174.062 374.52C180.38 363.346 187.859 353.186 197.077 344.257C198.224 343.145 199.394 342.06 200.584 340.997C201.716 339.987 201.613 338.06 200.584 337.029C199.465 335.906 197.754 336.017 196.62 337.029Z" fill="#343434"/>
<path d="M141.181 332.038C139.437 337.747 137.503 343.396 135.719 349.09C133.785 355.267 131.995 361.501 130.704 367.848C129.411 374.199 128.546 380.721 128.782 387.213C129.01 393.524 130.296 399.778 133.135 405.448C136.135 411.439 140.92 416.337 146.515 419.96C150.385 422.465 154.646 424.512 159.021 425.963C163.169 427.339 167.584 428.08 171.961 428.01C176.444 427.935 180.92 427.04 185.131 425.512C189.14 424.059 192.975 422.19 196.436 419.689C202.464 415.334 207.315 409.737 211.929 403.958C216.453 398.292 220.819 392.439 226.109 387.446C226.754 386.838 227.41 386.244 228.081 385.668C228.427 385.371 228.774 385.078 229.128 384.791C229.286 384.663 229.443 384.536 229.601 384.411C229.785 384.265 230.49 383.766 229.752 384.29C231.262 383.223 232.775 382.198 234.327 381.194C236.287 379.925 238.296 378.725 240.367 377.648C241.419 377.1 242.49 376.599 243.573 376.114C243.709 376.053 244.054 375.882 243.444 376.167C243.561 376.112 243.687 376.066 243.806 376.017C244.046 375.918 244.289 375.823 244.531 375.728C245.103 375.506 245.681 375.298 246.265 375.104C247.291 374.762 248.334 374.467 249.391 374.231C249.91 374.116 250.433 374.013 250.959 373.928C251.082 373.908 251.205 373.889 251.329 373.871C251.858 373.786 251.155 373.914 251.137 373.895C251.195 373.952 251.959 373.807 252.06 373.798C252.818 373.73 253.489 373.532 254.044 372.976C254.531 372.489 254.897 371.691 254.867 370.992C254.804 369.584 253.626 368.046 252.06 368.185C247.15 368.626 242.535 370.277 238.152 372.485C236.063 373.538 234.042 374.722 232.068 375.977C230.492 376.981 228.906 377.957 227.404 379.074C221.474 383.489 216.665 389.046 212.078 394.797C207.625 400.382 203.319 406.147 198.103 411.061C197.449 411.679 196.78 412.281 196.095 412.867C195.792 413.128 195.485 413.382 195.176 413.635C195.002 413.776 194.826 413.918 194.65 414.057C194.571 414.12 194.493 414.181 194.414 414.243C194.147 414.455 194.945 413.839 194.567 414.126C193.145 415.201 191.674 416.205 190.13 417.1C189.296 417.583 188.445 418.032 187.574 418.446C187.051 418.695 186.525 418.937 185.994 419.169C185.871 419.224 185.747 419.277 185.624 419.329C185.232 419.501 186.265 419.068 185.65 419.319C185.345 419.442 185.04 419.568 184.733 419.689C182.682 420.489 180.575 421.152 178.425 421.631C177.954 421.736 177.481 421.831 177.006 421.918C176.741 421.966 176.477 422.01 176.21 422.053C176.093 422.071 175.976 422.089 175.856 422.107C175.757 422.122 175.115 422.225 175.612 422.144C176.111 422.063 175.293 422.18 175.194 422.19C174.931 422.219 174.668 422.245 174.404 422.269C173.88 422.316 173.355 422.35 172.83 422.37C171.813 422.413 170.795 422.411 169.778 422.362C169.285 422.34 168.792 422.306 168.299 422.261C168.067 422.241 167.835 422.217 167.604 422.192C167.489 422.18 167.372 422.166 167.257 422.152C167.142 422.138 167.024 422.124 166.909 422.107C167.043 422.126 167.174 422.144 167.307 422.16C165.242 421.778 163.217 421.402 161.207 420.774C160.138 420.44 159.083 420.063 158.043 419.65C157.814 419.559 157.544 419.493 157.335 419.363C157.839 419.675 157.653 419.499 157.475 419.422C157.356 419.372 157.238 419.321 157.119 419.269C156.551 419.02 155.988 418.759 155.428 418.493C153.448 417.543 151.508 416.49 149.653 415.314C148.932 414.855 148.224 414.377 147.531 413.873C147.358 413.748 147.186 413.621 147.014 413.491C146.939 413.435 146.863 413.376 146.788 413.32C146.495 413.102 147.374 413.781 146.964 413.455C146.636 413.195 146.309 412.934 145.988 412.663C144.785 411.655 143.65 410.57 142.593 409.412C142.086 408.854 141.595 408.278 141.126 407.686C141.061 407.603 140.987 407.523 140.928 407.436C140.926 407.434 141.385 408.038 141.134 407.7C141.033 407.565 140.93 407.43 140.831 407.292C140.607 406.987 140.389 406.678 140.174 406.365C139.358 405.165 138.623 403.912 137.972 402.615C137.806 402.285 137.647 401.952 137.493 401.616C137.424 401.467 137.358 401.317 137.291 401.168C137.192 400.944 136.909 400.222 137.283 401.162C137.018 400.497 136.753 399.832 136.517 399.155C136.046 397.797 135.658 396.411 135.343 395.009C135.185 394.302 135.046 393.59 134.925 392.875C134.866 392.526 134.81 392.176 134.759 391.826C134.755 391.794 134.721 391.517 134.715 391.517C134.717 391.517 134.818 392.309 134.765 391.891C134.739 391.683 134.713 391.475 134.688 391.267C134.343 388.29 134.278 385.286 134.412 382.295C134.48 380.754 134.601 379.216 134.767 377.682C134.81 377.284 134.856 376.884 134.905 376.486C134.927 376.308 134.949 376.13 134.971 375.954C134.983 375.866 134.993 375.777 135.006 375.688C135.074 375.152 134.903 376.435 134.977 375.9C135.088 375.12 135.202 374.34 135.329 373.562C136.361 367.227 137.984 361 139.815 354.853C141.56 348.989 143.518 343.194 145.381 337.367C145.79 336.09 146.192 334.813 146.582 333.532C147.01 332.127 146.071 330.41 144.622 330.08C143.114 329.733 141.639 330.535 141.181 332.038Z" fill="#343434"/>
<path d="M92.8577 513.734C94.7228 508.58 95.9998 503.239 97.7658 498.052C98.2609 496.601 98.7943 495.165 99.3904 493.754C99.2954 493.979 99.2025 494.201 99.1075 494.425C100.304 491.606 101.757 488.895 103.622 486.46C103.476 486.65 103.329 486.838 103.183 487.028C104.569 485.235 106.166 483.623 107.958 482.237C107.768 482.382 107.58 482.53 107.39 482.675C109.281 481.229 111.373 479.966 113.563 479.028C113.339 479.123 113.116 479.216 112.892 479.311C114.967 478.438 117.146 477.868 119.374 477.563C119.126 477.598 118.877 477.63 118.629 477.664C121.696 477.26 124.798 477.353 127.857 477.761C127.608 477.727 127.36 477.695 127.111 477.66C132.381 478.38 137.489 479.986 142.44 481.895C143.773 482.411 145.103 482.942 146.42 483.498C146.196 483.403 145.974 483.31 145.749 483.215C149.944 484.989 154.036 487.09 157.659 489.875C157.469 489.729 157.281 489.582 157.091 489.436C159.275 491.124 161.258 493.055 162.949 495.24C162.803 495.05 162.656 494.862 162.51 494.672C164.175 496.838 165.527 499.216 166.59 501.732C166.495 501.508 166.402 501.285 166.307 501.061C168.568 506.464 169.316 512.308 170.266 518.044C171.32 524.411 172.381 530.8 174.238 536.994C175.351 540.707 176.762 544.339 178.485 547.812C179.138 549.129 181.11 549.6 182.325 548.818C183.674 547.949 184.03 546.389 183.331 544.979C182.793 543.894 182.288 542.793 181.813 541.677C181.908 541.902 182.001 542.124 182.096 542.348C179.744 536.757 178.267 530.865 177.134 524.92C176.562 521.926 176.069 518.917 175.57 515.908C175.063 512.847 174.604 509.762 173.949 506.727C172.961 502.156 171.258 497.624 168.683 493.704C166.178 489.887 162.949 486.729 159.231 484.1C155.295 481.316 150.896 479.273 146.438 477.48C141.338 475.429 136.139 473.568 130.714 472.584C124.984 471.546 118.962 471.356 113.359 473.17C110.601 474.063 108.002 475.409 105.62 477.056C103.486 478.529 101.526 480.249 99.8652 482.245C96.6161 486.151 94.4459 490.683 92.7426 495.444C91.1483 499.901 89.9804 504.496 88.5417 509.004C88.1942 510.091 87.8304 511.17 87.4425 512.243C87.2061 512.896 87.3859 513.823 87.7254 514.405C88.0669 514.987 88.7337 515.543 89.4025 515.694C90.9846 516.054 92.3223 515.213 92.8577 513.734Z" fill="#343434"/>
<path d="M244.61 408.563C245.919 409.909 247.162 411.313 248.32 412.792C247.901 412.251 247.483 411.711 247.067 411.17C248.944 413.605 250.55 416.223 251.747 419.06C251.478 418.422 251.207 417.783 250.938 417.145C251.9 419.481 252.559 421.907 252.908 424.409C252.813 423.698 252.718 422.988 252.621 422.277C253.02 425.33 252.951 428.4 252.553 431.449C252.648 430.738 252.743 430.028 252.84 429.317C252.159 434.266 250.668 439.052 248.871 443.698C248.132 445.607 248.683 448.175 249.679 449.875C250.728 451.667 252.466 453.007 254.47 453.558C256.539 454.128 258.796 453.835 260.647 452.75C262.587 451.615 263.547 449.988 264.331 447.959C267.441 439.921 269.791 430.948 268.657 422.275C268.348 419.913 268.006 417.616 267.299 415.34C266.574 413.003 265.58 410.717 264.456 408.545C262.294 404.366 259.217 400.584 255.949 397.224C252.904 394.092 247.669 394.168 244.612 397.224C241.49 400.347 241.567 405.431 244.61 408.563Z" fill="white"/>
<path d="M228.344 245.161C223.821 250.574 219.299 255.987 214.708 261.341C212.61 263.788 210.495 266.221 208.355 268.631C206.569 270.642 204.572 272.505 203.639 275.089C202.199 279.075 204.147 283.351 207.535 285.619C209.171 286.715 211.206 287.282 213.171 287.191C215.475 287.085 217.572 286.065 219.269 284.536C220.448 283.474 221.427 282.157 222.466 280.961C223.603 279.653 224.742 278.348 225.885 277.045C227.994 274.639 230.114 272.242 232.24 269.852C235.82 265.825 239.425 261.817 243.011 257.794C247.838 252.379 252.848 246.979 256.966 240.988C259.136 237.831 261.351 234.041 260.688 230.059C260.084 226.429 256.777 223.741 253.902 221.826C251.076 219.945 247.763 219.437 244.572 220.679C242.555 221.464 240.776 222.667 239.078 223.991C236.875 225.708 234.858 227.663 232.906 229.656C226.736 235.957 221.088 242.779 215.402 249.512C211.321 254.343 207.257 259.186 203.177 264.019C198.847 269.147 194.245 274.18 190.627 279.856C188.157 283.73 185.857 288.69 187.623 293.304C188.48 295.544 190.168 297.349 191.836 299.025C193.365 300.562 195.098 301.979 197.068 302.908C199 303.819 201.13 304.232 203.258 303.951C205.89 303.603 208.287 302.421 210.437 300.895C212.978 299.091 215.198 296.842 217.417 294.667C219.217 292.903 220.974 291.094 222.684 289.241C227.335 284.201 231.647 278.856 236.049 273.599C236.477 273.087 236.552 272.368 236.049 271.865C235.607 271.423 234.745 271.353 234.316 271.865C230.595 276.308 226.93 280.801 223.088 285.141C219.64 289.036 215.981 292.728 212.183 296.28C210.121 298.209 207.746 300.073 205.127 301.003C203.154 301.704 201.338 301.781 199.44 301.215C198.487 300.932 197.857 300.614 196.925 300.041C195.976 299.457 195.375 298.969 194.543 298.219C193.69 297.452 192.898 296.619 192.136 295.764C191.366 294.899 190.764 294.193 190.222 293.154C189.369 291.517 189.289 289.55 189.7 287.718C190.241 285.315 191.418 283.188 192.742 281.092C194.4 278.469 196.329 276.025 198.291 273.626C200.55 270.864 202.879 268.158 205.182 265.431C212.453 256.817 219.635 248.121 227.069 239.646C229.574 236.79 232.115 233.962 234.777 231.249C235.831 230.175 236.907 229.122 238.017 228.105C238.505 227.657 239.003 227.217 239.508 226.788C239.735 226.594 239.965 226.403 240.196 226.215C240.309 226.123 240.421 226.032 240.534 225.943C240.615 225.878 241.055 225.536 240.73 225.787C241.568 225.139 242.439 224.531 243.351 223.99C243.749 223.754 244.158 223.534 244.574 223.332C244.762 223.24 244.953 223.154 245.145 223.071C244.699 223.264 245.359 222.99 245.503 222.937C245.874 222.801 246.252 222.688 246.635 222.596C246.81 222.554 246.988 222.517 247.165 222.486C247.253 222.471 247.341 222.458 247.428 222.444C247.628 222.416 247.076 222.49 247.276 222.465C247.333 222.458 247.391 222.452 247.449 222.447C247.804 222.41 248.161 222.4 248.518 222.412C248.686 222.418 248.855 222.431 249.023 222.449C249.356 222.483 248.931 222.433 248.99 222.441C249.088 222.454 249.185 222.471 249.282 222.489C249.633 222.553 249.978 222.642 250.318 222.751C250.484 222.805 250.649 222.865 250.812 222.928C250.917 222.969 251.25 223.111 250.808 222.922C250.905 222.963 251.001 223.007 251.096 223.052C251.847 223.4 252.544 223.844 253.218 224.323C253.431 224.475 253.641 224.629 253.851 224.785C253.952 224.861 254.053 224.937 254.154 225.015C254.345 225.16 253.915 224.829 254.104 224.975C254.168 225.026 254.233 225.076 254.297 225.127C254.677 225.43 255.048 225.744 255.409 226.071C255.738 226.37 256.057 226.684 256.36 227.011C256.497 227.157 256.631 227.309 256.761 227.462C256.824 227.536 256.886 227.612 256.947 227.689C257.171 227.967 256.777 227.459 256.989 227.743C257.218 228.047 257.426 228.366 257.615 228.696C257.702 228.849 257.782 229.004 257.858 229.161C257.896 229.239 257.931 229.317 257.967 229.395C258.065 229.617 257.835 229.062 257.973 229.417C258.1 229.743 258.198 230.08 258.273 230.421C258.308 230.584 258.337 230.75 258.36 230.916C258.284 230.376 258.364 231.024 258.371 231.178C258.39 231.54 258.378 231.904 258.345 232.265C258.336 232.354 258.326 232.444 258.314 232.533C258.377 232.036 258.329 232.408 258.311 232.524C258.278 232.726 258.236 232.926 258.19 233.125C258.097 233.532 257.974 233.933 257.836 234.327C257.766 234.529 257.69 234.73 257.609 234.929C257.588 234.98 257.567 235.03 257.546 235.082C257.46 235.29 257.672 234.787 257.583 234.995C257.531 235.117 257.476 235.239 257.421 235.359C256.451 237.487 255.113 239.442 253.733 241.32C253.53 241.596 253.325 241.87 253.117 242.143C253.01 242.285 252.903 242.425 252.796 242.565C252.762 242.609 252.575 242.852 252.769 242.602C252.695 242.698 252.62 242.794 252.545 242.89C252.055 243.518 251.557 244.141 251.055 244.759C249.922 246.152 248.762 247.523 247.59 248.885C240.943 256.614 234.035 264.117 227.285 271.755C225.045 274.29 222.813 276.834 220.594 279.388C219.567 280.569 218.597 281.846 217.431 282.896C217.047 283.242 216.757 283.447 216.275 283.743C215.787 284.042 215.384 284.221 215.001 284.358C214.56 284.516 214.101 284.623 213.639 284.699C213.91 284.654 213.541 284.71 213.511 284.712C213.398 284.725 213.285 284.731 213.171 284.738C212.91 284.753 212.647 284.751 212.385 284.74C212.273 284.736 212.162 284.727 212.052 284.717C212.017 284.714 211.651 284.669 211.936 284.709C211.716 284.678 211.5 284.635 211.284 284.587C211.069 284.539 210.857 284.477 210.646 284.413C210.541 284.381 210.438 284.345 210.334 284.308C210.291 284.293 209.871 284.125 210.117 284.23C209.714 284.059 209.328 283.849 208.955 283.619C208.434 283.297 208.387 283.251 207.985 282.893C207.209 282.205 206.891 281.785 206.419 280.951C206.312 280.763 206.217 280.569 206.127 280.373C205.977 280.048 206.214 280.6 206.082 280.268C206.042 280.167 206.006 280.064 205.97 279.963C205.899 279.758 205.84 279.549 205.786 279.339C205.76 279.233 205.737 279.127 205.714 279.021C205.703 278.972 205.631 278.517 205.669 278.808C205.611 278.367 205.602 277.92 205.625 277.477C205.631 277.363 205.642 277.25 205.653 277.138C205.689 276.763 205.611 277.383 205.671 277.009C205.716 276.737 205.781 276.47 205.853 276.205C206.099 275.312 206.579 274.403 207.179 273.637C208.075 272.494 209.122 271.452 210.086 270.368C214.519 265.381 218.837 260.294 223.132 255.188C225.453 252.43 227.764 249.663 230.075 246.897C230.503 246.385 230.578 245.666 230.075 245.163C229.637 244.719 228.773 244.647 228.344 245.161Z" fill="#8BD092"/>
<path d="M294.61 53.7965C301.971 58.0201 309.331 62.2437 316.637 66.5605C319.975 68.5334 323.3 70.5287 326.604 72.5588C329.36 74.2532 331.986 76.2293 335.242 76.7935C340.267 77.6635 344.924 74.4598 346.901 69.9715C347.857 67.8025 348.102 65.2741 347.582 62.9643C346.974 60.2567 345.326 57.9862 343.159 56.2968C341.654 55.1223 339.888 54.2392 338.254 53.2588C336.466 52.1856 334.681 51.1091 332.898 50.0283C329.607 48.0338 326.323 46.0244 323.046 44.0071C317.524 40.6092 312.021 37.1783 306.504 33.773C299.077 29.1892 291.63 24.3852 283.669 20.7624C279.475 18.8534 274.521 17.0236 269.942 18.6434C265.768 20.1189 263.276 24.5999 261.611 28.4079C259.974 32.15 260.066 36.1807 262.207 39.701C263.559 41.9267 265.357 43.7811 267.282 45.5161C269.777 47.7661 272.516 49.7451 275.286 51.6406C284.043 57.6305 293.31 62.8915 302.477 68.2173C309.055 72.0388 315.645 75.8395 322.224 79.6594C329.207 83.7153 336.134 88.1125 343.617 91.2094C348.724 93.3236 355.082 95.0088 360.178 91.9499C362.652 90.4651 364.437 88.0875 366.073 85.7605C367.573 83.6272 368.889 81.2772 369.576 78.7487C370.25 76.2684 370.293 73.6585 369.515 71.1965C368.552 68.1514 366.649 65.5595 364.391 63.3323C361.721 60.6994 358.592 58.5414 355.55 56.3679C353.083 54.6049 350.571 52.9023 348.018 51.265C341.073 46.8116 333.836 42.8223 326.687 38.7096C325.99 38.3099 325.123 38.3716 324.632 39.073C324.201 39.6883 324.298 40.725 324.995 41.126C331.038 44.6029 337.129 48.0038 343.076 51.6459C348.413 54.9148 353.553 58.4758 358.558 62.2306C361.275 64.2688 363.98 66.6918 365.632 69.6004C366.875 71.79 367.346 73.9264 367.074 76.2925C366.938 77.481 366.693 78.2938 366.21 79.5181C365.717 80.7656 365.264 81.5788 364.551 82.7225C363.82 83.8934 363 85.0061 362.146 86.0884C361.283 87.1817 360.573 88.0432 359.455 88.9026C357.694 90.2558 355.382 90.7632 353.124 90.6598C350.165 90.5228 347.398 89.5743 344.638 88.4439C341.183 87.0295 337.883 85.2574 334.63 83.4353C330.884 81.3378 327.19 79.1462 323.477 76.989C311.749 70.1796 299.942 63.4934 288.344 56.4627C284.436 54.0934 280.552 51.6753 276.781 49.0904C275.288 48.0662 273.814 47.0128 272.377 45.9112C271.744 45.4263 271.119 44.929 270.504 44.4204C270.228 44.1917 269.954 43.96 269.681 43.7251C269.549 43.611 269.418 43.4967 269.289 43.3821C269.195 43.2991 268.697 42.8494 269.063 43.1822C268.12 42.3248 267.217 41.4212 266.385 40.4538C266.022 40.0316 265.676 39.5928 265.349 39.1425C265.201 38.9395 265.059 38.7315 264.921 38.5215C265.242 39.0092 264.779 38.2851 264.686 38.125C264.448 37.7144 264.235 37.2897 264.045 36.8557C263.958 36.6567 263.878 36.454 263.804 36.25C263.768 36.15 263.733 36.0483 263.7 35.9478C263.624 35.7173 263.827 36.3552 263.756 36.1237C263.735 36.0574 263.716 35.9893 263.698 35.9225C263.58 35.5094 263.494 35.0881 263.433 34.6634C263.404 34.4623 263.385 34.2596 263.371 34.0573C263.341 33.6555 263.371 34.169 263.368 34.0981C263.363 33.979 263.363 33.8606 263.363 33.7419C263.366 33.3129 263.399 32.8851 263.458 32.4597C263.487 32.251 263.523 32.0438 263.563 31.8372C263.59 31.7045 263.689 31.2801 263.558 31.8436C263.586 31.7201 263.618 31.5972 263.65 31.4755C263.906 30.5125 264.286 29.5936 264.712 28.6947C264.847 28.4108 264.986 28.1289 265.126 27.848C265.195 27.7118 265.265 27.5769 265.335 27.4405C265.468 27.1839 265.165 27.7629 265.298 27.5089C265.345 27.4225 265.392 27.3347 265.438 27.2483C265.717 26.7341 266.012 26.229 266.324 25.7333C266.609 25.2798 266.914 24.8365 267.237 24.4087C267.383 24.2158 267.534 24.026 267.688 23.8397C267.763 23.7497 267.84 23.6606 267.917 23.5714C268.2 23.2478 267.681 23.8207 267.973 23.5104C268.286 23.176 268.62 22.8622 268.972 22.5696C269.134 22.4344 269.302 22.3064 269.471 22.1834C269.555 22.1227 269.64 22.0645 269.726 22.0063C269.968 21.8435 269.358 22.2316 269.751 21.9938C270.11 21.7753 270.488 21.5884 270.877 21.4281C271.063 21.352 271.253 21.2834 271.444 21.2212C270.821 21.4245 271.572 21.1946 271.753 21.1531C272.178 21.055 272.611 20.9932 273.046 20.9568C273.154 20.9485 273.262 20.9415 273.37 20.9372C272.769 20.9668 273.219 20.945 273.36 20.9429C273.607 20.9398 273.852 20.9476 274.097 20.9596C274.599 20.9853 275.1 21.0463 275.596 21.1271C275.85 21.1684 276.104 21.2165 276.356 21.2702C276.421 21.2844 276.485 21.2986 276.551 21.3125C276.815 21.371 276.176 21.2253 276.44 21.2877C276.596 21.3234 276.752 21.3633 276.906 21.4035C279.629 22.1063 282.226 23.2817 284.74 24.523C285.109 24.7056 285.477 24.8913 285.845 25.0796C286.034 25.1768 286.223 25.2742 286.412 25.3716C286.471 25.4028 286.798 25.5741 286.461 25.3966C286.59 25.464 286.719 25.5327 286.849 25.6015C287.696 26.05 288.538 26.5103 289.375 26.9753C291.263 28.0254 293.131 29.1128 294.989 30.2154C305.539 36.4705 315.875 43.0827 326.338 49.4785C329.811 51.6012 333.292 53.7119 336.783 55.8061C338.397 56.7751 340.114 57.6561 341.602 58.8174C342.092 59.1998 342.396 59.5004 342.847 60.0095C343.304 60.5257 343.6 60.9652 343.843 61.39C344.122 61.8796 344.345 62.4008 344.532 62.9323C344.422 62.6204 344.566 63.0464 344.575 63.0812C344.613 63.2119 344.644 63.3452 344.676 63.4784C344.749 63.7848 344.802 64.0963 344.844 64.4096C344.862 64.5425 344.875 64.6764 344.886 64.8091C344.889 64.8503 344.914 65.2934 344.901 64.9479C344.91 65.2145 344.905 65.4796 344.892 65.7459C344.881 66.0107 344.852 66.2746 344.821 66.5376C344.805 66.6685 344.783 66.7989 344.762 66.9294C344.753 66.9836 344.642 67.5166 344.715 67.2033C344.596 67.7161 344.429 68.2174 344.235 68.7072C343.962 69.3929 343.917 69.4575 343.577 70.0094C342.925 71.0722 342.493 71.5367 341.605 72.2707C341.405 72.4368 341.194 72.5899 340.981 72.7382C340.628 72.9839 341.232 72.5873 340.866 72.8138C340.755 72.8819 340.641 72.9465 340.528 73.0096C340.3 73.1376 340.065 73.2505 339.828 73.3585C339.708 73.4121 339.587 73.4618 339.466 73.5101C339.41 73.5336 338.886 73.7151 339.223 73.6083C338.712 73.7701 338.186 73.8741 337.655 73.9396C337.519 73.9569 337.384 73.9675 337.248 73.978C336.797 74.0133 337.547 73.9762 337.091 73.9828C336.76 73.9874 336.43 73.9663 336.101 73.9356C334.991 73.8313 333.814 73.4533 332.781 72.9029C331.239 72.0812 329.785 71.0595 328.299 70.1445C321.462 65.9375 314.53 61.8887 307.581 57.87C303.828 55.6984 300.066 53.5405 296.305 51.3823C295.608 50.9826 294.741 51.0443 294.25 51.7457C293.816 52.3575 293.912 53.3957 294.61 53.7965Z" fill="#FFA446"/>
<path d="M336.158 253.101C329.409 252.599 322.394 253.939 316.658 257.652C311.23 261.165 307.52 266.326 305.17 272.282C300.701 283.611 303.351 297.179 311.129 306.354C320.186 317.042 336.405 319.111 348.775 313.672C360.012 308.732 366.38 296.306 366.572 284.417C366.696 276.655 363.999 269.151 359.003 263.249C353.347 256.571 344.653 253.58 336.158 253.101C333.246 252.939 330.807 255.664 330.807 258.463C330.807 261.508 333.246 263.658 336.158 263.824C337.002 263.871 337.842 263.944 338.678 264.041C337.187 263.867 339.618 264.226 340.022 264.311C341.605 264.639 343.158 265.121 344.66 265.716C343.158 265.121 345.25 266.017 345.616 266.206C346.221 266.515 346.806 266.866 347.384 267.225C347.946 267.576 348.486 267.966 349.017 268.364C347.673 267.352 349.568 268.893 349.907 269.213C350.369 269.653 350.805 270.116 351.232 270.595C351.444 270.83 351.645 271.073 351.845 271.32C352.577 272.208 351.098 270.313 351.776 271.236C352.581 272.328 353.263 273.501 353.871 274.71C354.01 274.987 354.141 275.273 354.268 275.555C354.742 276.597 353.787 274.358 354.21 275.424C354.441 276.003 354.638 276.593 354.827 277.188C355.235 278.481 355.524 279.809 355.736 281.144C355.917 282.294 355.574 279.805 355.709 280.963C355.744 281.275 355.77 281.588 355.794 281.901C355.844 282.53 355.863 283.159 355.875 283.788C355.898 285.155 355.801 286.521 355.636 287.88C355.863 286.015 355.551 288.2 355.466 288.636C355.343 289.258 355.193 289.872 355.027 290.482C354.865 291.091 354.673 291.694 354.472 292.292C354.372 292.593 354.26 292.886 354.153 293.184C353.629 294.585 354.472 292.493 354.091 293.361C353.586 294.519 352.985 295.631 352.33 296.704C352.003 297.24 351.645 297.761 351.279 298.275C351.086 298.549 350.373 299.437 351.352 298.194C351.09 298.526 350.816 298.842 350.539 299.163C349.703 300.12 348.778 300.996 347.808 301.814C347.553 302.027 346.633 302.714 347.885 301.768C347.627 301.961 347.361 302.146 347.099 302.332C346.475 302.764 345.82 303.154 345.157 303.528C344.579 303.853 343.982 304.142 343.377 304.416C342.283 304.914 344.537 303.953 343.412 304.393C343.092 304.516 342.773 304.628 342.449 304.74C340.997 305.238 339.487 305.57 337.973 305.806C339.629 305.551 337.21 305.848 336.782 305.875C336 305.922 335.218 305.922 334.436 305.91C333.623 305.894 332.81 305.837 332.001 305.763C331.72 305.736 330.36 305.543 331.847 305.759C331.339 305.686 330.83 305.59 330.326 305.489C328.881 305.204 327.471 304.775 326.092 304.258C324.921 303.818 327.201 304.756 326.069 304.258C325.753 304.119 325.441 303.964 325.129 303.81C324.416 303.459 323.727 303.057 323.052 302.641C322.486 302.289 321.943 301.903 321.407 301.506C322.756 302.509 321.034 301.154 320.726 300.876C320.244 300.44 319.789 299.977 319.346 299.506C319.031 299.17 317.49 297.252 318.53 298.618C317.755 297.599 317.077 296.511 316.461 295.388C316.153 294.828 315.875 294.253 315.61 293.674C315.124 292.616 316.087 294.859 315.648 293.778C315.486 293.384 315.344 292.983 315.201 292.581C314.774 291.377 314.45 290.134 314.184 288.883C314.092 288.451 313.761 286.247 314.007 288.1C313.907 287.359 313.849 286.614 313.803 285.869C313.726 284.591 313.753 283.313 313.838 282.04C313.868 281.596 314.153 279.396 313.892 281.248C313.996 280.515 314.142 279.789 314.3 279.064C314.573 277.828 314.947 276.62 315.382 275.435C315.502 275.115 315.941 274.053 315.309 275.547C315.432 275.258 315.563 274.972 315.694 274.69C316.003 274.026 316.349 273.386 316.711 272.749C317.178 271.934 317.705 271.158 318.26 270.402C317.239 271.788 318.353 270.321 318.607 270.027C318.95 269.634 319.316 269.255 319.685 268.885C320.055 268.51 320.448 268.159 320.845 267.812C321.007 267.673 321.169 267.538 321.334 267.403C322.228 266.665 320.329 268.148 321.265 267.464C322.139 266.824 323.076 266.264 324.035 265.758C324.428 265.55 324.832 265.361 325.237 265.179C323.707 265.878 325.503 265.094 325.861 264.967C326.978 264.569 328.134 264.28 329.297 264.044C329.54 263.998 329.783 263.956 330.025 263.913C331.316 263.689 328.777 264.052 330.095 263.898C330.738 263.82 331.389 263.782 332.036 263.747C333.411 263.678 334.791 263.728 336.166 263.828C339.078 264.044 341.517 261.227 341.517 258.467C341.505 255.375 339.063 253.317 336.158 253.101Z" fill="#8BD092"/>
</svg>
