<svg width="911" height="1010" viewBox="0 0 911 1010" fill="none" xmlns="http://www.w3.org/2000/svg">
<path d="M-1.20401e-05 1.42747C0.788363 1.42747 1.42747 0.788363 1.42747 -1.20401e-05C1.42747 -0.788387 0.788363 -1.42749 -1.20401e-05 -1.42749C-0.788387 -1.42749 -1.42749 -0.788387 -1.42749 -1.20401e-05C-1.42749 0.788363 -0.788387 1.42747 -1.20401e-05 1.42747Z" fill="#EF4C41" fill-opacity="0.2"/>
<path d="M56.0664 1.42747C56.8548 1.42747 57.4939 0.788363 57.4939 -1.20401e-05C57.4939 -0.788387 56.8548 -1.42749 56.0664 -1.42749C55.278 -1.42749 54.6389 -0.788387 54.6389 -1.20401e-05C54.6389 0.788363 55.278 1.42747 56.0664 1.42747Z" fill="#EF4C41" fill-opacity="0.2"/>
<path d="M112.133 1.42747C112.921 1.42747 113.56 0.788363 113.56 -1.20401e-05C113.56 -0.788387 112.921 -1.42749 112.133 -1.42749C111.344 -1.42749 110.705 -0.788387 110.705 -1.20401e-05C110.705 0.788363 111.344 1.42747 112.133 1.42747Z" fill="#EF4C41" fill-opacity="0.2"/>
<path d="M168.199 1.42747C168.987 1.42747 169.626 0.788363 169.626 -1.20401e-05C169.626 -0.788387 168.987 -1.42749 168.199 -1.42749C167.411 -1.42749 166.771 -0.788387 166.771 -1.20401e-05C166.771 0.788363 167.411 1.42747 168.199 1.42747Z" fill="#EF4C41" fill-opacity="0.2"/>
<path d="M224.265 1.42747C225.054 1.42747 225.693 0.788363 225.693 -1.20401e-05C225.693 -0.788387 225.054 -1.42749 224.265 -1.42749C223.477 -1.42749 222.838 -0.788387 222.838 -1.20401e-05C222.838 0.788363 223.477 1.42747 224.265 1.42747Z" fill="#EF4C41" fill-opacity="0.2"/>
<path d="M280.332 1.42747C281.12 1.42747 281.759 0.788363 281.759 -1.20401e-05C281.759 -0.788387 281.12 -1.42749 280.332 -1.42749C279.543 -1.42749 278.904 -0.788387 278.904 -1.20401e-05C278.904 0.788363 279.543 1.42747 280.332 1.42747Z" fill="#EF4C41" fill-opacity="0.2"/>
<path d="M336.398 1.42747C337.186 1.42747 337.825 0.788363 337.825 -1.20401e-05C337.825 -0.788387 337.186 -1.42749 336.398 -1.42749C335.61 -1.42749 334.97 -0.788387 334.97 -1.20401e-05C334.97 0.788363 335.61 1.42747 336.398 1.42747Z" fill="#EF4C41" fill-opacity="0.2"/>
<path d="M392.464 1.42747C393.253 1.42747 393.892 0.788363 393.892 -1.20401e-05C393.892 -0.788387 393.253 -1.42749 392.464 -1.42749C391.676 -1.42749 391.037 -0.788387 391.037 -1.20401e-05C391.037 0.788363 391.676 1.42747 392.464 1.42747Z" fill="#EF4C41" fill-opacity="0.2"/>
<path d="M448.531 1.42747C449.319 1.42747 449.958 0.788363 449.958 -1.20401e-05C449.958 -0.788387 449.319 -1.42749 448.531 -1.42749C447.742 -1.42749 447.103 -0.788387 447.103 -1.20401e-05C447.103 0.788363 447.742 1.42747 448.531 1.42747Z" fill="#EF4C41" fill-opacity="0.2"/>
<path d="M504.597 1.42747C505.386 1.42747 506.025 0.788363 506.025 -1.20401e-05C506.025 -0.788387 505.386 -1.42749 504.597 -1.42749C503.809 -1.42749 503.17 -0.788387 503.17 -1.20401e-05C503.17 0.788363 503.809 1.42747 504.597 1.42747Z" fill="#EF4C41" fill-opacity="0.2"/>
<path d="M560.663 1.42747C561.452 1.42747 562.091 0.788363 562.091 -1.20401e-05C562.091 -0.788387 561.452 -1.42749 560.663 -1.42749C559.875 -1.42749 559.236 -0.788387 559.236 -1.20401e-05C559.236 0.788363 559.875 1.42747 560.663 1.42747Z" fill="#EF4C41" fill-opacity="0.2"/>
<path d="M616.73 1.42747C617.518 1.42747 618.157 0.788363 618.157 -1.20401e-05C618.157 -0.788387 617.518 -1.42749 616.73 -1.42749C615.941 -1.42749 615.302 -0.788387 615.302 -1.20401e-05C615.302 0.788363 615.941 1.42747 616.73 1.42747Z" fill="#EF4C41" fill-opacity="0.2"/>
<path d="M672.796 1.42747C673.584 1.42747 674.224 0.788363 674.224 -1.20401e-05C674.224 -0.788387 673.584 -1.42749 672.796 -1.42749C672.008 -1.42749 671.369 -0.788387 671.369 -1.20401e-05C671.369 0.788363 672.008 1.42747 672.796 1.42747Z" fill="#EF4C41" fill-opacity="0.2"/>
<path d="M728.862 1.42747C729.651 1.42747 730.29 0.788363 730.29 -1.20401e-05C730.29 -0.788387 729.651 -1.42749 728.862 -1.42749C728.074 -1.42749 727.435 -0.788387 727.435 -1.20401e-05C727.435 0.788363 728.074 1.42747 728.862 1.42747Z" fill="#EF4C41" fill-opacity="0.2"/>
<path d="M784.928 1.42747C785.717 1.42747 786.356 0.788363 786.356 -1.20401e-05C786.356 -0.788387 785.717 -1.42749 784.928 -1.42749C784.14 -1.42749 783.501 -0.788387 783.501 -1.20401e-05C783.501 0.788363 784.14 1.42747 784.928 1.42747Z" fill="#EF4C41" fill-opacity="0.2"/>
<path d="M840.995 1.42747C841.783 1.42747 842.422 0.788363 842.422 -1.20401e-05C842.422 -0.788387 841.783 -1.42749 840.995 -1.42749C840.207 -1.42749 839.567 -0.788387 839.567 -1.20401e-05C839.567 0.788363 840.207 1.42747 840.995 1.42747Z" fill="#EF4C41" fill-opacity="0.2"/>
<path d="M897.061 1.42747C897.85 1.42747 898.489 0.788363 898.489 -1.20401e-05C898.489 -0.788387 897.85 -1.42749 897.061 -1.42749C896.273 -1.42749 895.634 -0.788387 895.634 -1.20401e-05C895.634 0.788363 896.273 1.42747 897.061 1.42747Z" fill="#EF4C41" fill-opacity="0.2"/>
<path d="M-1.20401e-05 57.4939C0.788363 57.4939 1.42747 56.8548 1.42747 56.0664C1.42747 55.278 0.788363 54.6389 -1.20401e-05 54.6389C-0.788387 54.6389 -1.42749 55.278 -1.42749 56.0664C-1.42749 56.8548 -0.788387 57.4939 -1.20401e-05 57.4939Z" fill="#EF4C41" fill-opacity="0.2"/>
<path d="M56.0664 57.4939C56.8548 57.4939 57.4939 56.8548 57.4939 56.0664C57.4939 55.278 56.8548 54.6389 56.0664 54.6389C55.278 54.6389 54.6389 55.278 54.6389 56.0664C54.6389 56.8548 55.278 57.4939 56.0664 57.4939Z" fill="#EF4C41" fill-opacity="0.2"/>
<path d="M112.133 57.4939C112.921 57.4939 113.56 56.8548 113.56 56.0664C113.56 55.278 112.921 54.6389 112.133 54.6389C111.344 54.6389 110.705 55.278 110.705 56.0664C110.705 56.8548 111.344 57.4939 112.133 57.4939Z" fill="#EF4C41" fill-opacity="0.2"/>
<path d="M168.199 57.4939C168.987 57.4939 169.626 56.8548 169.626 56.0664C169.626 55.278 168.987 54.6389 168.199 54.6389C167.411 54.6389 166.771 55.278 166.771 56.0664C166.771 56.8548 167.411 57.4939 168.199 57.4939Z" fill="#EF4C41" fill-opacity="0.2"/>
<path d="M224.265 57.4939C225.054 57.4939 225.693 56.8548 225.693 56.0664C225.693 55.278 225.054 54.6389 224.265 54.6389C223.477 54.6389 222.838 55.278 222.838 56.0664C222.838 56.8548 223.477 57.4939 224.265 57.4939Z" fill="#EF4C41" fill-opacity="0.2"/>
<path d="M280.332 57.4939C281.12 57.4939 281.759 56.8548 281.759 56.0664C281.759 55.278 281.12 54.6389 280.332 54.6389C279.543 54.6389 278.904 55.278 278.904 56.0664C278.904 56.8548 279.543 57.4939 280.332 57.4939Z" fill="#EF4C41" fill-opacity="0.2"/>
<path d="M336.398 57.4939C337.186 57.4939 337.825 56.8548 337.825 56.0664C337.825 55.278 337.186 54.6389 336.398 54.6389C335.61 54.6389 334.97 55.278 334.97 56.0664C334.97 56.8548 335.61 57.4939 336.398 57.4939Z" fill="#EF4C41" fill-opacity="0.2"/>
<path d="M392.464 57.4939C393.253 57.4939 393.892 56.8548 393.892 56.0664C393.892 55.278 393.253 54.6389 392.464 54.6389C391.676 54.6389 391.037 55.278 391.037 56.0664C391.037 56.8548 391.676 57.4939 392.464 57.4939Z" fill="#EF4C41" fill-opacity="0.2"/>
<path d="M448.531 57.4939C449.319 57.4939 449.958 56.8548 449.958 56.0664C449.958 55.278 449.319 54.6389 448.531 54.6389C447.742 54.6389 447.103 55.278 447.103 56.0664C447.103 56.8548 447.742 57.4939 448.531 57.4939Z" fill="#EF4C41" fill-opacity="0.2"/>
<path d="M504.597 57.4939C505.386 57.4939 506.025 56.8548 506.025 56.0664C506.025 55.278 505.386 54.6389 504.597 54.6389C503.809 54.6389 503.17 55.278 503.17 56.0664C503.17 56.8548 503.809 57.4939 504.597 57.4939Z" fill="#EF4C41" fill-opacity="0.2"/>
<path d="M560.663 57.4939C561.452 57.4939 562.091 56.8548 562.091 56.0664C562.091 55.278 561.452 54.6389 560.663 54.6389C559.875 54.6389 559.236 55.278 559.236 56.0664C559.236 56.8548 559.875 57.4939 560.663 57.4939Z" fill="#EF4C41" fill-opacity="0.2"/>
<path d="M616.73 57.4939C617.518 57.4939 618.157 56.8548 618.157 56.0664C618.157 55.278 617.518 54.6389 616.73 54.6389C615.941 54.6389 615.302 55.278 615.302 56.0664C615.302 56.8548 615.941 57.4939 616.73 57.4939Z" fill="#EF4C41" fill-opacity="0.2"/>
<path d="M672.796 57.4939C673.584 57.4939 674.224 56.8548 674.224 56.0664C674.224 55.278 673.584 54.6389 672.796 54.6389C672.008 54.6389 671.369 55.278 671.369 56.0664C671.369 56.8548 672.008 57.4939 672.796 57.4939Z" fill="#EF4C41" fill-opacity="0.2"/>
<path d="M728.862 57.4939C729.651 57.4939 730.29 56.8548 730.29 56.0664C730.29 55.278 729.651 54.6389 728.862 54.6389C728.074 54.6389 727.435 55.278 727.435 56.0664C727.435 56.8548 728.074 57.4939 728.862 57.4939Z" fill="#EF4C41" fill-opacity="0.2"/>
<path d="M784.928 57.4939C785.717 57.4939 786.356 56.8548 786.356 56.0664C786.356 55.278 785.717 54.6389 784.928 54.6389C784.14 54.6389 783.501 55.278 783.501 56.0664C783.501 56.8548 784.14 57.4939 784.928 57.4939Z" fill="#EF4C41" fill-opacity="0.2"/>
<path d="M840.995 57.4939C841.783 57.4939 842.422 56.8548 842.422 56.0664C842.422 55.278 841.783 54.6389 840.995 54.6389C840.207 54.6389 839.567 55.278 839.567 56.0664C839.567 56.8548 840.207 57.4939 840.995 57.4939Z" fill="#EF4C41" fill-opacity="0.2"/>
<path d="M897.061 57.4939C897.85 57.4939 898.489 56.8548 898.489 56.0664C898.489 55.278 897.85 54.6389 897.061 54.6389C896.273 54.6389 895.634 55.278 895.634 56.0664C895.634 56.8548 896.273 57.4939 897.061 57.4939Z" fill="#EF4C41" fill-opacity="0.2"/>
<path d="M-1.20401e-05 113.56C0.788363 113.56 1.42747 112.921 1.42747 112.133C1.42747 111.344 0.788363 110.705 -1.20401e-05 110.705C-0.788387 110.705 -1.42749 111.344 -1.42749 112.133C-1.42749 112.921 -0.788387 113.56 -1.20401e-05 113.56Z" fill="#EF4C41" fill-opacity="0.2"/>
<path d="M56.0664 113.56C56.8548 113.56 57.4939 112.921 57.4939 112.133C57.4939 111.344 56.8548 110.705 56.0664 110.705C55.278 110.705 54.6389 111.344 54.6389 112.133C54.6389 112.921 55.278 113.56 56.0664 113.56Z" fill="#EF4C41" fill-opacity="0.2"/>
<path d="M112.133 113.56C112.921 113.56 113.56 112.921 113.56 112.133C113.56 111.344 112.921 110.705 112.133 110.705C111.344 110.705 110.705 111.344 110.705 112.133C110.705 112.921 111.344 113.56 112.133 113.56Z" fill="#EF4C41" fill-opacity="0.2"/>
<path d="M168.199 113.56C168.987 113.56 169.626 112.921 169.626 112.133C169.626 111.344 168.987 110.705 168.199 110.705C167.411 110.705 166.771 111.344 166.771 112.133C166.771 112.921 167.411 113.56 168.199 113.56Z" fill="#EF4C41" fill-opacity="0.2"/>
<path d="M224.265 113.56C225.054 113.56 225.693 112.921 225.693 112.133C225.693 111.344 225.054 110.705 224.265 110.705C223.477 110.705 222.838 111.344 222.838 112.133C222.838 112.921 223.477 113.56 224.265 113.56Z" fill="#EF4C41" fill-opacity="0.2"/>
<path d="M280.332 113.56C281.12 113.56 281.759 112.921 281.759 112.133C281.759 111.344 281.12 110.705 280.332 110.705C279.543 110.705 278.904 111.344 278.904 112.133C278.904 112.921 279.543 113.56 280.332 113.56Z" fill="#EF4C41" fill-opacity="0.2"/>
<path d="M336.398 113.56C337.186 113.56 337.825 112.921 337.825 112.133C337.825 111.344 337.186 110.705 336.398 110.705C335.61 110.705 334.97 111.344 334.97 112.133C334.97 112.921 335.61 113.56 336.398 113.56Z" fill="#EF4C41" fill-opacity="0.2"/>
<path d="M392.464 113.56C393.253 113.56 393.892 112.921 393.892 112.133C393.892 111.344 393.253 110.705 392.464 110.705C391.676 110.705 391.037 111.344 391.037 112.133C391.037 112.921 391.676 113.56 392.464 113.56Z" fill="#EF4C41" fill-opacity="0.2"/>
<path d="M448.531 113.56C449.319 113.56 449.958 112.921 449.958 112.133C449.958 111.344 449.319 110.705 448.531 110.705C447.742 110.705 447.103 111.344 447.103 112.133C447.103 112.921 447.742 113.56 448.531 113.56Z" fill="#EF4C41" fill-opacity="0.2"/>
<path d="M504.597 113.56C505.386 113.56 506.025 112.921 506.025 112.133C506.025 111.344 505.386 110.705 504.597 110.705C503.809 110.705 503.17 111.344 503.17 112.133C503.17 112.921 503.809 113.56 504.597 113.56Z" fill="#EF4C41" fill-opacity="0.2"/>
<path d="M560.663 113.56C561.452 113.56 562.091 112.921 562.091 112.133C562.091 111.344 561.452 110.705 560.663 110.705C559.875 110.705 559.236 111.344 559.236 112.133C559.236 112.921 559.875 113.56 560.663 113.56Z" fill="#EF4C41" fill-opacity="0.2"/>
<path d="M616.73 113.56C617.518 113.56 618.157 112.921 618.157 112.133C618.157 111.344 617.518 110.705 616.73 110.705C615.941 110.705 615.302 111.344 615.302 112.133C615.302 112.921 615.941 113.56 616.73 113.56Z" fill="#EF4C41" fill-opacity="0.2"/>
<path d="M672.796 113.56C673.584 113.56 674.224 112.921 674.224 112.133C674.224 111.344 673.584 110.705 672.796 110.705C672.008 110.705 671.369 111.344 671.369 112.133C671.369 112.921 672.008 113.56 672.796 113.56Z" fill="#EF4C41" fill-opacity="0.2"/>
<path d="M728.862 113.56C729.651 113.56 730.29 112.921 730.29 112.133C730.29 111.344 729.651 110.705 728.862 110.705C728.074 110.705 727.435 111.344 727.435 112.133C727.435 112.921 728.074 113.56 728.862 113.56Z" fill="#EF4C41" fill-opacity="0.2"/>
<path d="M784.928 113.56C785.717 113.56 786.356 112.921 786.356 112.133C786.356 111.344 785.717 110.705 784.928 110.705C784.14 110.705 783.501 111.344 783.501 112.133C783.501 112.921 784.14 113.56 784.928 113.56Z" fill="#EF4C41" fill-opacity="0.2"/>
<path d="M840.995 113.56C841.783 113.56 842.422 112.921 842.422 112.133C842.422 111.344 841.783 110.705 840.995 110.705C840.207 110.705 839.567 111.344 839.567 112.133C839.567 112.921 840.207 113.56 840.995 113.56Z" fill="#EF4C41" fill-opacity="0.2"/>
<path d="M897.061 113.56C897.85 113.56 898.489 112.921 898.489 112.133C898.489 111.344 897.85 110.705 897.061 110.705C896.273 110.705 895.634 111.344 895.634 112.133C895.634 112.921 896.273 113.56 897.061 113.56Z" fill="#EF4C41" fill-opacity="0.2"/>
<path d="M-1.20401e-05 169.626C0.788363 169.626 1.42747 168.987 1.42747 168.199C1.42747 167.411 0.788363 166.771 -1.20401e-05 166.771C-0.788387 166.771 -1.42749 167.411 -1.42749 168.199C-1.42749 168.987 -0.788387 169.626 -1.20401e-05 169.626Z" fill="#EF4C41" fill-opacity="0.2"/>
<path d="M56.0664 169.626C56.8548 169.626 57.4939 168.987 57.4939 168.199C57.4939 167.411 56.8548 166.771 56.0664 166.771C55.278 166.771 54.6389 167.411 54.6389 168.199C54.6389 168.987 55.278 169.626 56.0664 169.626Z" fill="#EF4C41" fill-opacity="0.2"/>
<path d="M112.133 169.626C112.921 169.626 113.56 168.987 113.56 168.199C113.56 167.411 112.921 166.771 112.133 166.771C111.344 166.771 110.705 167.411 110.705 168.199C110.705 168.987 111.344 169.626 112.133 169.626Z" fill="#EF4C41" fill-opacity="0.2"/>
<path d="M168.199 169.626C168.987 169.626 169.626 168.987 169.626 168.199C169.626 167.411 168.987 166.771 168.199 166.771C167.411 166.771 166.771 167.411 166.771 168.199C166.771 168.987 167.411 169.626 168.199 169.626Z" fill="#EF4C41" fill-opacity="0.2"/>
<path d="M224.265 169.626C225.054 169.626 225.693 168.987 225.693 168.199C225.693 167.411 225.054 166.771 224.265 166.771C223.477 166.771 222.838 167.411 222.838 168.199C222.838 168.987 223.477 169.626 224.265 169.626Z" fill="#EF4C41" fill-opacity="0.2"/>
<path d="M280.332 169.626C281.12 169.626 281.759 168.987 281.759 168.199C281.759 167.411 281.12 166.771 280.332 166.771C279.543 166.771 278.904 167.411 278.904 168.199C278.904 168.987 279.543 169.626 280.332 169.626Z" fill="#EF4C41" fill-opacity="0.2"/>
<path d="M336.398 169.626C337.186 169.626 337.825 168.987 337.825 168.199C337.825 167.411 337.186 166.771 336.398 166.771C335.61 166.771 334.97 167.411 334.97 168.199C334.97 168.987 335.61 169.626 336.398 169.626Z" fill="#EF4C41" fill-opacity="0.2"/>
<path d="M392.464 169.626C393.253 169.626 393.892 168.987 393.892 168.199C393.892 167.411 393.253 166.771 392.464 166.771C391.676 166.771 391.037 167.411 391.037 168.199C391.037 168.987 391.676 169.626 392.464 169.626Z" fill="#EF4C41" fill-opacity="0.2"/>
<path d="M448.531 169.626C449.319 169.626 449.958 168.987 449.958 168.199C449.958 167.411 449.319 166.771 448.531 166.771C447.742 166.771 447.103 167.411 447.103 168.199C447.103 168.987 447.742 169.626 448.531 169.626Z" fill="#EF4C41" fill-opacity="0.2"/>
<path d="M504.597 169.626C505.386 169.626 506.025 168.987 506.025 168.199C506.025 167.411 505.386 166.771 504.597 166.771C503.809 166.771 503.17 167.411 503.17 168.199C503.17 168.987 503.809 169.626 504.597 169.626Z" fill="#EF4C41" fill-opacity="0.2"/>
<path d="M560.663 169.626C561.452 169.626 562.091 168.987 562.091 168.199C562.091 167.411 561.452 166.771 560.663 166.771C559.875 166.771 559.236 167.411 559.236 168.199C559.236 168.987 559.875 169.626 560.663 169.626Z" fill="#EF4C41" fill-opacity="0.2"/>
<path d="M616.73 169.626C617.518 169.626 618.157 168.987 618.157 168.199C618.157 167.411 617.518 166.771 616.73 166.771C615.941 166.771 615.302 167.411 615.302 168.199C615.302 168.987 615.941 169.626 616.73 169.626Z" fill="#EF4C41" fill-opacity="0.2"/>
<path d="M672.796 169.626C673.584 169.626 674.224 168.987 674.224 168.199C674.224 167.411 673.584 166.771 672.796 166.771C672.008 166.771 671.369 167.411 671.369 168.199C671.369 168.987 672.008 169.626 672.796 169.626Z" fill="#EF4C41" fill-opacity="0.2"/>
<path d="M728.862 169.626C729.651 169.626 730.29 168.987 730.29 168.199C730.29 167.411 729.651 166.771 728.862 166.771C728.074 166.771 727.435 167.411 727.435 168.199C727.435 168.987 728.074 169.626 728.862 169.626Z" fill="#EF4C41" fill-opacity="0.2"/>
<path d="M784.928 169.626C785.717 169.626 786.356 168.987 786.356 168.199C786.356 167.411 785.717 166.771 784.928 166.771C784.14 166.771 783.501 167.411 783.501 168.199C783.501 168.987 784.14 169.626 784.928 169.626Z" fill="#EF4C41" fill-opacity="0.2"/>
<path d="M840.995 169.626C841.783 169.626 842.422 168.987 842.422 168.199C842.422 167.411 841.783 166.771 840.995 166.771C840.207 166.771 839.567 167.411 839.567 168.199C839.567 168.987 840.207 169.626 840.995 169.626Z" fill="#EF4C41" fill-opacity="0.2"/>
<path d="M897.061 169.626C897.85 169.626 898.489 168.987 898.489 168.199C898.489 167.411 897.85 166.771 897.061 166.771C896.273 166.771 895.634 167.411 895.634 168.199C895.634 168.987 896.273 169.626 897.061 169.626Z" fill="#EF4C41" fill-opacity="0.2"/>
<path d="M-1.20401e-05 225.693C0.788363 225.693 1.42747 225.054 1.42747 224.265C1.42747 223.477 0.788363 222.838 -1.20401e-05 222.838C-0.788387 222.838 -1.42749 223.477 -1.42749 224.265C-1.42749 225.054 -0.788387 225.693 -1.20401e-05 225.693Z" fill="#EF4C41" fill-opacity="0.2"/>
<path d="M56.0664 225.693C56.8548 225.693 57.4939 225.054 57.4939 224.265C57.4939 223.477 56.8548 222.838 56.0664 222.838C55.278 222.838 54.6389 223.477 54.6389 224.265C54.6389 225.054 55.278 225.693 56.0664 225.693Z" fill="#EF4C41" fill-opacity="0.2"/>
<path d="M112.133 225.693C112.921 225.693 113.56 225.054 113.56 224.265C113.56 223.477 112.921 222.838 112.133 222.838C111.344 222.838 110.705 223.477 110.705 224.265C110.705 225.054 111.344 225.693 112.133 225.693Z" fill="#EF4C41" fill-opacity="0.2"/>
<path d="M168.199 225.693C168.987 225.693 169.626 225.054 169.626 224.265C169.626 223.477 168.987 222.838 168.199 222.838C167.411 222.838 166.771 223.477 166.771 224.265C166.771 225.054 167.411 225.693 168.199 225.693Z" fill="#EF4C41" fill-opacity="0.2"/>
<path d="M224.265 225.693C225.054 225.693 225.693 225.054 225.693 224.265C225.693 223.477 225.054 222.838 224.265 222.838C223.477 222.838 222.838 223.477 222.838 224.265C222.838 225.054 223.477 225.693 224.265 225.693Z" fill="#EF4C41" fill-opacity="0.2"/>
<path d="M280.332 225.693C281.12 225.693 281.759 225.054 281.759 224.265C281.759 223.477 281.12 222.838 280.332 222.838C279.543 222.838 278.904 223.477 278.904 224.265C278.904 225.054 279.543 225.693 280.332 225.693Z" fill="#EF4C41" fill-opacity="0.2"/>
<path d="M336.398 225.693C337.186 225.693 337.825 225.054 337.825 224.265C337.825 223.477 337.186 222.838 336.398 222.838C335.61 222.838 334.97 223.477 334.97 224.265C334.97 225.054 335.61 225.693 336.398 225.693Z" fill="#EF4C41" fill-opacity="0.2"/>
<path d="M392.464 225.693C393.253 225.693 393.892 225.054 393.892 224.265C393.892 223.477 393.253 222.838 392.464 222.838C391.676 222.838 391.037 223.477 391.037 224.265C391.037 225.054 391.676 225.693 392.464 225.693Z" fill="#EF4C41" fill-opacity="0.2"/>
<path d="M448.531 225.693C449.319 225.693 449.958 225.054 449.958 224.265C449.958 223.477 449.319 222.838 448.531 222.838C447.742 222.838 447.103 223.477 447.103 224.265C447.103 225.054 447.742 225.693 448.531 225.693Z" fill="#EF4C41" fill-opacity="0.2"/>
<path d="M504.597 225.693C505.386 225.693 506.025 225.054 506.025 224.265C506.025 223.477 505.386 222.838 504.597 222.838C503.809 222.838 503.17 223.477 503.17 224.265C503.17 225.054 503.809 225.693 504.597 225.693Z" fill="#EF4C41" fill-opacity="0.2"/>
<path d="M560.663 225.693C561.452 225.693 562.091 225.054 562.091 224.265C562.091 223.477 561.452 222.838 560.663 222.838C559.875 222.838 559.236 223.477 559.236 224.265C559.236 225.054 559.875 225.693 560.663 225.693Z" fill="#EF4C41" fill-opacity="0.2"/>
<path d="M616.73 225.693C617.518 225.693 618.157 225.054 618.157 224.265C618.157 223.477 617.518 222.838 616.73 222.838C615.941 222.838 615.302 223.477 615.302 224.265C615.302 225.054 615.941 225.693 616.73 225.693Z" fill="#EF4C41" fill-opacity="0.2"/>
<path d="M672.796 225.693C673.584 225.693 674.224 225.054 674.224 224.265C674.224 223.477 673.584 222.838 672.796 222.838C672.008 222.838 671.369 223.477 671.369 224.265C671.369 225.054 672.008 225.693 672.796 225.693Z" fill="#EF4C41" fill-opacity="0.2"/>
<path d="M728.862 225.693C729.651 225.693 730.29 225.054 730.29 224.265C730.29 223.477 729.651 222.838 728.862 222.838C728.074 222.838 727.435 223.477 727.435 224.265C727.435 225.054 728.074 225.693 728.862 225.693Z" fill="#EF4C41" fill-opacity="0.2"/>
<path d="M784.928 225.693C785.717 225.693 786.356 225.054 786.356 224.265C786.356 223.477 785.717 222.838 784.928 222.838C784.14 222.838 783.501 223.477 783.501 224.265C783.501 225.054 784.14 225.693 784.928 225.693Z" fill="#EF4C41" fill-opacity="0.2"/>
<path d="M840.995 225.693C841.783 225.693 842.422 225.054 842.422 224.265C842.422 223.477 841.783 222.838 840.995 222.838C840.207 222.838 839.567 223.477 839.567 224.265C839.567 225.054 840.207 225.693 840.995 225.693Z" fill="#EF4C41" fill-opacity="0.2"/>
<path d="M897.061 225.693C897.85 225.693 898.489 225.054 898.489 224.265C898.489 223.477 897.85 222.838 897.061 222.838C896.273 222.838 895.634 223.477 895.634 224.265C895.634 225.054 896.273 225.693 897.061 225.693Z" fill="#EF4C41" fill-opacity="0.2"/>
<path d="M-1.20401e-05 281.759C0.788363 281.759 1.42747 281.12 1.42747 280.332C1.42747 279.543 0.788363 278.904 -1.20401e-05 278.904C-0.788387 278.904 -1.42749 279.543 -1.42749 280.332C-1.42749 281.12 -0.788387 281.759 -1.20401e-05 281.759Z" fill="#EF4C41" fill-opacity="0.2"/>
<path d="M56.0664 281.759C56.8548 281.759 57.4939 281.12 57.4939 280.332C57.4939 279.543 56.8548 278.904 56.0664 278.904C55.278 278.904 54.6389 279.543 54.6389 280.332C54.6389 281.12 55.278 281.759 56.0664 281.759Z" fill="#EF4C41" fill-opacity="0.2"/>
<path d="M112.133 281.759C112.921 281.759 113.56 281.12 113.56 280.332C113.56 279.543 112.921 278.904 112.133 278.904C111.344 278.904 110.705 279.543 110.705 280.332C110.705 281.12 111.344 281.759 112.133 281.759Z" fill="#EF4C41" fill-opacity="0.2"/>
<path d="M168.199 281.759C168.987 281.759 169.626 281.12 169.626 280.332C169.626 279.543 168.987 278.904 168.199 278.904C167.411 278.904 166.771 279.543 166.771 280.332C166.771 281.12 167.411 281.759 168.199 281.759Z" fill="#EF4C41" fill-opacity="0.2"/>
<path d="M224.265 281.759C225.054 281.759 225.693 281.12 225.693 280.332C225.693 279.543 225.054 278.904 224.265 278.904C223.477 278.904 222.838 279.543 222.838 280.332C222.838 281.12 223.477 281.759 224.265 281.759Z" fill="#EF4C41" fill-opacity="0.2"/>
<path d="M280.332 281.759C281.12 281.759 281.759 281.12 281.759 280.332C281.759 279.543 281.12 278.904 280.332 278.904C279.543 278.904 278.904 279.543 278.904 280.332C278.904 281.12 279.543 281.759 280.332 281.759Z" fill="#EF4C41" fill-opacity="0.2"/>
<path d="M336.398 281.759C337.186 281.759 337.825 281.12 337.825 280.332C337.825 279.543 337.186 278.904 336.398 278.904C335.61 278.904 334.97 279.543 334.97 280.332C334.97 281.12 335.61 281.759 336.398 281.759Z" fill="#EF4C41" fill-opacity="0.2"/>
<path d="M392.464 281.759C393.253 281.759 393.892 281.12 393.892 280.332C393.892 279.543 393.253 278.904 392.464 278.904C391.676 278.904 391.037 279.543 391.037 280.332C391.037 281.12 391.676 281.759 392.464 281.759Z" fill="#EF4C41" fill-opacity="0.2"/>
<path d="M448.531 281.759C449.319 281.759 449.958 281.12 449.958 280.332C449.958 279.543 449.319 278.904 448.531 278.904C447.742 278.904 447.103 279.543 447.103 280.332C447.103 281.12 447.742 281.759 448.531 281.759Z" fill="#EF4C41" fill-opacity="0.2"/>
<path d="M504.597 281.759C505.386 281.759 506.025 281.12 506.025 280.332C506.025 279.543 505.386 278.904 504.597 278.904C503.809 278.904 503.17 279.543 503.17 280.332C503.17 281.12 503.809 281.759 504.597 281.759Z" fill="#EF4C41" fill-opacity="0.2"/>
<path d="M560.663 281.759C561.452 281.759 562.091 281.12 562.091 280.332C562.091 279.543 561.452 278.904 560.663 278.904C559.875 278.904 559.236 279.543 559.236 280.332C559.236 281.12 559.875 281.759 560.663 281.759Z" fill="#EF4C41" fill-opacity="0.2"/>
<path d="M616.73 281.759C617.518 281.759 618.157 281.12 618.157 280.332C618.157 279.543 617.518 278.904 616.73 278.904C615.941 278.904 615.302 279.543 615.302 280.332C615.302 281.12 615.941 281.759 616.73 281.759Z" fill="#EF4C41" fill-opacity="0.2"/>
<path d="M672.796 281.759C673.584 281.759 674.224 281.12 674.224 280.332C674.224 279.543 673.584 278.904 672.796 278.904C672.008 278.904 671.369 279.543 671.369 280.332C671.369 281.12 672.008 281.759 672.796 281.759Z" fill="#EF4C41" fill-opacity="0.2"/>
<path d="M728.862 281.759C729.651 281.759 730.29 281.12 730.29 280.332C730.29 279.543 729.651 278.904 728.862 278.904C728.074 278.904 727.435 279.543 727.435 280.332C727.435 281.12 728.074 281.759 728.862 281.759Z" fill="#EF4C41" fill-opacity="0.2"/>
<path d="M784.928 281.759C785.717 281.759 786.356 281.12 786.356 280.332C786.356 279.543 785.717 278.904 784.928 278.904C784.14 278.904 783.501 279.543 783.501 280.332C783.501 281.12 784.14 281.759 784.928 281.759Z" fill="#EF4C41" fill-opacity="0.2"/>
<path d="M840.995 281.759C841.783 281.759 842.422 281.12 842.422 280.332C842.422 279.543 841.783 278.904 840.995 278.904C840.207 278.904 839.567 279.543 839.567 280.332C839.567 281.12 840.207 281.759 840.995 281.759Z" fill="#EF4C41" fill-opacity="0.2"/>
<path d="M897.061 281.759C897.85 281.759 898.489 281.12 898.489 280.332C898.489 279.543 897.85 278.904 897.061 278.904C896.273 278.904 895.634 279.543 895.634 280.332C895.634 281.12 896.273 281.759 897.061 281.759Z" fill="#EF4C41" fill-opacity="0.2"/>
<path d="M-1.20401e-05 337.826C0.788363 337.826 1.42747 337.187 1.42747 336.398C1.42747 335.61 0.788363 334.971 -1.20401e-05 334.971C-0.788387 334.971 -1.42749 335.61 -1.42749 336.398C-1.42749 337.187 -0.788387 337.826 -1.20401e-05 337.826Z" fill="#EF4C41" fill-opacity="0.2"/>
<path d="M56.0664 337.826C56.8548 337.826 57.4939 337.187 57.4939 336.398C57.4939 335.61 56.8548 334.971 56.0664 334.971C55.278 334.971 54.6389 335.61 54.6389 336.398C54.6389 337.187 55.278 337.826 56.0664 337.826Z" fill="#EF4C41" fill-opacity="0.2"/>
<path d="M112.133 337.826C112.921 337.826 113.56 337.187 113.56 336.398C113.56 335.61 112.921 334.971 112.133 334.971C111.344 334.971 110.705 335.61 110.705 336.398C110.705 337.187 111.344 337.826 112.133 337.826Z" fill="#EF4C41" fill-opacity="0.2"/>
<path d="M168.199 337.826C168.987 337.826 169.626 337.187 169.626 336.398C169.626 335.61 168.987 334.971 168.199 334.971C167.411 334.971 166.771 335.61 166.771 336.398C166.771 337.187 167.411 337.826 168.199 337.826Z" fill="#EF4C41" fill-opacity="0.2"/>
<path d="M224.265 337.826C225.054 337.826 225.693 337.187 225.693 336.398C225.693 335.61 225.054 334.971 224.265 334.971C223.477 334.971 222.838 335.61 222.838 336.398C222.838 337.187 223.477 337.826 224.265 337.826Z" fill="#EF4C41" fill-opacity="0.2"/>
<path d="M280.332 337.826C281.12 337.826 281.759 337.187 281.759 336.398C281.759 335.61 281.12 334.971 280.332 334.971C279.543 334.971 278.904 335.61 278.904 336.398C278.904 337.187 279.543 337.826 280.332 337.826Z" fill="#EF4C41" fill-opacity="0.2"/>
<path d="M336.398 337.826C337.186 337.826 337.825 337.187 337.825 336.398C337.825 335.61 337.186 334.971 336.398 334.971C335.61 334.971 334.97 335.61 334.97 336.398C334.97 337.187 335.61 337.826 336.398 337.826Z" fill="#EF4C41" fill-opacity="0.2"/>
<path d="M392.464 337.826C393.253 337.826 393.892 337.187 393.892 336.398C393.892 335.61 393.253 334.971 392.464 334.971C391.676 334.971 391.037 335.61 391.037 336.398C391.037 337.187 391.676 337.826 392.464 337.826Z" fill="#EF4C41" fill-opacity="0.2"/>
<path d="M448.531 337.826C449.319 337.826 449.958 337.187 449.958 336.398C449.958 335.61 449.319 334.971 448.531 334.971C447.742 334.971 447.103 335.61 447.103 336.398C447.103 337.187 447.742 337.826 448.531 337.826Z" fill="#EF4C41" fill-opacity="0.2"/>
<path d="M504.597 337.826C505.386 337.826 506.025 337.187 506.025 336.398C506.025 335.61 505.386 334.971 504.597 334.971C503.809 334.971 503.17 335.61 503.17 336.398C503.17 337.187 503.809 337.826 504.597 337.826Z" fill="#EF4C41" fill-opacity="0.2"/>
<path d="M560.663 337.826C561.452 337.826 562.091 337.187 562.091 336.398C562.091 335.61 561.452 334.971 560.663 334.971C559.875 334.971 559.236 335.61 559.236 336.398C559.236 337.187 559.875 337.826 560.663 337.826Z" fill="#EF4C41" fill-opacity="0.2"/>
<path d="M616.73 337.826C617.518 337.826 618.157 337.187 618.157 336.398C618.157 335.61 617.518 334.971 616.73 334.971C615.941 334.971 615.302 335.61 615.302 336.398C615.302 337.187 615.941 337.826 616.73 337.826Z" fill="#EF4C41" fill-opacity="0.2"/>
<path d="M672.796 337.826C673.584 337.826 674.224 337.187 674.224 336.398C674.224 335.61 673.584 334.971 672.796 334.971C672.008 334.971 671.369 335.61 671.369 336.398C671.369 337.187 672.008 337.826 672.796 337.826Z" fill="#EF4C41" fill-opacity="0.2"/>
<path d="M728.862 337.826C729.651 337.826 730.29 337.187 730.29 336.398C730.29 335.61 729.651 334.971 728.862 334.971C728.074 334.971 727.435 335.61 727.435 336.398C727.435 337.187 728.074 337.826 728.862 337.826Z" fill="#EF4C41" fill-opacity="0.2"/>
<path d="M784.928 337.826C785.717 337.826 786.356 337.187 786.356 336.398C786.356 335.61 785.717 334.971 784.928 334.971C784.14 334.971 783.501 335.61 783.501 336.398C783.501 337.187 784.14 337.826 784.928 337.826Z" fill="#EF4C41" fill-opacity="0.2"/>
<path d="M840.995 337.826C841.783 337.826 842.422 337.187 842.422 336.398C842.422 335.61 841.783 334.971 840.995 334.971C840.207 334.971 839.567 335.61 839.567 336.398C839.567 337.187 840.207 337.826 840.995 337.826Z" fill="#EF4C41" fill-opacity="0.2"/>
<path d="M897.061 337.826C897.85 337.826 898.489 337.187 898.489 336.398C898.489 335.61 897.85 334.971 897.061 334.971C896.273 334.971 895.634 335.61 895.634 336.398C895.634 337.187 896.273 337.826 897.061 337.826Z" fill="#EF4C41" fill-opacity="0.2"/>
<path d="M-1.20401e-05 393.892C0.788363 393.892 1.42747 393.253 1.42747 392.464C1.42747 391.676 0.788363 391.037 -1.20401e-05 391.037C-0.788387 391.037 -1.42749 391.676 -1.42749 392.464C-1.42749 393.253 -0.788387 393.892 -1.20401e-05 393.892Z" fill="#EF4C41" fill-opacity="0.2"/>
<path d="M56.0664 393.892C56.8548 393.892 57.4939 393.253 57.4939 392.464C57.4939 391.676 56.8548 391.037 56.0664 391.037C55.278 391.037 54.6389 391.676 54.6389 392.464C54.6389 393.253 55.278 393.892 56.0664 393.892Z" fill="#EF4C41" fill-opacity="0.2"/>
<path d="M112.133 393.892C112.921 393.892 113.56 393.253 113.56 392.464C113.56 391.676 112.921 391.037 112.133 391.037C111.344 391.037 110.705 391.676 110.705 392.464C110.705 393.253 111.344 393.892 112.133 393.892Z" fill="#EF4C41" fill-opacity="0.2"/>
<path d="M168.199 393.892C168.987 393.892 169.626 393.253 169.626 392.464C169.626 391.676 168.987 391.037 168.199 391.037C167.411 391.037 166.771 391.676 166.771 392.464C166.771 393.253 167.411 393.892 168.199 393.892Z" fill="#EF4C41" fill-opacity="0.2"/>
<path d="M224.265 393.892C225.054 393.892 225.693 393.253 225.693 392.464C225.693 391.676 225.054 391.037 224.265 391.037C223.477 391.037 222.838 391.676 222.838 392.464C222.838 393.253 223.477 393.892 224.265 393.892Z" fill="#EF4C41" fill-opacity="0.2"/>
<path d="M280.332 393.892C281.12 393.892 281.759 393.253 281.759 392.464C281.759 391.676 281.12 391.037 280.332 391.037C279.543 391.037 278.904 391.676 278.904 392.464C278.904 393.253 279.543 393.892 280.332 393.892Z" fill="#EF4C41" fill-opacity="0.2"/>
<path d="M336.398 393.892C337.186 393.892 337.825 393.253 337.825 392.464C337.825 391.676 337.186 391.037 336.398 391.037C335.61 391.037 334.97 391.676 334.97 392.464C334.97 393.253 335.61 393.892 336.398 393.892Z" fill="#EF4C41" fill-opacity="0.2"/>
<path d="M392.464 393.892C393.253 393.892 393.892 393.253 393.892 392.464C393.892 391.676 393.253 391.037 392.464 391.037C391.676 391.037 391.037 391.676 391.037 392.464C391.037 393.253 391.676 393.892 392.464 393.892Z" fill="#EF4C41" fill-opacity="0.2"/>
<path d="M448.531 393.892C449.319 393.892 449.958 393.253 449.958 392.464C449.958 391.676 449.319 391.037 448.531 391.037C447.742 391.037 447.103 391.676 447.103 392.464C447.103 393.253 447.742 393.892 448.531 393.892Z" fill="#EF4C41" fill-opacity="0.2"/>
<path d="M504.597 393.892C505.386 393.892 506.025 393.253 506.025 392.464C506.025 391.676 505.386 391.037 504.597 391.037C503.809 391.037 503.17 391.676 503.17 392.464C503.17 393.253 503.809 393.892 504.597 393.892Z" fill="#EF4C41" fill-opacity="0.2"/>
<path d="M560.663 393.892C561.452 393.892 562.091 393.253 562.091 392.464C562.091 391.676 561.452 391.037 560.663 391.037C559.875 391.037 559.236 391.676 559.236 392.464C559.236 393.253 559.875 393.892 560.663 393.892Z" fill="#EF4C41" fill-opacity="0.2"/>
<path d="M616.73 393.892C617.518 393.892 618.157 393.253 618.157 392.464C618.157 391.676 617.518 391.037 616.73 391.037C615.941 391.037 615.302 391.676 615.302 392.464C615.302 393.253 615.941 393.892 616.73 393.892Z" fill="#EF4C41" fill-opacity="0.2"/>
<path d="M672.796 393.892C673.584 393.892 674.224 393.253 674.224 392.464C674.224 391.676 673.584 391.037 672.796 391.037C672.008 391.037 671.369 391.676 671.369 392.464C671.369 393.253 672.008 393.892 672.796 393.892Z" fill="#EF4C41" fill-opacity="0.2"/>
<path d="M728.862 393.892C729.651 393.892 730.29 393.253 730.29 392.464C730.29 391.676 729.651 391.037 728.862 391.037C728.074 391.037 727.435 391.676 727.435 392.464C727.435 393.253 728.074 393.892 728.862 393.892Z" fill="#EF4C41" fill-opacity="0.2"/>
<path d="M784.928 393.892C785.717 393.892 786.356 393.253 786.356 392.464C786.356 391.676 785.717 391.037 784.928 391.037C784.14 391.037 783.501 391.676 783.501 392.464C783.501 393.253 784.14 393.892 784.928 393.892Z" fill="#EF4C41" fill-opacity="0.2"/>
<path d="M840.995 393.892C841.783 393.892 842.422 393.253 842.422 392.464C842.422 391.676 841.783 391.037 840.995 391.037C840.207 391.037 839.567 391.676 839.567 392.464C839.567 393.253 840.207 393.892 840.995 393.892Z" fill="#EF4C41" fill-opacity="0.2"/>
<path d="M897.061 393.892C897.85 393.892 898.489 393.253 898.489 392.464C898.489 391.676 897.85 391.037 897.061 391.037C896.273 391.037 895.634 391.676 895.634 392.464C895.634 393.253 896.273 393.892 897.061 393.892Z" fill="#EF4C41" fill-opacity="0.2"/>
<path d="M-1.20401e-05 449.958C0.788363 449.958 1.42747 449.319 1.42747 448.531C1.42747 447.742 0.788363 447.103 -1.20401e-05 447.103C-0.788387 447.103 -1.42749 447.742 -1.42749 448.531C-1.42749 449.319 -0.788387 449.958 -1.20401e-05 449.958Z" fill="#EF4C41" fill-opacity="0.2"/>
<path d="M56.0664 449.958C56.8548 449.958 57.4939 449.319 57.4939 448.531C57.4939 447.742 56.8548 447.103 56.0664 447.103C55.278 447.103 54.6389 447.742 54.6389 448.531C54.6389 449.319 55.278 449.958 56.0664 449.958Z" fill="#EF4C41" fill-opacity="0.2"/>
<path d="M112.133 449.958C112.921 449.958 113.56 449.319 113.56 448.531C113.56 447.742 112.921 447.103 112.133 447.103C111.344 447.103 110.705 447.742 110.705 448.531C110.705 449.319 111.344 449.958 112.133 449.958Z" fill="#EF4C41" fill-opacity="0.2"/>
<path d="M168.199 449.958C168.987 449.958 169.626 449.319 169.626 448.531C169.626 447.742 168.987 447.103 168.199 447.103C167.411 447.103 166.771 447.742 166.771 448.531C166.771 449.319 167.411 449.958 168.199 449.958Z" fill="#EF4C41" fill-opacity="0.2"/>
<path d="M224.265 449.958C225.054 449.958 225.693 449.319 225.693 448.531C225.693 447.742 225.054 447.103 224.265 447.103C223.477 447.103 222.838 447.742 222.838 448.531C222.838 449.319 223.477 449.958 224.265 449.958Z" fill="#EF4C41" fill-opacity="0.2"/>
<path d="M280.332 449.958C281.12 449.958 281.759 449.319 281.759 448.531C281.759 447.742 281.12 447.103 280.332 447.103C279.543 447.103 278.904 447.742 278.904 448.531C278.904 449.319 279.543 449.958 280.332 449.958Z" fill="#EF4C41" fill-opacity="0.2"/>
<path d="M336.398 449.958C337.186 449.958 337.825 449.319 337.825 448.531C337.825 447.742 337.186 447.103 336.398 447.103C335.61 447.103 334.97 447.742 334.97 448.531C334.97 449.319 335.61 449.958 336.398 449.958Z" fill="#EF4C41" fill-opacity="0.2"/>
<path d="M392.464 449.958C393.253 449.958 393.892 449.319 393.892 448.531C393.892 447.742 393.253 447.103 392.464 447.103C391.676 447.103 391.037 447.742 391.037 448.531C391.037 449.319 391.676 449.958 392.464 449.958Z" fill="#EF4C41" fill-opacity="0.2"/>
<path d="M448.531 449.958C449.319 449.958 449.958 449.319 449.958 448.531C449.958 447.742 449.319 447.103 448.531 447.103C447.742 447.103 447.103 447.742 447.103 448.531C447.103 449.319 447.742 449.958 448.531 449.958Z" fill="#EF4C41" fill-opacity="0.2"/>
<path d="M504.597 449.958C505.386 449.958 506.025 449.319 506.025 448.531C506.025 447.742 505.386 447.103 504.597 447.103C503.809 447.103 503.17 447.742 503.17 448.531C503.17 449.319 503.809 449.958 504.597 449.958Z" fill="#EF4C41" fill-opacity="0.2"/>
<path d="M560.663 449.958C561.452 449.958 562.091 449.319 562.091 448.531C562.091 447.742 561.452 447.103 560.663 447.103C559.875 447.103 559.236 447.742 559.236 448.531C559.236 449.319 559.875 449.958 560.663 449.958Z" fill="#EF4C41" fill-opacity="0.2"/>
<path d="M616.73 449.958C617.518 449.958 618.157 449.319 618.157 448.531C618.157 447.742 617.518 447.103 616.73 447.103C615.941 447.103 615.302 447.742 615.302 448.531C615.302 449.319 615.941 449.958 616.73 449.958Z" fill="#EF4C41" fill-opacity="0.2"/>
<path d="M672.796 449.958C673.584 449.958 674.224 449.319 674.224 448.531C674.224 447.742 673.584 447.103 672.796 447.103C672.008 447.103 671.369 447.742 671.369 448.531C671.369 449.319 672.008 449.958 672.796 449.958Z" fill="#EF4C41" fill-opacity="0.2"/>
<path d="M728.862 449.958C729.651 449.958 730.29 449.319 730.29 448.531C730.29 447.742 729.651 447.103 728.862 447.103C728.074 447.103 727.435 447.742 727.435 448.531C727.435 449.319 728.074 449.958 728.862 449.958Z" fill="#EF4C41" fill-opacity="0.2"/>
<path d="M784.928 449.958C785.717 449.958 786.356 449.319 786.356 448.531C786.356 447.742 785.717 447.103 784.928 447.103C784.14 447.103 783.501 447.742 783.501 448.531C783.501 449.319 784.14 449.958 784.928 449.958Z" fill="#EF4C41" fill-opacity="0.2"/>
<path d="M840.995 449.958C841.783 449.958 842.422 449.319 842.422 448.531C842.422 447.742 841.783 447.103 840.995 447.103C840.207 447.103 839.567 447.742 839.567 448.531C839.567 449.319 840.207 449.958 840.995 449.958Z" fill="#EF4C41" fill-opacity="0.2"/>
<path d="M897.061 449.958C897.85 449.958 898.489 449.319 898.489 448.531C898.489 447.742 897.85 447.103 897.061 447.103C896.273 447.103 895.634 447.742 895.634 448.531C895.634 449.319 896.273 449.958 897.061 449.958Z" fill="#EF4C41" fill-opacity="0.2"/>
<path d="M-1.20401e-05 506.024C0.788363 506.024 1.42747 505.385 1.42747 504.597C1.42747 503.809 0.788363 503.169 -1.20401e-05 503.169C-0.788387 503.169 -1.42749 503.809 -1.42749 504.597C-1.42749 505.385 -0.788387 506.024 -1.20401e-05 506.024Z" fill="#EF4C41" fill-opacity="0.2"/>
<path d="M56.0664 506.024C56.8548 506.024 57.4939 505.385 57.4939 504.597C57.4939 503.809 56.8548 503.169 56.0664 503.169C55.278 503.169 54.6389 503.809 54.6389 504.597C54.6389 505.385 55.278 506.024 56.0664 506.024Z" fill="#EF4C41" fill-opacity="0.2"/>
<path d="M112.133 506.024C112.921 506.024 113.56 505.385 113.56 504.597C113.56 503.809 112.921 503.169 112.133 503.169C111.344 503.169 110.705 503.809 110.705 504.597C110.705 505.385 111.344 506.024 112.133 506.024Z" fill="#EF4C41" fill-opacity="0.2"/>
<path d="M168.199 506.024C168.987 506.024 169.626 505.385 169.626 504.597C169.626 503.809 168.987 503.169 168.199 503.169C167.411 503.169 166.771 503.809 166.771 504.597C166.771 505.385 167.411 506.024 168.199 506.024Z" fill="#EF4C41" fill-opacity="0.2"/>
<path d="M224.265 506.024C225.054 506.024 225.693 505.385 225.693 504.597C225.693 503.809 225.054 503.169 224.265 503.169C223.477 503.169 222.838 503.809 222.838 504.597C222.838 505.385 223.477 506.024 224.265 506.024Z" fill="#EF4C41" fill-opacity="0.2"/>
<path d="M280.332 506.024C281.12 506.024 281.759 505.385 281.759 504.597C281.759 503.809 281.12 503.169 280.332 503.169C279.543 503.169 278.904 503.809 278.904 504.597C278.904 505.385 279.543 506.024 280.332 506.024Z" fill="#EF4C41" fill-opacity="0.2"/>
<path d="M336.398 506.024C337.186 506.024 337.825 505.385 337.825 504.597C337.825 503.809 337.186 503.169 336.398 503.169C335.61 503.169 334.97 503.809 334.97 504.597C334.97 505.385 335.61 506.024 336.398 506.024Z" fill="#EF4C41" fill-opacity="0.2"/>
<path d="M392.464 506.024C393.253 506.024 393.892 505.385 393.892 504.597C393.892 503.809 393.253 503.169 392.464 503.169C391.676 503.169 391.037 503.809 391.037 504.597C391.037 505.385 391.676 506.024 392.464 506.024Z" fill="#EF4C41" fill-opacity="0.2"/>
<path d="M448.531 506.024C449.319 506.024 449.958 505.385 449.958 504.597C449.958 503.809 449.319 503.169 448.531 503.169C447.742 503.169 447.103 503.809 447.103 504.597C447.103 505.385 447.742 506.024 448.531 506.024Z" fill="#EF4C41" fill-opacity="0.2"/>
<path d="M504.597 506.024C505.386 506.024 506.025 505.385 506.025 504.597C506.025 503.809 505.386 503.169 504.597 503.169C503.809 503.169 503.17 503.809 503.17 504.597C503.17 505.385 503.809 506.024 504.597 506.024Z" fill="#EF4C41" fill-opacity="0.2"/>
<path d="M560.663 506.024C561.452 506.024 562.091 505.385 562.091 504.597C562.091 503.809 561.452 503.169 560.663 503.169C559.875 503.169 559.236 503.809 559.236 504.597C559.236 505.385 559.875 506.024 560.663 506.024Z" fill="#EF4C41" fill-opacity="0.2"/>
<path d="M616.73 506.024C617.518 506.024 618.157 505.385 618.157 504.597C618.157 503.809 617.518 503.169 616.73 503.169C615.941 503.169 615.302 503.809 615.302 504.597C615.302 505.385 615.941 506.024 616.73 506.024Z" fill="#EF4C41" fill-opacity="0.2"/>
<path d="M672.796 506.024C673.584 506.024 674.224 505.385 674.224 504.597C674.224 503.809 673.584 503.169 672.796 503.169C672.008 503.169 671.369 503.809 671.369 504.597C671.369 505.385 672.008 506.024 672.796 506.024Z" fill="#EF4C41" fill-opacity="0.2"/>
<path d="M728.862 506.024C729.651 506.024 730.29 505.385 730.29 504.597C730.29 503.809 729.651 503.169 728.862 503.169C728.074 503.169 727.435 503.809 727.435 504.597C727.435 505.385 728.074 506.024 728.862 506.024Z" fill="#EF4C41" fill-opacity="0.2"/>
<path d="M784.928 506.024C785.717 506.024 786.356 505.385 786.356 504.597C786.356 503.809 785.717 503.169 784.928 503.169C784.14 503.169 783.501 503.809 783.501 504.597C783.501 505.385 784.14 506.024 784.928 506.024Z" fill="#EF4C41" fill-opacity="0.2"/>
<path d="M840.995 506.024C841.783 506.024 842.422 505.385 842.422 504.597C842.422 503.809 841.783 503.169 840.995 503.169C840.207 503.169 839.567 503.809 839.567 504.597C839.567 505.385 840.207 506.024 840.995 506.024Z" fill="#EF4C41" fill-opacity="0.2"/>
<path d="M897.061 506.024C897.85 506.024 898.489 505.385 898.489 504.597C898.489 503.809 897.85 503.169 897.061 503.169C896.273 503.169 895.634 503.809 895.634 504.597C895.634 505.385 896.273 506.024 897.061 506.024Z" fill="#EF4C41" fill-opacity="0.2"/>
<path d="M-1.20401e-05 562.091C0.788363 562.091 1.42747 561.452 1.42747 560.663C1.42747 559.875 0.788363 559.236 -1.20401e-05 559.236C-0.788387 559.236 -1.42749 559.875 -1.42749 560.663C-1.42749 561.452 -0.788387 562.091 -1.20401e-05 562.091Z" fill="#EF4C41" fill-opacity="0.2"/>
<path d="M56.0664 562.091C56.8548 562.091 57.4939 561.452 57.4939 560.663C57.4939 559.875 56.8548 559.236 56.0664 559.236C55.278 559.236 54.6389 559.875 54.6389 560.663C54.6389 561.452 55.278 562.091 56.0664 562.091Z" fill="#EF4C41" fill-opacity="0.2"/>
<path d="M112.133 562.091C112.921 562.091 113.56 561.452 113.56 560.663C113.56 559.875 112.921 559.236 112.133 559.236C111.344 559.236 110.705 559.875 110.705 560.663C110.705 561.452 111.344 562.091 112.133 562.091Z" fill="#EF4C41" fill-opacity="0.2"/>
<path d="M168.199 562.091C168.987 562.091 169.626 561.452 169.626 560.663C169.626 559.875 168.987 559.236 168.199 559.236C167.411 559.236 166.771 559.875 166.771 560.663C166.771 561.452 167.411 562.091 168.199 562.091Z" fill="#EF4C41" fill-opacity="0.2"/>
<path d="M224.265 562.091C225.054 562.091 225.693 561.452 225.693 560.663C225.693 559.875 225.054 559.236 224.265 559.236C223.477 559.236 222.838 559.875 222.838 560.663C222.838 561.452 223.477 562.091 224.265 562.091Z" fill="#EF4C41" fill-opacity="0.2"/>
<path d="M280.332 562.091C281.12 562.091 281.759 561.452 281.759 560.663C281.759 559.875 281.12 559.236 280.332 559.236C279.543 559.236 278.904 559.875 278.904 560.663C278.904 561.452 279.543 562.091 280.332 562.091Z" fill="#EF4C41" fill-opacity="0.2"/>
<path d="M336.398 562.091C337.186 562.091 337.825 561.452 337.825 560.663C337.825 559.875 337.186 559.236 336.398 559.236C335.61 559.236 334.97 559.875 334.97 560.663C334.97 561.452 335.61 562.091 336.398 562.091Z" fill="#EF4C41" fill-opacity="0.2"/>
<path d="M392.464 562.091C393.253 562.091 393.892 561.452 393.892 560.663C393.892 559.875 393.253 559.236 392.464 559.236C391.676 559.236 391.037 559.875 391.037 560.663C391.037 561.452 391.676 562.091 392.464 562.091Z" fill="#EF4C41" fill-opacity="0.2"/>
<path d="M448.531 562.091C449.319 562.091 449.958 561.452 449.958 560.663C449.958 559.875 449.319 559.236 448.531 559.236C447.742 559.236 447.103 559.875 447.103 560.663C447.103 561.452 447.742 562.091 448.531 562.091Z" fill="#EF4C41" fill-opacity="0.2"/>
<path d="M504.597 562.091C505.386 562.091 506.025 561.452 506.025 560.663C506.025 559.875 505.386 559.236 504.597 559.236C503.809 559.236 503.17 559.875 503.17 560.663C503.17 561.452 503.809 562.091 504.597 562.091Z" fill="#EF4C41" fill-opacity="0.2"/>
<path d="M560.663 562.091C561.452 562.091 562.091 561.452 562.091 560.663C562.091 559.875 561.452 559.236 560.663 559.236C559.875 559.236 559.236 559.875 559.236 560.663C559.236 561.452 559.875 562.091 560.663 562.091Z" fill="#EF4C41" fill-opacity="0.2"/>
<path d="M616.73 562.091C617.518 562.091 618.157 561.452 618.157 560.663C618.157 559.875 617.518 559.236 616.73 559.236C615.941 559.236 615.302 559.875 615.302 560.663C615.302 561.452 615.941 562.091 616.73 562.091Z" fill="#EF4C41" fill-opacity="0.2"/>
<path d="M672.796 562.091C673.584 562.091 674.224 561.452 674.224 560.663C674.224 559.875 673.584 559.236 672.796 559.236C672.008 559.236 671.369 559.875 671.369 560.663C671.369 561.452 672.008 562.091 672.796 562.091Z" fill="#EF4C41" fill-opacity="0.2"/>
<path d="M728.862 562.091C729.651 562.091 730.29 561.452 730.29 560.663C730.29 559.875 729.651 559.236 728.862 559.236C728.074 559.236 727.435 559.875 727.435 560.663C727.435 561.452 728.074 562.091 728.862 562.091Z" fill="#EF4C41" fill-opacity="0.2"/>
<path d="M784.928 562.091C785.717 562.091 786.356 561.452 786.356 560.663C786.356 559.875 785.717 559.236 784.928 559.236C784.14 559.236 783.501 559.875 783.501 560.663C783.501 561.452 784.14 562.091 784.928 562.091Z" fill="#EF4C41" fill-opacity="0.2"/>
<path d="M840.995 562.091C841.783 562.091 842.422 561.452 842.422 560.663C842.422 559.875 841.783 559.236 840.995 559.236C840.207 559.236 839.567 559.875 839.567 560.663C839.567 561.452 840.207 562.091 840.995 562.091Z" fill="#EF4C41" fill-opacity="0.2"/>
<path d="M897.061 562.091C897.85 562.091 898.489 561.452 898.489 560.663C898.489 559.875 897.85 559.236 897.061 559.236C896.273 559.236 895.634 559.875 895.634 560.663C895.634 561.452 896.273 562.091 897.061 562.091Z" fill="#EF4C41" fill-opacity="0.2"/>
<path d="M-1.20401e-05 618.157C0.788363 618.157 1.42747 617.518 1.42747 616.73C1.42747 615.941 0.788363 615.302 -1.20401e-05 615.302C-0.788387 615.302 -1.42749 615.941 -1.42749 616.73C-1.42749 617.518 -0.788387 618.157 -1.20401e-05 618.157Z" fill="#EF4C41" fill-opacity="0.2"/>
<path d="M56.0664 618.157C56.8548 618.157 57.4939 617.518 57.4939 616.73C57.4939 615.941 56.8548 615.302 56.0664 615.302C55.278 615.302 54.6389 615.941 54.6389 616.73C54.6389 617.518 55.278 618.157 56.0664 618.157Z" fill="#EF4C41" fill-opacity="0.2"/>
<path d="M112.133 618.157C112.921 618.157 113.56 617.518 113.56 616.73C113.56 615.941 112.921 615.302 112.133 615.302C111.344 615.302 110.705 615.941 110.705 616.73C110.705 617.518 111.344 618.157 112.133 618.157Z" fill="#EF4C41" fill-opacity="0.2"/>
<path d="M168.199 618.157C168.987 618.157 169.626 617.518 169.626 616.73C169.626 615.941 168.987 615.302 168.199 615.302C167.411 615.302 166.771 615.941 166.771 616.73C166.771 617.518 167.411 618.157 168.199 618.157Z" fill="#EF4C41" fill-opacity="0.2"/>
<path d="M224.265 618.157C225.054 618.157 225.693 617.518 225.693 616.73C225.693 615.941 225.054 615.302 224.265 615.302C223.477 615.302 222.838 615.941 222.838 616.73C222.838 617.518 223.477 618.157 224.265 618.157Z" fill="#EF4C41" fill-opacity="0.2"/>
<path d="M280.332 618.157C281.12 618.157 281.759 617.518 281.759 616.73C281.759 615.941 281.12 615.302 280.332 615.302C279.543 615.302 278.904 615.941 278.904 616.73C278.904 617.518 279.543 618.157 280.332 618.157Z" fill="#EF4C41" fill-opacity="0.2"/>
<path d="M336.398 618.157C337.186 618.157 337.825 617.518 337.825 616.73C337.825 615.941 337.186 615.302 336.398 615.302C335.61 615.302 334.97 615.941 334.97 616.73C334.97 617.518 335.61 618.157 336.398 618.157Z" fill="#EF4C41" fill-opacity="0.2"/>
<path d="M392.464 618.157C393.253 618.157 393.892 617.518 393.892 616.73C393.892 615.941 393.253 615.302 392.464 615.302C391.676 615.302 391.037 615.941 391.037 616.73C391.037 617.518 391.676 618.157 392.464 618.157Z" fill="#EF4C41" fill-opacity="0.2"/>
<path d="M448.531 618.157C449.319 618.157 449.958 617.518 449.958 616.73C449.958 615.941 449.319 615.302 448.531 615.302C447.742 615.302 447.103 615.941 447.103 616.73C447.103 617.518 447.742 618.157 448.531 618.157Z" fill="#EF4C41" fill-opacity="0.2"/>
<path d="M504.597 618.157C505.386 618.157 506.025 617.518 506.025 616.73C506.025 615.941 505.386 615.302 504.597 615.302C503.809 615.302 503.17 615.941 503.17 616.73C503.17 617.518 503.809 618.157 504.597 618.157Z" fill="#EF4C41" fill-opacity="0.2"/>
<path d="M560.663 618.157C561.452 618.157 562.091 617.518 562.091 616.73C562.091 615.941 561.452 615.302 560.663 615.302C559.875 615.302 559.236 615.941 559.236 616.73C559.236 617.518 559.875 618.157 560.663 618.157Z" fill="#EF4C41" fill-opacity="0.2"/>
<path d="M616.73 618.157C617.518 618.157 618.157 617.518 618.157 616.73C618.157 615.941 617.518 615.302 616.73 615.302C615.941 615.302 615.302 615.941 615.302 616.73C615.302 617.518 615.941 618.157 616.73 618.157Z" fill="#EF4C41" fill-opacity="0.2"/>
<path d="M672.796 618.157C673.584 618.157 674.224 617.518 674.224 616.73C674.224 615.941 673.584 615.302 672.796 615.302C672.008 615.302 671.369 615.941 671.369 616.73C671.369 617.518 672.008 618.157 672.796 618.157Z" fill="#EF4C41" fill-opacity="0.2"/>
<path d="M728.862 618.157C729.651 618.157 730.29 617.518 730.29 616.73C730.29 615.941 729.651 615.302 728.862 615.302C728.074 615.302 727.435 615.941 727.435 616.73C727.435 617.518 728.074 618.157 728.862 618.157Z" fill="#EF4C41" fill-opacity="0.2"/>
<path d="M784.928 618.157C785.717 618.157 786.356 617.518 786.356 616.73C786.356 615.941 785.717 615.302 784.928 615.302C784.14 615.302 783.501 615.941 783.501 616.73C783.501 617.518 784.14 618.157 784.928 618.157Z" fill="#EF4C41" fill-opacity="0.2"/>
<path d="M840.995 618.157C841.783 618.157 842.422 617.518 842.422 616.73C842.422 615.941 841.783 615.302 840.995 615.302C840.207 615.302 839.567 615.941 839.567 616.73C839.567 617.518 840.207 618.157 840.995 618.157Z" fill="#EF4C41" fill-opacity="0.2"/>
<path d="M897.061 618.157C897.85 618.157 898.489 617.518 898.489 616.73C898.489 615.941 897.85 615.302 897.061 615.302C896.273 615.302 895.634 615.941 895.634 616.73C895.634 617.518 896.273 618.157 897.061 618.157Z" fill="#EF4C41" fill-opacity="0.2"/>
<path d="M-1.20401e-05 674.224C0.788363 674.224 1.42747 673.584 1.42747 672.796C1.42747 672.008 0.788363 671.369 -1.20401e-05 671.369C-0.788387 671.369 -1.42749 672.008 -1.42749 672.796C-1.42749 673.584 -0.788387 674.224 -1.20401e-05 674.224Z" fill="#EF4C41" fill-opacity="0.2"/>
<path d="M56.0664 674.224C56.8548 674.224 57.4939 673.584 57.4939 672.796C57.4939 672.008 56.8548 671.369 56.0664 671.369C55.278 671.369 54.6389 672.008 54.6389 672.796C54.6389 673.584 55.278 674.224 56.0664 674.224Z" fill="#EF4C41" fill-opacity="0.2"/>
<path d="M112.133 674.224C112.921 674.224 113.56 673.584 113.56 672.796C113.56 672.008 112.921 671.369 112.133 671.369C111.344 671.369 110.705 672.008 110.705 672.796C110.705 673.584 111.344 674.224 112.133 674.224Z" fill="#EF4C41" fill-opacity="0.2"/>
<path d="M168.199 674.224C168.987 674.224 169.626 673.584 169.626 672.796C169.626 672.008 168.987 671.369 168.199 671.369C167.411 671.369 166.771 672.008 166.771 672.796C166.771 673.584 167.411 674.224 168.199 674.224Z" fill="#EF4C41" fill-opacity="0.2"/>
<path d="M224.265 674.224C225.054 674.224 225.693 673.584 225.693 672.796C225.693 672.008 225.054 671.369 224.265 671.369C223.477 671.369 222.838 672.008 222.838 672.796C222.838 673.584 223.477 674.224 224.265 674.224Z" fill="#EF4C41" fill-opacity="0.2"/>
<path d="M280.332 674.224C281.12 674.224 281.759 673.584 281.759 672.796C281.759 672.008 281.12 671.369 280.332 671.369C279.543 671.369 278.904 672.008 278.904 672.796C278.904 673.584 279.543 674.224 280.332 674.224Z" fill="#EF4C41" fill-opacity="0.2"/>
<path d="M336.398 674.224C337.186 674.224 337.825 673.584 337.825 672.796C337.825 672.008 337.186 671.369 336.398 671.369C335.61 671.369 334.97 672.008 334.97 672.796C334.97 673.584 335.61 674.224 336.398 674.224Z" fill="#EF4C41" fill-opacity="0.2"/>
<path d="M392.464 674.224C393.253 674.224 393.892 673.584 393.892 672.796C393.892 672.008 393.253 671.369 392.464 671.369C391.676 671.369 391.037 672.008 391.037 672.796C391.037 673.584 391.676 674.224 392.464 674.224Z" fill="#EF4C41" fill-opacity="0.2"/>
<path d="M448.531 674.224C449.319 674.224 449.958 673.584 449.958 672.796C449.958 672.008 449.319 671.369 448.531 671.369C447.742 671.369 447.103 672.008 447.103 672.796C447.103 673.584 447.742 674.224 448.531 674.224Z" fill="#EF4C41" fill-opacity="0.2"/>
<path d="M504.597 674.224C505.386 674.224 506.025 673.584 506.025 672.796C506.025 672.008 505.386 671.369 504.597 671.369C503.809 671.369 503.17 672.008 503.17 672.796C503.17 673.584 503.809 674.224 504.597 674.224Z" fill="#EF4C41" fill-opacity="0.2"/>
<path d="M560.663 674.224C561.452 674.224 562.091 673.584 562.091 672.796C562.091 672.008 561.452 671.369 560.663 671.369C559.875 671.369 559.236 672.008 559.236 672.796C559.236 673.584 559.875 674.224 560.663 674.224Z" fill="#EF4C41" fill-opacity="0.2"/>
<path d="M616.73 674.224C617.518 674.224 618.157 673.584 618.157 672.796C618.157 672.008 617.518 671.369 616.73 671.369C615.941 671.369 615.302 672.008 615.302 672.796C615.302 673.584 615.941 674.224 616.73 674.224Z" fill="#EF4C41" fill-opacity="0.2"/>
<path d="M672.796 674.224C673.584 674.224 674.224 673.584 674.224 672.796C674.224 672.008 673.584 671.369 672.796 671.369C672.008 671.369 671.369 672.008 671.369 672.796C671.369 673.584 672.008 674.224 672.796 674.224Z" fill="#EF4C41" fill-opacity="0.2"/>
<path d="M728.862 674.224C729.651 674.224 730.29 673.584 730.29 672.796C730.29 672.008 729.651 671.369 728.862 671.369C728.074 671.369 727.435 672.008 727.435 672.796C727.435 673.584 728.074 674.224 728.862 674.224Z" fill="#EF4C41" fill-opacity="0.2"/>
<path d="M784.928 674.224C785.717 674.224 786.356 673.584 786.356 672.796C786.356 672.008 785.717 671.369 784.928 671.369C784.14 671.369 783.501 672.008 783.501 672.796C783.501 673.584 784.14 674.224 784.928 674.224Z" fill="#EF4C41" fill-opacity="0.2"/>
<path d="M840.995 674.224C841.783 674.224 842.422 673.584 842.422 672.796C842.422 672.008 841.783 671.369 840.995 671.369C840.207 671.369 839.567 672.008 839.567 672.796C839.567 673.584 840.207 674.224 840.995 674.224Z" fill="#EF4C41" fill-opacity="0.2"/>
<path d="M897.061 674.224C897.85 674.224 898.489 673.584 898.489 672.796C898.489 672.008 897.85 671.369 897.061 671.369C896.273 671.369 895.634 672.008 895.634 672.796C895.634 673.584 896.273 674.224 897.061 674.224Z" fill="#EF4C41" fill-opacity="0.2"/>
<path d="M-1.20401e-05 730.29C0.788363 730.29 1.42747 729.651 1.42747 728.863C1.42747 728.074 0.788363 727.435 -1.20401e-05 727.435C-0.788387 727.435 -1.42749 728.074 -1.42749 728.863C-1.42749 729.651 -0.788387 730.29 -1.20401e-05 730.29Z" fill="#EF4C41" fill-opacity="0.2"/>
<path d="M56.0664 730.29C56.8548 730.29 57.4939 729.651 57.4939 728.863C57.4939 728.074 56.8548 727.435 56.0664 727.435C55.278 727.435 54.6389 728.074 54.6389 728.863C54.6389 729.651 55.278 730.29 56.0664 730.29Z" fill="#EF4C41" fill-opacity="0.2"/>
<path d="M112.133 730.29C112.921 730.29 113.56 729.651 113.56 728.863C113.56 728.074 112.921 727.435 112.133 727.435C111.344 727.435 110.705 728.074 110.705 728.863C110.705 729.651 111.344 730.29 112.133 730.29Z" fill="#EF4C41" fill-opacity="0.2"/>
<path d="M168.199 730.29C168.987 730.29 169.626 729.651 169.626 728.863C169.626 728.074 168.987 727.435 168.199 727.435C167.411 727.435 166.771 728.074 166.771 728.863C166.771 729.651 167.411 730.29 168.199 730.29Z" fill="#EF4C41" fill-opacity="0.2"/>
<path d="M224.265 730.29C225.054 730.29 225.693 729.651 225.693 728.863C225.693 728.074 225.054 727.435 224.265 727.435C223.477 727.435 222.838 728.074 222.838 728.863C222.838 729.651 223.477 730.29 224.265 730.29Z" fill="#EF4C41" fill-opacity="0.2"/>
<path d="M280.332 730.29C281.12 730.29 281.759 729.651 281.759 728.863C281.759 728.074 281.12 727.435 280.332 727.435C279.543 727.435 278.904 728.074 278.904 728.863C278.904 729.651 279.543 730.29 280.332 730.29Z" fill="#EF4C41" fill-opacity="0.2"/>
<path d="M336.398 730.29C337.186 730.29 337.825 729.651 337.825 728.863C337.825 728.074 337.186 727.435 336.398 727.435C335.61 727.435 334.97 728.074 334.97 728.863C334.97 729.651 335.61 730.29 336.398 730.29Z" fill="#EF4C41" fill-opacity="0.2"/>
<path d="M392.464 730.29C393.253 730.29 393.892 729.651 393.892 728.863C393.892 728.074 393.253 727.435 392.464 727.435C391.676 727.435 391.037 728.074 391.037 728.863C391.037 729.651 391.676 730.29 392.464 730.29Z" fill="#EF4C41" fill-opacity="0.2"/>
<path d="M448.531 730.29C449.319 730.29 449.958 729.651 449.958 728.863C449.958 728.074 449.319 727.435 448.531 727.435C447.742 727.435 447.103 728.074 447.103 728.863C447.103 729.651 447.742 730.29 448.531 730.29Z" fill="#EF4C41" fill-opacity="0.2"/>
<path d="M504.597 730.29C505.386 730.29 506.025 729.651 506.025 728.863C506.025 728.074 505.386 727.435 504.597 727.435C503.809 727.435 503.17 728.074 503.17 728.863C503.17 729.651 503.809 730.29 504.597 730.29Z" fill="#EF4C41" fill-opacity="0.2"/>
<path d="M560.663 730.29C561.452 730.29 562.091 729.651 562.091 728.863C562.091 728.074 561.452 727.435 560.663 727.435C559.875 727.435 559.236 728.074 559.236 728.863C559.236 729.651 559.875 730.29 560.663 730.29Z" fill="#EF4C41" fill-opacity="0.2"/>
<path d="M616.73 730.29C617.518 730.29 618.157 729.651 618.157 728.863C618.157 728.074 617.518 727.435 616.73 727.435C615.941 727.435 615.302 728.074 615.302 728.863C615.302 729.651 615.941 730.29 616.73 730.29Z" fill="#EF4C41" fill-opacity="0.2"/>
<path d="M672.796 730.29C673.584 730.29 674.224 729.651 674.224 728.863C674.224 728.074 673.584 727.435 672.796 727.435C672.008 727.435 671.369 728.074 671.369 728.863C671.369 729.651 672.008 730.29 672.796 730.29Z" fill="#EF4C41" fill-opacity="0.2"/>
<path d="M728.862 730.29C729.651 730.29 730.29 729.651 730.29 728.863C730.29 728.074 729.651 727.435 728.862 727.435C728.074 727.435 727.435 728.074 727.435 728.863C727.435 729.651 728.074 730.29 728.862 730.29Z" fill="#EF4C41" fill-opacity="0.2"/>
<path d="M784.928 730.29C785.717 730.29 786.356 729.651 786.356 728.863C786.356 728.074 785.717 727.435 784.928 727.435C784.14 727.435 783.501 728.074 783.501 728.863C783.501 729.651 784.14 730.29 784.928 730.29Z" fill="#EF4C41" fill-opacity="0.2"/>
<path d="M840.995 730.29C841.783 730.29 842.422 729.651 842.422 728.863C842.422 728.074 841.783 727.435 840.995 727.435C840.207 727.435 839.567 728.074 839.567 728.863C839.567 729.651 840.207 730.29 840.995 730.29Z" fill="#EF4C41" fill-opacity="0.2"/>
<path d="M897.061 730.29C897.85 730.29 898.489 729.651 898.489 728.863C898.489 728.074 897.85 727.435 897.061 727.435C896.273 727.435 895.634 728.074 895.634 728.863C895.634 729.651 896.273 730.29 897.061 730.29Z" fill="#EF4C41" fill-opacity="0.2"/>
<path d="M-1.20401e-05 786.356C0.788363 786.356 1.42747 785.717 1.42747 784.929C1.42747 784.14 0.788363 783.501 -1.20401e-05 783.501C-0.788387 783.501 -1.42749 784.14 -1.42749 784.929C-1.42749 785.717 -0.788387 786.356 -1.20401e-05 786.356Z" fill="#EF4C41" fill-opacity="0.2"/>
<path d="M56.0664 786.356C56.8548 786.356 57.4939 785.717 57.4939 784.929C57.4939 784.14 56.8548 783.501 56.0664 783.501C55.278 783.501 54.6389 784.14 54.6389 784.929C54.6389 785.717 55.278 786.356 56.0664 786.356Z" fill="#EF4C41" fill-opacity="0.2"/>
<path d="M112.133 786.356C112.921 786.356 113.56 785.717 113.56 784.929C113.56 784.14 112.921 783.501 112.133 783.501C111.344 783.501 110.705 784.14 110.705 784.929C110.705 785.717 111.344 786.356 112.133 786.356Z" fill="#EF4C41" fill-opacity="0.2"/>
<path d="M168.199 786.356C168.987 786.356 169.626 785.717 169.626 784.929C169.626 784.14 168.987 783.501 168.199 783.501C167.411 783.501 166.771 784.14 166.771 784.929C166.771 785.717 167.411 786.356 168.199 786.356Z" fill="#EF4C41" fill-opacity="0.2"/>
<path d="M224.265 786.356C225.054 786.356 225.693 785.717 225.693 784.929C225.693 784.14 225.054 783.501 224.265 783.501C223.477 783.501 222.838 784.14 222.838 784.929C222.838 785.717 223.477 786.356 224.265 786.356Z" fill="#EF4C41" fill-opacity="0.2"/>
<path d="M280.332 786.356C281.12 786.356 281.759 785.717 281.759 784.929C281.759 784.14 281.12 783.501 280.332 783.501C279.543 783.501 278.904 784.14 278.904 784.929C278.904 785.717 279.543 786.356 280.332 786.356Z" fill="#EF4C41" fill-opacity="0.2"/>
<path d="M336.398 786.356C337.186 786.356 337.825 785.717 337.825 784.929C337.825 784.14 337.186 783.501 336.398 783.501C335.61 783.501 334.97 784.14 334.97 784.929C334.97 785.717 335.61 786.356 336.398 786.356Z" fill="#EF4C41" fill-opacity="0.2"/>
<path d="M392.464 786.356C393.253 786.356 393.892 785.717 393.892 784.929C393.892 784.14 393.253 783.501 392.464 783.501C391.676 783.501 391.037 784.14 391.037 784.929C391.037 785.717 391.676 786.356 392.464 786.356Z" fill="#EF4C41" fill-opacity="0.2"/>
<path d="M448.531 786.356C449.319 786.356 449.958 785.717 449.958 784.929C449.958 784.14 449.319 783.501 448.531 783.501C447.742 783.501 447.103 784.14 447.103 784.929C447.103 785.717 447.742 786.356 448.531 786.356Z" fill="#EF4C41" fill-opacity="0.2"/>
<path d="M504.597 786.356C505.386 786.356 506.025 785.717 506.025 784.929C506.025 784.14 505.386 783.501 504.597 783.501C503.809 783.501 503.17 784.14 503.17 784.929C503.17 785.717 503.809 786.356 504.597 786.356Z" fill="#EF4C41" fill-opacity="0.2"/>
<path d="M560.663 786.356C561.452 786.356 562.091 785.717 562.091 784.929C562.091 784.14 561.452 783.501 560.663 783.501C559.875 783.501 559.236 784.14 559.236 784.929C559.236 785.717 559.875 786.356 560.663 786.356Z" fill="#EF4C41" fill-opacity="0.2"/>
<path d="M616.73 786.356C617.518 786.356 618.157 785.717 618.157 784.929C618.157 784.14 617.518 783.501 616.73 783.501C615.941 783.501 615.302 784.14 615.302 784.929C615.302 785.717 615.941 786.356 616.73 786.356Z" fill="#EF4C41" fill-opacity="0.2"/>
<path d="M672.796 786.356C673.584 786.356 674.224 785.717 674.224 784.929C674.224 784.14 673.584 783.501 672.796 783.501C672.008 783.501 671.369 784.14 671.369 784.929C671.369 785.717 672.008 786.356 672.796 786.356Z" fill="#EF4C41" fill-opacity="0.2"/>
<path d="M728.862 786.356C729.651 786.356 730.29 785.717 730.29 784.929C730.29 784.14 729.651 783.501 728.862 783.501C728.074 783.501 727.435 784.14 727.435 784.929C727.435 785.717 728.074 786.356 728.862 786.356Z" fill="#EF4C41" fill-opacity="0.2"/>
<path d="M784.928 786.356C785.717 786.356 786.356 785.717 786.356 784.929C786.356 784.14 785.717 783.501 784.928 783.501C784.14 783.501 783.501 784.14 783.501 784.929C783.501 785.717 784.14 786.356 784.928 786.356Z" fill="#EF4C41" fill-opacity="0.2"/>
<path d="M840.995 786.356C841.783 786.356 842.422 785.717 842.422 784.929C842.422 784.14 841.783 783.501 840.995 783.501C840.207 783.501 839.567 784.14 839.567 784.929C839.567 785.717 840.207 786.356 840.995 786.356Z" fill="#EF4C41" fill-opacity="0.2"/>
<path d="M897.061 786.356C897.85 786.356 898.489 785.717 898.489 784.929C898.489 784.14 897.85 783.501 897.061 783.501C896.273 783.501 895.634 784.14 895.634 784.929C895.634 785.717 896.273 786.356 897.061 786.356Z" fill="#EF4C41" fill-opacity="0.2"/>
<path d="M-1.20401e-05 842.422C0.788363 842.422 1.42747 841.783 1.42747 840.995C1.42747 840.207 0.788363 839.567 -1.20401e-05 839.567C-0.788387 839.567 -1.42749 840.207 -1.42749 840.995C-1.42749 841.783 -0.788387 842.422 -1.20401e-05 842.422Z" fill="#EF4C41" fill-opacity="0.2"/>
<path d="M56.0664 842.422C56.8548 842.422 57.4939 841.783 57.4939 840.995C57.4939 840.207 56.8548 839.567 56.0664 839.567C55.278 839.567 54.6389 840.207 54.6389 840.995C54.6389 841.783 55.278 842.422 56.0664 842.422Z" fill="#EF4C41" fill-opacity="0.2"/>
<path d="M112.133 842.422C112.921 842.422 113.56 841.783 113.56 840.995C113.56 840.207 112.921 839.567 112.133 839.567C111.344 839.567 110.705 840.207 110.705 840.995C110.705 841.783 111.344 842.422 112.133 842.422Z" fill="#EF4C41" fill-opacity="0.2"/>
<path d="M168.199 842.422C168.987 842.422 169.626 841.783 169.626 840.995C169.626 840.207 168.987 839.567 168.199 839.567C167.411 839.567 166.771 840.207 166.771 840.995C166.771 841.783 167.411 842.422 168.199 842.422Z" fill="#EF4C41" fill-opacity="0.2"/>
<path d="M224.265 842.422C225.054 842.422 225.693 841.783 225.693 840.995C225.693 840.207 225.054 839.567 224.265 839.567C223.477 839.567 222.838 840.207 222.838 840.995C222.838 841.783 223.477 842.422 224.265 842.422Z" fill="#EF4C41" fill-opacity="0.2"/>
<path d="M280.332 842.422C281.12 842.422 281.759 841.783 281.759 840.995C281.759 840.207 281.12 839.567 280.332 839.567C279.543 839.567 278.904 840.207 278.904 840.995C278.904 841.783 279.543 842.422 280.332 842.422Z" fill="#EF4C41" fill-opacity="0.2"/>
<path d="M336.398 842.422C337.186 842.422 337.825 841.783 337.825 840.995C337.825 840.207 337.186 839.567 336.398 839.567C335.61 839.567 334.97 840.207 334.97 840.995C334.97 841.783 335.61 842.422 336.398 842.422Z" fill="#EF4C41" fill-opacity="0.2"/>
<path d="M392.464 842.422C393.253 842.422 393.892 841.783 393.892 840.995C393.892 840.207 393.253 839.567 392.464 839.567C391.676 839.567 391.037 840.207 391.037 840.995C391.037 841.783 391.676 842.422 392.464 842.422Z" fill="#EF4C41" fill-opacity="0.2"/>
<path d="M448.531 842.422C449.319 842.422 449.958 841.783 449.958 840.995C449.958 840.207 449.319 839.567 448.531 839.567C447.742 839.567 447.103 840.207 447.103 840.995C447.103 841.783 447.742 842.422 448.531 842.422Z" fill="#EF4C41" fill-opacity="0.2"/>
<path d="M504.597 842.422C505.386 842.422 506.025 841.783 506.025 840.995C506.025 840.207 505.386 839.567 504.597 839.567C503.809 839.567 503.17 840.207 503.17 840.995C503.17 841.783 503.809 842.422 504.597 842.422Z" fill="#EF4C41" fill-opacity="0.2"/>
<path d="M560.663 842.422C561.452 842.422 562.091 841.783 562.091 840.995C562.091 840.207 561.452 839.567 560.663 839.567C559.875 839.567 559.236 840.207 559.236 840.995C559.236 841.783 559.875 842.422 560.663 842.422Z" fill="#EF4C41" fill-opacity="0.2"/>
<path d="M616.73 842.422C617.518 842.422 618.157 841.783 618.157 840.995C618.157 840.207 617.518 839.567 616.73 839.567C615.941 839.567 615.302 840.207 615.302 840.995C615.302 841.783 615.941 842.422 616.73 842.422Z" fill="#EF4C41" fill-opacity="0.2"/>
<path d="M672.796 842.422C673.584 842.422 674.224 841.783 674.224 840.995C674.224 840.207 673.584 839.567 672.796 839.567C672.008 839.567 671.369 840.207 671.369 840.995C671.369 841.783 672.008 842.422 672.796 842.422Z" fill="#EF4C41" fill-opacity="0.2"/>
<path d="M728.862 842.422C729.651 842.422 730.29 841.783 730.29 840.995C730.29 840.207 729.651 839.567 728.862 839.567C728.074 839.567 727.435 840.207 727.435 840.995C727.435 841.783 728.074 842.422 728.862 842.422Z" fill="#EF4C41" fill-opacity="0.2"/>
<path d="M784.928 842.422C785.717 842.422 786.356 841.783 786.356 840.995C786.356 840.207 785.717 839.567 784.928 839.567C784.14 839.567 783.501 840.207 783.501 840.995C783.501 841.783 784.14 842.422 784.928 842.422Z" fill="#EF4C41" fill-opacity="0.2"/>
<path d="M840.995 842.422C841.783 842.422 842.422 841.783 842.422 840.995C842.422 840.207 841.783 839.567 840.995 839.567C840.207 839.567 839.567 840.207 839.567 840.995C839.567 841.783 840.207 842.422 840.995 842.422Z" fill="#EF4C41" fill-opacity="0.2"/>
<path d="M897.061 842.422C897.85 842.422 898.489 841.783 898.489 840.995C898.489 840.207 897.85 839.567 897.061 839.567C896.273 839.567 895.634 840.207 895.634 840.995C895.634 841.783 896.273 842.422 897.061 842.422Z" fill="#EF4C41" fill-opacity="0.2"/>
<path d="M-1.20401e-05 898.489C0.788363 898.489 1.42747 897.85 1.42747 897.061C1.42747 896.273 0.788363 895.634 -1.20401e-05 895.634C-0.788387 895.634 -1.42749 896.273 -1.42749 897.061C-1.42749 897.85 -0.788387 898.489 -1.20401e-05 898.489Z" fill="#EF4C41" fill-opacity="0.2"/>
<path d="M56.0664 898.489C56.8548 898.489 57.4939 897.85 57.4939 897.061C57.4939 896.273 56.8548 895.634 56.0664 895.634C55.278 895.634 54.6389 896.273 54.6389 897.061C54.6389 897.85 55.278 898.489 56.0664 898.489Z" fill="#EF4C41" fill-opacity="0.2"/>
<path d="M112.133 898.489C112.921 898.489 113.56 897.85 113.56 897.061C113.56 896.273 112.921 895.634 112.133 895.634C111.344 895.634 110.705 896.273 110.705 897.061C110.705 897.85 111.344 898.489 112.133 898.489Z" fill="#EF4C41" fill-opacity="0.2"/>
<path d="M168.199 898.489C168.987 898.489 169.626 897.85 169.626 897.061C169.626 896.273 168.987 895.634 168.199 895.634C167.411 895.634 166.771 896.273 166.771 897.061C166.771 897.85 167.411 898.489 168.199 898.489Z" fill="#EF4C41" fill-opacity="0.2"/>
<path d="M224.265 898.489C225.054 898.489 225.693 897.85 225.693 897.061C225.693 896.273 225.054 895.634 224.265 895.634C223.477 895.634 222.838 896.273 222.838 897.061C222.838 897.85 223.477 898.489 224.265 898.489Z" fill="#EF4C41" fill-opacity="0.2"/>
<path d="M280.332 898.489C281.12 898.489 281.759 897.85 281.759 897.061C281.759 896.273 281.12 895.634 280.332 895.634C279.543 895.634 278.904 896.273 278.904 897.061C278.904 897.85 279.543 898.489 280.332 898.489Z" fill="#EF4C41" fill-opacity="0.2"/>
<path d="M336.398 898.489C337.186 898.489 337.825 897.85 337.825 897.061C337.825 896.273 337.186 895.634 336.398 895.634C335.61 895.634 334.97 896.273 334.97 897.061C334.97 897.85 335.61 898.489 336.398 898.489Z" fill="#EF4C41" fill-opacity="0.2"/>
<path d="M392.464 898.489C393.253 898.489 393.892 897.85 393.892 897.061C393.892 896.273 393.253 895.634 392.464 895.634C391.676 895.634 391.037 896.273 391.037 897.061C391.037 897.85 391.676 898.489 392.464 898.489Z" fill="#EF4C41" fill-opacity="0.2"/>
<path d="M448.531 898.489C449.319 898.489 449.958 897.85 449.958 897.061C449.958 896.273 449.319 895.634 448.531 895.634C447.742 895.634 447.103 896.273 447.103 897.061C447.103 897.85 447.742 898.489 448.531 898.489Z" fill="#EF4C41" fill-opacity="0.2"/>
<path d="M504.597 898.489C505.386 898.489 506.025 897.85 506.025 897.061C506.025 896.273 505.386 895.634 504.597 895.634C503.809 895.634 503.17 896.273 503.17 897.061C503.17 897.85 503.809 898.489 504.597 898.489Z" fill="#EF4C41" fill-opacity="0.2"/>
<path d="M560.663 898.489C561.452 898.489 562.091 897.85 562.091 897.061C562.091 896.273 561.452 895.634 560.663 895.634C559.875 895.634 559.236 896.273 559.236 897.061C559.236 897.85 559.875 898.489 560.663 898.489Z" fill="#EF4C41" fill-opacity="0.2"/>
<path d="M616.73 898.489C617.518 898.489 618.157 897.85 618.157 897.061C618.157 896.273 617.518 895.634 616.73 895.634C615.941 895.634 615.302 896.273 615.302 897.061C615.302 897.85 615.941 898.489 616.73 898.489Z" fill="#EF4C41" fill-opacity="0.2"/>
<path d="M672.796 898.489C673.584 898.489 674.224 897.85 674.224 897.061C674.224 896.273 673.584 895.634 672.796 895.634C672.008 895.634 671.369 896.273 671.369 897.061C671.369 897.85 672.008 898.489 672.796 898.489Z" fill="#EF4C41" fill-opacity="0.2"/>
<path d="M728.862 898.489C729.651 898.489 730.29 897.85 730.29 897.061C730.29 896.273 729.651 895.634 728.862 895.634C728.074 895.634 727.435 896.273 727.435 897.061C727.435 897.85 728.074 898.489 728.862 898.489Z" fill="#EF4C41" fill-opacity="0.2"/>
<path d="M784.928 898.489C785.717 898.489 786.356 897.85 786.356 897.061C786.356 896.273 785.717 895.634 784.928 895.634C784.14 895.634 783.501 896.273 783.501 897.061C783.501 897.85 784.14 898.489 784.928 898.489Z" fill="#EF4C41" fill-opacity="0.2"/>
<path d="M840.995 898.489C841.783 898.489 842.422 897.85 842.422 897.061C842.422 896.273 841.783 895.634 840.995 895.634C840.207 895.634 839.567 896.273 839.567 897.061C839.567 897.85 840.207 898.489 840.995 898.489Z" fill="#EF4C41" fill-opacity="0.2"/>
<path d="M897.061 898.489C897.85 898.489 898.489 897.85 898.489 897.061C898.489 896.273 897.85 895.634 897.061 895.634C896.273 895.634 895.634 896.273 895.634 897.061C895.634 897.85 896.273 898.489 897.061 898.489Z" fill="#EF4C41" fill-opacity="0.2"/>
<path d="M-1.20401e-05 954.555C0.788363 954.555 1.42747 953.916 1.42747 953.128C1.42747 952.339 0.788363 951.7 -1.20401e-05 951.7C-0.788387 951.7 -1.42749 952.339 -1.42749 953.128C-1.42749 953.916 -0.788387 954.555 -1.20401e-05 954.555Z" fill="#EF4C41" fill-opacity="0.2"/>
<path d="M56.0664 954.555C56.8548 954.555 57.4939 953.916 57.4939 953.128C57.4939 952.339 56.8548 951.7 56.0664 951.7C55.278 951.7 54.6389 952.339 54.6389 953.128C54.6389 953.916 55.278 954.555 56.0664 954.555Z" fill="#EF4C41" fill-opacity="0.2"/>
<path d="M112.133 954.555C112.921 954.555 113.56 953.916 113.56 953.128C113.56 952.339 112.921 951.7 112.133 951.7C111.344 951.7 110.705 952.339 110.705 953.128C110.705 953.916 111.344 954.555 112.133 954.555Z" fill="#EF4C41" fill-opacity="0.2"/>
<path d="M168.199 954.555C168.987 954.555 169.626 953.916 169.626 953.128C169.626 952.339 168.987 951.7 168.199 951.7C167.411 951.7 166.771 952.339 166.771 953.128C166.771 953.916 167.411 954.555 168.199 954.555Z" fill="#EF4C41" fill-opacity="0.2"/>
<path d="M224.265 954.555C225.054 954.555 225.693 953.916 225.693 953.128C225.693 952.339 225.054 951.7 224.265 951.7C223.477 951.7 222.838 952.339 222.838 953.128C222.838 953.916 223.477 954.555 224.265 954.555Z" fill="#EF4C41" fill-opacity="0.2"/>
<path d="M280.332 954.555C281.12 954.555 281.759 953.916 281.759 953.128C281.759 952.339 281.12 951.7 280.332 951.7C279.543 951.7 278.904 952.339 278.904 953.128C278.904 953.916 279.543 954.555 280.332 954.555Z" fill="#EF4C41" fill-opacity="0.2"/>
<path d="M336.398 954.555C337.186 954.555 337.825 953.916 337.825 953.128C337.825 952.339 337.186 951.7 336.398 951.7C335.61 951.7 334.97 952.339 334.97 953.128C334.97 953.916 335.61 954.555 336.398 954.555Z" fill="#EF4C41" fill-opacity="0.2"/>
<path d="M392.464 954.555C393.253 954.555 393.892 953.916 393.892 953.128C393.892 952.339 393.253 951.7 392.464 951.7C391.676 951.7 391.037 952.339 391.037 953.128C391.037 953.916 391.676 954.555 392.464 954.555Z" fill="#EF4C41" fill-opacity="0.2"/>
<path d="M448.531 954.555C449.319 954.555 449.958 953.916 449.958 953.128C449.958 952.339 449.319 951.7 448.531 951.7C447.742 951.7 447.103 952.339 447.103 953.128C447.103 953.916 447.742 954.555 448.531 954.555Z" fill="#EF4C41" fill-opacity="0.2"/>
<path d="M504.597 954.555C505.386 954.555 506.025 953.916 506.025 953.128C506.025 952.339 505.386 951.7 504.597 951.7C503.809 951.7 503.17 952.339 503.17 953.128C503.17 953.916 503.809 954.555 504.597 954.555Z" fill="#EF4C41" fill-opacity="0.2"/>
<path d="M560.663 954.555C561.452 954.555 562.091 953.916 562.091 953.128C562.091 952.339 561.452 951.7 560.663 951.7C559.875 951.7 559.236 952.339 559.236 953.128C559.236 953.916 559.875 954.555 560.663 954.555Z" fill="#EF4C41" fill-opacity="0.2"/>
<path d="M616.73 954.555C617.518 954.555 618.157 953.916 618.157 953.128C618.157 952.339 617.518 951.7 616.73 951.7C615.941 951.7 615.302 952.339 615.302 953.128C615.302 953.916 615.941 954.555 616.73 954.555Z" fill="#EF4C41" fill-opacity="0.2"/>
<path d="M672.796 954.555C673.584 954.555 674.224 953.916 674.224 953.128C674.224 952.339 673.584 951.7 672.796 951.7C672.008 951.7 671.369 952.339 671.369 953.128C671.369 953.916 672.008 954.555 672.796 954.555Z" fill="#EF4C41" fill-opacity="0.2"/>
<path d="M728.862 954.555C729.651 954.555 730.29 953.916 730.29 953.128C730.29 952.339 729.651 951.7 728.862 951.7C728.074 951.7 727.435 952.339 727.435 953.128C727.435 953.916 728.074 954.555 728.862 954.555Z" fill="#EF4C41" fill-opacity="0.2"/>
<path d="M784.928 954.555C785.717 954.555 786.356 953.916 786.356 953.128C786.356 952.339 785.717 951.7 784.928 951.7C784.14 951.7 783.501 952.339 783.501 953.128C783.501 953.916 784.14 954.555 784.928 954.555Z" fill="#EF4C41" fill-opacity="0.2"/>
<path d="M840.995 954.555C841.783 954.555 842.422 953.916 842.422 953.128C842.422 952.339 841.783 951.7 840.995 951.7C840.207 951.7 839.567 952.339 839.567 953.128C839.567 953.916 840.207 954.555 840.995 954.555Z" fill="#EF4C41" fill-opacity="0.2"/>
<path d="M897.061 954.555C897.85 954.555 898.489 953.916 898.489 953.128C898.489 952.339 897.85 951.7 897.061 951.7C896.273 951.7 895.634 952.339 895.634 953.128C895.634 953.916 896.273 954.555 897.061 954.555Z" fill="#EF4C41" fill-opacity="0.2"/>
<path d="M-1.20401e-05 1010.62C0.788363 1010.62 1.42747 1009.98 1.42747 1009.19C1.42747 1008.41 0.788363 1007.77 -1.20401e-05 1007.77C-0.788387 1007.77 -1.42749 1008.41 -1.42749 1009.19C-1.42749 1009.98 -0.788387 1010.62 -1.20401e-05 1010.62Z" fill="#EF4C41" fill-opacity="0.2"/>
<path d="M56.0664 1010.62C56.8548 1010.62 57.4939 1009.98 57.4939 1009.19C57.4939 1008.41 56.8548 1007.77 56.0664 1007.77C55.278 1007.77 54.6389 1008.41 54.6389 1009.19C54.6389 1009.98 55.278 1010.62 56.0664 1010.62Z" fill="#EF4C41" fill-opacity="0.2"/>
<path d="M112.133 1010.62C112.921 1010.62 113.56 1009.98 113.56 1009.19C113.56 1008.41 112.921 1007.77 112.133 1007.77C111.344 1007.77 110.705 1008.41 110.705 1009.19C110.705 1009.98 111.344 1010.62 112.133 1010.62Z" fill="#EF4C41" fill-opacity="0.2"/>
<path d="M168.199 1010.62C168.987 1010.62 169.626 1009.98 169.626 1009.19C169.626 1008.41 168.987 1007.77 168.199 1007.77C167.411 1007.77 166.771 1008.41 166.771 1009.19C166.771 1009.98 167.411 1010.62 168.199 1010.62Z" fill="#EF4C41" fill-opacity="0.2"/>
<path d="M224.265 1010.62C225.054 1010.62 225.693 1009.98 225.693 1009.19C225.693 1008.41 225.054 1007.77 224.265 1007.77C223.477 1007.77 222.838 1008.41 222.838 1009.19C222.838 1009.98 223.477 1010.62 224.265 1010.62Z" fill="#EF4C41" fill-opacity="0.2"/>
<path d="M280.332 1010.62C281.12 1010.62 281.759 1009.98 281.759 1009.19C281.759 1008.41 281.12 1007.77 280.332 1007.77C279.543 1007.77 278.904 1008.41 278.904 1009.19C278.904 1009.98 279.543 1010.62 280.332 1010.62Z" fill="#EF4C41" fill-opacity="0.2"/>
<path d="M336.398 1010.62C337.186 1010.62 337.825 1009.98 337.825 1009.19C337.825 1008.41 337.186 1007.77 336.398 1007.77C335.61 1007.77 334.97 1008.41 334.97 1009.19C334.97 1009.98 335.61 1010.62 336.398 1010.62Z" fill="#EF4C41" fill-opacity="0.2"/>
<path d="M392.464 1010.62C393.253 1010.62 393.892 1009.98 393.892 1009.19C393.892 1008.41 393.253 1007.77 392.464 1007.77C391.676 1007.77 391.037 1008.41 391.037 1009.19C391.037 1009.98 391.676 1010.62 392.464 1010.62Z" fill="#EF4C41" fill-opacity="0.2"/>
<path d="M448.531 1010.62C449.319 1010.62 449.958 1009.98 449.958 1009.19C449.958 1008.41 449.319 1007.77 448.531 1007.77C447.742 1007.77 447.103 1008.41 447.103 1009.19C447.103 1009.98 447.742 1010.62 448.531 1010.62Z" fill="#EF4C41" fill-opacity="0.2"/>
<path d="M504.597 1010.62C505.386 1010.62 506.025 1009.98 506.025 1009.19C506.025 1008.41 505.386 1007.77 504.597 1007.77C503.809 1007.77 503.17 1008.41 503.17 1009.19C503.17 1009.98 503.809 1010.62 504.597 1010.62Z" fill="#EF4C41" fill-opacity="0.2"/>
<path d="M560.663 1010.62C561.452 1010.62 562.091 1009.98 562.091 1009.19C562.091 1008.41 561.452 1007.77 560.663 1007.77C559.875 1007.77 559.236 1008.41 559.236 1009.19C559.236 1009.98 559.875 1010.62 560.663 1010.62Z" fill="#EF4C41" fill-opacity="0.2"/>
<path d="M616.73 1010.62C617.518 1010.62 618.157 1009.98 618.157 1009.19C618.157 1008.41 617.518 1007.77 616.73 1007.77C615.941 1007.77 615.302 1008.41 615.302 1009.19C615.302 1009.98 615.941 1010.62 616.73 1010.62Z" fill="#EF4C41" fill-opacity="0.2"/>
<path d="M672.796 1010.62C673.584 1010.62 674.224 1009.98 674.224 1009.19C674.224 1008.41 673.584 1007.77 672.796 1007.77C672.008 1007.77 671.369 1008.41 671.369 1009.19C671.369 1009.98 672.008 1010.62 672.796 1010.62Z" fill="#EF4C41" fill-opacity="0.2"/>
<path d="M728.862 1010.62C729.651 1010.62 730.29 1009.98 730.29 1009.19C730.29 1008.41 729.651 1007.77 728.862 1007.77C728.074 1007.77 727.435 1008.41 727.435 1009.19C727.435 1009.98 728.074 1010.62 728.862 1010.62Z" fill="#EF4C41" fill-opacity="0.2"/>
<path d="M784.928 1010.62C785.717 1010.62 786.356 1009.98 786.356 1009.19C786.356 1008.41 785.717 1007.77 784.928 1007.77C784.14 1007.77 783.501 1008.41 783.501 1009.19C783.501 1009.98 784.14 1010.62 784.928 1010.62Z" fill="#EF4C41" fill-opacity="0.2"/>
<path d="M840.995 1010.62C841.783 1010.62 842.422 1009.98 842.422 1009.19C842.422 1008.41 841.783 1007.77 840.995 1007.77C840.207 1007.77 839.567 1008.41 839.567 1009.19C839.567 1009.98 840.207 1010.62 840.995 1010.62Z" fill="#EF4C41" fill-opacity="0.2"/>
<path d="M897.061 1010.62C897.85 1010.62 898.489 1009.98 898.489 1009.19C898.489 1008.41 897.85 1007.77 897.061 1007.77C896.273 1007.77 895.634 1008.41 895.634 1009.19C895.634 1009.98 896.273 1010.62 897.061 1010.62Z" fill="#EF4C41" fill-opacity="0.2"/>
</svg>
