<svg width="88" height="87" viewBox="0 0 88 87" fill="none" xmlns="http://www.w3.org/2000/svg">
<path d="M64.3182 44.4488C63.7466 41.4286 62.5104 38.7157 60.6495 36.3636C58.8949 34.1451 56.5821 32.2475 53.7641 30.6972C51.7836 29.6147 49.6967 29.0668 47.53 29.0668C46.8388 29.0668 46.1476 29.1203 45.4564 29.2405C42.479 29.7216 39.7541 30.8309 37.3747 32.5147C34.2643 34.7064 32.2572 37.553 31.3666 40.9475C30.064 46.0124 31.3533 50.1687 35.2081 53.3226C36.112 54.0576 37.2285 54.7124 38.6375 55.3272C40.3256 56.0622 41.9606 56.423 43.5158 56.423C46.4002 56.423 49.0586 55.1535 51.3981 52.6544C52.8071 51.1442 53.5116 49.2733 53.3919 47.3622C53.259 45.3843 52.2621 43.5267 50.574 42.1368C49.4707 41.2415 48.2212 40.8004 46.7591 40.8004C46.1609 40.8004 45.5229 40.8673 44.8184 41.0143C44.074 41.1613 43.4892 41.9097 43.4759 42.7115C43.4626 43.5267 44.0608 44.2216 44.8716 44.3553C45.1374 44.3954 45.4299 44.4221 45.7356 44.4221C46.0014 44.4221 46.2939 44.4088 46.5863 44.3687C46.6395 44.3687 46.6926 44.3553 46.7325 44.3553C47.4769 44.3553 48.3143 44.97 48.8992 45.959C49.5505 47.0548 49.7233 48.271 49.3245 48.9926C48.0484 51.358 45.3102 52.7613 43.3829 52.7613C43.2233 52.7613 43.0771 52.7479 42.9309 52.7345C39.7673 52.3203 37.069 50.6497 35.7132 48.2576C34.4371 45.9991 34.4106 43.2995 35.6334 40.4663C37.3216 36.5774 40.4586 34.1451 45.2438 33.0226C46.0147 32.8488 46.7857 32.7553 47.53 32.7553C49.3777 32.7553 51.1588 33.2899 52.8204 34.3456C56.2631 36.524 58.669 39.5977 60.1577 43.7272C60.5565 44.8498 60.7027 46.1193 60.7824 47.2286C60.9818 50.035 60.3305 52.9083 58.7886 56.0355C58.1373 57.3451 57.4062 58.3876 56.5954 59.1359C53.7508 61.7687 50.441 63.5862 46.7591 64.5216C45.4033 64.8691 44.0076 65.0429 42.5853 65.0429C40.2326 65.0429 37.7868 64.5885 35.1018 63.6396C32.1775 62.6106 30.1039 61.1138 28.7613 59.0691C26.9669 56.3161 25.7174 53.6968 24.9464 51.0908C24.0825 48.1507 23.8432 45.264 24.2154 42.2705C24.6141 39.0631 25.5047 36.123 26.8605 33.5438C27.472 32.3811 28.4025 31.1917 29.5589 30.1092C31.3932 28.3719 33.52 26.8751 35.886 25.659C38.4381 24.3359 41.1896 23.6811 44.0873 23.6811C44.6323 23.6811 45.1906 23.7078 45.7622 23.7479C46.1476 23.7746 46.5464 23.8281 46.9319 23.8682C47.4636 23.9216 48.0086 23.9885 48.5535 24.0152C48.713 24.0286 48.9124 24.0419 49.0985 24.0419C49.4973 24.0419 49.7897 23.9885 50.0423 23.8816C50.4942 23.6811 50.9196 23.2401 51.0924 22.8124C51.3449 22.171 51.119 21.4627 50.5075 21.0083C50.255 20.8212 49.9359 20.6875 49.6435 20.6341C47.5433 20.2332 45.6824 20.0461 43.9411 20.0461C42.7182 20.0461 41.5219 20.1396 40.3921 20.3401C35.2746 21.1954 30.6488 23.788 25.8237 28.4788C24.7471 29.5212 23.9495 30.8843 23.2317 32.2074C21.2246 35.9092 20.2676 40.1055 20.2277 45.3843C20.1612 48.2309 20.6663 51.0106 21.6633 53.4295C21.743 53.6433 21.8361 53.8438 21.9158 54.0576C22.5007 55.4742 23.1121 56.9442 23.8166 58.3341C26.156 62.8779 29.7848 65.9115 34.6232 67.3682C37.3349 68.1834 40.1262 68.5843 43.1303 68.5843H43.2499C49.0985 68.5576 54.4287 66.3525 59.081 61.9958C63.853 57.5456 65.6607 51.4783 64.3182 44.4488Z" fill="#F5948D"/>
<path d="M71.1903 55.9018C70.9909 55.9018 70.6985 55.9152 70.4725 56.0756C70.1402 56.3027 69.6883 56.6636 69.4756 57.118C69.356 57.3719 69.3958 57.706 69.5553 58.0267C69.7547 58.4276 70.1136 58.7216 70.4725 58.7885C71.3897 58.9622 72.4664 59.1493 73.5297 59.2295C75.9356 59.4032 78.3947 59.5502 80.7607 59.6839C81.5982 59.7373 82.4489 59.7774 83.2863 59.8309V59.9244H83.5521C83.6983 59.9244 83.8445 59.9244 83.9775 59.9244C84.1237 59.9244 84.2699 59.9244 84.4028 59.9244C84.5756 59.9244 84.7617 59.9244 84.9345 59.9244C84.9744 59.9244 85.0143 59.9244 85.0542 59.9244C85.1871 59.9244 85.3333 59.9244 85.4795 59.9378C85.6257 59.9378 85.7719 59.9511 85.9182 59.9511C86.2106 59.9511 86.5828 59.9378 86.9417 59.8442C87.4069 59.7106 87.912 59.1493 87.9917 58.6949C88.0582 58.2272 87.7126 57.6124 87.3404 57.3184C86.9948 57.0378 86.4631 56.8373 85.9049 56.7972C81.1994 56.4899 76.5604 56.2226 71.4296 55.9419C71.3764 55.9018 71.2833 55.9018 71.1903 55.9018Z" fill="#F5948D"/>
<path d="M76.6667 23.6276L77.6238 22.9461L77.7833 22.8392C78.1953 22.5451 78.6074 22.2511 78.9663 21.877C79.179 21.6498 79.272 21.3424 79.3385 21.1286C79.3518 21.0751 79.3651 21.0217 79.3783 21.0083L79.4049 20.9548V20.888C79.3518 20.0327 78.7137 19.3244 77.9561 19.3244C77.863 19.3244 77.77 19.3378 77.6769 19.3511C76.999 19.5115 76.361 19.7921 75.8426 20.153C73.6627 21.6631 71.4827 23.2401 69.356 24.7502C68.9439 25.0442 68.5318 25.3382 68.1198 25.6322C67.6811 25.9396 67.3222 26.2336 67.0165 26.5277C66.2456 27.2493 66.3785 27.9175 66.631 28.3451C66.9368 28.8663 67.4286 29.1871 67.9603 29.1871C68.0799 29.1871 68.2128 29.1737 68.3325 29.1336C68.9439 28.9733 69.5686 28.6659 70.1402 28.265C72.3201 26.7415 74.5267 25.1645 76.6667 23.6276Z" fill="#F5948D"/>
<path d="M59.1741 83.9797C57.805 81.8415 56.3694 79.7166 55.1465 77.8857C54.894 77.5115 54.5749 77.0304 54.1363 76.7631C53.6445 76.4557 53.0463 76.2553 52.4881 76.2018C52.4615 76.2018 52.4216 76.2018 52.395 76.2018C52.0228 76.2018 51.6639 76.4023 51.4114 76.7497C51.1588 77.1106 51.0791 77.5516 51.1987 77.9258C51.305 78.2465 51.438 78.5138 51.5842 78.741L52.1558 79.5963C53.5116 81.6009 54.9205 83.6857 56.3295 85.7037C56.6618 86.1714 57.1404 86.5991 57.6455 86.8664C57.8183 86.9599 58.0177 87 58.217 87C58.9215 87 59.6925 86.3853 59.7324 85.3963V85.3428L59.7058 85.2894C59.6792 85.2226 59.6526 85.1424 59.6127 85.0355C59.533 84.7548 59.4001 84.3405 59.1741 83.9797Z" fill="#F5948D"/>
<path d="M0.834241 64.3479C0.980457 64.4682 1.11339 64.5885 1.2596 64.7087L1.37924 64.829L1.53874 64.7622C1.778 64.6553 2.01726 64.5618 2.25653 64.4816C2.74834 64.2945 3.21357 64.1074 3.6655 63.8668C5.47326 62.8779 7.29429 61.8488 9.06217 60.8465L9.74007 60.459C10.1388 60.2318 10.5642 59.9779 10.9364 59.6705C11.5345 59.1627 11.694 58.5078 11.375 57.853C11.1092 57.2917 10.5775 56.9576 9.97934 56.9576C9.89958 56.9576 9.80653 56.971 9.72678 56.9843C9.14192 57.0779 8.58365 57.3585 8.10513 57.6258C6.03153 58.7751 3.91805 59.9645 1.89762 61.1138L1.55203 61.3009C1.49886 61.341 1.43239 61.3677 1.36593 61.4078C1.08679 61.5548 0.767783 61.7286 0.555107 62.0092C0.0898768 62.6373 -0.0829261 63.1184 0.0367045 63.4525C0.18292 63.8 0.501934 64.0673 0.834241 64.3479Z" fill="#F5948D"/>
<path d="M46.4002 1.65713C46.4135 0.868651 45.8286 0.18709 45.0045 0.0267216C44.9115 0.0133575 44.8317 0 44.7387 0C43.981 0 43.2499 0.601369 43.0372 1.38985C42.9841 1.60367 42.9442 1.80413 42.9309 1.99123C42.891 2.56589 42.8512 3.1539 42.8113 3.72856C42.6784 5.62625 42.5454 7.59076 42.4258 9.52855C42.3593 10.6645 42.9974 11.4931 44.0209 11.6C44.0873 11.6 44.1538 11.6134 44.207 11.6134C45.1241 11.6134 45.7356 10.9451 45.8818 9.79583C46.028 8.75343 46.0945 7.69768 46.1742 6.66865C46.2008 6.22764 46.2407 5.77326 46.2806 5.33225L46.3072 5.06496L46.2274 5.05159C46.2407 4.78431 46.254 4.50366 46.2806 4.24974C46.3337 3.38108 46.3869 2.51243 46.4002 1.65713Z" fill="#F5948D"/>
<path d="M21.4905 17.7875C21.9823 17.7875 22.4342 17.5871 22.7798 17.2129C23.0457 16.9189 23.5508 16.117 22.5405 15.1147C20.5866 13.1502 18.5529 11.159 16.3463 9.04746C16.0938 8.80691 15.7748 8.68664 15.4425 8.553C15.2962 8.49954 15.1367 8.4327 14.9905 8.36588L14.8443 8.29906L14.7114 8.40598C14.5918 8.49953 14.4721 8.5797 14.3525 8.65988C14.0601 8.86034 13.7676 9.06081 13.5815 9.36818C13.3689 9.71565 13.4619 10.2636 13.6081 10.6378C13.7544 11.012 14.0468 11.3327 14.3392 11.6134C16.1337 13.3774 17.9148 15.1281 19.7359 16.8922C19.9618 17.1193 20.2011 17.3064 20.4271 17.4534C20.7461 17.6673 21.1316 17.7875 21.4905 17.7875Z" fill="#F5948D"/>
<path d="M27.6581 73.7696C27.4321 73.7696 27.1131 73.7963 26.834 73.9567C26.3421 74.224 26.0098 74.7986 25.8636 75.1193C24.9464 77.0839 24.0426 79.1018 23.1786 81.053L22.9792 81.5074C22.8729 81.7613 22.7931 82.0419 22.7266 82.376C22.6602 82.7769 22.7798 83.1779 23.0456 83.512C23.378 83.9129 23.9096 84.1668 24.5078 84.1802H24.5743L24.6274 84.1535C24.654 84.1401 24.7072 84.1267 24.7603 84.1C24.9597 84.0332 25.2522 83.9263 25.4914 83.7258C25.7573 83.4986 25.9965 83.1645 26.1959 82.7235C27.2194 80.4917 28.2296 78.2465 29.0803 76.3355C29.2 76.0548 29.293 75.7475 29.3329 75.4534C29.4259 74.7051 29.0405 74.0769 28.3493 73.8498C28.1233 73.7963 27.8973 73.7696 27.6581 73.7696Z" fill="#F5948D"/>
<path d="M2.04385 32.6083C2.41604 32.9157 2.92113 33.1429 3.41295 33.2097C5.03461 33.4636 6.68285 33.6774 8.27792 33.8912C8.8362 33.9714 9.38118 34.0382 9.92617 34.1184H9.97934C10.1521 34.105 10.3116 34.0917 10.4711 34.0917C10.8167 34.0783 11.1491 34.065 11.4681 33.9981C12.2656 33.8511 12.7308 33.2631 12.6378 32.5548C12.5846 32.0871 12.2124 31.6728 11.8801 31.312C11.694 31.1249 11.3883 31.0046 10.9497 30.9511C8.54378 30.6705 6.17775 30.3898 3.78514 30.1493C3.6788 30.1359 3.55917 30.1359 3.45283 30.1359C3.1604 30.1359 2.70845 30.176 2.29639 30.3631C1.9375 30.5235 1.59191 31.0046 1.55203 31.4189C1.52544 31.8198 1.73813 32.3544 2.04385 32.6083Z" fill="#F5948D"/>
</svg>
