<svg width="75" height="45" viewBox="0 0 75 45" fill="none" xmlns="http://www.w3.org/2000/svg">
<path d="M74.5991 1.97685C74.5565 1.89668 74.5253 1.81892 74.4851 1.72739C74.3916 1.4941 74.2687 1.23087 74.0678 0.99857C73.7901 0.678856 73.4379 0.485717 73.0048 0.394036C72.6742 0.324069 72.3634 0.329453 72.1096 0.346901C70.9415 0.408032 69.7529 0.452981 68.6009 0.49382C67.8329 0.521046 67.0398 0.554797 66.2466 0.58855C49.4136 1.34305 32.5693 2.09515 15.7363 2.84965L14.6665 2.89602C11.1074 3.05599 7.4296 3.21456 3.81773 3.39894C3.27595 3.4266 2.65613 3.48518 2.10289 3.73577C1.47165 4.01729 1.05518 4.52217 0.950628 5.12866C0.843677 5.74651 1.0793 6.37755 1.58134 6.87522C1.90705 7.19323 2.24476 7.45448 2.58007 7.72708C2.70244 7.82415 2.81341 7.9188 2.93818 8.00451L6.83303 11.1536C13.4308 16.4997 20.0309 21.8344 26.64 27.1829L28.5205 28.7076C34.6108 33.6379 40.905 38.73 47.111 43.7322C47.7318 44.2313 48.1884 44.494 48.6215 44.5857C49.1915 44.7063 49.6961 44.5166 50.0598 44.0361C50.3101 43.6977 50.4932 43.2264 50.6469 42.4999L50.6734 42.375C51.3161 39.451 51.9805 36.4248 52.5554 33.4271C52.744 32.4233 53.1438 31.5472 53.8064 30.6674C56.9225 26.5233 60.0717 22.2795 63.1049 18.1891C64.1384 16.7948 65.1833 15.4029 66.2192 13.9972L67.9525 11.6599C69.8179 9.14878 71.7504 6.54521 73.6506 3.9822C73.8661 3.69571 74.0563 3.41574 74.2514 3.11306C74.3396 2.97755 74.4417 2.8331 74.5437 2.68864L74.7712 2.34538L74.5991 1.97685ZM48.2094 37.4176C48.0399 38.3306 47.8777 39.2095 47.6153 40.0554C47.4906 39.9697 47.3706 39.8613 47.2122 39.7091C47.1037 39.6031 46.9837 39.4947 46.8499 39.3952C41.3985 34.9916 35.8679 30.5118 30.5071 26.1867L26.9998 23.345C25.944 22.481 24.8745 21.626 23.8073 20.7597C20.6761 18.223 17.4519 15.6191 14.2506 13.0201C21.478 16.9101 28.4895 20.6951 33.9719 23.6583C37.8844 25.7674 41.8581 27.925 45.7046 30.0082L48.5991 31.5815C48.8126 31.6979 49.0147 31.8119 49.2463 31.9557L49.2577 31.9582C49.1788 32.9496 48.9518 33.9098 48.7128 34.9266C48.6101 35.3556 48.505 35.7959 48.4137 36.2273C48.3524 36.6294 48.2772 37.0405 48.2094 37.4176ZM47.1962 27.1808C46.5148 26.7994 45.8129 26.4017 45.1038 26.0382C43.6857 25.311 42.2657 24.536 40.889 23.7821C40.3029 23.4564 39.703 23.1397 39.1145 22.8253L37.8217 22.1247C36.229 21.2657 34.5727 20.3696 32.9596 19.4944C31.9758 18.966 30.974 18.41 30.013 17.8863C28.968 17.3093 27.8774 16.7227 26.8096 16.1408C25.4214 15.3844 24.0081 14.6346 22.6403 13.8944C21.9769 13.5405 21.3044 13.1728 20.6409 12.8189L19.0914 11.9809C17.6055 11.1801 16.1196 10.3793 14.645 9.58092C13.4908 8.95709 12.3252 8.33084 11.1621 7.69324C12.5851 7.947 13.9944 8.2097 15.3833 8.45622C17.5725 8.86028 19.8439 9.26986 22.0811 9.67221C24.2043 10.0504 26.3503 10.4335 28.4417 10.7931C34.4237 11.8458 40.6271 12.9215 46.6685 14.2002C49.1307 14.7214 51.6318 15.227 54.0532 15.7158C55.6514 16.0422 57.3067 16.3807 58.9391 16.7144L58.9733 16.7216C59.2468 16.7795 59.5181 16.8488 59.7982 16.9318C57.1424 20.5328 54.5262 24.0591 51.7594 27.7908L50.8256 29.052C49.5496 28.4973 48.357 27.8298 47.1962 27.1808ZM54.1872 12.4943C49.6001 11.5472 44.8671 10.5573 40.1972 9.66373C36.7541 8.99429 33.2348 8.40359 29.8343 7.81433C28.0873 7.51572 26.2833 7.20505 24.5044 6.88785C22.6344 6.55136 20.7644 6.21485 19.0473 5.88701C26.6797 5.55728 34.3762 5.20556 41.8531 4.87852C50.9554 4.46851 60.3708 4.04175 69.6123 3.64934C67.5381 6.47202 65.135 9.72324 62.7133 13.0061C62.4978 13.2926 62.2733 13.5653 62.014 13.89C61.9654 13.9509 61.9168 14.0117 61.8544 14.0816C61.729 14.055 61.6037 14.0285 61.4897 14.0044C61.2617 13.9561 61.0451 13.9103 60.8285 13.8644C60.5663 13.8089 60.327 13.7583 60.0762 13.7052C58.1108 13.3129 56.1136 12.9021 54.1872 12.4943Z" fill="#DB6565"/>
</svg>
