<svg width="390" height="178" viewBox="0 0 390 178" fill="none" xmlns="http://www.w3.org/2000/svg">
<g filter="url(#filter0_d_509_1345)">
<path d="M-48 177.398V27.2489L-46.575 26.6239L-45.15 26.0099L-43.725 25.4015L-42.3 24.8097L-40.875 24.229L-39.45 23.6648L-38.025 23.1172L-36.6 22.5807L-35.175 22.0719L-33.75 21.5741L-32.325 21.104L-30.9 20.6504L-29.475 20.219L-28.05 19.8153L-26.625 19.4336L-25.2 19.0741L-23.775 18.7478L-22.35 18.4436L-20.925 18.167L-19.5 17.9181L-18.075 17.6969L-16.65 17.5088L-15.225 17.3484L-13.8 17.2212L-12.375 17.1161L-10.95 17.0498L-9.525 17.0111L-8.1 17L-6.675 17.0221L-5.25 17.0774L-3.825 17.1604L-2.4 17.271L-0.974998 17.4148L0.450001 17.5918L1.875 17.7909L3.3 18.0232L4.725 18.2832L6.15 18.5708L7.575 18.8916L9 19.229L10.425 19.5996L11.85 19.9923L13.275 20.4071L14.7 20.8495L16.125 21.3086L17.55 21.7898L18.975 22.2931L20.4 22.8186L21.825 23.3551L23.25 23.9137L24.675 24.4834L26.1 25.0697L27.525 25.6725L28.95 26.281L30.375 26.9004L31.8 27.531L33.225 28.167L34.65 28.8086L36.075 29.4557L37.5 30.1028L38.925 30.7555L40.35 31.4082L41.775 32.0553L43.2 32.7024L44.625 33.3495L46.05 33.9856L47.475 34.6161L48.9 35.2356L50.325 35.8495L51.75 36.4524L53.175 37.0387L54.6 37.6139L56.025 38.1725L57.45 38.7201L58.875 39.2455L60.3 39.7544L61.725 40.2411L63.15 40.7057L64.575 41.1537L66 41.5741L67.425 41.9723L68.85 42.3429L70.275 42.6913L71.7 43.0121L73.125 43.3053L74.55 43.5763L75.975 43.8141L77.4 44.0243L78.825 44.2013L80.25 44.3506L81.675 44.4723L83.1 44.5608L84.525 44.6216L85.95 44.6493H87.375L88.8 44.6161L90.225 44.5553L91.65 44.4612L93.075 44.3395L94.5 44.1847L95.925 44.0022L97.35 43.7864L98.775 43.5486L100.2 43.2776L101.625 42.9789L103.05 42.6526L104.475 42.3041L105.9 41.928L107.325 41.5298L108.75 41.1039L110.175 40.6559L111.6 40.1858L113.025 39.6991L114.45 39.1847L115.875 38.6592L117.3 38.1117L118.725 37.5531L120.15 36.9778L121.575 36.386L123 35.7831L124.425 35.1692L125.85 34.5442L127.275 33.9137L128.7 33.2776L130.125 32.6305L131.55 31.9834L132.975 31.3363L134.4 30.6836L135.825 30.0309L137.25 29.3838L138.675 28.7367L140.1 28.0951L141.525 27.4591L142.95 26.8285L144.375 26.2091L145.8 25.6006L147.225 25.0033L148.65 24.4225L150.075 23.8529L151.5 23.2942L152.925 22.7577L154.35 22.2378L155.775 21.74L157.2 21.2588L158.625 20.7998L160.05 20.3628L161.475 19.948L162.9 19.5553L164.325 19.1903L165.75 18.8529L167.175 18.5376L168.6 18.2555L170.025 17.9956L171.45 17.7688L172.875 17.5697L174.3 17.3982L175.725 17.26L177.15 17.1493L178.575 17.0664L180 17.0166L181.425 17L182.85 17.0111L184.275 17.0553L185.7 17.1272L187.125 17.2323L188.55 17.365L189.975 17.531L191.4 17.7246L192.825 17.9458L194.25 18.1947L195.675 18.4768L197.1 18.781L198.525 19.1128L199.95 19.4723L201.375 19.8595L202.8 20.2688L204.225 20.7002L205.65 21.1538L207.075 21.6294L208.5 22.1272L209.925 22.6416L211.35 23.1781L212.775 23.7257L214.2 24.2953L215.625 24.8761L217.05 25.4679L218.475 26.0763L219.9 26.6902L221.325 27.3208L222.75 27.9513L224.175 28.5929L225.6 29.24L227.025 29.8871L228.45 30.5398L229.875 31.1869L231.3 31.8396L232.725 32.4867L234.15 33.1338L235.575 33.7754L237 34.4059L238.425 35.0309L239.85 35.6449L241.275 36.2533L242.7 36.8451L244.125 37.4258L245.55 37.99L246.975 38.5376L248.4 39.0741L249.825 39.5829L251.25 40.0807L252.675 40.5508L254.1 41.0044L255.525 41.4358L256.95 41.8396L258.375 42.2212L259.8 42.5807L261.225 42.907L262.65 43.2112L264.075 43.4878L265.5 43.7367L266.925 43.9579L268.35 44.146L269.775 44.3064L271.2 44.4336L272.625 44.5387L274.05 44.605L275.475 44.6437L276.9 44.6548L278.325 44.6327L279.75 44.5774L281.175 44.4944L282.6 44.3838L284.025 44.24L285.45 44.063L286.875 43.8639L288.3 43.6316L289.725 43.3716L291.15 43.084L292.575 42.7632L294 42.4258L295.425 42.0553L296.85 41.6626L298.275 41.2477L299.7 40.8053L301.125 40.3462L302.55 39.865L303.975 39.3617L305.4 38.8362L306.825 38.2997L308.25 37.7411L309.675 37.1714L311.1 36.5851L312.525 35.9823L313.95 35.3739L315.375 34.7544L316.8 34.1239L318.225 33.4878L319.65 32.8462L321.075 32.1991L322.5 31.552L323.925 30.8993L325.35 30.2467L326.775 29.5995L328.2 28.9524L329.625 28.3053L331.05 27.6692L332.475 27.0387L333.9 26.4192L335.325 25.8053L336.75 25.2024L338.175 24.6161L339.6 24.0409L341.025 23.4823L342.45 22.9347L343.875 22.4093L345.3 21.9004L346.725 21.4137L348.15 20.9491L349.575 20.5011L351 20.0807L352.425 19.6825L353.85 19.3119L355.275 18.9635L356.7 18.6427L358.125 18.3496L359.55 18.0785L360.975 17.8407L362.4 17.6305L363.825 17.4535L365.25 17.3042L366.675 17.1825L368.1 17.094L369.525 17.0332L370.95 17.0055H372.375L373.8 17.0387L375.225 17.0996L376.65 17.1936L378.075 17.3153L379.5 17.4701L380.925 17.6527L382.35 17.8684L383.775 18.1062L385.2 18.3772L386.625 18.6759L388.05 19.0022L389.475 19.3507L390.9 19.7268L392.325 20.125L393.75 20.5509L395.175 20.9989L396.6 21.469L398.025 21.9557L399.45 22.4701L400.875 22.9956L402.3 23.5431L403.725 24.1018L405.15 24.677L406.575 25.2688L408 25.8717L409.425 26.4856L410.85 27.1106L412.275 27.7411L413.7 28.3772L415.125 29.0243L416.55 29.6714L417.975 30.3186L419.4 30.9712L420.825 31.6239L422.25 32.271L423.675 32.9181L425.1 33.5597L426.525 34.1958L427.95 34.8263L429.375 35.4458L430.8 36.0542L432.225 36.6515L433.65 37.2323L435.075 37.8019L436.5 38.3606L437.925 38.8971L439.35 39.417L440.775 39.9148L442.2 40.396L443.625 40.855L445.05 41.292L446.475 41.7068L447.9 42.0995L449.325 42.4645L450.75 42.8019L452.175 43.1172L453.6 43.3993L455.025 43.6592L456.45 43.886L457.875 44.0851L459.3 44.2566L460.725 44.3949L462.15 44.5055L463.575 44.5884L465 44.6382L466.425 44.6548L467.85 44.6437L469.275 44.5995L470.7 44.5276L472.125 44.4225L473.55 44.2898L474.975 44.1238L476.4 43.9303L477.825 43.709L479.25 43.4601L480.675 43.178L482.1 42.8738L483.525 42.542L484.95 42.1825L486.375 41.7953L487.8 41.386L489.225 40.9546L490.65 40.5011L492.075 40.0254L493.5 39.5276L494.925 39.0132L496.35 38.4767L497.775 37.9292L499.2 37.3595L500.625 36.7787L502.05 36.1869L503.475 35.5785L504.9 34.9646L506.325 34.334L507.75 33.7035L509.175 33.0619L510.6 32.4148L512.025 31.7677L513.45 31.115L514.875 30.4679L516.3 29.8152L517.725 29.1681L519.15 28.521L520.575 27.8794L522 27.2489V177.398H-48Z" fill="white"/>
</g>
<defs>
<filter id="filter0_d_509_1345" x="-56.5" y="0.5" width="587" height="177.398" filterUnits="userSpaceOnUse" color-interpolation-filters="sRGB">
<feFlood flood-opacity="0" result="BackgroundImageFix"/>
<feColorMatrix in="SourceAlpha" type="matrix" values="0 0 0 0 0 0 0 0 0 0 0 0 0 0 0 0 0 0 127 0" result="hardAlpha"/>
<feOffset dy="-8"/>
<feGaussianBlur stdDeviation="4.25"/>
<feComposite in2="hardAlpha" operator="out"/>
<feColorMatrix type="matrix" values="0 0 0 0 0.9625 0 0 0 0 0.901604 0 0 0 0 0.778021 0 0 0 0.36 0"/>
<feBlend mode="normal" in2="BackgroundImageFix" result="effect1_dropShadow_509_1345"/>
<feBlend mode="normal" in="SourceGraphic" in2="effect1_dropShadow_509_1345" result="shape"/>
</filter>
</defs>
</svg>
