<svg width="390" height="178" viewBox="0 0 390 178" fill="none" xmlns="http://www.w3.org/2000/svg">
<g filter="url(#filter0_d_509_1338)">
<path d="M-123 1.00006V151.149L-121.575 151.774L-120.15 152.388L-118.725 152.996L-117.3 153.588L-115.875 154.169L-114.45 154.733L-113.025 155.281L-111.6 155.817L-110.175 156.326L-108.75 156.824L-107.325 157.294L-105.9 157.748L-104.475 158.179L-103.05 158.583L-101.625 158.964L-100.2 159.324L-98.775 159.65L-97.35 159.954L-95.925 160.231L-94.5 160.48L-93.075 160.701L-91.65 160.889L-90.225 161.05L-88.8 161.177L-87.375 161.282L-85.95 161.348L-84.525 161.387L-83.1 161.398L-81.675 161.376L-80.25 161.321L-78.825 161.238L-77.4 161.127L-75.975 160.983L-74.55 160.806L-73.125 160.607L-71.7 160.375L-70.275 160.115L-68.85 159.827L-67.425 159.506L-66 159.169L-64.575 158.798L-63.15 158.406L-61.725 157.991L-60.3 157.548L-58.875 157.089L-57.45 156.608L-56.025 156.105L-54.6 155.579L-53.175 155.043L-51.75 154.484L-50.325 153.915L-48.9 153.328L-47.475 152.725L-46.05 152.117L-44.625 151.498L-43.2 150.867L-41.775 150.231L-40.35 149.589L-38.925 148.942L-37.5 148.295L-36.075 147.642L-34.65 146.99L-33.225 146.343L-31.8 145.696L-30.375 145.048L-28.95 144.412L-27.525 143.782L-26.1 143.162L-24.675 142.548L-23.25 141.946L-21.825 141.359L-20.4 140.784L-18.975 140.225L-17.55 139.678L-16.125 139.152L-14.7 138.644L-13.275 138.157L-11.85 137.692L-10.425 137.244L-9 136.824L-7.575 136.426L-6.14999 136.055L-4.725 135.707L-3.3 135.386L-1.875 135.093L-0.449997 134.822L0.975006 134.584L2.4 134.374L3.825 134.197L5.25 134.047L6.675 133.926L8.10001 133.837L9.52499 133.776L10.95 133.749H12.375L13.8 133.782L15.225 133.843L16.65 133.937L18.075 134.058L19.5 134.213L20.925 134.396L22.35 134.612L23.775 134.849L25.2 135.12L26.625 135.419L28.05 135.745L29.475 136.094L30.9 136.47L32.325 136.868L33.75 137.294L35.175 137.742L36.6 138.212L38.025 138.699L39.45 139.213L40.875 139.739L42.3 140.286L43.725 140.845L45.15 141.42L46.575 142.012L48 142.615L49.425 143.229L50.85 143.854L52.275 144.484L53.7 145.12L55.125 145.767L56.55 146.415L57.975 147.062L59.4 147.714L60.825 148.367L62.25 149.014L63.675 149.661L65.1 150.303L66.525 150.939L67.95 151.569L69.375 152.189L70.8 152.797L72.225 153.395L73.65 153.975L75.075 154.545L76.5 155.104L77.925 155.64L79.35 156.16L80.775 156.658L82.2 157.139L83.625 157.598L85.05 158.035L86.475 158.45L87.9 158.843L89.325 159.208L90.75 159.545L92.175 159.86L93.6 160.142L95.025 160.402L96.45 160.629L97.875 160.828L99.3 161L100.725 161.138L102.15 161.249L103.575 161.332L105 161.381L106.425 161.398L107.85 161.387L109.275 161.343L110.7 161.271L112.125 161.166L113.55 161.033L114.975 160.867L116.4 160.673L117.825 160.452L119.25 160.203L120.675 159.921L122.1 159.617L123.525 159.285L124.95 158.926L126.375 158.538L127.8 158.129L129.225 157.698L130.65 157.244L132.075 156.769L133.5 156.271L134.925 155.756L136.35 155.22L137.775 154.672L139.2 154.103L140.625 153.522L142.05 152.93L143.475 152.322L144.9 151.708L146.325 151.077L147.75 150.447L149.175 149.805L150.6 149.158L152.025 148.511L153.45 147.858L154.875 147.211L156.3 146.558L157.725 145.911L159.15 145.264L160.575 144.623L162 143.992L163.425 143.367L164.85 142.753L166.275 142.145L167.7 141.553L169.125 140.972L170.55 140.408L171.975 139.86L173.4 139.324L174.825 138.815L176.25 138.317L177.675 137.847L179.1 137.394L180.525 136.962L181.95 136.558L183.375 136.177L184.8 135.817L186.225 135.491L187.65 135.187L189.075 134.91L190.5 134.661L191.925 134.44L193.35 134.252L194.775 134.092L196.2 133.964L197.625 133.859L199.05 133.793L200.475 133.754L201.9 133.743L203.325 133.765L204.75 133.821L206.175 133.904L207.6 134.014L209.025 134.158L210.45 134.335L211.875 134.534L213.3 134.766L214.725 135.026L216.15 135.314L217.575 135.635L219 135.972L220.425 136.343L221.85 136.735L223.275 137.15L224.7 137.593L226.125 138.052L227.55 138.533L228.975 139.036L230.4 139.562L231.825 140.098L233.25 140.657L234.675 141.227L236.1 141.813L237.525 142.416L238.95 143.024L240.375 143.644L241.8 144.274L243.225 144.91L244.65 145.552L246.075 146.199L247.5 146.846L248.925 147.499L250.35 148.151L251.775 148.798L253.2 149.446L254.625 150.093L256.05 150.729L257.475 151.359L258.9 151.979L260.325 152.593L261.75 153.196L263.175 153.782L264.6 154.357L266.025 154.916L267.45 155.463L268.875 155.989L270.3 156.498L271.725 156.984L273.15 157.449L274.575 157.897L276 158.317L277.425 158.715L278.85 159.086L280.275 159.434L281.7 159.755L283.125 160.048L284.55 160.319L285.975 160.557L287.4 160.767L288.825 160.944L290.25 161.094L291.675 161.215L293.1 161.304L294.525 161.365L295.95 161.392H297.375L298.8 161.359L300.225 161.298L301.65 161.204L303.075 161.083L304.5 160.928L305.925 160.745L307.35 160.53L308.775 160.292L310.2 160.021L311.625 159.722L313.05 159.396L314.475 159.047L315.9 158.671L317.325 158.273L318.75 157.847L320.175 157.399L321.6 156.929L323.025 156.442L324.45 155.928L325.875 155.402L327.3 154.855L328.725 154.296L330.15 153.721L331.575 153.129L333 152.526L334.425 151.912L335.85 151.287L337.275 150.657L338.7 150.021L340.125 149.374L341.55 148.727L342.975 148.079L344.4 147.427L345.825 146.774L347.25 146.127L348.675 145.48L350.1 144.838L351.525 144.202L352.95 143.572L354.375 142.952L355.8 142.344L357.225 141.746L358.65 141.166L360.075 140.596L361.5 140.037L362.925 139.501L364.35 138.981L365.775 138.483L367.2 138.002L368.625 137.543L370.05 137.106L371.475 136.691L372.9 136.298L374.325 135.933L375.75 135.596L377.175 135.281L378.6 134.999L380.025 134.739L381.45 134.512L382.875 134.313L384.3 134.141L385.725 134.003L387.15 133.892L388.575 133.81L390 133.76L391.425 133.743L392.85 133.754L394.275 133.798L395.7 133.87L397.125 133.975L398.55 134.108L399.975 134.274L401.4 134.468L402.825 134.689L404.25 134.938L405.675 135.22L407.1 135.524L408.525 135.856L409.95 136.215L411.375 136.603L412.8 137.012L414.225 137.443L415.65 137.897L417.075 138.373L418.5 138.87L419.925 139.385L421.35 139.921L422.775 140.469L424.2 141.038L425.625 141.619L427.05 142.211L428.475 142.819L429.9 143.433L431.325 144.064L432.75 144.694L434.175 145.336L435.6 145.983L437.025 146.63L438.45 147.283L439.875 147.93L441.3 148.583L442.725 149.23L444.15 149.877L445.575 150.519L447 151.149V1.00006H-123Z" fill="white"/>
</g>
<defs>
<filter id="filter0_d_509_1338" x="-131.5" y="0.5" width="587" height="177.398" filterUnits="userSpaceOnUse" color-interpolation-filters="sRGB">
<feFlood flood-opacity="0" result="BackgroundImageFix"/>
<feColorMatrix in="SourceAlpha" type="matrix" values="0 0 0 0 0 0 0 0 0 0 0 0 0 0 0 0 0 0 127 0" result="hardAlpha"/>
<feOffset dy="8"/>
<feGaussianBlur stdDeviation="4.25"/>
<feComposite in2="hardAlpha" operator="out"/>
<feColorMatrix type="matrix" values="0 0 0 0 0.9625 0 0 0 0 0.901604 0 0 0 0 0.778021 0 0 0 0.36 0"/>
<feBlend mode="normal" in2="BackgroundImageFix" result="effect1_dropShadow_509_1338"/>
<feBlend mode="normal" in="SourceGraphic" in2="effect1_dropShadow_509_1338" result="shape"/>
</filter>
</defs>
</svg>
