<svg width="390" height="161" viewBox="0 0 390 161" fill="none" xmlns="http://www.w3.org/2000/svg">
<path d="M-90 160.398V10.2489L-88.575 9.62387L-87.15 9.00994L-85.725 8.40153L-84.3 7.80972L-82.875 7.22897L-81.45 6.66481L-80.025 6.11724L-78.6 5.58074L-77.175 5.07189L-75.75 4.5741L-74.325 4.10397L-72.9 3.65043L-71.475 3.21902L-70.05 2.81526L-68.625 2.43362L-67.2 2.07411L-65.775 1.74779L-64.35 1.44358L-62.925 1.16703L-61.5 0.918142L-60.075 0.696902L-58.65 0.508847L-57.225 0.348449L-55.8 0.221239L-54.375 0.11615L-52.95 0.0497766L-51.525 0.0110601L-50.1 0L-48.675 0.0221244L-47.25 0.0774331L-45.825 0.160398L-44.4 0.271016L-42.975 0.414822L-41.55 0.591813L-40.125 0.790928L-38.7 1.02323L-37.275 1.28318L-35.85 1.57079L-34.425 1.89159L-33 2.22898L-31.575 2.59955L-30.15 2.99225L-28.725 3.40707L-27.3 3.84955L-25.875 4.30862L-24.45 4.78981L-23.025 5.29313L-21.6 5.81857L-20.175 6.35507L-18.75 6.9137L-17.325 7.48339L-15.9 8.06967L-14.475 8.67255L-13.05 9.28095L-11.625 9.90042L-10.2 10.531L-8.775 11.167L-7.35 11.8086L-5.925 12.4557L-4.5 13.1028L-3.075 13.7555L-1.65 14.4082L-0.224998 15.0553L1.2 15.7024L2.625 16.3495L4.05 16.9856L5.475 17.6161L6.9 18.2356L8.325 18.8495L9.75 19.4524L11.175 20.0387L12.6 20.6139L14.025 21.1725L15.45 21.7201L16.875 22.2455L18.3 22.7544L19.725 23.2411L21.15 23.7057L22.575 24.1537L24 24.5741L25.425 24.9723L26.85 25.3429L28.275 25.6913L29.7 26.0121L31.125 26.3053L32.55 26.5763L33.975 26.8141L35.4 27.0243L36.825 27.2013L38.25 27.3506L39.675 27.4723L41.1 27.5608L42.525 27.6216L43.95 27.6493H45.375L46.8 27.6161L48.225 27.5553L49.65 27.4612L51.075 27.3395L52.5 27.1847L53.925 27.0022L55.35 26.7864L56.775 26.5486L58.2 26.2776L59.625 25.9789L61.05 25.6526L62.475 25.3041L63.9 24.928L65.325 24.5298L66.75 24.1039L68.175 23.6559L69.6 23.1858L71.025 22.6991L72.45 22.1847L73.875 21.6592L75.3 21.1117L76.725 20.5531L78.15 19.9778L79.575 19.386L81 18.7831L82.425 18.1692L83.85 17.5442L85.275 16.9137L86.7 16.2776L88.125 15.6305L89.55 14.9834L90.975 14.3363L92.4 13.6836L93.825 13.0309L95.25 12.3838L96.675 11.7367L98.1 11.0951L99.525 10.4591L100.95 9.82852L102.375 9.20905L103.8 8.60065L105.225 8.0033L106.65 7.42255L108.075 6.85286L109.5 6.29423L110.925 5.75773L112.35 5.23782L113.775 4.74003L115.2 4.25884L116.625 3.79977L118.05 3.36283L119.475 2.948L120.9 2.55531L122.325 2.19026L123.75 1.85287L125.175 1.53761L126.6 1.25553L128.025 0.995575L129.45 0.768803L130.875 0.569688L132.3 0.39823L133.725 0.259956L135.15 0.149334L136.575 0.0663731L138 0.0165922L139.425 0L140.85 0.0110601L142.275 0.0553088L143.7 0.127214L145.125 0.232299L146.55 0.365045L147.975 0.530972L149.4 0.724555L150.825 0.945794L152.25 1.19469L153.675 1.47677L155.1 1.78097L156.525 2.11283L157.95 2.47234L159.375 2.85951L160.8 3.2688L162.225 3.70021L163.65 4.15375L165.075 4.62942L166.5 5.1272L167.925 5.64158L169.35 6.17808L170.775 6.72565L172.2 7.29534L173.625 7.87609L175.05 8.4679L176.475 9.07631L177.9 9.69024L179.325 10.3208L180.75 10.9513L182.175 11.5929L183.6 12.24L185.025 12.8871L186.45 13.5398L187.875 14.1869L189.3 14.8396L190.725 15.4867L192.15 16.1338L193.575 16.7754L195 17.4059L196.425 18.0309L197.85 18.6449L199.275 19.2533L200.7 19.8451L202.125 20.4258L203.55 20.99L204.975 21.5376L206.4 22.0741L207.825 22.5829L209.25 23.0807L210.675 23.5508L212.1 24.0044L213.525 24.4358L214.95 24.8396L216.375 25.2212L217.8 25.5807L219.225 25.907L220.65 26.2112L222.075 26.4878L223.5 26.7367L224.925 26.9579L226.35 27.146L227.775 27.3064L229.2 27.4336L230.625 27.5387L232.05 27.605L233.475 27.6437L234.9 27.6548L236.325 27.6327L237.75 27.5774L239.175 27.4944L240.6 27.3838L242.025 27.24L243.45 27.063L244.875 26.8639L246.3 26.6316L247.725 26.3716L249.15 26.084L250.575 25.7632L252 25.4258L253.425 25.0553L254.85 24.6626L256.275 24.2477L257.7 23.8053L259.125 23.3462L260.55 22.865L261.975 22.3617L263.4 21.8362L264.825 21.2997L266.25 20.7411L267.675 20.1714L269.1 19.5851L270.525 18.9823L271.95 18.3739L273.375 17.7544L274.8 17.1239L276.225 16.4878L277.65 15.8462L279.075 15.1991L280.5 14.552L281.925 13.8993L283.35 13.2467L284.775 12.5995L286.2 11.9524L287.625 11.3053L289.05 10.6692L290.475 10.0387L291.9 9.41923L293.325 8.80529L294.75 8.20242L296.175 7.61613L297.6 7.04092L299.025 6.48229L300.45 5.93472L301.875 5.40928L303.3 4.90043L304.725 4.41371L306.15 3.94911L307.575 3.5011L309 3.08075L310.425 2.68252L311.85 2.31194L313.275 1.96349L314.7 1.6427L316.125 1.34956L317.55 1.07854L318.975 0.840704L320.4 0.630529L321.825 0.453539L323.25 0.304205L324.675 0.182523L326.1 0.0940253L327.525 0.0331844L328.95 0.00553214H330.375L331.8 0.0387166L333.225 0.0995575L334.65 0.193583L336.075 0.315265L337.5 0.470131L338.925 0.652654L340.35 0.868361L341.775 1.10619L343.2 1.37721L344.625 1.67588L346.05 2.00221L347.475 2.35066L348.9 2.72676L350.325 3.12499L351.75 3.55088L353.175 3.99889L354.6 4.46902L356.025 4.95574L357.45 5.47012L358.875 5.99556L360.3 6.54313L361.725 7.10175L363.15 7.67697L364.575 8.26879L366 8.87166L367.425 9.4856L368.85 10.1106L370.275 10.7411L371.7 11.3772L373.125 12.0243L374.55 12.6714L375.975 13.3186L377.4 13.9712L378.825 14.6239L380.25 15.271L381.675 15.9181L383.1 16.5597L384.525 17.1958L385.95 17.8263L387.375 18.4458L388.8 19.0542L390.225 19.6515L391.65 20.2323L393.075 20.8019L394.5 21.3606L395.925 21.8971L397.35 22.417L398.775 22.9148L400.2 23.396L401.625 23.855L403.05 24.292L404.475 24.7068L405.9 25.0995L407.325 25.4645L408.75 25.8019L410.175 26.1172L411.6 26.3993L413.025 26.6592L414.45 26.886L415.875 27.0851L417.3 27.2566L418.725 27.3949L420.15 27.5055L421.575 27.5884L423 27.6382L424.425 27.6548L425.85 27.6437L427.275 27.5995L428.7 27.5276L430.125 27.4225L431.55 27.2898L432.975 27.1238L434.4 26.9303L435.825 26.709L437.25 26.4601L438.675 26.178L440.1 25.8738L441.525 25.542L442.95 25.1825L444.375 24.7953L445.8 24.386L447.225 23.9546L448.65 23.5011L450.075 23.0254L451.5 22.5276L452.925 22.0132L454.35 21.4767L455.775 20.9292L457.2 20.3595L458.625 19.7787L460.05 19.1869L461.475 18.5785L462.9 17.9646L464.325 17.334L465.75 16.7035L467.175 16.0619L468.6 15.4148L470.025 14.7677L471.45 14.115L472.875 13.4679L474.3 12.8152L475.725 12.1681L477.15 11.521L478.575 10.8794L480 10.2489V160.398H-90Z" fill="white"/>
</svg>
