<svg width="57" height="64" viewBox="0 0 57 64" fill="none" xmlns="http://www.w3.org/2000/svg">
<path d="M55.2489 48.9499C55.705 48.5681 56.2197 48.0066 56.0807 47.1358C55.941 46.2533 55.2538 45.9696 54.6187 45.7647C53.8521 45.5214 53.0448 45.3747 52.2726 45.2256C51.9877 45.1738 51.6903 45.1111 51.4053 45.0593C51.1555 45.0052 50.9064 44.9628 50.6565 44.9087C48.8497 44.5456 46.9838 44.1747 45.246 43.4316C44.2204 42.9941 43.6972 42.3478 43.5989 41.3805C43.5613 40.984 43.466 40.6031 43.3825 40.2214C43.3515 40.1061 43.3197 39.9791 43.3004 39.8631C43.2502 39.6317 43.2006 39.412 43.1503 39.1807C42.635 36.8562 42.1026 34.4507 41.169 32.1887C40.8625 31.4461 40.5557 30.8796 40.2075 30.3978C39.8337 29.8825 39.2641 29.603 38.6683 29.6418C38.166 29.6746 37.69 29.9286 37.3312 30.3626C37.027 30.7344 36.8792 31.1664 36.7555 31.6086C35.8346 34.7542 34.7619 37.9097 33.7173 40.9577L33.5391 41.4621C33.3718 41.954 33.157 42.4373 32.9414 42.9089C32.8696 43.0662 32.7977 43.2234 32.7376 43.3798C32.5126 43.8872 32.1883 44.1313 31.6627 44.1656C31.5809 44.1709 31.4867 44.1653 31.3933 44.1714L30.6871 44.1354C28.5085 44.0077 26.2715 43.8839 24.0613 43.6292C22.9145 43.4929 21.7342 43.3822 20.6014 43.2802C20.082 43.2319 19.5744 43.1829 19.0551 43.1347L18.8192 43.1149L18.8128 43.1975C18.8012 43.1982 18.8011 43.1982 18.7895 43.199C18.7427 43.202 18.696 43.2051 18.6493 43.2081C17.5668 43.3374 16.8862 43.8746 16.7426 44.7287C16.573 45.7252 17.3922 46.2349 18.0334 46.5333C18.8318 46.9035 19.6216 47.3212 20.3989 47.7281C21.4672 48.2801 22.5729 48.865 23.7068 49.3424C24.5994 49.7182 25.7573 50.2058 26.9075 50.7525C27.2102 50.897 27.5611 51.0618 27.5906 51.1537C27.62 51.2456 27.453 51.5616 27.2844 51.8542C26.8862 52.5841 26.4655 53.3272 26.0666 54.0454C25.8246 54.4718 25.5943 54.8974 25.3523 55.3238C24.9636 56.0179 24.5357 56.8319 24.325 57.7373C24.1488 58.4527 24.0153 59.2826 24.7035 59.9416C25.0791 60.3043 25.5469 60.4615 26.1075 60.4249C26.4229 60.4043 26.7462 60.3245 27.0235 60.2595C27.1388 60.2285 27.2409 60.1749 27.3203 60.1345C27.3772 60.1074 27.4224 60.0809 27.4684 60.0662C28.383 59.7015 29.2457 59.258 30.1067 58.7912L30.4239 58.618C32.0899 57.7233 33.8129 56.8013 35.6785 56.269C35.9434 56.193 36.1755 56.1544 36.374 56.1414C37.0165 56.0995 37.4896 56.3385 37.9528 56.9652C38.9928 58.3404 40.1239 59.6744 41.2286 60.9632C41.5465 61.3413 41.8761 61.7187 42.1941 62.0969C42.5757 62.553 43.106 63.1284 43.7688 63.5779C44.2348 63.8877 44.6901 64.034 45.134 64.005C45.391 63.9882 45.6441 63.9131 45.8818 63.7802C46.573 63.4066 46.9072 62.7748 46.8741 61.9088C46.8683 61.6393 46.8376 61.348 46.7835 61.0582C46.6885 60.5013 46.5818 59.9451 46.4875 59.3999C46.3925 58.843 46.2851 58.2751 46.1901 57.7182C46.1545 57.5328 46.1299 57.3349 46.0943 57.1496C45.8533 55.7927 45.6092 54.389 45.4826 52.9895C45.4481 52.6398 45.5121 52.5417 45.8922 52.4348C47.9308 51.8559 49.9212 51.2568 51.8165 50.6403C53.0123 50.269 54.2253 49.8027 55.2489 48.9499ZM50.546 48.2478C48.6623 48.8635 46.7209 49.4946 44.7697 49.9739C44.6887 49.991 44.6077 50.008 44.515 50.0258C44.4106 50.0443 44.2946 50.0636 44.191 50.0938C42.9337 50.4223 42.4594 51.0633 42.5075 52.3389C42.5542 53.4152 42.7178 54.4839 42.8791 55.5175C42.9548 55.9583 43.0204 56.4233 43.0851 56.8767C43.1723 57.4928 43.2952 58.1183 43.4166 58.7204C43.4367 58.8481 43.4684 58.9751 43.4885 59.1029C43.4629 59.0693 43.4364 59.0241 43.3983 58.9797C43.3602 58.9353 43.3339 58.8901 43.295 58.8339C42.9506 58.4106 42.5946 57.988 42.251 57.5764C41.4993 56.6634 40.711 55.7294 39.9695 54.7923C39.1385 53.7437 38.0872 53.2726 36.7672 53.3588C36.557 53.3725 36.3358 53.3987 36.1161 53.4482C34.3894 53.7721 32.6606 54.4245 30.506 55.5624C29.7914 55.9375 29.0652 56.3134 28.3047 56.7032C28.0888 56.8112 27.8621 56.9316 27.6353 57.052C27.712 56.7888 27.8392 56.5811 27.9664 56.3734C28.0187 56.2761 28.0827 56.1781 28.135 56.0808C28.4691 55.4489 28.8267 54.8155 29.1733 54.1946C29.541 53.5371 29.9196 52.8671 30.2748 52.1987C31.0172 50.8128 30.7648 49.8203 29.4493 48.8972C28.7974 48.4353 28.0612 48.1196 27.3608 47.8134C27.1795 47.7314 26.9866 47.6501 26.8053 47.5681C26.5033 47.4353 26.1897 47.3032 25.8885 47.1821C25.3702 46.9695 24.8285 46.7585 24.3415 46.4853C24.3735 46.4363 24.4085 46.434 24.4319 46.4324C24.502 46.4279 24.5969 46.4451 24.6927 46.4741C24.7876 46.4914 24.8717 46.5211 24.9659 46.5267C25.5896 46.5563 26.214 46.5977 26.826 46.6282C28.2034 46.7025 29.6267 46.7621 31.0305 46.8817C31.3139 46.9101 31.595 46.9035 31.852 46.8868C33.5808 46.7739 34.8078 45.8022 35.6007 43.932C36.3015 42.2673 36.8685 40.5292 37.4268 38.8385C37.6919 38.0469 37.9554 37.232 38.2321 36.4396C38.4205 35.9111 38.5739 35.3849 38.7491 34.8338C38.7882 34.7139 38.8265 34.5824 38.8649 34.4508C39.0117 34.7228 39.0891 35.011 39.1557 35.3117C39.1882 35.4504 39.2207 35.5891 39.2657 35.7386C39.8463 37.6248 40.2453 39.6049 40.6397 41.5149C40.7063 41.8156 40.7612 42.1171 40.8285 42.4294C41.1356 43.8993 41.968 44.9713 43.3639 45.6897C44.9054 46.4807 46.5961 46.8631 48.216 47.2384C48.3943 47.2737 48.5733 47.3207 48.7516 47.356C49.3945 47.5017 50.0601 47.6343 50.7008 47.745C50.9624 47.7983 51.2349 47.8392 51.4964 47.8925L51.5439 47.9011C51.5556 47.9004 51.568 47.9113 51.5797 47.9105C51.2463 48.0144 50.902 48.1307 50.546 48.2478Z" fill="#3DB149"/>
<path d="M9.16259 26.0064C9.12553 26.3374 9.07682 26.669 9.02732 26.989C8.90547 27.8182 8.78437 28.6591 8.8291 29.5243C8.8563 30.1209 9.05188 30.6009 9.41274 30.9175C9.74872 31.2124 10.1923 31.3594 10.7063 31.3259L10.718 31.3251C11.3254 31.2855 11.8452 30.9817 12.2431 30.4278C12.4584 30.1322 12.662 29.8373 12.854 29.5432C13.0256 29.2974 13.1966 29.0399 13.3682 28.794C14.5822 27.0841 15.7018 25.5445 16.9917 24.0994C17.6476 23.3644 18.0396 23.0807 18.4485 23.0541C18.8573 23.0274 19.3421 23.2656 19.9894 23.6574C20.9424 24.2405 21.8861 24.8593 22.8056 25.4681C24.0932 26.3226 25.4289 27.1974 26.8045 27.9641L26.8294 27.9859C27.4013 28.3006 27.9864 28.6378 28.655 28.8171C28.9298 28.893 29.2015 28.9222 29.4351 28.907C29.9608 28.8726 30.3902 28.6217 30.6789 28.1923C31.1603 27.4804 30.8373 26.8445 30.4635 26.3292C30.2055 25.9706 29.9365 25.6245 29.68 25.2893C29.4492 24.9876 29.2176 24.6742 28.9867 24.3725C27.8264 22.7706 26.5264 20.8258 25.6979 18.5569C25.5839 18.2476 25.4823 17.9492 25.5113 17.8535C25.5527 17.7686 25.7911 17.6475 26.1207 17.4852L26.155 17.4712C26.6895 17.2134 27.2365 16.9666 27.7718 16.7205C28.8766 16.2143 30.0274 15.6934 31.1013 15.0719C31.8362 14.6485 32.5898 14.1535 33.15 13.3896C33.4846 12.9454 33.606 12.4682 33.507 12.0288C33.4196 11.5887 33.1265 11.2324 32.6636 10.9693C32.322 10.7687 31.9421 10.6997 31.5754 10.6532C30.4038 10.495 29.2356 10.5713 28.1026 10.6452C27.7755 10.6665 27.4484 10.6879 27.1206 10.6976C26.9337 10.7097 26.7468 10.7219 26.5482 10.7349C26.1277 10.7623 25.7079 10.8015 25.2991 10.8282C24.891 10.8665 24.4706 10.894 24.0617 10.9206C23.0571 10.9862 22.2839 11.0015 21.5652 10.9545C20.5639 10.8908 20.0459 10.5023 19.6517 9.49557C19.3127 8.61434 19.0071 7.70746 18.7039 6.83563C18.2533 5.50413 17.7881 4.12667 17.1974 2.80432C16.949 2.23393 16.664 1.64246 16.2209 1.14344C15.8283 0.699789 15.261 0.45524 14.6886 0.492593C14.3148 0.516987 13.9829 0.644243 13.7046 0.87358C13.148 1.33225 13.063 2.00652 13.0125 2.49083C12.8927 3.53105 12.8102 4.60404 12.7246 5.6303L12.7049 5.86623C12.6026 7.17514 12.501 8.49574 12.4089 9.78053C12.3701 10.2641 12.3429 10.7469 12.3041 11.2304C12.199 11.2373 12.0916 11.2091 11.9725 11.1817L11.9608 11.1824C9.6677 10.5578 7.25884 10.3161 4.82917 10.4746C4.25679 10.512 3.67426 10.5735 3.08158 10.6591C2.59326 10.7261 2.0364 10.8211 1.55241 11.1343C1.12453 11.4086 0.842888 11.7672 0.75276 12.1837C0.662633 12.6002 0.774179 13.0504 1.05937 13.4659C1.30647 13.8369 1.64471 14.1668 2.10054 14.5008C3.92465 15.8482 5.74697 17.3483 7.66784 19.1C8.27833 19.6468 8.82182 20.2449 9.2858 20.8833C9.64641 21.376 9.75638 21.8029 9.66219 22.337C9.44716 23.5359 9.29585 24.8128 9.16259 26.0064ZM6.84003 14.6842C6.35702 14.2934 5.8616 13.8916 5.32882 13.4571L4.95704 13.1529C5.1899 13.126 5.43445 13.0983 5.66807 13.083C6.67265 13.0175 7.6607 13.0586 8.76306 13.233C10.208 13.4437 11.6293 13.832 12.8132 14.1771C13.1004 14.2639 13.3838 14.2924 13.6524 14.2748C14.1781 14.2405 14.6324 14.0114 14.9482 13.6389C15.286 13.2414 15.4261 12.6926 15.3646 12.11C15.2724 11.2361 15.3321 10.3523 15.394 9.50361C15.429 8.96165 15.4749 8.40726 15.4741 7.85591C15.4739 7.49224 15.5203 7.12551 15.5769 6.73467C15.5762 6.72299 15.5754 6.7113 15.5863 6.69886C15.5878 6.72222 15.601 6.74482 15.6142 6.76742C15.743 7.12271 15.8834 7.47724 16.0122 7.83252C16.3528 8.73712 16.6949 9.66507 17.002 10.5953C17.5323 12.2501 18.709 13.2057 20.6179 13.5152C21.4244 13.6503 22.2942 13.6757 23.2871 13.6109L23.3455 13.6071C24.058 13.5606 24.8406 13.5095 25.7868 13.4477C26.3475 13.4112 26.9199 13.3738 27.4806 13.3372C27.8777 13.3113 28.2866 13.2846 28.6837 13.2587C28.6494 13.2727 28.6035 13.2874 28.5692 13.3014C27.8071 13.6678 27.021 14.0242 26.2699 14.3782C25.6777 14.6515 25.0512 14.9388 24.4482 15.2245C22.7067 16.0421 22.2552 17.0335 22.7635 18.8892C23.085 20.0414 23.6465 21.0958 24.1948 22.1277L24.2491 22.2414C24.3688 22.4565 24.4876 22.66 24.6181 22.8626C24.7626 23.0996 24.9064 23.3248 25.0151 23.5524C24.7459 23.3822 24.4658 23.2245 24.1974 23.0661C23.2568 22.4939 22.2803 21.9124 21.3483 21.2927C20.2569 20.5662 19.3097 20.2526 18.3752 20.3136C17.4057 20.3769 16.4161 20.8521 15.26 21.8309C14.4929 22.4793 13.8999 23.2805 13.3289 24.0569C13.0051 24.4886 12.6712 24.9445 12.3226 25.3544C12.2906 25.4034 12.2579 25.4408 12.2259 25.4898C12.2408 25.3598 12.255 25.218 12.27 25.088C12.3456 24.4496 12.419 23.776 12.5414 23.1345C12.8544 21.4599 12.4437 20.0202 11.2689 18.736C9.77923 17.1204 8.11561 15.7155 6.84003 14.6842Z" fill="#3DB149"/>
</svg>
