<svg width="50" height="74" viewBox="0 0 50 74" fill="none" xmlns="http://www.w3.org/2000/svg">
<path d="M30.143 72.2797C30.7719 72.4426 31.598 72.5435 32.2838 71.8668C32.9795 71.1821 32.7951 70.3911 32.5739 69.6964C32.3032 68.8604 31.9209 68.0497 31.5628 67.2686C31.4279 66.9824 31.2948 66.6782 31.1598 66.3921C31.0492 66.1356 30.9287 65.8873 30.818 65.6308C29.9931 63.7941 29.1377 61.8999 28.6944 59.8833C28.4318 58.6937 28.674 57.8182 29.4713 57.1163C29.7998 56.8311 30.078 56.5045 30.3642 56.1878C30.447 56.087 30.5397 55.9781 30.6306 55.8872C30.8043 55.6956 30.9681 55.512 31.1418 55.3204C32.8806 53.3858 34.6807 51.3847 36.0983 49.1181C36.5637 48.3739 36.8724 47.7414 37.0795 47.1259C37.3 46.4663 37.1868 45.7824 36.7738 45.2776C36.4256 44.8519 35.8975 44.59 35.2838 44.5468C34.76 44.5126 34.2822 44.6556 33.8106 44.8265C30.4297 46.006 26.9434 47.0568 23.5706 48.0644L23.009 48.2263C22.4655 48.39 21.8995 48.5061 21.3433 48.614C21.158 48.65 20.9726 48.686 20.7953 48.7319C20.2014 48.8542 19.7785 48.721 19.4141 48.2756C19.3574 48.2063 19.3025 48.119 19.2378 48.0398L18.8212 47.3892C17.551 45.3716 16.2402 43.3046 15.0626 41.1782C14.4553 40.0722 13.804 38.9528 13.1752 37.881C12.8882 37.3888 12.6093 36.9064 12.3224 36.4142L12.1901 36.1919L12.1127 36.2387C12.1046 36.2288 12.1046 36.2288 12.0965 36.2189C12.0641 36.1793 12.0317 36.1397 11.9994 36.1001C11.1968 35.22 10.2871 34.9563 9.43665 35.3711C8.44312 35.8533 8.51045 36.9052 8.65251 37.6647C8.83053 38.6096 8.96086 39.5769 9.09299 40.5263C9.28086 41.8265 9.4633 43.1808 9.75915 44.4919C9.99205 45.524 10.2942 46.863 10.5387 48.2326C10.6026 48.5935 10.679 49.0101 10.616 49.0947C10.553 49.1793 10.166 49.2314 9.7989 49.2674C8.89722 49.3771 7.96944 49.4751 7.07766 49.5768C6.54493 49.6325 6.02031 49.6982 5.48759 49.7539C4.6237 49.8493 3.62843 49.9859 2.68981 50.3737C1.94198 50.6715 1.11944 51.08 0.970797 52.1103C0.887022 52.6745 1.04443 53.1901 1.4331 53.6653C1.65172 53.9326 1.92794 54.1692 2.16187 54.3744C2.26264 54.4572 2.37512 54.5139 2.4615 54.5589C2.52179 54.5922 2.57396 54.6156 2.61625 54.6471C3.52142 55.2285 4.46352 55.7135 5.4254 56.1824L5.78079 56.3543C7.63436 57.2669 9.54823 58.2128 11.2065 59.533C11.4422 59.7201 11.624 59.9019 11.7616 60.0702C12.207 60.6146 12.295 61.1869 12.0322 61.9968C11.4704 63.7947 11.0031 65.6474 10.5591 67.448C10.425 67.9708 10.2989 68.5034 10.1647 69.0262C10.0017 69.6552 9.82705 70.4921 9.8485 71.3667C9.86911 71.9777 10.0283 72.4754 10.336 72.8515C10.5141 73.0693 10.7418 73.2466 11.0108 73.3735C11.7819 73.7506 12.5558 73.6462 13.3046 73.0668C13.5404 72.8904 13.7798 72.6781 14.003 72.446C14.4377 72.0078 14.8643 71.5597 15.2891 71.1296C15.7238 70.6914 16.1603 70.2352 16.595 69.797C16.7372 69.6476 16.8974 69.5 17.0396 69.3507C18.0926 68.2745 19.1852 67.166 20.3489 66.1646C20.6378 65.9117 20.7656 65.9064 21.1021 66.1763C22.9115 67.6207 24.7083 69.0093 26.4602 70.3025C27.5498 71.1295 28.7347 71.9116 30.143 72.2797ZM27.7798 67.6534C26.0361 66.3701 24.2419 65.0454 22.5765 63.6155C22.5099 63.5543 22.4433 63.493 22.3686 63.422C22.2859 63.341 22.195 63.2501 22.1023 63.1772C21.0118 62.2683 20.1408 62.2538 19.0374 63.1068C18.1104 63.832 17.2644 64.6562 16.4481 65.4561C16.1043 65.8034 15.7326 66.157 15.3708 66.5025C14.8785 66.9713 14.4006 67.4779 13.9425 67.9683C13.8417 68.0673 13.749 68.1762 13.6482 68.2751C13.6617 68.2311 13.6851 68.1788 13.7004 68.1167C13.7157 68.0547 13.7391 68.0025 13.7644 67.9323C13.9219 67.3573 14.0714 66.7724 14.219 66.2055C14.5531 64.9574 14.8827 63.6635 15.2446 62.4091C15.6489 61.0045 15.3998 59.7708 14.4848 58.6522C14.3391 58.474 14.1753 58.2941 13.9918 58.1303C12.6071 56.8011 10.929 55.6789 8.54905 54.4864C7.76174 54.0895 6.96633 53.6828 6.13673 53.2544C5.90368 53.1311 5.65265 53.006 5.40161 52.8809C5.68418 52.7819 5.94966 52.7631 6.21512 52.7442C6.3348 52.7289 6.46255 52.7235 6.58224 52.7082C7.35614 52.6039 8.14626 52.5194 8.91836 52.433C9.73635 52.3422 10.5723 52.2532 11.3921 52.1444C13.0956 51.924 13.8174 51.0692 13.8024 49.3136C13.7989 48.4407 13.6119 47.5858 13.4392 46.7688C13.397 46.5555 13.3466 46.3324 13.3044 46.1191C13.2307 45.7664 13.1488 45.4037 13.0652 45.0591C12.9249 44.4634 12.7684 43.8478 12.7019 43.2413C12.7658 43.2386 12.7901 43.2684 12.8063 43.2881C12.8549 43.3475 12.8998 43.4429 12.9349 43.5464C12.9799 43.6418 13.0069 43.7354 13.0618 43.8227C13.4315 44.3959 13.7914 44.9772 14.153 45.5405C14.9618 46.8121 15.8129 48.1151 16.5983 49.4389C16.753 49.7088 16.9374 49.9545 17.1156 50.1723C18.3139 51.6373 19.957 52.1107 22.1231 51.6277C24.0479 51.1932 25.953 50.5931 27.8104 50.0155C28.6825 49.7483 29.5742 49.4649 30.4543 49.2076C31.0438 49.0394 31.6089 48.8415 32.2101 48.6472C32.3415 48.6058 32.4827 48.5563 32.624 48.5068C32.4755 48.81 32.2685 49.062 32.0435 49.3121C31.9409 49.4291 31.8383 49.5461 31.7339 49.6811C30.4261 51.3952 28.9195 53.0076 27.4723 54.5714C27.2473 54.8216 27.0142 55.0618 26.7793 55.3201C25.6678 56.5267 25.2437 57.9475 25.4918 59.6446C25.7677 61.5172 26.5017 63.263 27.1971 64.9412C27.2789 65.1221 27.3509 65.3111 27.4328 65.492C27.7116 66.1561 28.0165 66.8319 28.3251 67.4717C28.4438 67.738 28.5806 68.0062 28.6993 68.2726L28.7218 68.3203C28.7299 68.3302 28.7281 68.3482 28.7362 68.3581C28.4321 68.1277 28.11 67.8955 27.7798 67.6534Z" fill="#F5948D"/>
<path d="M21.2638 16.7414C20.9461 16.9187 20.6203 17.0861 20.3044 17.2453C19.49 17.6637 18.6657 18.0901 17.925 18.6795C17.412 19.0826 17.1096 19.5613 17.0573 20.0832C17.0086 20.5691 17.1597 21.0568 17.516 21.4924L17.5241 21.5023C17.9452 22.017 18.5453 22.2861 19.2904 22.288C19.6899 22.2916 20.0814 22.2853 20.4647 22.2691C20.7923 22.2656 21.1297 22.2539 21.4573 22.2503C23.7483 22.2433 25.8279 22.2605 27.9318 22.4892C29.0017 22.6054 29.5029 22.7737 29.7863 23.1202C30.0697 23.4666 30.1659 24.0488 30.2287 24.8731C30.3158 26.0906 30.3651 27.3225 30.4081 28.5265C30.4663 30.2137 30.5372 31.9567 30.7295 33.6664L30.7258 33.7024C30.8094 34.4106 30.8813 35.1449 31.1466 35.8531C31.2537 36.1455 31.4003 36.4056 31.5623 36.6036C31.9266 37.049 32.4224 37.2713 32.9876 37.2552C33.9261 37.2309 34.2862 36.5399 34.5068 35.8803C34.6616 35.4232 34.7984 34.9643 34.9335 34.5234C35.055 34.1266 35.1865 33.7216 35.308 33.3248C35.995 31.2759 36.8979 28.8851 38.3884 26.7075C38.5909 26.4097 38.7916 26.1299 38.8951 26.0948C38.9968 26.0777 39.2559 26.2127 39.6096 26.4026L39.6437 26.4242C40.2124 26.7356 40.7793 27.065 41.338 27.3844C42.4898 28.045 43.6838 28.737 44.9183 29.2968C45.7614 29.6811 46.6801 30.0366 47.7149 30.0493C48.3223 30.0646 48.8236 29.8694 49.1512 29.5023C49.4869 29.1451 49.6175 28.6583 49.5573 28.0797C49.5186 27.6487 49.3387 27.2671 49.1471 26.9116C48.5435 25.7697 47.7338 24.7798 46.9483 23.8196C46.7216 23.5424 46.4949 23.2653 46.2781 22.98C46.1485 22.8216 46.019 22.6633 45.8813 22.495C45.5898 22.1386 45.2884 21.7903 45.005 21.4439C44.7117 21.1055 44.4202 20.7492 44.1368 20.4027C43.4405 19.5514 42.9357 18.8738 42.521 18.2052C41.9416 17.2747 41.9579 16.5674 42.6024 15.5776C43.1703 14.7165 43.7824 13.8689 44.3647 13.0456C45.2621 11.7993 46.191 10.5109 46.9912 9.14586C47.3404 8.56278 47.6851 7.93377 47.8472 7.2229C47.9922 6.59212 47.8492 5.93254 47.4525 5.4475C47.1934 5.13074 46.8694 4.91655 46.4888 4.81484C45.7275 4.61142 45.0742 4.96413 44.6116 5.22686C43.6109 5.78109 42.6047 6.3893 41.6382 6.96513L41.4159 7.09741C40.1875 7.8379 38.9492 8.58647 37.7486 9.32066C37.2942 9.59328 36.8478 9.87578 36.3933 10.1484C36.3204 10.0593 36.2772 9.94595 36.226 9.82267L36.2179 9.81276C35.3166 7.37772 34.0014 5.08302 32.3171 3.02406C31.9204 2.53901 31.4957 2.06026 31.0432 1.58781C30.6734 1.19635 30.2352 0.761713 29.6495 0.530412C29.1339 0.324311 28.6362 0.301742 28.2088 0.48618C27.7813 0.670619 27.4519 1.05577 27.2638 1.57317C27.0909 2.02848 27.0125 2.53867 27.0052 3.15596C26.9662 5.63324 26.7903 8.20588 26.4533 11.026C26.355 11.9159 26.1687 12.7789 25.8959 13.5968C25.687 14.2303 25.3774 14.5992 24.8428 14.8547C23.6405 15.4251 22.4094 16.1017 21.2638 16.7414ZM29.8526 7.48531C29.8932 6.80773 29.9356 6.11217 29.9834 5.3626L30.0177 4.83889C30.1896 5.02877 30.3695 5.22856 30.5315 5.42654C31.2278 6.27784 31.8189 7.18221 32.364 8.27286C33.0945 9.69107 33.6521 11.2011 34.0974 12.4726C34.2026 12.783 34.3574 13.053 34.5436 13.2807C34.908 13.7261 35.4001 13.9844 35.932 14.0285C36.4998 14.0763 37.0766 13.8522 37.5554 13.4275C38.2736 12.7905 39.0971 12.2822 39.8908 11.7981C40.3948 11.485 40.9168 11.1737 41.4063 10.8228C41.7294 10.5915 42.0849 10.3999 42.4683 10.202C42.4782 10.1939 42.4881 10.1857 42.506 10.1875C42.4862 10.2037 42.4746 10.2298 42.4629 10.2559C42.2288 10.596 42.0029 10.9461 41.7689 11.2862C41.1811 12.1635 40.5736 13.057 39.9418 13.9208C38.8077 15.4433 38.7057 17.0963 39.6431 18.9896C40.0353 19.7923 40.5652 20.5815 41.2535 21.423L41.294 21.4724C41.7879 22.0763 42.3304 22.7395 42.9863 23.5413C43.3749 24.0164 43.7717 24.5015 44.1604 24.9766C44.4357 25.3132 44.7191 25.6596 44.9944 25.9962C44.9602 25.9746 44.9179 25.9431 44.8837 25.9215C44.0739 25.4769 43.2578 25.0045 42.466 24.5617C41.847 24.2089 41.1937 23.8345 40.5567 23.4799C38.7238 22.4513 37.5558 22.6798 36.2291 24.3102C35.4092 25.3279 34.8286 26.4967 34.2597 27.6395L34.1931 27.7601C34.0778 28.003 33.9725 28.2379 33.8753 28.4826C33.7565 28.7615 33.6475 29.0324 33.5143 29.2735C33.4946 28.9262 33.4568 28.5771 33.4272 28.2378C33.3383 27.0383 33.235 25.801 33.1938 24.579C33.1463 23.1474 32.8235 22.1062 32.1757 21.3143C31.5036 20.4927 30.4527 19.915 28.8483 19.509C27.7847 19.239 26.6958 19.2209 25.643 19.2064C25.0536 19.1929 24.4363 19.1857 23.8505 19.1361C23.7866 19.1388 23.7326 19.1334 23.6687 19.1361C23.7938 19.0668 23.9288 18.9894 24.0539 18.9202C24.6694 18.5819 25.3147 18.2193 25.9627 17.9206C27.6501 17.1351 28.6689 15.8556 29.0642 13.9956C29.5541 11.6453 29.7461 9.27419 29.8526 7.48531Z" fill="#F5948D"/>
</svg>
