<svg width="1024" height="400" viewBox="0 0 1024 400" fill="none" xmlns="http://www.w3.org/2000/svg">
<mask id="mask0_1200_32" style="mask-type:alpha" maskUnits="userSpaceOnUse" x="0" y="0" width="1024" height="400">
<rect width="1024" height="400" fill="#F5948D"/>
</mask>
<g mask="url(#mask0_1200_32)">
<rect width="1024" height="400" fill="#FCF7EC"/>
<path d="M188.882 97.307C192.07 97.307 194.728 94.647 194.728 91.4609C194.728 88.2747 192.068 85.6147 188.882 85.6147C185.696 85.6147 183.036 88.2747 183.036 91.4609C183.036 94.647 185.696 97.307 188.882 97.307Z" fill="#3DB149"/>
<path d="M165.715 55.9717C152.339 35.1333 129.501 22.4504 104.652 22.9282C98.6729 23.0449 92.7669 24.3807 87.1001 26.1934C84.5166 27.0205 82.0563 28.1831 79.6049 29.3294C78.1546 30.0104 76.555 23.1071 76.1161 22.1114C71.2347 11.0353 63.5311 2.29322 53.5905 -4.53345C43.6287 -11.3772 31.5769 -14.6903 19.5997 -15.0794C11.7836 -15.3336 -6.02155 -14.2586 -8.56333 -5.48897C-18.6934 29.4888 -36.6076 62.0071 -51.1591 95.2428C-51.4986 96.0128 -51.0709 97.1274 -50.076 97.0339C-29.0063 95.0669 -9.11585 99.856 7.70641 112.931C13.4031 117.355 26.5994 128.33 26.531 136.098C26.5049 139.327 29.9191 141.683 32.3933 142.926C35.4603 144.462 38.8047 143.868 41.5774 142.175C49.7782 137.157 61.7891 137.889 71.0051 139.083C89.6638 141.496 106.224 152.467 119.174 165.568C119.696 166.091 120.751 166.008 121.076 165.289C137.085 129.765 151.234 93.336 165.735 57.1762C166.307 55.751 164.2 54.5643 163.626 56.0092" fill="#DB6565"/>
<path fill-rule="evenodd" clip-rule="evenodd" d="M-0.978903 -0.128053C30.1152 -15.6014 68.4608 6.74165 75.1229 37.4686C103.075 22.0759 139.552 34.0369 154.98 59.1048C154.98 59.1048 126.144 131.6 115.936 154.125C97.0625 134.519 64.8303 121.756 36.2737 133.152C23.3643 108.115 -5.93952 87.2589 -38.9739 90.9617C-26.5251 62.3497 -8.98627 28.3095 -0.978903 -0.128053Z" fill="white"/>
<path d="M72.1676 40.2331C68.6742 49.1188 65.2286 58.0217 61.8076 66.9354C60.3972 70.6105 58.9878 74.2861 57.5712 77.9604C56.8433 79.8485 56.1134 81.7356 55.3804 83.6209C55.1983 84.0896 55.0162 84.5582 54.8341 85.0269C54.7414 85.2643 54.6492 85.5006 54.5575 85.7386C54.5307 85.8062 54.3726 86.2123 54.5289 85.8119C54.467 85.9719 54.4035 86.1323 54.3416 86.2923C53.9414 87.3187 53.5402 88.3446 53.1379 89.37C48.9642 100.017 44.6956 110.627 40.3881 121.22C39.793 122.685 39.1958 124.149 38.5981 125.615C38.2656 126.43 38.3899 127.347 39.2303 127.812C39.9321 128.2 41.0936 127.998 41.4278 127.18C45.9788 116.019 50.4924 104.844 54.9087 93.6288C57.9702 85.8531 60.9759 78.0558 63.9697 70.2534C65.4544 66.3839 66.9401 62.5151 68.4325 58.6486C69.2712 56.4758 70.1126 54.3032 70.957 52.1323C71.1724 51.577 71.3893 51.0212 71.6053 50.4649C71.6607 50.3239 71.715 50.1823 71.7704 50.0414C71.7827 50.0096 71.9653 49.5399 71.8351 49.8763C71.9664 49.5405 72.0971 49.203 72.2284 48.8672C72.7154 47.6188 73.2035 46.3709 73.6927 45.1236C74.1265 44.0146 74.563 42.9058 74.9979 41.7974C75.3196 40.9776 75.2132 40.0687 74.3657 39.5999C73.6699 39.2176 72.4905 39.4113 72.1676 40.2331Z" fill="#989898"/>
<path d="M8.8818 15.2188C9.23634 15.1382 9.59214 15.0649 9.9492 14.9991C10.1288 14.9654 10.3093 14.9349 10.4893 14.9054C10.6199 14.8832 10.9694 14.8357 10.4201 14.915C10.5228 14.9 10.6246 14.8844 10.7267 14.8704C11.4621 14.7677 12.2009 14.6922 12.9413 14.6428C14.4769 14.5411 16.0178 14.55 17.5533 14.6505C17.9435 14.6761 18.332 14.7074 18.7218 14.7435C18.8194 14.7522 18.9174 14.7625 19.0144 14.7723C19.2594 14.7961 18.8157 14.7515 18.8183 14.7516C18.8672 14.7547 18.9164 14.762 18.9651 14.7677C19.1741 14.7915 19.3831 14.8153 19.5904 14.8422C20.3964 14.9435 21.1999 15.0687 21.9994 15.213C23.6118 15.5063 25.2083 15.8812 26.7851 16.3278C28.6323 16.8508 30.4511 17.4685 32.2395 18.1651C32.1046 18.1131 31.9703 18.0601 31.8354 18.0081C36.321 19.7618 40.6163 22.0062 44.6428 24.6473C45.7672 25.3851 46.8705 26.1563 47.9506 26.9574C47.8348 26.8707 47.7186 26.7851 47.6029 26.6985C51.3878 29.512 54.9251 32.7153 57.8903 36.3924C57.9904 36.5169 58.0899 36.6424 58.1894 36.768C57.8107 36.2911 58.133 36.6969 58.2234 36.8147C58.4152 37.0645 58.6037 37.3152 58.7891 37.5693C59.1391 38.0477 59.4778 38.5344 59.8052 39.0294C60.2709 39.734 61.2671 40.0856 62.0212 39.5928C62.7256 39.1324 63.0821 38.1296 62.5846 37.3768C60.4701 34.177 57.8857 31.288 55.0709 28.6906C51.9519 25.8131 48.5265 23.2517 44.9307 21.0005C41.3233 18.7416 37.5122 16.7956 33.5499 15.2383C29.6087 13.6886 25.5414 12.463 21.3465 11.836C17.3376 11.2359 13.2911 11.1486 9.29042 11.8516C8.85424 11.9282 8.41864 12.0159 7.98679 12.1136C7.15994 12.3 6.61365 13.3188 6.88011 14.1141C7.17272 14.9824 7.99922 15.417 8.8818 15.2188Z" fill="#989898"/>
<path d="M4.44011 28.6808C6.22736 28.4416 8.03024 28.3401 9.83264 28.3501C10.7771 28.355 11.7202 28.3912 12.6623 28.4534C13.1565 28.4859 13.6493 28.5257 14.1418 28.5734C14.2466 28.5834 14.3514 28.5936 14.4557 28.6047C14.8811 28.6484 14.0849 28.5632 14.5107 28.6111C14.7477 28.6372 14.9836 28.6652 15.22 28.6949C19.2839 29.2003 23.2891 30.1534 27.1734 31.4428C28.1725 31.7746 29.1654 32.1296 30.1491 32.5062C30.2696 32.5529 30.712 32.7271 30.1845 32.5191C30.2906 32.5605 30.3978 32.6025 30.5034 32.645C30.7694 32.7509 31.0348 32.8578 31.2997 32.9658C31.79 33.1665 32.2779 33.3738 32.764 33.5869C34.708 34.4375 36.613 35.3755 38.4689 36.4022C40.3091 37.4188 42.1008 38.5231 43.8315 39.7159C44.259 40.0109 44.6836 40.311 45.1033 40.6177C45.205 40.6912 45.3066 40.7674 45.4082 40.8409C45.5842 40.9702 45.0459 40.57 45.296 40.7576C45.341 40.7917 45.3855 40.8243 45.4304 40.8585C45.6416 41.0179 45.8522 41.1783 46.0622 41.3397C46.8809 41.9735 47.6831 42.6301 48.4645 43.3098C49.9689 44.6183 51.3994 46.0149 52.7254 47.5041C53.0405 47.858 53.3511 48.2174 53.6538 48.5817C53.8052 48.7626 53.9528 48.9454 54.1015 49.1287C54.1496 49.1886 54.4124 49.5215 54.215 49.27C54.0274 49.0319 54.1947 49.2441 54.2292 49.2898C54.2777 49.3513 54.3247 49.4131 54.3716 49.475C54.9503 50.2302 55.5025 51.0066 56.0206 51.804C56.2693 52.1864 56.5105 52.5753 56.7443 52.968C57.1777 53.6946 58.2291 54.0089 58.9602 53.5313C59.6935 53.0523 59.9858 52.0911 59.5236 51.3153C57.4554 47.8418 54.7897 44.7176 51.8233 41.9804C48.6697 39.0718 45.1501 36.5435 41.4503 34.3771C37.6558 32.1557 33.6408 30.3257 29.5025 28.8413C25.5809 27.4342 21.5266 26.3701 17.4051 25.7477C13.5325 25.1633 9.57904 24.9199 5.67318 25.2975C5.2358 25.3402 4.79969 25.3903 4.36426 25.4487C3.932 25.5063 3.56292 25.6107 3.24669 25.9347C2.9659 26.221 2.75906 26.6959 2.78637 27.1035C2.83971 27.8993 3.54462 28.8014 4.44011 28.6808Z" fill="#989898"/>
<path d="M-0.836108 41.9507C-0.586982 41.9116 -1.2791 42.0156 -1.02804 41.9802C-0.991871 41.9749 -0.955695 41.9697 -0.919524 41.9644C-0.828303 41.951 -0.737652 41.9386 -0.645977 41.9268C-0.442167 41.8999 -0.239025 41.8765 -0.034414 41.8554C0.366443 41.8137 0.768448 41.782 1.17013 41.7581C1.99588 41.7107 2.82327 41.6988 3.64947 41.7155C4.53866 41.7338 5.42542 41.7853 6.31053 41.8639C6.51974 41.8825 6.7294 41.9027 6.93849 41.9239C7.21918 41.9528 6.50695 41.8768 6.78809 41.9072C6.83321 41.9122 6.87731 41.9167 6.92187 41.9227C7.05622 41.9372 7.19001 41.9526 7.32425 41.9697C7.8007 42.0271 8.27682 42.0922 8.75115 42.163C12.7927 42.7691 16.7648 43.8277 20.6221 45.1659C21.1398 45.3459 21.6563 45.5305 22.1704 45.7218C22.4167 45.8128 22.6619 45.9059 22.9071 45.9989C23.0302 46.0458 23.1527 46.0936 23.2758 46.1404C23.5158 46.2332 23.0943 46.0693 23.0933 46.0687C23.1913 46.1056 23.2892 46.1451 23.387 46.1846C24.3959 46.583 25.396 47.002 26.387 47.4398C28.3967 48.328 30.3711 49.2991 32.3005 50.3518C34.1824 51.3796 36.023 52.4869 37.8041 53.6824C38.237 53.9724 38.6665 54.2685 39.0906 54.5697C39.2961 54.7153 39.501 54.8619 39.7048 55.0105C39.8064 55.0841 39.9076 55.1586 40.0087 55.2332C40.0587 55.2702 40.272 55.4281 40.0152 55.2381C39.7453 55.0383 40.0284 55.248 40.0809 55.2877C40.8873 55.8934 41.6766 56.5203 42.4461 57.1709C43.928 58.4216 45.3384 59.7606 46.6335 61.2047C46.9452 61.5528 47.2498 61.9062 47.547 62.2661C47.6789 62.4269 47.8086 62.5891 47.9384 62.7514C48.0612 62.9045 47.657 62.3895 47.8206 62.6011C47.8543 62.6436 47.8874 62.6872 47.92 62.7292C47.9932 62.8229 48.0649 62.9171 48.1359 63.0123C48.6671 63.7186 49.1662 64.4469 49.6244 65.2033C49.835 65.5513 50.0376 65.9041 50.229 66.2628C50.6304 67.009 51.7363 67.2895 52.445 66.8261C53.2046 66.3284 53.4363 65.4069 53.0084 64.6101C51.206 61.2598 48.6116 58.3359 45.7934 55.8071C42.5784 52.9205 38.9833 50.4421 35.2384 48.2947C31.2961 46.0327 27.1497 44.1421 22.8881 42.5655C18.9503 41.1082 14.8889 39.9417 10.7495 39.2216C7.14909 38.5949 3.41975 38.2373 -0.226926 38.6346C-0.730988 38.6897 -1.23274 38.7646 -1.73416 38.8438C-2.11339 38.904 -2.52628 39.2969 -2.70208 39.6147C-2.89423 39.9621 -2.9692 40.4607 -2.84085 40.8443C-2.70785 41.2412 -2.45582 41.6201 -2.06992 41.8123C-1.65527 42.015 -1.28451 42.0206 -0.836108 41.9507Z" fill="#989898"/>
<path d="M-6.71968 54.1955C-5.80236 54.2014 -4.88557 54.2323 -3.97076 54.2861C-3.49674 54.3142 -3.02191 54.348 -2.54786 54.3881C-2.32927 54.4065 -2.11024 54.4266 -1.89175 54.4477C-1.78172 54.458 -1.67225 54.4694 -1.56222 54.4797C-1.50669 54.4851 -1.45274 54.491 -1.39722 54.4964C-1.07967 54.5284 -1.80072 54.4515 -1.48385 54.4871C0.448508 54.7046 2.37026 55.0015 4.27702 55.3831C8.2921 56.1861 12.2388 57.329 16.0751 58.7581C16.3024 58.8426 16.5302 58.9287 16.7574 59.0158C16.8708 59.0586 16.9846 59.1029 17.0974 59.1467C17.3507 59.2443 16.9641 59.0942 16.9487 59.0884C17.0344 59.1211 17.1184 59.1544 17.2035 59.1881C17.6849 59.3786 18.1639 59.5731 18.6412 59.7732C19.6117 60.1784 20.5741 60.603 21.5274 61.0466C23.415 61.9245 25.2693 62.8771 27.0798 63.9066C28.8801 64.9304 30.6377 66.029 32.3403 67.2077C32.7541 67.4938 33.1645 67.786 33.5726 68.0823C33.6682 68.1525 33.7633 68.221 33.8588 68.2912C33.9058 68.3265 33.9528 68.3618 34.0014 68.3966C33.6018 68.1065 33.8063 68.2515 33.9013 68.3227C34.1009 68.4717 34.3004 68.6233 34.4983 68.7753C35.2945 69.3874 36.0764 70.0181 36.8406 70.671C38.3209 71.9342 39.7354 73.2755 41.0616 74.6995C41.7209 75.4075 42.358 76.1364 42.9702 76.8861C43.1055 77.0528 43.2304 77.2456 43.3803 77.3977C43.3743 77.3917 43.1162 77.06 43.2725 77.2609C43.3061 77.3034 43.3392 77.347 43.3729 77.3896C43.4559 77.4967 43.5384 77.6049 43.621 77.7131C43.8975 78.0789 44.1686 78.4497 44.4317 78.8254C44.6929 79.1974 44.9471 79.5748 45.1954 79.9556C45.6562 80.6641 46.6609 81.0098 47.4114 80.5189C48.12 80.0556 48.4668 79.0607 47.9747 78.303C45.8197 74.9889 43.1681 72.0002 40.2375 69.3547C37.113 66.5354 33.6663 64.058 30.0568 61.899C26.4306 59.7294 22.6167 57.875 18.6874 56.3253C14.7079 54.7558 10.6275 53.4578 6.44702 52.5354C2.54332 51.673 -1.44879 51.1195 -5.44704 50.9883C-5.89504 50.9733 -6.34382 50.9645 -6.79236 50.9625C-7.63935 50.9569 -8.42799 51.7645 -8.37025 52.6173C-8.31379 53.5132 -7.62501 54.1896 -6.71968 54.1955Z" fill="#989898"/>
<path d="M-11.1869 66.0944C-10.8046 66.1223 -10.4229 66.1539 -10.0419 66.189C-9.84676 66.2065 -9.65214 66.2251 -9.45707 66.2452C-9.36422 66.2553 -9.27183 66.2638 -9.17899 66.274C-8.99115 66.2927 -9.57423 66.2309 -9.3865 66.2523C-9.32792 66.2594 -9.26979 66.2649 -9.21121 66.2721C-8.38136 66.364 -7.55319 66.4709 -6.72668 66.5929C-4.97053 66.85 -3.22218 67.1693 -1.48639 67.5402C2.31716 68.3551 6.06736 69.4253 9.73047 70.7346C10.2089 70.9062 10.6857 71.0808 11.1613 71.2601C11.386 71.3444 11.6111 71.4304 11.8357 71.5174C11.9455 71.5595 12.179 71.6568 11.7265 71.4743C11.7819 71.4969 11.8393 71.5181 11.8947 71.5407C12.0213 71.5908 12.1479 71.6409 12.2735 71.6904C13.2334 72.0738 14.1864 72.4746 15.1318 72.8938C17.0616 73.7485 18.9591 74.6784 20.8126 75.6878C22.6717 76.6989 24.4864 77.7906 26.2459 78.9675C26.687 79.262 27.1246 79.5626 27.5568 79.8683C27.774 80.0216 27.9895 80.1755 28.204 80.3313C28.3046 80.4043 28.4063 80.4778 28.5064 80.5518C28.5564 80.5888 28.6065 80.6258 28.6575 80.6634C28.7966 80.7656 28.3108 80.4051 28.6105 80.6281C29.4599 81.2642 30.2933 81.9221 31.1074 82.6027C32.7473 83.9741 34.3094 85.4382 35.7722 86.9977C36.4985 87.772 37.201 88.5703 37.8754 89.3904C38.0347 89.5836 38.1917 89.7782 38.3466 89.9744C38.3857 90.0239 38.4238 90.0729 38.4635 90.1215C38.1838 89.7805 38.3175 89.9356 38.3784 90.0132C38.4748 90.137 38.5702 90.2603 38.6651 90.3847C38.9882 90.8082 39.3038 91.2382 39.6113 91.673C39.9193 92.1095 40.2203 92.5513 40.5132 92.9981C40.9767 93.7042 41.9767 94.0538 42.7292 93.5615C43.4357 93.0995 43.7874 92.1008 43.2926 91.3455C40.8665 87.646 37.9158 84.2937 34.6091 81.3589C31.2964 78.4182 27.6407 75.8545 23.8002 73.6514C20.0283 71.4877 16.0669 69.6835 12.0022 68.1454C8.26692 66.7309 4.43393 65.5723 0.542038 64.6766C-2.97001 63.8685 -6.52995 63.2841 -10.1193 62.9548C-10.5002 62.9196 -10.8819 62.8881 -11.2642 62.8602C-11.645 62.8318 -12.1249 63.0838 -12.3818 63.3462C-12.6626 63.6325 -12.8694 64.1074 -12.8421 64.515C-12.7778 65.4592 -12.0918 66.0275 -11.1869 66.0944Z" fill="#989898"/>
<path d="M-15.6866 78.8124C-14.7375 78.8812 -13.7891 78.9655 -12.8429 79.0659C-12.9824 79.0512 -13.1204 79.0361 -13.26 79.0214C-9.02809 79.4733 -4.82827 80.2694 -0.763957 81.5413C0.427757 81.9145 1.60689 82.3273 2.77127 82.7812C2.6364 82.7292 2.5021 82.6762 2.36723 82.6242C5.71975 83.9346 8.93517 85.5843 11.9492 87.5523C12.8628 88.1495 13.7569 88.7745 14.6333 89.4243C14.5176 89.3376 14.4013 89.252 14.2856 89.1654C16.4036 90.7428 18.4074 92.4712 20.2921 94.3213C20.8582 94.8779 21.4145 95.4451 21.9589 96.0216C22.5399 96.6356 23.6791 96.63 24.2453 95.996C24.8487 95.3214 24.8425 94.3681 24.2197 93.7096C21.9724 91.3343 19.5473 89.1241 16.9399 87.1496C14.471 85.2783 11.8762 83.5888 9.12863 82.154C6.54058 80.8035 3.83604 79.6732 1.06887 78.7451C-1.45935 77.8973 -4.04796 77.2355 -6.66623 76.7357C-9.35893 76.2212 -12.0844 75.8816 -14.8162 75.6542C-15.1313 75.6275 -15.4466 75.6034 -15.7624 75.5803C-16.1438 75.553 -16.6226 75.8029 -16.88 76.0663C-17.1608 76.3526 -17.3676 76.8275 -17.3403 77.2351C-17.3126 77.6442 -17.1693 78.0707 -16.8544 78.3527C-16.5133 78.6571 -16.1417 78.7789 -15.6866 78.8124Z" fill="#989898"/>
<path d="M84.3908 49.806C85.3984 49.5332 86.4168 49.3011 87.4435 49.1094C87.6913 49.0629 87.9391 49.019 88.1867 48.9778C88.3116 48.9564 88.436 48.9361 88.5608 48.9173C88.6174 48.9087 88.8781 48.868 88.5812 48.914C88.2687 48.9619 88.6168 48.9097 88.6776 48.9008C89.2071 48.8239 89.7393 48.7564 90.2716 48.6983C92.4281 48.4651 94.6004 48.3884 96.7683 48.4422C97.8952 48.4709 99.0211 48.535 100.144 48.6318C100.414 48.6551 100.683 48.6804 100.953 48.7083C101.021 48.7153 101.088 48.7217 101.156 48.7287C101.366 48.7505 100.721 48.6814 101.022 48.7148C101.185 48.7331 101.347 48.7507 101.509 48.77C102.08 48.837 102.649 48.9123 103.217 48.9964C105.494 49.3315 107.753 49.7951 109.981 50.374C112.543 51.0398 115.064 51.8608 117.53 52.8222C117.395 52.7702 117.261 52.7172 117.126 52.6652C121.268 54.2847 125.259 56.3023 128.991 58.7233C130.039 59.4026 131.064 60.1149 132.068 60.8575C131.952 60.7709 131.836 60.6853 131.72 60.5986C133.905 62.2226 135.977 63.9976 137.892 65.9323C138.487 66.5329 139.602 66.5502 140.178 65.9067C140.769 65.2441 140.789 64.2637 140.152 63.6203C137.298 60.7362 134.092 58.2006 130.697 55.9843C127.304 53.7698 123.694 51.8884 119.95 50.3402C116.113 48.7537 112.152 47.4763 108.091 46.599C104.155 45.7493 100.122 45.253 96.0938 45.1956C92.3013 45.1423 88.4852 45.5044 84.7893 46.3706C84.3567 46.4719 83.9249 46.5816 83.4959 46.6982C82.6785 46.9205 82.1149 47.8791 82.3892 48.6987C82.6719 49.5416 83.5186 50.0432 84.3908 49.806Z" fill="#989898"/>
<path d="M79.6251 63.0903C81.6083 62.9608 83.5997 62.9636 85.5842 63.053C86.6723 63.1015 87.7596 63.1775 88.844 63.2758C89.1176 63.3008 89.3905 63.3267 89.664 63.3543C89.7891 63.3663 89.914 63.3809 90.0391 63.3928C89.4533 63.3335 90.0038 63.3893 90.15 63.4063C90.7361 63.4724 91.3209 63.5432 91.9053 63.6217C96.7187 64.261 101.484 65.2781 106.149 66.6229C108.837 67.3982 111.494 68.2878 114.101 69.3031C113.966 69.2511 113.832 69.1981 113.697 69.1461C117.639 70.6853 121.491 72.5074 125.071 74.7726C126.017 75.3705 126.941 76.0015 127.84 76.6678C127.725 76.5812 127.608 76.4956 127.493 76.409C129.42 77.8425 131.231 79.444 132.786 81.2793C133.041 81.5818 133.573 81.7493 133.954 81.7396C134.343 81.7298 134.809 81.5486 135.072 81.2537C135.701 80.5494 135.633 79.6592 135.046 78.9673C132.71 76.209 129.799 73.9572 126.761 72.0226C123.4 69.8828 119.795 68.1345 116.102 66.6488C112.087 65.0331 107.966 63.6942 103.771 62.6305C99.8274 61.6305 95.8209 60.8602 91.7815 60.3657C88.1211 59.9173 84.4239 59.6507 80.7346 59.7955C80.339 59.8108 79.9442 59.8319 79.5482 59.8576C78.7049 59.9126 77.9102 60.6158 77.9703 61.5124C78.0263 62.3562 78.7222 63.1496 79.6251 63.0903Z" fill="#989898"/>
<path d="M73.7651 76.7482C75.3341 76.5067 76.9226 76.4103 78.5089 76.4045C79.3636 76.401 80.2187 76.4257 81.0723 76.4722C81.5282 76.4969 81.9844 76.5284 82.4403 76.5651C82.6719 76.5842 82.9045 76.6038 83.137 76.626C83.2419 76.6361 83.3477 76.6467 83.4525 76.6568C83.5848 76.6702 84.0925 76.7288 83.4946 76.6601C87.5328 77.1207 91.516 77.938 95.4207 79.0656C97.7576 79.7398 100.062 80.5225 102.329 81.4053C102.194 81.3533 102.06 81.3003 101.925 81.2483C106.237 82.9338 110.419 84.9838 114.32 87.4821C115.388 88.1665 116.434 88.8859 117.454 89.6407C117.339 89.554 117.222 89.4684 117.107 89.3818C119.734 91.3342 122.194 93.5329 124.3 96.043C124.441 96.2114 124.581 96.3819 124.719 96.5528C124.787 96.6369 124.865 96.7199 124.924 96.8099C124.926 96.8136 124.651 96.4593 124.8 96.652C124.837 96.7005 124.874 96.7479 124.91 96.7958C125.182 97.1494 125.446 97.5085 125.702 97.8724C125.956 98.2321 126.273 98.5116 126.713 98.618C127.092 98.7087 127.587 98.6518 127.918 98.4358C128.605 97.9866 129.001 96.9578 128.482 96.2198C126.17 92.9336 123.301 90.0906 120.125 87.6417C116.703 85.0038 113.001 82.7634 109.118 80.8743C105.182 78.9606 101.071 77.3784 96.8785 76.1272C93.0557 74.9863 89.1419 74.1156 85.1806 73.6244C81.7288 73.1956 78.2133 72.983 74.7476 73.3752C74.3943 73.4152 74.0421 73.4626 73.6903 73.5167C73.254 73.584 72.8949 73.6727 72.5727 74.0026C72.2919 74.289 72.0851 74.7639 72.1124 75.1714C72.1401 75.5806 72.2834 76.007 72.5983 76.289C72.8967 76.5552 73.3477 76.8126 73.7651 76.7482Z" fill="#989898"/>
<path d="M69.725 90.1504C71.9883 89.9284 74.268 89.9124 76.5363 90.059C77.1962 90.1022 77.8551 90.1593 78.5129 90.2279C78.3733 90.2132 78.2354 90.1981 78.0958 90.1834C80.0608 90.3924 82.0128 90.7139 83.9434 91.1367C85.905 91.566 87.8441 92.0959 89.7522 92.7204C90.8214 93.0698 91.8815 93.45 92.9291 93.8579C92.7942 93.8059 92.6599 93.7529 92.525 93.7009C96.0587 95.0783 99.4753 96.7754 102.662 98.835C103.5 99.3769 104.321 99.9442 105.122 100.539C105.007 100.453 104.89 100.367 104.775 100.28C105.016 100.46 105.256 100.642 105.494 100.827C105.85 101.103 106.195 101.299 106.663 101.288C107.051 101.278 107.517 101.096 107.78 100.802C108.063 100.486 108.269 100.069 108.241 99.6328C108.214 99.2404 108.08 98.7669 107.755 98.5152C105.716 96.9338 103.564 95.5119 101.309 94.2565C99.0369 92.9916 96.6757 91.8876 94.2549 90.9369C91.667 89.9204 89.0294 89.0466 86.3308 88.3746C83.6563 87.7093 80.9432 87.2487 78.2015 86.9719C75.6653 86.7157 73.1055 86.6512 70.5617 86.8391C70.2565 86.8618 69.9516 86.8887 69.6466 86.9182C69.2218 86.9599 68.8349 87.0918 68.529 87.4042C68.2482 87.6905 68.0414 88.1654 68.0687 88.573C68.0965 88.9821 68.2397 89.4086 68.5546 89.6906C68.8672 89.9672 69.2944 90.1929 69.725 90.1504Z" fill="#989898"/>
<path d="M63.2172 103.448C65.8797 103.3 68.5512 103.423 71.2015 103.703C71.062 103.689 70.924 103.674 70.7844 103.659C73.3687 103.936 75.9356 104.368 78.4744 104.925C81.1557 105.513 83.8079 106.238 86.4173 107.088C87.9086 107.574 89.3856 108.102 90.8469 108.671C90.712 108.619 90.5777 108.566 90.4429 108.514C94.7122 110.18 98.8619 112.192 102.729 114.659C103.773 115.324 104.793 116.024 105.788 116.761C105.672 116.674 105.556 116.588 105.44 116.502C107.337 117.91 109.138 119.454 110.758 121.176C111.198 121.643 111.624 122.123 112.035 122.616C112.288 122.92 112.825 123.085 113.204 123.077C113.593 123.067 114.059 122.886 114.322 122.591C114.604 122.275 114.811 121.858 114.782 121.422C114.752 120.978 114.58 120.645 114.296 120.304C112.041 117.597 109.33 115.317 106.462 113.286C103.414 111.128 100.139 109.297 96.7573 107.717C93.1449 106.027 89.4 104.606 85.5853 103.446C82.0006 102.355 78.3407 101.495 74.637 100.922C71.2128 100.393 67.7314 100.076 64.264 100.17C63.89 100.18 63.5153 100.196 63.1424 100.216C62.2984 100.263 61.5047 100.981 61.5645 101.871C61.6203 102.72 62.3143 103.498 63.2172 103.448Z" fill="#989898"/>
<path d="M59.5744 115.377C61.5434 115.165 63.528 115.142 65.5037 115.269C66.0795 115.305 66.6558 115.355 67.23 115.416C67.0905 115.402 66.9525 115.386 66.813 115.372C68.836 115.589 70.8428 115.946 72.8236 116.413C74.8391 116.886 76.8276 117.469 78.7877 118.134C79.9067 118.514 81.0173 118.92 82.1197 119.349C81.9848 119.297 81.8505 119.244 81.7157 119.192C83.5671 119.915 85.3939 120.7 87.1984 121.536C88.9594 122.352 90.6992 123.216 92.418 124.118C93.3599 124.611 94.2959 125.117 95.2259 125.631C95.5886 125.832 96.0569 125.885 96.4556 125.77C96.8368 125.66 97.2438 125.36 97.4235 124.999C97.8126 124.214 97.5848 123.24 96.7913 122.801C94.6329 121.607 92.4441 120.466 90.2211 119.396C87.7866 118.225 85.311 117.152 82.7929 116.172C80.3927 115.24 77.949 114.415 75.4619 113.743C73.0207 113.084 70.5362 112.573 68.0241 112.278C65.4844 111.98 62.9285 111.858 60.3773 112.062C60.0835 112.085 59.7916 112.113 59.4991 112.144C59.073 112.19 58.6906 112.314 58.3815 112.63C58.1007 112.916 57.8939 113.391 57.9212 113.799C57.949 114.208 58.0922 114.634 58.4071 114.916C58.7145 115.193 59.1457 115.423 59.5744 115.377Z" fill="#989898"/>
<path d="M-7.35735 248.34C-1.1191 264.128 5.12592 279.917 11.3664 295.708C11.8762 296.992 13.22 297.435 14.467 297.057C45.6721 287.586 75.8626 272.833 105.848 260.091C107.056 259.58 107.676 258.233 107.197 256.989C101.055 241.066 94.3913 225.324 87.2358 209.831C86.6806 208.64 85.4003 207.989 84.1354 208.481C53.8697 220.198 24.1505 233.269 -6.00938 245.237" fill="#638CD7"/>
<path d="M24.4241 242.473C24.2484 234.228 23.8559 225.963 22.7712 217.782C22.372 214.77 21.8743 211.762 21.1166 208.818C20.5552 206.637 19.8596 204.416 18.7482 202.445C18.3153 201.677 17.8014 200.924 17.1797 200.297C16.1626 199.271 14.9244 198.437 13.6519 197.761C12.262 197.022 10.7939 196.434 9.32805 195.864C8.63305 195.595 7.93621 195.331 7.2425 195.057C6.9028 194.923 6.56326 194.787 6.22541 194.647C6.1386 194.611 6.04096 194.555 5.94971 194.532C6.27333 194.61 6.16083 194.623 6.05028 194.575C5.83727 194.483 5.62483 194.391 5.41311 194.294C4.06369 193.683 2.75061 192.976 1.56976 192.075C1.54372 192.055 1.51711 192.035 1.49107 192.015C1.35805 191.91 1.3873 191.934 1.57844 192.084C1.56399 192.053 1.44293 191.973 1.42482 191.959C1.27232 191.831 1.12151 191.701 0.975365 191.567C0.690827 191.308 0.418061 191.036 0.159504 190.75C-0.0799606 190.486 -0.281151 190.174 -0.529207 189.92C-0.256021 190.2 -0.480398 189.986 -0.541925 189.898C-0.602511 189.812 -0.662527 189.724 -0.721052 189.635C-0.839812 189.456 -0.953889 189.272 -1.06291 189.086C-1.26995 188.733 -1.45901 188.369 -1.63082 187.997C-1.71254 187.821 -1.7877 187.643 -1.8623 187.463C-1.71674 187.811 -1.87031 187.438 -1.89222 187.381C-1.94807 187.228 -2.00244 187.074 -2.05323 186.919C-2.19375 186.495 -2.31512 186.064 -2.41904 185.629C-2.47648 185.388 -2.52942 185.147 -2.57691 184.905C-2.60299 184.768 -2.62907 184.632 -2.65214 184.494C-2.65835 184.458 -2.70406 184.013 -2.68188 184.34C-2.74312 183.44 -2.74065 182.543 -2.64873 181.644C-2.63785 181.533 -2.63586 181.41 -2.60993 181.302C-2.62041 181.345 -2.65989 181.629 -2.61642 181.351C-2.58057 181.125 -2.54378 180.9 -2.50022 180.676C-2.41657 180.249 -2.31542 179.825 -2.19695 179.406C-2.08957 179.025 -1.96676 178.649 -1.83246 178.276C-1.75483 178.063 -1.67099 177.853 -1.58808 177.643C-1.45103 177.293 -1.6925 177.872 -1.59329 177.654C-1.53848 177.533 -1.48704 177.412 -1.43129 177.292C-1.06502 176.501 -0.641299 175.737 -0.171007 175.001C0.0457845 174.664 0.271438 174.333 0.506521 174.007C0.629842 173.836 0.755441 173.667 0.883859 173.5C0.907189 173.469 0.930506 173.438 0.954219 173.409C1.06137 173.271 1.04888 173.288 0.9154 173.457C0.975562 173.427 1.0896 173.241 1.13367 173.188C1.6993 172.5 2.30192 171.845 2.93571 171.221C3.55791 170.608 4.20994 170.023 4.88544 169.469C5.20017 169.211 5.51945 168.958 5.84364 168.712C5.89717 168.671 6.21162 168.431 5.89829 168.669C5.99076 168.599 6.08493 168.533 6.17967 168.465C6.36764 168.331 6.556 168.198 6.74718 168.067C8.13919 167.111 9.60467 166.262 11.1251 165.53C11.4812 165.359 11.8389 165.194 12.2009 165.037C12.3779 164.96 12.5568 164.884 12.7355 164.81C12.8165 164.777 12.897 164.744 12.9774 164.711C13.1226 164.654 13.1064 164.659 12.9288 164.731C13.0087 164.699 13.0881 164.669 13.1689 164.638C14.038 164.302 14.9184 163.992 15.8087 163.718C16.6462 163.459 17.4948 163.231 18.3507 163.044C18.7514 162.957 19.1545 162.879 19.5593 162.811C19.7393 162.78 19.9201 162.752 20.1014 162.726C20.2071 162.711 20.3174 162.686 20.4244 162.681C20.006 162.7 20.4876 162.676 20.5723 162.666C21.3341 162.586 22.1008 162.548 22.8668 162.56C23.2387 162.567 23.6094 162.584 23.9801 162.614C24.1632 162.63 24.346 162.65 24.5284 162.669C24.7625 162.693 24.6385 162.593 24.4838 162.66C24.5588 162.629 24.7949 162.707 24.8769 162.722C25.5914 162.842 26.2968 163.014 26.9846 163.24C27.1723 163.302 27.3587 163.368 27.5443 163.437C27.6701 163.485 27.8692 163.613 28.0053 163.62C27.9409 163.593 27.877 163.566 27.8126 163.539C27.8736 163.565 27.9351 163.592 27.9955 163.619C28.0869 163.661 28.1777 163.703 28.2685 163.745C28.4504 163.832 28.6306 163.923 28.809 164.018C29.5128 164.39 30.1844 164.822 30.8202 165.3C30.8775 165.343 30.9343 165.387 30.9902 165.431C31.2892 165.659 30.7191 165.202 31.0087 165.447C31.1625 165.576 31.3184 165.704 31.4696 165.836C31.796 166.121 32.1112 166.419 32.4168 166.726C32.7215 167.033 33.0167 167.349 33.3005 167.674C33.3804 167.765 33.4561 167.861 33.5381 167.95C33.7997 168.235 33.4413 167.8 33.5882 168.005C33.7565 168.242 33.9253 168.477 34.0868 168.718C34.5747 169.444 35.0206 170.2 35.3977 170.99C35.4905 171.184 35.5787 171.379 35.6618 171.576C35.708 171.685 35.8774 171.907 35.6745 171.598C35.705 171.645 35.7288 171.738 35.7469 171.787C35.8824 172.152 36.0003 172.522 36.0996 172.898C36.1854 173.222 36.2563 173.549 36.3117 173.879C36.3321 173.999 36.3685 174.492 36.339 174.013C36.3507 174.213 36.3807 174.411 36.3924 174.611C36.4301 175.215 36.4156 175.822 36.3577 176.425C36.3427 176.585 36.318 176.745 36.3025 176.906C36.3039 176.893 36.3616 176.515 36.3222 176.755C36.3097 176.834 36.298 176.914 36.284 176.994C36.2313 177.31 36.1679 177.625 36.0984 177.938C35.5516 180.377 34.6023 182.708 34.2328 185.19C34.114 185.983 34.0651 186.768 34.0001 187.565C33.9892 187.698 33.9684 187.829 33.956 187.962C34.0039 187.424 33.9573 187.93 33.9326 188.062C33.8931 188.276 33.8448 188.491 33.7851 188.701C33.7358 188.875 33.6788 189.046 33.6147 189.214C33.5989 189.256 33.5812 189.296 33.5661 189.337C33.4871 189.548 33.7535 188.916 33.66 189.116C33.6263 189.188 33.5946 189.261 33.561 189.333C33.3894 189.697 33.2109 190.056 33.0655 190.433C32.7603 191.222 32.7207 192.103 32.7968 192.94C32.866 193.702 32.9885 194.46 33.1422 195.208C33.3419 196.184 33.5286 197.199 33.9495 198.104C34.5683 199.437 35.5272 200.623 36.4754 201.733C37.531 202.969 38.6679 204.133 39.8029 205.295C40.8794 206.397 41.9698 207.491 42.9726 208.661C43.1684 208.889 43.3615 209.122 43.5469 209.359C43.5968 209.423 43.6453 209.488 43.6952 209.552C43.8804 209.792 43.4721 209.245 43.6454 209.485C43.8733 209.801 44.1309 210.08 44.3912 210.37C45.161 211.226 45.9266 212.088 46.6885 212.951C49.5652 216.216 52.3896 219.526 55.2846 222.775C56.7119 224.377 58.1566 225.962 59.6285 227.523C60.1746 228.102 61.2192 228.155 61.7804 227.563C62.3532 226.96 62.4061 226.031 61.8207 225.411C58.7662 222.174 55.8372 218.823 52.9181 215.464C51.4776 213.807 50.0385 212.15 48.5864 210.504C48.2229 210.093 47.8588 209.682 47.4927 209.272C47.0957 208.827 46.7164 208.322 46.2772 207.917C45.9329 207.6 46.4544 208.035 46.2163 207.882C46.1448 207.838 45.9776 207.559 45.887 207.439C45.8049 207.33 45.7207 207.223 45.6365 207.116C45.4165 206.84 45.1887 206.571 44.9562 206.306C42.848 203.902 40.45 201.765 38.4034 199.305C38.1704 199.025 37.9427 198.741 37.7232 198.452C37.6365 198.338 37.5753 198.123 37.7302 198.463C37.695 198.385 37.6172 198.306 37.5672 198.236C37.4629 198.087 37.3616 197.938 37.2634 197.785C37.0935 197.524 36.9339 197.256 36.7885 196.982C36.7267 196.865 36.6669 196.746 36.6121 196.626C36.5802 196.557 36.5439 196.487 36.5186 196.416C36.4667 196.298 36.4826 196.322 36.5682 196.492C36.5436 196.396 36.5191 196.3 36.4955 196.204C36.2759 195.326 36.0706 194.441 35.9234 193.549C35.8999 193.404 35.8794 193.258 35.8574 193.112C35.8111 192.806 35.8912 193.476 35.8649 193.179C35.8579 193.105 35.8485 193.031 35.8425 192.957C35.8202 192.713 35.8063 192.468 35.8082 192.222C35.8098 192.043 35.8393 191.865 35.8412 191.687C35.8363 192.228 35.8012 191.95 35.8377 191.777C35.8546 191.699 35.8733 191.622 35.8961 191.545C35.9339 191.415 35.9898 191.293 36.0324 191.165C35.8176 191.811 35.9823 191.295 36.0676 191.119C36.4506 190.327 36.7675 189.532 36.9071 188.661C37.0279 187.907 37.0488 187.156 37.1248 186.399C37.1394 186.25 37.1584 186.102 37.1754 185.953C37.214 185.628 37.1196 186.313 37.1707 185.991C37.1818 185.918 37.1929 185.846 37.2046 185.772C37.2581 185.444 37.3205 185.115 37.39 184.789C37.6588 183.535 38.0405 182.309 38.4056 181.081C39.1817 178.472 39.7209 175.851 39.2602 173.128C38.6671 169.621 36.5067 166.308 33.9104 163.949C31.3339 161.609 28.2496 160.11 24.7948 159.659C21.4301 159.219 17.9745 159.842 14.7676 160.861C7.87454 163.053 1.26751 167.196 -2.72414 173.356C-4.70952 176.421 -5.89762 180.055 -5.75863 183.729C-5.61832 187.439 -3.91245 191.26 -1.1422 193.749C1.28141 195.926 4.27685 197.165 7.27808 198.322C7.98606 198.596 8.69479 198.866 9.40019 199.148C9.5821 199.221 9.76402 199.295 9.94537 199.369C10.0054 199.394 10.0661 199.419 10.1252 199.444C10.4497 199.578 9.78694 199.297 10.1081 199.436C10.4625 199.59 10.8149 199.746 11.1636 199.912C11.8188 200.223 12.4618 200.56 13.0795 200.941C13.3699 201.119 13.654 201.308 13.9311 201.507C14.0535 201.595 14.1729 201.705 14.3018 201.784C13.9267 201.555 14.1744 201.683 14.2699 201.763C14.365 201.841 14.4585 201.922 14.5504 202.003C14.8674 202.282 15.1636 202.578 15.4299 202.906C15.4921 202.984 15.5489 203.069 15.6138 203.144C15.2445 202.716 15.4754 202.956 15.5604 203.079C15.6846 203.259 15.8017 203.442 15.9141 203.628C16.1503 204.02 16.3638 204.427 16.5601 204.842C16.6625 205.058 16.7604 205.275 16.8542 205.495C16.9035 205.609 16.9503 205.724 16.9981 205.839C17.0424 205.947 17.0855 206.134 16.944 205.702C16.973 205.791 17.012 205.878 17.0455 205.965C17.9663 208.389 18.5484 210.939 19.0254 213.482C19.3262 215.084 19.5756 216.696 19.7934 218.311C19.8491 218.727 19.9058 219.142 19.9549 219.56C19.91 219.172 19.982 219.791 19.9922 219.869C20.0246 220.143 20.0565 220.418 20.0874 220.692C20.1881 221.584 20.2799 222.475 20.3648 223.367C20.7609 227.518 21.0107 231.681 21.1802 235.847C21.2695 238.049 21.335 240.252 21.3814 242.455C21.3982 243.25 22.0565 244.017 22.8939 243.986C23.6978 243.956 24.4427 243.325 24.4241 242.473Z" fill="#343434"/>
<path d="M5.10127 259.992C6.4753 259.445 7.84876 258.899 9.22317 258.354C9.37638 258.293 9.52959 258.232 9.68336 258.171C9.91346 258.079 9.35162 258.302 9.72331 258.155C9.79963 258.125 9.87653 258.094 9.95286 258.064C10.2962 257.928 10.6396 257.791 10.9833 257.656C11.6478 257.393 12.3122 257.129 12.9766 256.866C15.6125 255.821 18.2488 254.778 20.8838 253.733C26.1133 251.659 31.3403 249.579 36.5547 247.469C41.7185 245.379 46.8698 243.259 52.0012 241.093C57.3952 238.815 62.7673 236.486 68.1122 234.097C73.8906 231.515 79.6394 228.864 85.3566 226.148C86.1103 225.79 86.8637 225.43 87.6161 225.07C88.3359 224.726 88.6202 223.673 88.2086 223.001C87.756 222.263 86.9077 222.041 86.1395 222.409C80.34 225.184 74.5097 227.895 68.6473 230.533C63.2833 232.947 57.8922 235.302 52.4784 237.603C47.3337 239.789 42.167 241.927 36.9879 244.031C31.8487 246.12 26.6971 248.176 21.5408 250.223C21.3926 250.282 21.246 250.34 21.0978 250.399C21.0245 250.428 20.9497 250.458 20.8763 250.487C21.1863 250.363 20.9279 250.466 20.8501 250.497C20.5168 250.629 20.1842 250.76 19.8509 250.893C19.2017 251.15 18.5519 251.408 17.9027 251.665C16.5935 252.184 15.284 252.702 13.9754 253.22C11.2045 254.318 8.43405 255.416 5.66387 256.517C4.9837 256.788 4.30353 257.058 3.62336 257.329C3.283 257.465 2.98417 257.926 2.89345 258.259C2.79738 258.612 2.83701 259.08 3.0309 259.398C3.50851 260.178 4.30839 260.307 5.10127 259.992Z" fill="#343434"/>
<path d="M73.6289 267.685C75.5555 266.893 77.4885 266.115 79.4242 265.346C79.0793 265.483 78.735 265.619 78.391 265.757C83.4926 263.733 88.625 261.787 93.732 259.778C94.8598 259.335 95.7487 258.874 96.3947 257.784C96.9804 256.796 97.1519 255.602 96.8671 254.491C96.5828 253.378 95.8605 252.414 94.8728 251.828C93.9887 251.304 92.5853 250.96 91.5797 251.356C84.1883 254.263 76.7582 257.066 69.4099 260.084C68.39 260.502 67.6021 261.728 67.3245 262.741C67.0275 263.829 67.1723 265.009 67.7177 265.995C68.2809 267.013 69.2526 267.774 70.3753 268.08C71.5661 268.403 72.5325 268.135 73.6289 267.685Z" fill="white"/>
<path fill-rule="evenodd" clip-rule="evenodd" d="M142.103 299.302C1.03586 248.035 -54.0341 453.518 65.4714 496.846C143.019 524.957 195.145 493.051 213.049 427.197C228.549 362.525 194.825 318.411 142.103 299.302Z" fill="#FFA446"/>
<path d="M4.76102 369.894C15.4279 378.876 26.9656 386.779 39.0671 393.695C51.1807 400.618 63.8257 406.558 76.7314 411.846C89.5522 417.1 102.646 421.665 115.867 425.805C129.758 430.155 143.769 434.259 158.043 437.159C172.862 440.167 187.94 441.85 203.064 441.982C204.988 441.998 206.912 441.99 208.835 441.962C210.351 441.939 211.642 440.689 211.642 439.155C211.642 437.652 210.359 436.326 208.835 436.348C194.004 436.565 179.221 435.381 164.665 432.734C150.284 430.117 136.21 426.158 122.24 421.901C109.172 417.918 96.2162 413.552 83.5025 408.553C70.912 403.602 58.5074 397.969 46.5474 391.442C34.6965 384.976 23.1648 377.567 12.7041 369.187C11.3664 368.116 10.0449 367.027 8.73355 365.924C7.57574 364.948 5.90065 364.788 4.76506 365.924C3.75879 366.928 3.59512 368.914 4.76102 369.894Z" fill="#343434"/>
<path d="M134.62 297.029C124.862 305.742 116.62 316.098 109.821 327.253C106.457 332.774 103.44 338.506 100.744 344.382C97.7539 350.901 94.6664 357.371 91.793 363.942C85.9555 377.292 80.6392 390.879 76.1838 404.756C71.795 418.424 68.2993 432.376 65.6078 446.474C62.9305 460.493 61.019 474.643 59.0732 488.78C58.8226 490.602 58.5721 492.423 58.3175 494.245C58.1093 495.745 58.6812 497.258 60.2775 497.697C61.5888 498.056 63.5185 497.248 63.7287 495.737C65.6968 481.562 67.5355 467.363 70.0411 453.269C72.5224 439.305 75.7332 425.459 79.8391 411.881C83.951 398.282 88.8995 384.934 94.4481 371.859C97.2568 365.241 100.209 358.684 103.272 352.182C106.079 346.225 108.817 340.258 112.062 334.52C118.38 323.346 125.859 313.186 135.077 304.257C136.224 303.145 137.394 302.06 138.584 300.997C139.716 299.987 139.613 298.06 138.584 297.029C137.465 295.906 135.754 296.017 134.62 297.029Z" fill="#343434"/>
<path d="M79.1806 292.038C77.4368 297.747 75.5031 303.396 73.7189 309.09C71.7852 315.267 69.9949 321.501 68.7037 327.848C67.4105 334.199 66.5457 340.721 66.7821 347.213C67.0104 353.524 68.2955 359.778 71.1345 365.448C74.1351 371.439 78.92 376.337 84.5151 379.96C88.3845 382.465 92.646 384.512 97.0207 385.963C101.169 387.339 105.584 388.08 109.961 388.01C114.444 387.935 118.92 387.04 123.131 385.512C127.14 384.059 130.975 382.19 134.436 379.689C140.464 375.334 145.315 369.737 149.929 363.958C154.453 358.292 158.819 352.439 164.109 347.446C164.754 346.838 165.41 346.244 166.081 345.668C166.427 345.371 166.774 345.078 167.128 344.791C167.286 344.663 167.443 344.536 167.601 344.411C167.785 344.265 168.49 343.766 167.752 344.29C169.262 343.223 170.775 342.198 172.327 341.194C174.287 339.925 176.296 338.725 178.367 337.648C179.419 337.1 180.49 336.599 181.573 336.114C181.709 336.053 182.054 335.882 181.444 336.167C181.561 336.112 181.687 336.066 181.806 336.017C182.046 335.918 182.289 335.823 182.531 335.728C183.103 335.506 183.681 335.298 184.265 335.104C185.291 334.762 186.334 334.467 187.391 334.231C187.91 334.116 188.433 334.013 188.959 333.928C189.082 333.908 189.205 333.889 189.329 333.871C189.858 333.786 189.155 333.914 189.137 333.895C189.195 333.952 189.959 333.807 190.06 333.798C190.818 333.73 191.489 333.532 192.044 332.976C192.531 332.489 192.897 331.691 192.867 330.992C192.804 329.584 191.626 328.046 190.06 328.185C185.15 328.626 180.535 330.277 176.152 332.485C174.063 333.538 172.042 334.722 170.068 335.977C168.492 336.981 166.906 337.957 165.404 339.074C159.474 343.489 154.665 349.046 150.078 354.797C145.625 360.382 141.319 366.147 136.103 371.061C135.449 371.679 134.78 372.281 134.095 372.867C133.792 373.128 133.485 373.382 133.176 373.635C133.002 373.776 132.826 373.918 132.65 374.057C132.571 374.12 132.493 374.181 132.414 374.243C132.147 374.455 132.945 373.839 132.567 374.126C131.145 375.201 129.674 376.205 128.13 377.1C127.296 377.583 126.445 378.032 125.574 378.446C125.051 378.695 124.525 378.937 123.994 379.169C123.871 379.224 123.747 379.277 123.624 379.329C123.232 379.501 124.265 379.068 123.65 379.319C123.345 379.442 123.04 379.568 122.733 379.689C120.682 380.489 118.575 381.152 116.425 381.631C115.954 381.736 115.481 381.831 115.006 381.918C114.741 381.966 114.477 382.01 114.21 382.053C114.093 382.071 113.976 382.089 113.856 382.107C113.757 382.122 113.115 382.225 113.612 382.144C114.111 382.063 113.293 382.18 113.194 382.19C112.931 382.219 112.668 382.245 112.404 382.269C111.88 382.316 111.355 382.35 110.83 382.37C109.813 382.413 108.795 382.411 107.778 382.362C107.285 382.34 106.792 382.306 106.299 382.261C106.067 382.241 105.835 382.217 105.604 382.192C105.489 382.18 105.372 382.166 105.257 382.152C105.142 382.138 105.024 382.124 104.909 382.107C105.043 382.126 105.174 382.144 105.307 382.16C103.242 381.778 101.217 381.402 99.207 380.774C98.1381 380.44 97.0833 380.063 96.0427 379.65C95.8143 379.559 95.5436 379.493 95.3355 379.363C95.8386 379.675 95.6527 379.499 95.4749 379.422C95.3557 379.372 95.2385 379.321 95.1193 379.269C94.5515 379.02 93.9877 378.759 93.428 378.493C91.4478 377.543 89.508 376.49 87.6531 375.314C86.9317 374.855 86.2245 374.377 85.5314 373.873C85.3576 373.748 85.1859 373.621 85.0141 373.491C84.9394 373.435 84.8626 373.376 84.7878 373.32C84.4948 373.102 85.3738 373.781 84.9636 373.455C84.6363 373.195 84.3089 372.934 83.9877 372.663C82.7854 371.655 81.6498 370.57 80.593 369.412C80.0859 368.854 79.5948 368.278 79.1261 367.686C79.0614 367.603 78.9866 367.523 78.928 367.436C78.926 367.434 79.3847 368.038 79.1341 367.7C79.0331 367.565 78.9301 367.43 78.8311 367.292C78.6068 366.987 78.3885 366.678 78.1743 366.365C77.358 365.165 76.6225 363.912 75.9719 362.615C75.8062 362.285 75.6466 361.952 75.493 361.616C75.4243 361.467 75.3576 361.317 75.2909 361.168C75.1919 360.944 74.909 360.222 75.2828 361.162C75.0181 360.497 74.7534 359.832 74.517 359.155C74.0462 357.797 73.6583 356.411 73.3431 355.009C73.1854 354.302 73.046 353.59 72.9248 352.875C72.8662 352.526 72.8096 352.176 72.7591 351.826C72.7551 351.794 72.7207 351.517 72.7146 351.517C72.7167 351.517 72.8177 352.309 72.7652 351.891C72.7389 351.683 72.7126 351.475 72.6884 351.267C72.3428 348.29 72.2782 345.286 72.4115 342.295C72.4802 340.754 72.6015 339.216 72.7672 337.682C72.8096 337.284 72.8561 336.884 72.9046 336.486C72.9268 336.308 72.949 336.13 72.9713 335.954C72.9834 335.866 72.9935 335.777 73.0056 335.688C73.0743 335.152 72.9026 336.435 72.9773 335.9C73.0885 335.12 73.2016 334.34 73.3289 333.562C74.3614 327.227 75.984 321 77.8147 314.853C79.5605 308.989 81.5185 303.194 83.3815 297.367C83.7896 296.09 84.1917 294.813 84.5817 293.532C85.0101 292.127 84.0705 290.41 82.6217 290.08C81.1143 289.733 79.6393 290.535 79.1806 292.038Z" fill="#343434"/>
<path d="M182.61 368.563C183.919 369.909 185.162 371.313 186.32 372.792C185.901 372.251 185.483 371.711 185.067 371.17C186.944 373.605 188.55 376.223 189.747 379.06C189.478 378.422 189.207 377.783 188.938 377.145C189.9 379.481 190.559 381.907 190.908 384.409C190.813 383.698 190.718 382.988 190.621 382.277C191.02 385.33 190.951 388.4 190.553 391.449C190.648 390.738 190.743 390.028 190.84 389.317C190.159 394.266 188.668 399.052 186.871 403.698C186.132 405.607 186.683 408.175 187.679 409.875C188.728 411.667 190.466 413.007 192.47 413.558C194.539 414.128 196.796 413.835 198.647 412.75C200.587 411.615 201.547 409.988 202.331 407.959C205.441 399.921 207.791 390.948 206.657 382.275C206.348 379.913 206.006 377.616 205.299 375.34C204.574 373.003 203.58 370.717 202.456 368.545C200.294 364.366 197.217 360.584 193.949 357.224C190.904 354.092 185.669 354.168 182.612 357.224C179.49 360.347 179.567 365.431 182.61 368.563Z" fill="white"/>
<path d="M166.344 205.161C161.821 210.574 157.299 215.987 152.708 221.341C150.61 223.788 148.495 226.221 146.355 228.631C144.569 230.642 142.572 232.505 141.639 235.089C140.199 239.075 142.147 243.351 145.535 245.619C147.171 246.715 149.206 247.282 151.171 247.191C153.475 247.085 155.572 246.065 157.269 244.536C158.448 243.474 159.427 242.157 160.466 240.961C161.603 239.653 162.742 238.348 163.885 237.045C165.994 234.639 168.114 232.242 170.24 229.852C173.82 225.825 177.425 221.817 181.011 217.794C185.838 212.379 190.848 206.979 194.966 200.988C197.136 197.831 199.351 194.041 198.688 190.059C198.084 186.429 194.777 183.741 191.902 181.826C189.076 179.945 185.763 179.437 182.572 180.679C180.555 181.464 178.776 182.667 177.078 183.991C174.875 185.708 172.858 187.663 170.906 189.656C164.736 195.957 159.088 202.779 153.402 209.512C149.321 214.343 145.257 219.186 141.177 224.019C136.847 229.147 132.245 234.18 128.627 239.856C126.157 243.73 123.857 248.69 125.623 253.304C126.48 255.544 128.168 257.349 129.836 259.025C131.365 260.562 133.098 261.979 135.068 262.908C137 263.819 139.13 264.232 141.258 263.951C143.89 263.603 146.287 262.421 148.437 260.895C150.978 259.091 153.198 256.842 155.417 254.667C157.217 252.903 158.974 251.094 160.684 249.241C165.335 244.201 169.647 238.856 174.049 233.599C174.477 233.087 174.552 232.368 174.049 231.865C173.607 231.423 172.745 231.353 172.316 231.865C168.595 236.308 164.93 240.801 161.088 245.141C157.64 249.036 153.981 252.728 150.183 256.28C148.121 258.209 145.746 260.073 143.127 261.003C141.154 261.704 139.338 261.781 137.44 261.215C136.487 260.932 135.857 260.614 134.925 260.041C133.976 259.457 133.375 258.969 132.543 258.219C131.69 257.452 130.898 256.619 130.136 255.764C129.366 254.899 128.764 254.193 128.222 253.154C127.369 251.517 127.289 249.55 127.7 247.718C128.241 245.315 129.418 243.188 130.742 241.092C132.4 238.469 134.329 236.025 136.291 233.626C138.55 230.864 140.879 228.158 143.182 225.431C150.453 216.817 157.635 208.121 165.069 199.646C167.574 196.79 170.115 193.962 172.777 191.249C173.831 190.175 174.907 189.122 176.017 188.105C176.505 187.657 177.003 187.217 177.508 186.788C177.735 186.594 177.965 186.403 178.196 186.215C178.309 186.123 178.421 186.032 178.534 185.943C178.615 185.878 179.055 185.536 178.73 185.787C179.568 185.139 180.439 184.531 181.351 183.99C181.749 183.754 182.158 183.534 182.574 183.332C182.762 183.24 182.953 183.154 183.145 183.071C182.699 183.264 183.359 182.99 183.503 182.937C183.874 182.801 184.252 182.688 184.635 182.596C184.81 182.554 184.988 182.517 185.165 182.486C185.253 182.471 185.341 182.458 185.428 182.444C185.628 182.416 185.076 182.49 185.276 182.465C185.333 182.458 185.391 182.452 185.449 182.447C185.804 182.41 186.161 182.4 186.518 182.412C186.686 182.418 186.855 182.431 187.023 182.449C187.356 182.483 186.931 182.433 186.99 182.441C187.088 182.454 187.185 182.471 187.282 182.489C187.633 182.553 187.978 182.642 188.318 182.751C188.484 182.805 188.649 182.865 188.812 182.928C188.917 182.969 189.25 183.111 188.808 182.922C188.905 182.963 189.001 183.007 189.096 183.052C189.847 183.4 190.544 183.844 191.218 184.323C191.431 184.475 191.641 184.629 191.851 184.785C191.952 184.861 192.053 184.937 192.154 185.015C192.345 185.16 191.915 184.829 192.104 184.975C192.168 185.026 192.233 185.076 192.297 185.127C192.677 185.43 193.048 185.744 193.409 186.071C193.738 186.37 194.057 186.684 194.36 187.011C194.497 187.157 194.631 187.309 194.761 187.462C194.824 187.536 194.886 187.612 194.947 187.689C195.171 187.967 194.777 187.459 194.989 187.743C195.218 188.047 195.426 188.366 195.615 188.696C195.702 188.849 195.782 189.004 195.858 189.161C195.896 189.239 195.931 189.317 195.967 189.395C196.065 189.617 195.835 189.062 195.973 189.417C196.1 189.743 196.198 190.08 196.273 190.421C196.308 190.584 196.337 190.75 196.36 190.916C196.284 190.376 196.364 191.024 196.371 191.178C196.39 191.54 196.378 191.904 196.345 192.265C196.336 192.354 196.326 192.444 196.314 192.533C196.377 192.036 196.329 192.408 196.311 192.524C196.278 192.726 196.236 192.926 196.19 193.125C196.097 193.532 195.974 193.933 195.836 194.327C195.766 194.529 195.69 194.73 195.609 194.929C195.588 194.98 195.567 195.03 195.546 195.082C195.46 195.29 195.672 194.787 195.583 194.995C195.531 195.117 195.476 195.239 195.421 195.359C194.451 197.487 193.113 199.442 191.733 201.32C191.53 201.596 191.325 201.87 191.117 202.143C191.01 202.285 190.903 202.425 190.796 202.565C190.762 202.609 190.575 202.852 190.769 202.602C190.695 202.698 190.62 202.794 190.545 202.89C190.055 203.518 189.557 204.141 189.055 204.759C187.922 206.152 186.762 207.523 185.59 208.885C178.943 216.614 172.035 224.117 165.285 231.755C163.045 234.29 160.813 236.834 158.594 239.388C157.567 240.569 156.597 241.846 155.431 242.896C155.047 243.242 154.757 243.447 154.275 243.743C153.787 244.042 153.384 244.221 153.001 244.358C152.56 244.516 152.101 244.623 151.639 244.699C151.91 244.654 151.541 244.71 151.511 244.712C151.398 244.725 151.285 244.731 151.171 244.738C150.91 244.753 150.647 244.751 150.385 244.74C150.273 244.736 150.162 244.727 150.052 244.717C150.017 244.714 149.651 244.669 149.936 244.709C149.716 244.678 149.5 244.635 149.284 244.587C149.069 244.539 148.857 244.477 148.646 244.413C148.541 244.381 148.438 244.345 148.334 244.308C148.291 244.293 147.871 244.125 148.117 244.23C147.714 244.059 147.328 243.849 146.955 243.619C146.434 243.297 146.387 243.251 145.985 242.893C145.209 242.205 144.891 241.785 144.419 240.951C144.312 240.763 144.217 240.569 144.127 240.373C143.977 240.048 144.214 240.6 144.082 240.268C144.042 240.167 144.006 240.064 143.97 239.963C143.899 239.758 143.84 239.549 143.786 239.339C143.76 239.233 143.737 239.127 143.714 239.021C143.703 238.972 143.631 238.517 143.669 238.808C143.611 238.367 143.602 237.92 143.625 237.477C143.631 237.363 143.642 237.25 143.653 237.138C143.689 236.763 143.611 237.383 143.671 237.009C143.716 236.737 143.781 236.47 143.853 236.205C144.099 235.312 144.579 234.403 145.179 233.637C146.075 232.494 147.122 231.452 148.086 230.368C152.519 225.381 156.837 220.294 161.132 215.188C163.453 212.43 165.764 209.663 168.075 206.897C168.503 206.385 168.578 205.666 168.075 205.163C167.637 204.719 166.773 204.647 166.344 205.161Z" fill="#8BD092"/>
<path d="M232.61 13.7965C239.971 18.0201 247.331 22.2437 254.637 26.5605C257.975 28.5334 261.3 30.5287 264.604 32.5588C267.36 34.2532 269.986 36.2293 273.242 36.7935C278.267 37.6635 282.924 34.4598 284.901 29.9715C285.857 27.8025 286.102 25.2741 285.582 22.9643C284.974 20.2567 283.326 17.9862 281.159 16.2968C279.654 15.1223 277.888 14.2392 276.254 13.2588C274.466 12.1856 272.681 11.1091 270.898 10.0283C267.607 8.03378 264.323 6.0244 261.046 4.00706C255.524 0.609157 250.021 -2.82166 244.504 -6.22702C237.077 -10.8108 229.63 -15.6148 221.669 -19.2376C217.475 -21.1466 212.521 -22.9764 207.942 -21.3566C203.768 -19.8811 201.276 -15.4001 199.611 -11.5922C197.974 -7.84996 198.066 -3.81925 200.207 -0.298973C201.559 1.92666 203.357 3.78105 205.282 5.51613C207.777 7.76605 210.516 9.74512 213.286 11.6406C222.043 17.6305 231.31 22.8915 240.477 28.2173C247.055 32.0388 253.645 35.8395 260.224 39.6594C267.207 43.7153 274.134 48.1125 281.617 51.2094C286.724 53.3236 293.082 55.0088 298.178 51.9499C300.652 50.4651 302.437 48.0875 304.073 45.7605C305.573 43.6272 306.889 41.2772 307.576 38.7487C308.25 36.2684 308.293 33.6585 307.515 31.1965C306.552 28.1514 304.649 25.5595 302.391 23.3323C299.721 20.6994 296.592 18.5414 293.55 16.3679C291.083 14.6049 288.571 12.9023 286.018 11.265C279.073 6.81162 271.836 2.82226 264.687 -1.29042C263.99 -1.69011 263.123 -1.62837 262.632 -0.926984C262.201 -0.311734 262.298 0.724974 262.995 1.12597C269.038 4.60286 275.129 8.00377 281.076 11.6459C286.413 14.9148 291.553 18.4758 296.558 22.2306C299.275 24.2688 301.98 26.6918 303.632 29.6004C304.875 31.79 305.346 33.9264 305.074 36.2925C304.938 37.481 304.693 38.2938 304.21 39.5181C303.717 40.7656 303.264 41.5788 302.551 42.7225C301.82 43.8934 301 45.0061 300.146 46.0884C299.283 47.1817 298.573 48.0432 297.455 48.9026C295.694 50.2558 293.382 50.7632 291.124 50.6598C288.165 50.5228 285.398 49.5743 282.638 48.4439C279.183 47.0295 275.883 45.2574 272.63 43.4353C268.884 41.3378 265.19 39.1462 261.477 36.989C249.749 30.1796 237.942 23.4934 226.344 16.4627C222.436 14.0934 218.552 11.6753 214.781 9.09043C213.288 8.06624 211.814 7.0128 210.377 5.91124C209.744 5.42625 209.119 4.92897 208.504 4.42045C208.228 4.19174 207.954 3.95998 207.681 3.72511C207.549 3.61102 207.418 3.49669 207.289 3.38213C207.195 3.29908 206.697 2.84942 207.063 3.18218C206.12 2.32481 205.217 1.42119 204.385 0.453832C204.022 0.0315881 203.676 -0.407178 203.349 -0.857502C203.201 -1.06045 203.059 -1.26847 202.921 -1.4785C203.242 -0.990807 202.779 -1.7149 202.686 -1.87499C202.448 -2.28561 202.235 -2.71028 202.045 -3.1443C201.958 -3.34329 201.878 -3.54605 201.804 -3.74997C201.768 -3.84996 201.733 -3.95172 201.7 -4.05218C201.624 -4.28269 201.827 -3.64481 201.756 -3.87625C201.735 -3.94258 201.716 -4.01067 201.698 -4.07746C201.58 -4.49061 201.494 -4.91192 201.433 -5.33656C201.404 -5.53765 201.385 -5.74038 201.371 -5.94271C201.341 -6.34453 201.371 -5.83103 201.368 -5.90191C201.363 -6.02099 201.363 -6.13945 201.363 -6.25815C201.366 -6.68712 201.399 -7.1149 201.458 -7.54029C201.487 -7.74895 201.523 -7.95616 201.563 -8.16275C201.59 -8.29545 201.689 -8.71994 201.558 -8.15636C201.586 -8.27992 201.618 -8.40284 201.65 -8.52448C201.906 -9.48751 202.286 -10.4064 202.712 -11.3053C202.847 -11.5892 202.986 -11.8711 203.126 -12.152C203.195 -12.2882 203.265 -12.4231 203.335 -12.5595C203.468 -12.8161 203.165 -12.2371 203.298 -12.4911C203.345 -12.5775 203.392 -12.6653 203.438 -12.7517C203.717 -13.2659 204.012 -13.7709 204.324 -14.2667C204.609 -14.7202 204.914 -15.1635 205.237 -15.5914C205.383 -15.7842 205.534 -15.974 205.688 -16.1603C205.763 -16.2503 205.84 -16.3394 205.917 -16.4286C206.2 -16.7522 205.681 -16.1793 205.973 -16.4896C206.286 -16.824 206.62 -17.1378 206.972 -17.4304C207.134 -17.5656 207.302 -17.6936 207.471 -17.8166C207.555 -17.8772 207.64 -17.9355 207.726 -17.9937C207.968 -18.1565 207.358 -17.7684 207.751 -18.0062C208.11 -18.2247 208.488 -18.4116 208.877 -18.5719C209.063 -18.648 209.253 -18.7166 209.444 -18.7788C208.821 -18.5755 209.572 -18.8054 209.753 -18.8469C210.178 -18.945 210.611 -19.0068 211.046 -19.0432C211.154 -19.0515 211.262 -19.0585 211.37 -19.0628C210.769 -19.0332 211.219 -19.055 211.36 -19.0571C211.607 -19.0602 211.852 -19.0524 212.097 -19.0404C212.599 -19.0147 213.1 -18.9537 213.596 -18.8729C213.85 -18.8316 214.104 -18.7835 214.356 -18.7298C214.421 -18.7156 214.485 -18.7014 214.551 -18.6875C214.815 -18.629 214.176 -18.7747 214.44 -18.7123C214.596 -18.6766 214.752 -18.6367 214.906 -18.5965C217.629 -17.8937 220.226 -16.7183 222.74 -15.477C223.109 -15.2944 223.477 -15.1087 223.845 -14.9204C224.034 -14.8232 224.223 -14.7258 224.412 -14.6284C224.471 -14.5972 224.798 -14.4259 224.461 -14.6034C224.59 -14.536 224.719 -14.4673 224.849 -14.3985C225.696 -13.95 226.538 -13.4897 227.375 -13.0247C229.263 -11.9746 231.131 -10.8872 232.989 -9.78463C243.539 -3.52953 253.875 3.08271 264.338 9.47853C267.811 11.6012 271.292 13.7119 274.783 15.8061C276.397 16.7751 278.114 17.6561 279.602 18.8174C280.092 19.1998 280.396 19.5004 280.847 20.0095C281.304 20.5257 281.6 20.9652 281.843 21.39C282.122 21.8796 282.345 22.4008 282.532 22.9323C282.422 22.6204 282.566 23.0464 282.575 23.0812C282.613 23.2119 282.644 23.3452 282.676 23.4784C282.749 23.7848 282.802 24.0963 282.844 24.4096C282.862 24.5425 282.875 24.6764 282.886 24.8091C282.889 24.8503 282.914 25.2934 282.901 24.9479C282.91 25.2145 282.905 25.4796 282.892 25.7459C282.881 26.0107 282.852 26.2746 282.821 26.5376C282.805 26.6685 282.783 26.7989 282.762 26.9294C282.753 26.9836 282.642 27.5166 282.715 27.2033C282.596 27.7161 282.429 28.2174 282.235 28.7072C281.962 29.3929 281.917 29.4575 281.577 30.0094C280.925 31.0722 280.493 31.5367 279.605 32.2707C279.405 32.4368 279.194 32.5899 278.981 32.7382C278.628 32.9839 279.232 32.5873 278.866 32.8138C278.755 32.8819 278.641 32.9465 278.528 33.0096C278.3 33.1376 278.065 33.2505 277.828 33.3585C277.708 33.4121 277.587 33.4618 277.466 33.5101C277.41 33.5336 276.886 33.7151 277.223 33.6083C276.712 33.7701 276.186 33.8741 275.655 33.9396C275.519 33.9569 275.384 33.9675 275.248 33.978C274.797 34.0133 275.547 33.9762 275.091 33.9828C274.76 33.9874 274.43 33.9663 274.101 33.9356C272.991 33.8313 271.814 33.4533 270.781 32.9029C269.239 32.0812 267.785 31.0595 266.299 30.1445C259.462 25.9375 252.53 21.8887 245.581 17.87C241.828 15.6984 238.066 13.5405 234.305 11.3823C233.608 10.9826 232.741 11.0443 232.25 11.7457C231.816 12.3575 231.912 13.3957 232.61 13.7965Z" fill="#FFA446"/>
<path d="M274.158 213.101C267.409 212.599 260.394 213.939 254.658 217.652C249.23 221.165 245.52 226.326 243.17 232.282C238.701 243.611 241.351 257.179 249.129 266.354C258.186 277.042 274.405 279.111 286.775 273.672C298.012 268.732 304.38 256.306 304.572 244.417C304.696 236.655 301.999 229.151 297.003 223.249C291.347 216.571 282.653 213.58 274.158 213.101C271.246 212.939 268.807 215.664 268.807 218.463C268.807 221.508 271.246 223.658 274.158 223.824C275.002 223.871 275.842 223.944 276.678 224.041C275.187 223.867 277.618 224.226 278.022 224.311C279.605 224.639 281.158 225.121 282.66 225.716C281.158 225.121 283.25 226.017 283.616 226.206C284.22 226.515 284.806 226.866 285.384 227.225C285.946 227.576 286.486 227.966 287.017 228.364C285.673 227.352 287.568 228.893 287.907 229.213C288.369 229.653 288.805 230.116 289.232 230.595C289.444 230.83 289.645 231.073 289.845 231.32C290.577 232.208 289.098 230.313 289.776 231.236C290.581 232.328 291.263 233.501 291.871 234.71C292.01 234.987 292.141 235.273 292.268 235.555C292.742 236.597 291.787 234.358 292.21 235.424C292.441 236.003 292.638 236.593 292.827 237.188C293.235 238.481 293.524 239.809 293.736 241.144C293.917 242.294 293.574 239.805 293.709 240.963C293.744 241.275 293.77 241.588 293.794 241.901C293.844 242.53 293.863 243.159 293.875 243.788C293.898 245.155 293.801 246.521 293.636 247.88C293.863 246.015 293.551 248.2 293.466 248.636C293.343 249.258 293.193 249.872 293.027 250.482C292.865 251.091 292.673 251.694 292.472 252.292C292.372 252.593 292.26 252.886 292.153 253.184C291.629 254.585 292.472 252.493 292.091 253.361C291.586 254.519 290.985 255.631 290.33 256.704C290.003 257.24 289.645 257.761 289.279 258.275C289.086 258.549 288.373 259.437 289.352 258.194C289.09 258.526 288.816 258.842 288.539 259.163C287.703 260.12 286.778 260.996 285.808 261.814C285.553 262.027 284.633 262.714 285.885 261.768C285.627 261.961 285.361 262.146 285.099 262.332C284.475 262.764 283.82 263.154 283.157 263.528C282.579 263.853 281.982 264.142 281.377 264.416C280.283 264.914 282.537 263.953 281.412 264.393C281.092 264.516 280.773 264.628 280.449 264.74C278.997 265.238 277.487 265.57 275.973 265.806C277.629 265.551 275.21 265.848 274.782 265.875C274 265.922 273.218 265.922 272.436 265.91C271.623 265.894 270.81 265.837 270.001 265.763C269.72 265.736 268.36 265.543 269.847 265.759C269.339 265.686 268.83 265.59 268.326 265.489C266.881 265.204 265.471 264.775 264.092 264.258C262.921 263.818 265.201 264.756 264.069 264.258C263.753 264.119 263.441 263.964 263.129 263.81C262.416 263.459 261.727 263.057 261.052 262.641C260.486 262.289 259.943 261.903 259.407 261.506C260.756 262.509 259.034 261.154 258.726 260.876C258.244 260.44 257.789 259.977 257.346 259.506C257.031 259.17 255.49 257.252 256.53 258.618C255.755 257.599 255.077 256.511 254.461 255.388C254.153 254.828 253.875 254.253 253.61 253.674C253.124 252.616 254.087 254.859 253.648 253.778C253.486 253.384 253.344 252.983 253.201 252.581C252.774 251.377 252.45 250.134 252.184 248.883C252.092 248.451 251.761 246.247 252.007 248.1C251.907 247.359 251.849 246.614 251.803 245.869C251.726 244.591 251.753 243.313 251.838 242.04C251.868 241.596 252.153 239.396 251.892 241.248C251.996 240.515 252.142 239.789 252.3 239.064C252.573 237.828 252.947 236.62 253.382 235.435C253.502 235.115 253.941 234.053 253.309 235.547C253.432 235.258 253.563 234.972 253.694 234.69C254.003 234.026 254.349 233.386 254.711 232.749C255.178 231.934 255.705 231.158 256.26 230.402C255.239 231.788 256.353 230.321 256.607 230.027C256.95 229.634 257.316 229.255 257.685 228.885C258.055 228.51 258.448 228.159 258.845 227.812C259.007 227.673 259.169 227.538 259.334 227.403C260.228 226.665 258.329 228.148 259.265 227.464C260.139 226.824 261.076 226.264 262.035 225.758C262.428 225.55 262.832 225.361 263.237 225.179C261.707 225.878 263.503 225.094 263.861 224.967C264.978 224.569 266.134 224.28 267.297 224.044C267.54 223.998 267.783 223.956 268.025 223.913C269.316 223.689 266.777 224.052 268.095 223.898C268.738 223.82 269.389 223.782 270.036 223.747C271.411 223.678 272.791 223.728 274.166 223.828C277.078 224.044 279.517 221.227 279.517 218.467C279.505 215.375 277.063 213.317 274.158 213.101Z" fill="#8BD092"/>
<path fill-rule="evenodd" clip-rule="evenodd" d="M1000.16 272.375C1019.08 240.849 1052.74 259.071 1074.2 276.364C1051.07 298.564 1013.89 293.297 1000.16 272.375Z" fill="#8BD092"/>
<path d="M1000.73 274.429C1002.2 273.88 1003.7 273.42 1005.23 273.035C1005.02 273.084 1004.82 273.136 1004.62 273.186C1008.57 272.196 1012.62 271.707 1016.68 271.563C1017.87 271.521 1019.06 271.508 1020.25 271.523C1020.03 271.52 1019.83 271.517 1019.61 271.515C1022.73 271.555 1025.84 271.779 1028.94 272.161C1032.05 272.545 1035.14 273.088 1038.2 273.781C1039.89 274.165 1041.57 274.594 1043.24 275.071C1043.04 275.012 1042.83 274.951 1042.62 274.892C1045.53 275.724 1048.4 276.695 1051.21 277.826C1051.8 278.062 1052.47 278.095 1053.07 277.861C1053.63 277.643 1054.19 277.136 1054.41 276.57C1054.64 275.983 1054.71 275.301 1054.45 274.709C1054.19 274.128 1053.76 273.61 1053.16 273.367C1049.74 271.994 1046.24 270.868 1042.69 269.908C1039.21 268.966 1035.67 268.223 1032.1 267.684C1028.5 267.14 1024.87 266.805 1021.22 266.716C1017.55 266.627 1013.86 266.737 1010.21 267.204C1006.77 267.645 1003.35 268.386 1000.07 269.503C999.695 269.63 999.326 269.763 998.958 269.899C998.381 270.115 997.862 270.628 997.617 271.19C997.378 271.737 997.336 272.495 997.582 273.051C997.837 273.627 998.268 274.159 998.873 274.393C999.478 274.626 1000.11 274.66 1000.73 274.429Z" fill="#3DB149"/>
<path d="M978.99 290.526C976.148 292.423 978.616 297.174 981.477 295.26C998.142 284.116 1007.38 265.372 1015.24 247.524C1016.95 243.633 1018.64 241.58 1016.04 238.099C1011.44 231.909 1002.1 230.848 995.118 230.279C993.734 230.166 992.307 231.468 992.368 232.874C993.24 254.248 990.855 273.712 977.96 291.468C975.931 294.267 980.483 297.082 982.503 294.304" fill="#343434"/>
<path fill-rule="evenodd" clip-rule="evenodd" d="M982.136 294.919C978.782 251.108 927.061 238.121 907.168 279.438C886.518 322.317 893.495 350.868 928.264 376.198C959.521 398.971 994.548 400.188 1024.33 362.607C1059.05 318.794 1019.41 278.395 982.136 294.919Z" fill="#EF4C41"/>
<path d="M1001.02 315.952C1002.93 317.114 1004.7 318.471 1006.25 320.085C1005.84 319.65 1005.43 319.214 1005.01 318.779C1006.19 320.035 1007.22 321.415 1008.05 322.928C1007.76 322.408 1007.48 321.89 1007.19 321.37C1007.91 322.705 1008.45 324.11 1008.83 325.575C1008.68 325 1008.54 324.426 1008.4 323.852C1008.79 325.459 1008.97 327.097 1008.96 328.751C1008.97 328.151 1008.98 327.55 1008.99 326.949C1008.96 329.123 1008.61 331.264 1008.02 333.355C1008.19 332.757 1008.36 332.16 1008.53 331.562C1007.69 334.487 1006.41 337.249 1004.85 339.86C1003.96 341.342 1004.15 343.647 1004.75 345.176C1005.42 346.885 1006.75 348.273 1008.44 349.007C1010.12 349.742 1012.04 349.779 1013.75 349.108C1015.63 348.37 1016.59 347.086 1017.58 345.42C1021.37 339.077 1023.63 331.37 1022.55 323.955C1021.39 316.092 1016.51 309.248 1009.76 305.15C1009.23 304.828 1008.7 304.505 1008.17 304.183C1007.02 303.684 1005.82 303.507 1004.58 303.65C1002.79 303.863 1001.12 304.777 999.987 306.178C998.817 307.624 998.267 309.518 998.487 311.365C998.675 312.953 999.574 315.078 1001.02 315.952Z" fill="white"/>
<path fill-rule="evenodd" clip-rule="evenodd" d="M832.464 329.344C847.873 363.613 854.108 375.92 860.07 389.101C866.033 402.289 870.176 410.018 884.197 402.252C896.5 395.436 892.588 388.788 884.49 376.132C876.392 363.469 867.199 348.173 848.079 321.201" fill="#B3DA4C"/>
<path fill-rule="evenodd" clip-rule="evenodd" d="M804.744 252.287C742.717 276.994 787.568 365.466 846.326 329.071C894.627 299.158 851.185 229.676 804.744 252.287Z" fill="#B3DA4C"/>
<path fill-rule="evenodd" clip-rule="evenodd" d="M808.72 262.288C762.175 280.773 796.047 347.489 840.113 320.2C876.328 297.772 843.561 245.354 808.72 262.288Z" fill="white"/>
<path d="M825.267 267.984C822.715 281.569 818.27 294.689 814.387 307.929C813.412 311.252 812.475 314.586 811.607 317.937C811.105 319.879 814.124 320.638 814.627 318.692C818.096 305.294 822.71 292.222 826.072 278.795C826.905 275.465 827.653 272.112 828.287 268.739C828.443 267.908 828.015 267.067 827.155 266.852C826.367 266.656 825.423 267.149 825.267 267.984Z" fill="#989898"/>
<path d="M836.65 275.882C833.995 287.826 831.078 299.717 827.708 311.481C827.475 312.295 828.038 313.169 828.84 313.368C829.683 313.578 830.494 313.052 830.727 312.236C834.097 300.472 837.015 288.581 839.67 276.637C839.854 275.81 839.376 274.959 838.537 274.749C837.732 274.549 836.835 275.053 836.65 275.882Z" fill="#989898"/>
<path d="M811.067 272.834C808.726 284.258 805.382 295.402 801.93 306.529C801.679 307.338 802.275 308.22 803.062 308.416C803.918 308.629 804.698 308.094 804.95 307.284C808.402 296.157 811.746 285.013 814.087 273.589C814.257 272.76 813.804 271.913 812.955 271.702C812.158 271.503 811.238 272.003 811.067 272.834Z" fill="#989898"/>
<path d="M858.193 385.557C866.574 382.313 874.549 378.099 882.165 373.346C882.885 372.897 883.163 371.966 882.726 371.218C882.308 370.502 881.317 370.208 880.598 370.657C873.217 375.264 865.492 379.412 857.369 382.556C856.578 382.862 856.04 383.589 856.28 384.468C856.488 385.223 857.402 385.863 858.193 385.557Z" fill="#343434"/>
<path d="M861.99 394.717C866.603 393.178 871.146 391.407 875.469 389.169C879.638 387.009 883.548 384.394 887.348 381.644C888.034 381.147 888.368 380.301 887.909 379.515C887.514 378.838 886.468 378.457 885.78 378.955C882.07 381.639 878.258 384.184 874.204 386.321C869.975 388.552 865.719 390.197 861.167 391.716C860.363 391.984 859.846 392.777 860.078 393.628C860.292 394.412 861.186 394.986 861.99 394.717Z" fill="#343434"/>
<path d="M770.291 357.49C765.076 352.281 759.861 347.072 754.713 341.797C752.361 339.387 750.024 336.96 747.714 334.509C745.787 332.464 744.033 330.212 741.43 329.001C737.414 327.134 732.783 328.765 730.109 332.081C728.816 333.683 728.038 335.747 727.95 337.802C727.847 340.21 728.714 342.487 730.148 344.395C731.145 345.721 732.425 346.861 733.573 348.053C734.829 349.358 736.082 350.665 737.332 351.976C739.64 354.394 741.939 356.823 744.23 359.257C748.09 363.357 751.927 367.48 755.782 371.586C760.971 377.112 766.127 382.827 771.982 387.668C775.066 390.219 778.806 392.876 783.012 392.555C786.846 392.263 789.951 389.07 792.21 386.255C794.43 383.488 795.266 380.087 794.269 376.65C793.639 374.477 792.551 372.515 791.331 370.624C789.748 368.172 787.9 365.892 786.006 363.676C780.02 356.669 773.442 350.158 766.962 343.616C762.311 338.921 757.647 334.241 752.995 329.548C748.059 324.565 743.247 319.308 737.674 315.016C733.871 312.087 728.921 309.233 723.955 310.644C721.544 311.328 719.509 312.917 717.61 314.498C715.869 315.947 714.233 317.619 713.084 319.584C711.956 321.511 711.329 323.689 711.424 325.93C711.542 328.702 712.55 331.306 713.939 333.685C715.581 336.498 717.716 339.016 719.775 341.528C721.444 343.565 723.165 345.562 724.934 347.513C729.749 352.821 734.913 357.805 739.976 362.874C740.47 363.367 741.211 363.511 741.782 363.034C742.282 362.616 742.436 361.725 741.942 361.231C737.663 356.946 733.326 352.715 729.165 348.314C725.43 344.363 721.927 340.213 718.581 335.931C716.764 333.606 715.045 330.961 714.319 328.148C713.772 326.031 713.861 324.133 714.625 322.21C715.009 321.244 715.398 320.618 716.081 319.701C716.777 318.767 717.34 318.188 718.198 317.39C719.076 316.574 720.015 315.827 720.977 315.113C721.948 314.391 722.739 313.83 723.871 313.362C725.654 312.627 727.708 312.725 729.577 313.323C732.028 314.108 734.133 315.531 736.191 317.104C738.768 319.073 741.133 321.306 743.448 323.571C746.114 326.178 748.715 328.853 751.34 331.503C759.631 339.87 768.017 348.151 776.149 356.674C778.89 359.546 781.598 362.453 784.175 365.475C785.195 366.672 786.192 367.889 787.147 369.139C787.569 369.689 787.98 370.247 788.38 370.813C788.56 371.067 788.738 371.324 788.913 371.582C788.997 371.708 789.081 371.834 789.164 371.959C789.224 372.05 789.54 372.54 789.308 372.178C789.905 373.11 790.457 374.073 790.936 375.072C791.145 375.509 791.335 375.955 791.507 376.407C791.585 376.61 791.657 376.817 791.726 377.024C791.567 376.543 791.791 377.255 791.832 377.41C791.939 377.808 792.022 378.213 792.083 378.62C792.11 378.806 792.132 378.994 792.147 379.182C792.155 379.274 792.161 379.367 792.167 379.459C792.178 379.67 792.152 379.089 792.159 379.299C792.162 379.359 792.162 379.42 792.162 379.481C792.167 379.854 792.145 380.227 792.099 380.596C792.077 380.771 792.048 380.946 792.014 381.119C791.948 381.462 792.039 381.025 792.025 381.085C792.002 381.186 791.976 381.286 791.949 381.385C791.85 381.744 791.725 382.095 791.579 382.439C791.508 382.607 791.43 382.773 791.35 382.937C791.297 383.042 791.118 383.376 791.356 382.933C791.304 383.03 791.249 383.126 791.195 383.22C790.762 383.97 790.235 384.654 789.674 385.311C789.497 385.519 789.317 385.724 789.135 385.928C789.046 386.026 788.958 386.124 788.868 386.222C788.699 386.407 789.083 385.99 788.914 386.173C788.855 386.235 788.796 386.298 788.738 386.36C788.387 386.728 788.026 387.084 787.652 387.43C787.31 387.745 786.954 388.048 786.586 388.333C786.42 388.462 786.251 388.587 786.079 388.708C785.996 388.767 785.911 388.824 785.826 388.881C785.516 389.089 786.081 388.726 785.766 388.92C785.427 389.129 785.076 389.317 784.715 389.483C784.548 389.559 784.379 389.628 784.209 389.693C784.125 389.725 784.04 389.755 783.955 389.784C783.715 389.866 784.314 389.678 783.931 389.789C783.581 389.891 783.221 389.962 782.859 390.008C782.686 390.03 782.511 390.044 782.336 390.053C782.905 390.024 782.223 390.046 782.062 390.04C781.683 390.026 781.306 389.98 780.933 389.912C780.841 389.894 780.749 389.876 780.657 389.855C781.168 389.966 780.785 389.883 780.666 389.852C780.459 389.799 780.255 389.737 780.052 389.671C779.637 389.536 779.231 389.371 778.834 389.191C778.63 389.099 778.428 389.001 778.229 388.899C778.178 388.873 778.127 388.846 778.075 388.819C777.867 388.711 778.37 388.978 778.162 388.865C778.039 388.8 777.918 388.731 777.798 388.663C775.673 387.457 773.762 385.883 771.936 384.272C771.667 384.035 771.401 383.797 771.135 383.555C770.998 383.431 770.862 383.306 770.726 383.182C770.683 383.142 770.448 382.925 770.691 383.15C770.598 383.064 770.505 382.977 770.412 382.89C769.803 382.322 769.201 381.746 768.604 381.166C767.259 379.858 765.939 378.523 764.631 377.177C757.202 369.542 750.033 361.656 742.709 353.923C740.277 351.356 737.836 348.798 735.384 346.251C734.25 345.072 733.01 343.945 732.025 342.634C731.701 342.202 731.514 341.881 731.251 341.352C730.985 340.816 730.836 340.38 730.729 339.969C730.606 339.495 730.537 339.008 730.5 338.52C730.522 338.806 730.498 338.416 730.498 338.385C730.496 338.267 730.5 338.148 730.503 338.029C730.511 337.756 730.538 337.483 730.574 337.21C730.589 337.095 730.608 336.98 730.629 336.866C730.636 336.831 730.715 336.453 730.648 336.746C730.7 336.52 730.765 336.299 730.836 336.079C730.905 335.859 730.989 335.645 731.075 335.431C731.118 335.325 731.166 335.221 731.213 335.116C731.233 335.073 731.447 334.651 731.315 334.897C731.53 334.494 731.785 334.112 732.058 333.745C732.442 333.232 732.495 333.188 732.904 332.802C733.692 332.058 734.159 331.767 735.071 331.353C735.276 331.259 735.487 331.178 735.7 331.102C736.052 330.976 735.455 331.172 735.813 331.065C735.921 331.033 736.032 331.004 736.141 330.977C736.361 330.921 736.584 330.88 736.807 330.843C736.92 330.825 737.032 330.811 737.145 330.798C737.197 330.791 737.678 330.757 737.371 330.77C737.836 330.751 738.301 330.783 738.761 330.848C738.878 330.864 738.995 330.886 739.111 330.908C739.497 330.981 738.859 330.842 739.243 330.94C739.522 331.011 739.794 331.103 740.063 331.203C740.97 331.542 741.871 332.126 742.613 332.822C743.719 333.86 744.707 335.046 745.746 336.15C750.526 341.226 755.421 346.192 760.338 351.136C762.993 353.807 765.659 356.469 768.323 359.13C768.816 359.623 769.558 359.768 770.128 359.291C770.631 358.876 770.786 357.984 770.291 357.49Z" fill="#8BD092"/>
<path d="M1009.96 22.9555C1005.81 28.0739 1001.67 33.1923 997.461 38.257C995.538 40.5711 993.598 42.8731 991.635 45.1539C989.997 47.0564 988.159 48.8248 987.325 51.25C986.038 54.9924 987.918 58.9562 991.113 61.0244C992.657 62.0244 994.564 62.5239 996.398 62.4111C998.548 62.279 1000.49 61.2965 1002.05 59.8447C1003.14 58.8362 1004.03 57.5926 1004.99 56.4614C1006.03 55.2237 1007.07 53.9891 1008.12 52.7565C1010.06 50.4804 1012 48.2123 1013.95 45.9503C1017.24 42.139 1020.54 38.3459 1023.83 34.5386C1028.26 29.4138 1032.86 24.3008 1036.62 18.6481C1038.6 15.6703 1040.61 12.1001 1039.94 8.39207C1039.32 5.01192 1036.19 2.54981 1033.48 0.803983C1030.82 -0.911639 1027.72 -1.33814 1024.76 -0.132758C1022.88 0.62905 1021.24 1.77804 1019.67 3.03823C1017.64 4.67258 1015.79 6.52688 1013.99 8.4153C1008.32 14.386 1003.15 20.8367 997.939 27.2035C994.199 31.7723 990.474 36.3523 986.735 40.9221C982.766 45.7718 978.542 50.5368 975.246 55.8875C972.996 59.5396 970.921 64.2034 972.636 68.4852C973.468 70.5641 975.069 72.225 976.651 73.7655C978.1 75.1782 979.738 76.4767 981.591 77.3151C983.408 78.1377 985.402 78.4925 987.385 78.2001C989.837 77.8376 992.057 76.6993 994.042 75.244C996.389 73.5234 998.429 71.392 1000.47 69.3297C1002.12 67.6568 1003.74 65.9423 1005.31 64.1883C1009.58 59.4164 1013.53 54.364 1017.56 49.3937C1017.95 48.9093 1018.01 48.2373 1017.54 47.7745C1017.12 47.3686 1016.31 47.315 1015.92 47.7994C1012.51 52.0003 1009.15 56.2478 1005.63 60.3546C1002.46 64.0404 999.101 67.5395 995.606 70.9108C993.709 72.741 991.519 74.5149 989.087 75.4214C987.256 76.1042 985.561 76.2014 983.781 75.701C982.887 75.4498 982.295 75.1621 981.417 74.6406C980.522 74.109 979.954 73.6621 979.166 72.9742C978.359 72.2702 977.608 71.5044 976.884 70.7166C976.153 69.9207 975.58 69.2697 975.06 68.3076C974.24 66.7914 974.137 64.957 974.494 63.2402C974.964 60.9897 976.033 58.9866 977.239 57.0114C978.749 54.5387 980.514 52.2291 982.312 49.9612C984.381 47.35 986.516 44.7904 988.627 42.2116C995.291 34.0658 1001.87 25.844 1008.69 17.8257C1010.99 15.1234 1013.32 12.4463 1015.76 9.87567C1016.73 8.85768 1017.72 7.85896 1018.74 6.89377C1019.19 6.46829 1019.65 6.05092 1020.12 5.64272C1020.33 5.45909 1020.54 5.27749 1020.75 5.09792C1020.85 5.01076 1020.96 4.92463 1021.06 4.83953C1021.14 4.77754 1021.54 4.4517 1021.24 4.69136C1022.02 4.07431 1022.82 3.49393 1023.66 2.97578C1024.03 2.7495 1024.41 2.53852 1024.8 2.34393C1024.97 2.25568 1025.15 2.17251 1025.33 2.09245C1024.91 2.2782 1025.52 2.01314 1025.66 1.96159C1026 1.82949 1026.35 1.71893 1026.71 1.62686C1026.87 1.58517 1027.04 1.54858 1027.2 1.51717C1027.28 1.50149 1027.37 1.48786 1027.45 1.47424C1027.63 1.44457 1027.12 1.52155 1027.31 1.49601C1027.36 1.48797 1027.41 1.48198 1027.47 1.476C1027.8 1.43688 1028.13 1.42246 1028.46 1.42868C1028.62 1.43141 1028.78 1.44136 1028.94 1.45544C1029.25 1.4826 1028.85 1.44229 1028.91 1.44866C1029 1.45962 1029.09 1.4737 1029.18 1.4888C1029.51 1.54353 1029.83 1.62204 1030.15 1.71919C1030.31 1.7673 1030.46 1.8206 1030.61 1.877C1030.71 1.91363 1031.03 2.04182 1030.61 1.87193C1030.7 1.90867 1030.79 1.94851 1030.88 1.98838C1031.59 2.30327 1032.24 2.70757 1032.88 3.14519C1033.08 3.28333 1033.28 3.42456 1033.48 3.56687C1033.57 3.63653 1033.67 3.70621 1033.76 3.7769C1033.94 3.9102 1033.54 3.6072 1033.72 3.74054C1033.78 3.78703 1033.84 3.83349 1033.9 3.87998C1034.26 4.15691 1034.61 4.44535 1034.95 4.74525C1035.26 5.01981 1035.56 5.30792 1035.85 5.60863C1035.98 5.74374 1036.11 5.88301 1036.23 6.0244C1036.29 6.09255 1036.35 6.16281 1036.41 6.23304C1036.62 6.48954 1036.25 6.02107 1036.45 6.28291C1036.67 6.56409 1036.87 6.85897 1037.05 7.16443C1037.13 7.3054 1037.21 7.44957 1037.28 7.59483C1037.32 7.66643 1037.35 7.73912 1037.39 7.81179C1037.48 8.01754 1037.26 7.50238 1037.39 7.83227C1037.52 8.1345 1037.61 8.44747 1037.69 8.76487C1037.72 8.9169 1037.75 9.07109 1037.78 9.22535C1037.7 8.72245 1037.78 9.3263 1037.79 9.47048C1037.81 9.80827 1037.81 10.1475 1037.78 10.485C1037.77 10.5686 1037.77 10.6523 1037.76 10.7359C1037.81 10.2712 1037.77 10.6192 1037.75 10.7277C1037.72 10.9168 1037.69 11.104 1037.65 11.2901C1037.57 11.6718 1037.46 12.0477 1037.34 12.4176C1037.27 12.6073 1037.2 12.796 1037.13 12.9826C1037.11 13.0303 1037.09 13.078 1037.08 13.1268C1037 13.3218 1037.19 12.8498 1037.11 13.0448C1037.06 13.16 1037.01 13.2742 1036.96 13.3873C1036.09 15.3873 1034.87 17.2318 1033.61 19.0048C1033.42 19.2654 1033.23 19.524 1033.04 19.7826C1032.94 19.916 1032.85 20.0485 1032.75 20.1809C1032.72 20.2226 1032.55 20.4521 1032.72 20.2153C1032.66 20.3061 1032.59 20.3968 1032.52 20.4875C1032.07 21.081 1031.61 21.6695 1031.15 22.2539C1030.12 23.5709 1029.05 24.8676 1027.98 26.1553C1021.89 33.4665 1015.54 40.5703 1009.35 47.7975C1007.3 50.1971 1005.25 52.6038 1003.22 55.0196C1002.27 56.1372 1001.39 57.3437 1000.31 58.3406C999.96 58.6687 999.692 58.8646 999.246 59.1477C998.794 59.434 998.421 59.6068 998.066 59.7401C997.656 59.8938 997.229 60.0004 996.799 60.0782C997.052 60.032 996.707 60.0899 996.68 60.0924C996.575 60.1053 996.469 60.1131 996.363 60.1209C996.119 60.1391 995.874 60.1408 995.629 60.1343C995.525 60.1318 995.421 60.1251 995.317 60.1175C995.285 60.1149 994.943 60.0789 995.209 60.1119C995.004 60.0862 994.801 60.0492 994.599 60.0069C994.397 59.9657 994.199 59.911 994.001 59.8542C993.903 59.8258 993.806 59.7934 993.708 59.7608C993.668 59.747 993.273 59.5964 993.504 59.6908C993.126 59.5368 992.762 59.3465 992.411 59.1375C991.919 58.844 991.875 58.8014 991.494 58.4733C990.761 57.8423 990.458 57.4542 990.005 56.6829C989.903 56.5092 989.811 56.3291 989.724 56.147C989.579 55.8461 989.809 56.3581 989.68 56.0497C989.642 55.9565 989.606 55.8612 989.572 55.7668C989.502 55.5762 989.444 55.3822 989.391 55.1872C989.365 55.0886 989.342 54.99 989.319 54.8914C989.308 54.8452 989.234 54.4216 989.274 54.6931C989.213 54.2817 989.199 53.8654 989.214 53.4507C989.217 53.3445 989.226 53.2392 989.235 53.134C989.263 52.784 989.199 53.3634 989.25 53.0131C989.288 52.7589 989.345 52.5085 989.409 52.2601C989.626 51.4228 990.06 50.5677 990.61 49.8438C991.429 48.7642 992.392 47.7762 993.276 46.7502C997.343 42.031 1001.3 37.2196 1005.24 32.391C1007.36 29.783 1009.48 27.1669 1011.6 24.5519C1011.99 24.0675 1012.05 23.3955 1011.57 22.9327C1011.16 22.5247 1010.35 22.4701 1009.96 22.9555Z" fill="#EF4C41"/>
<path d="M873.531 226.888C876.654 226.888 879.258 224.282 879.258 221.161C879.258 218.039 876.652 215.434 873.531 215.434C870.41 215.434 867.804 218.039 867.804 221.161C867.804 224.282 870.41 226.888 873.531 226.888Z" fill="#989898"/>
<path d="M834.541 146.041C831.785 145.836 828.92 146.383 826.577 147.9C824.361 149.334 822.846 151.442 821.886 153.874C820.061 158.501 821.144 164.042 824.32 167.789C828.019 172.154 834.642 172.998 839.693 170.777C844.283 168.76 846.883 163.685 846.962 158.83C847.012 155.66 845.911 152.596 843.87 150.186C841.561 147.458 838.01 146.237 834.541 146.041C833.352 145.975 832.356 147.088 832.356 148.231C832.356 149.475 833.352 150.353 834.541 150.42C834.886 150.439 835.229 150.469 835.57 150.509C834.961 150.438 835.954 150.584 836.119 150.619C836.766 150.753 837.4 150.95 838.013 151.193C837.4 150.95 838.254 151.316 838.403 151.393C838.65 151.519 838.889 151.663 839.125 151.809C839.355 151.953 839.575 152.112 839.793 152.274C839.243 151.861 840.017 152.49 840.156 152.621C840.345 152.801 840.523 152.99 840.697 153.185C840.784 153.282 840.865 153.381 840.947 153.482C841.246 153.844 840.642 153.07 840.919 153.447C841.248 153.893 841.526 154.372 841.775 154.866C841.831 154.979 841.885 155.096 841.937 155.211C842.13 155.637 841.74 154.722 841.913 155.157C842.008 155.394 842.088 155.635 842.165 155.878C842.332 156.406 842.45 156.948 842.536 157.494C842.61 157.963 842.47 156.947 842.525 157.419C842.539 157.547 842.55 157.675 842.56 157.802C842.58 158.059 842.588 158.316 842.593 158.573C842.602 159.131 842.563 159.689 842.495 160.244C842.588 159.483 842.461 160.375 842.426 160.553C842.376 160.807 842.314 161.058 842.247 161.307C842.181 161.556 842.102 161.802 842.02 162.046C841.979 162.169 841.934 162.289 841.89 162.41C841.676 162.982 842.02 162.128 841.864 162.483C841.658 162.956 841.413 163.41 841.146 163.848C841.012 164.067 840.865 164.28 840.716 164.489C840.637 164.601 840.346 164.964 840.746 164.456C840.639 164.592 840.527 164.721 840.414 164.852C840.073 165.243 839.695 165.601 839.299 165.935C839.195 166.022 838.819 166.302 839.33 165.916C839.225 165.995 839.116 166.07 839.009 166.146C838.754 166.323 838.487 166.482 838.216 166.635C837.98 166.767 837.736 166.885 837.489 166.997C837.043 167.201 837.963 166.808 837.503 166.988C837.373 167.038 837.242 167.084 837.11 167.13C836.517 167.333 835.9 167.469 835.282 167.565C835.959 167.461 834.971 167.582 834.796 167.593C834.477 167.612 834.157 167.612 833.838 167.607C833.506 167.601 833.174 167.577 832.844 167.547C832.729 167.536 832.173 167.458 832.781 167.546C832.573 167.516 832.365 167.476 832.159 167.436C831.569 167.319 830.993 167.144 830.43 166.933C829.952 166.753 830.883 167.136 830.421 166.933C830.292 166.876 830.164 166.813 830.037 166.75C829.746 166.606 829.464 166.442 829.189 166.272C828.958 166.129 828.736 165.971 828.517 165.809C829.068 166.219 828.365 165.665 828.239 165.552C828.042 165.374 827.856 165.184 827.676 164.992C827.547 164.855 826.917 164.072 827.342 164.63C827.026 164.213 826.749 163.769 826.497 163.31C826.371 163.082 826.258 162.847 826.15 162.61C825.951 162.178 826.345 163.094 826.165 162.653C826.099 162.492 826.041 162.328 825.983 162.164C825.808 161.672 825.676 161.165 825.567 160.654C825.53 160.478 825.394 159.577 825.495 160.334C825.454 160.031 825.431 159.727 825.412 159.423C825.38 158.901 825.391 158.379 825.426 157.859C825.438 157.678 825.555 156.779 825.448 157.536C825.49 157.237 825.55 156.94 825.615 156.644C825.726 156.139 825.879 155.646 826.057 155.162C826.105 155.031 826.285 154.598 826.027 155.208C826.077 155.09 826.131 154.973 826.184 154.858C826.31 154.587 826.452 154.325 826.599 154.065C826.79 153.732 827.005 153.415 827.232 153.107C826.815 153.672 827.27 153.073 827.374 152.954C827.514 152.793 827.663 152.638 827.814 152.487C827.965 152.334 828.126 152.191 828.288 152.049C828.354 151.992 828.42 151.937 828.487 151.882C828.852 151.581 828.077 152.186 828.459 151.907C828.816 151.645 829.198 151.417 829.59 151.21C829.751 151.125 829.916 151.048 830.081 150.974C829.456 151.259 830.19 150.939 830.336 150.887C830.792 150.725 831.264 150.606 831.739 150.51C831.838 150.491 831.937 150.474 832.037 150.457C832.564 150.365 831.527 150.513 832.065 150.45C832.328 150.419 832.593 150.403 832.858 150.389C833.419 150.361 833.983 150.381 834.544 150.422C835.734 150.51 836.729 149.36 836.729 148.232C836.725 146.97 835.727 146.13 834.541 146.041Z" fill="#B3DA4C"/>
<path fill-rule="evenodd" clip-rule="evenodd" d="M903.777 77.311C902.467 82.4636 897.995 82.7614 893.963 83.9335C896.221 87.03 897.545 90.5859 897.004 94.5835C896.396 99.1253 889.822 99.7561 885.276 100.114C886.233 107.447 883.976 114.9 877.474 116.407C924.666 146.52 1000.32 188.655 1066.08 228.915C1079.64 217.677 1090.94 198.867 1093.06 180.831C1059.96 161.117 946.507 94.0061 904.125 70.6649C904.453 72.7311 904.386 74.9114 903.777 77.311Z" fill="#FFA446"/>
<path fill-rule="evenodd" clip-rule="evenodd" d="M895.572 96.1069C892.3 101.086 889.116 101.996 883.964 101.791C931.62 130.743 1010.57 176.026 1078.39 216.398C1082.08 214.858 1089.65 203.516 1088.34 197.455C1054.49 177.515 935.073 107.387 895.209 84.6824C898.294 88.3341 898.557 91.5681 895.572 96.1069Z" fill="#B3DA4C"/>
<path fill-rule="evenodd" clip-rule="evenodd" d="M877.483 115.896C883.758 115.761 888.192 110.204 886.011 104.289C885.096 101.811 887.816 99.9396 889.968 100.338C894.734 101.219 901.434 94.5611 897.179 89.6111C895.94 88.168 895.873 85.4221 897.906 84.5343C903.198 82.2278 907.345 77.1402 905.108 71.1986C902.898 69.9815 900.87 68.8724 899.045 67.8845C887.286 65.4318 855.136 61.9503 835.511 60.8241C847.811 80.0869 872.974 113.511 872.974 113.511C874.228 114.322 875.514 115.148 876.815 115.976C877.023 115.931 877.244 115.902 877.483 115.896Z" fill="white"/>
<path fill-rule="evenodd" clip-rule="evenodd" d="M857.113 62.0359C836.062 58.5427 832.301 56.8924 831.781 58.656C830.922 60.0649 834.093 62.6642 846.926 78.5586C852.894 75.6925 856.388 68.8274 857.113 62.0359Z" fill="#343434"/>
<path d="M885.23 102.606C897.086 110.054 909.067 117.302 921.06 124.528C936.741 133.977 952.471 143.345 968.221 152.677C984.663 162.418 1001.13 172.116 1017.62 181.773C1031.78 190.065 1045.96 198.331 1060.17 206.537C1064.94 209.295 1069.72 212.045 1074.51 214.78C1076.42 215.872 1078.26 212.976 1076.34 211.876C1064.11 204.894 1051.93 197.824 1039.77 190.738C1023.92 181.507 1008.1 172.23 992.296 162.919C975.843 153.224 959.412 143.489 943.016 133.697C928.979 125.313 914.961 116.895 901.02 108.352C896.353 105.491 891.693 102.616 887.058 99.7031C885.188 98.5269 883.354 101.427 885.23 102.606Z" fill="#343434"/>
<path d="M893.826 87.2519C906.453 94.5436 919.091 101.82 931.722 109.108C947.936 118.464 964.141 127.833 980.328 137.234C997.036 146.938 1013.73 156.675 1030.37 166.485C1044.49 174.807 1058.59 183.17 1072.58 191.713C1076.04 193.824 1079.49 195.947 1082.92 198.096C1084.79 199.268 1086.63 196.367 1084.75 195.192C1072.28 187.392 1059.65 179.849 1047 172.338C1030.87 162.753 1014.67 153.267 998.459 143.815C981.788 134.098 965.092 124.424 948.384 114.769C934.279 106.618 920.165 98.4841 906.052 90.3467C902.586 88.3478 899.121 86.3497 895.656 84.3482C893.744 83.2462 891.904 86.1425 893.826 87.2519Z" fill="#343434"/>
<path d="M871.653 115.678C875.363 118.152 880.341 119.293 884.288 116.657C887.691 114.387 889.498 110.281 889.17 106.228C888.891 102.787 887.322 99.6356 884.792 97.2832C884.066 98.1525 883.339 99.0218 882.611 99.892C886.006 102.543 890.596 104.198 894.71 102.187C897.995 100.581 899.867 96.9189 899.897 93.351C899.935 88.5804 896.886 84.5081 892.764 82.3534C892.29 83.3837 891.814 84.4131 891.34 85.4435C895.755 87.0842 900.908 86.8243 904.575 83.6412C906.086 82.3301 907.207 80.5072 907.695 78.5691C908.252 76.3612 907.997 74.1436 907.204 72.0326C906.282 69.5774 904.449 67.588 902.454 65.9497C901.73 65.3546 900.539 65.7735 900.088 66.4875C899.543 67.352 899.904 68.2602 900.626 68.8535C901.053 69.2034 900.371 68.6312 900.779 68.9864C900.901 69.0925 901.019 69.2019 901.139 69.3114C901.369 69.523 901.591 69.7455 901.807 69.9713C902.248 70.4285 902.652 70.9208 903.026 71.4344C903.304 71.8161 902.82 71.1243 903.078 71.5129C903.152 71.6255 903.223 71.7415 903.295 71.8567C903.433 72.0816 903.559 72.3147 903.681 72.5476C903.799 72.7742 903.905 73.0072 904.006 73.2408C904.055 73.355 904.102 73.4717 904.146 73.5882C904.212 73.767 904.205 73.7421 904.123 73.5155C904.15 73.5919 904.175 73.6691 904.198 73.7462C904.342 74.1952 904.445 74.6572 904.519 75.1231C904.536 75.2358 904.551 75.3501 904.564 75.4635C904.611 75.86 904.541 75.0812 904.567 75.4776C904.585 75.7372 904.585 75.9978 904.578 76.2581C904.573 76.4773 904.554 76.6968 904.532 76.9144C904.521 77.0232 904.505 77.1309 904.49 77.2386C904.436 77.6209 904.564 76.8547 904.49 77.2317C904.401 77.6866 904.264 78.1325 904.099 78.5657C904.061 78.6654 904.02 78.7632 903.978 78.8618C903.828 79.2144 904.153 78.4999 903.985 78.8438C903.892 79.0345 903.787 79.2204 903.68 79.4035C903.572 79.5874 903.455 79.7649 903.332 79.9403C903.243 80.0683 902.725 80.7023 903.101 80.262C902.819 80.5911 902.508 80.8935 902.181 81.1768C902.015 81.3214 901.841 81.4552 901.666 81.5871C901.347 81.8244 902.012 81.3563 901.681 81.5782C901.557 81.6609 901.431 81.7399 901.303 81.8163C900.913 82.0522 900.502 82.2521 900.083 82.4289C899.976 82.4748 899.867 82.5153 899.758 82.5576C900.204 82.3881 899.823 82.5334 899.734 82.5634C899.468 82.6502 899.198 82.7218 898.927 82.7865C898.445 82.9019 897.953 82.9748 897.46 83.0223C897.899 82.9793 897.463 83.0172 897.385 83.0215C897.256 83.0279 897.125 83.0316 896.995 83.0336C896.684 83.0396 896.373 83.0272 896.063 83.0096C895.741 82.9906 895.422 82.9542 895.103 82.9126C895.047 82.9049 894.583 82.8287 894.974 82.898C894.784 82.864 894.595 82.823 894.407 82.7822C893.71 82.6289 893.028 82.4135 892.36 82.1654C890.551 81.4939 889.205 84.3505 890.936 85.2554C891.433 85.5158 891.915 85.7983 892.382 86.1098C892.603 86.2572 892.817 86.4147 893.029 86.5747C893.132 86.6528 893.233 86.7344 893.333 86.815C892.945 86.5018 893.389 86.8682 893.461 86.9327C893.823 87.2578 894.161 87.6098 894.478 87.9775C894.631 88.1541 894.776 88.3381 894.916 88.5246C894.978 88.607 895.213 88.9412 894.921 88.5187C895.007 88.6424 895.088 88.7694 895.168 88.8972C895.402 89.2689 895.606 89.6594 895.79 90.0586C895.879 90.2533 895.959 90.4511 896.035 90.6513C896.172 91.0081 895.906 90.2703 896.027 90.6299C896.071 90.7622 896.11 90.8951 896.148 91.0297C896.261 91.4249 896.342 91.8273 896.404 92.2341C896.425 92.3661 896.488 93.058 896.444 92.4973C896.462 92.7289 896.468 92.9609 896.467 93.1935C896.469 93.5853 896.439 93.9774 896.391 94.366C896.378 94.4625 896.363 94.558 896.349 94.6535C896.429 94.1422 896.376 94.4913 896.354 94.6004C896.31 94.8196 896.254 95.0357 896.195 95.2507C896.093 95.6142 895.963 95.9694 895.816 96.3177C895.679 96.642 895.997 95.936 895.846 96.2535C895.805 96.3374 895.762 96.4202 895.72 96.5022C895.62 96.6936 895.511 96.8801 895.396 97.0637C895.299 97.2193 895.194 97.3703 895.086 97.5192C894.998 97.6412 894.572 98.1455 894.983 97.6667C894.727 97.9663 894.441 98.2401 894.141 98.494C894.002 98.611 893.857 98.7216 893.71 98.8277C894.22 98.4591 893.682 98.8343 893.552 98.9115C893.208 99.1153 892.843 99.2814 892.469 99.4218C893.015 99.2167 892.48 99.4101 892.352 99.4471C892.199 99.4909 892.043 99.5266 891.888 99.5598C891.73 99.5937 891.568 99.6188 891.409 99.6421C891.311 99.6561 891.213 99.6656 891.115 99.6768C891.621 99.6246 891.26 99.6625 891.152 99.6681C890.806 99.6847 890.459 99.6715 890.113 99.6427C889.933 99.6284 889.753 99.6036 889.575 99.5771C889.187 99.5201 889.957 99.6514 889.567 99.5742C889.455 99.5525 889.344 99.5256 889.233 99.4995C888.845 99.4076 888.464 99.2853 888.088 99.1502C887.889 99.0791 887.693 98.9985 887.499 98.9154C887.09 98.7429 887.831 99.0765 887.425 98.884C887.303 98.826 887.182 98.7645 887.062 98.7031C886.129 98.2253 885.259 97.6314 884.435 96.9872C882.913 95.7979 880.844 98.2842 882.254 99.596C882.666 99.9793 883.055 100.382 883.42 100.809C883.595 101.014 883.761 101.226 883.922 101.442C883.973 101.508 884.231 101.88 883.965 101.494C884.064 101.637 884.156 101.784 884.248 101.93C884.515 102.359 884.749 102.807 884.96 103.267C885.062 103.49 885.155 103.718 885.242 103.948C885.393 104.342 885.121 103.588 885.255 103.985C885.305 104.136 885.351 104.29 885.396 104.444C885.526 104.897 885.621 105.357 885.693 105.823C885.712 105.948 885.788 106.693 885.747 106.188C885.769 106.453 885.777 106.719 885.778 106.985C885.783 107.432 885.751 107.88 885.699 108.325C885.686 108.435 885.67 108.544 885.654 108.654C885.596 109.042 885.727 108.273 885.653 108.655C885.605 108.905 885.544 109.152 885.478 109.398C885.367 109.815 885.222 110.221 885.06 110.618C885.02 110.717 884.976 110.814 884.933 110.912C885.139 110.45 884.983 110.796 884.935 110.89C884.824 111.109 884.703 111.323 884.577 111.533C884.362 111.889 884.118 112.229 883.859 112.553C884.23 112.091 883.775 112.637 883.676 112.741C883.512 112.915 883.337 113.078 883.158 113.238C883.005 113.374 882.845 113.502 882.682 113.626C882.591 113.696 882.281 113.908 882.727 113.601C882.643 113.66 882.556 113.714 882.468 113.769C882.09 114.007 881.688 114.206 881.275 114.377C881.177 114.418 880.823 114.542 881.303 114.374C881.205 114.409 881.104 114.44 881.003 114.471C880.8 114.532 880.594 114.583 880.386 114.628C880.174 114.675 879.96 114.708 879.745 114.736C879.649 114.749 879.262 114.783 879.744 114.744C879.595 114.757 879.446 114.76 879.296 114.765C878.83 114.776 878.363 114.741 877.901 114.679C877.818 114.668 877.408 114.593 877.853 114.675C877.729 114.652 877.608 114.625 877.486 114.598C877.192 114.532 876.903 114.448 876.615 114.358C876.357 114.277 876.103 114.183 875.851 114.084C875.721 114.033 875.592 113.978 875.464 113.922C875.286 113.843 875.291 113.846 875.477 113.929C875.389 113.888 875.302 113.845 875.215 113.801C874.611 113.503 874.035 113.152 873.476 112.78C872.698 112.262 871.598 112.542 871.11 113.317C870.606 114.118 870.876 115.161 871.653 115.678Z" fill="#343434"/>
</g>
</svg>
