<svg width="574" height="533" viewBox="0 0 574 533" fill="none" xmlns="http://www.w3.org/2000/svg">
<path fill-rule="evenodd" clip-rule="evenodd" d="M422.214 344.85C446.995 303.565 491.068 327.427 519.165 350.073C488.877 379.146 440.197 372.248 422.214 344.85Z" fill="#8BD092"/>
<path d="M422.961 347.539C424.887 346.82 426.854 346.218 428.846 345.714C428.582 345.779 428.32 345.847 428.056 345.912C433.22 344.615 438.535 343.975 443.85 343.786C445.403 343.731 446.959 343.715 448.515 343.733C448.239 343.73 447.966 343.726 447.689 343.723C451.77 343.776 455.847 344.069 459.898 344.569C463.973 345.072 468.022 345.784 472.025 346.691C474.243 347.194 476.446 347.755 478.633 348.38C478.359 348.303 478.086 348.224 477.811 348.146C481.623 349.235 485.385 350.507 489.063 351.988C489.834 352.297 490.718 352.34 491.5 352.034C492.228 351.748 492.971 351.084 493.257 350.343C493.553 349.574 493.647 348.682 493.303 347.906C492.966 347.146 492.404 346.467 491.612 346.149C487.144 344.351 482.558 342.876 477.909 341.619C473.347 340.386 468.711 339.413 464.039 338.707C459.325 337.995 454.566 337.556 449.798 337.439C444.981 337.322 440.158 337.466 435.376 338.079C430.872 338.655 426.389 339.626 422.089 341.089C421.603 341.255 421.119 341.429 420.639 341.607C419.882 341.89 419.203 342.562 418.882 343.297C418.569 344.014 418.514 345.006 418.836 345.735C419.17 346.489 419.734 347.186 420.527 347.492C421.319 347.798 422.148 347.842 422.961 347.539Z" fill="#3DB149"/>
<path d="M394.489 368.619C390.767 371.103 393.999 377.325 397.746 374.819C419.57 360.225 431.662 335.678 441.96 312.306C444.202 307.211 446.407 304.522 443.004 299.963C436.981 291.858 424.756 290.469 415.609 289.723C413.797 289.575 411.929 291.28 412.008 293.121C413.151 321.112 410.027 346.601 393.14 369.852C390.484 373.517 396.445 377.204 399.089 373.566" fill="#343434"/>
<path fill-rule="evenodd" clip-rule="evenodd" d="M398.608 374.372C394.215 317 326.485 299.993 300.435 354.099C273.392 410.25 282.528 447.64 328.06 480.81C368.993 510.632 414.861 512.226 453.865 463.012C499.331 405.638 447.417 352.734 398.608 374.372Z" fill="#EF4C41"/>
<path d="M423.331 401.917C425.835 403.438 428.157 405.215 430.19 407.329C429.648 406.76 429.107 406.188 428.565 405.618C430.114 407.263 431.455 409.07 432.542 411.051C432.168 410.37 431.796 409.692 431.423 409.011C432.356 410.76 433.072 412.599 433.563 414.518C433.374 413.765 433.184 413.014 432.997 412.261C433.512 414.366 433.749 416.511 433.741 418.678C433.752 417.891 433.76 417.104 433.771 416.318C433.732 419.164 433.276 421.968 432.508 424.706C432.732 423.923 432.954 423.141 433.178 422.358C432.074 426.188 430.391 429.806 428.351 433.224C427.19 435.165 427.432 438.184 428.219 440.186C429.096 442.424 430.845 444.241 433.048 445.203C435.251 446.165 437.775 446.213 440.01 445.335C442.474 444.369 443.724 442.687 445.027 440.506C449.99 432.199 452.951 422.107 451.527 412.396C450.017 402.099 443.625 393.137 434.786 387.771C434.089 387.349 433.395 386.926 432.699 386.504C431.192 385.851 429.622 385.619 427.993 385.806C425.652 386.085 423.47 387.282 421.986 389.116C420.453 391.01 419.733 393.491 420.021 395.909C420.266 397.988 421.443 400.772 423.331 401.917Z" fill="white"/>
<path fill-rule="evenodd" clip-rule="evenodd" d="M181.823 393.403C202.003 438.281 210.167 454.397 217.975 471.658C225.784 488.928 231.209 499.05 249.57 488.88C265.682 479.954 260.558 471.247 249.953 454.674C239.349 438.092 227.311 418.061 202.272 382.74" fill="#B3DA4C"/>
<path fill-rule="evenodd" clip-rule="evenodd" d="M145.522 292.494C64.2962 324.849 123.03 440.706 199.975 393.047C263.228 353.875 206.338 262.885 145.522 292.494Z" fill="#B3DA4C"/>
<path fill-rule="evenodd" clip-rule="evenodd" d="M150.728 305.591C89.7764 329.797 134.133 417.165 191.839 381.429C239.264 352.059 196.354 283.416 150.728 305.591Z" fill="white"/>
<path d="M172.396 313.05C169.054 330.841 163.234 348.022 158.149 365.36C156.872 369.712 155.645 374.077 154.508 378.466C153.85 381.009 157.803 382.003 158.463 379.454C163.005 361.91 169.048 344.791 173.45 327.208C174.541 322.847 175.521 318.457 176.351 314.04C176.555 312.951 175.995 311.849 174.868 311.568C173.837 311.311 172.6 311.957 172.396 313.05Z" fill="#989898"/>
<path d="M187.305 323.392C183.829 339.034 180.008 354.606 175.595 370.011C175.29 371.077 176.028 372.221 177.078 372.482C178.182 372.757 179.244 372.068 179.549 371C183.962 355.594 187.783 340.022 191.259 324.381C191.5 323.299 190.876 322.183 189.777 321.909C188.722 321.647 187.547 322.307 187.305 323.392Z" fill="#989898"/>
<path d="M153.802 319.402C150.736 334.361 146.358 348.955 141.837 363.526C141.508 364.586 142.288 365.74 143.319 365.997C144.44 366.276 145.461 365.576 145.791 364.515C150.312 349.943 154.69 335.35 157.756 320.39C157.979 319.304 157.386 318.196 156.274 317.919C155.231 317.659 154.026 318.313 153.802 319.402Z" fill="#989898"/>
<path d="M215.515 467.017C226.49 462.77 236.933 457.251 246.907 451.026C247.849 450.439 248.214 449.22 247.641 448.239C247.094 447.302 245.796 446.918 244.854 447.505C235.189 453.538 225.072 458.97 214.436 463.087C213.4 463.488 212.694 464.44 213.009 465.592C213.281 466.58 214.479 467.418 215.515 467.017Z" fill="#343434"/>
<path d="M220.49 479.013C226.53 476.997 232.48 474.678 238.14 471.747C243.6 468.918 248.72 465.494 253.696 461.892C254.595 461.242 255.032 460.134 254.431 459.105C253.913 458.218 252.544 457.719 251.644 458.371C246.785 461.886 241.793 465.218 236.483 468.018C230.946 470.939 225.372 473.093 219.412 475.082C218.358 475.433 217.681 476.472 217.985 477.586C218.266 478.613 219.436 479.364 220.49 479.013Z" fill="#343434"/>
<path d="M84.303 459.028C77.4738 452.206 70.6445 445.385 63.9033 438.477C60.8233 435.321 57.7633 432.143 54.738 428.934C52.2144 426.256 49.9168 423.307 46.5088 421.721C41.2496 419.275 35.185 421.411 31.6829 425.753C29.9899 427.852 28.971 430.555 28.8558 433.246C28.7206 436.399 29.8566 439.381 31.7349 441.879C33.0394 443.615 34.7159 445.109 36.2195 446.67C37.8647 448.379 39.505 450.091 41.142 451.807C44.1651 454.973 47.1748 458.154 50.1747 461.341C55.2297 466.711 60.2547 472.11 65.303 477.487C72.0983 484.723 78.8503 492.208 86.5172 498.547C90.5562 501.888 95.4534 505.367 100.962 504.947C105.983 504.565 110.048 500.384 113.007 496.696C115.914 493.073 117.008 488.619 115.703 484.119C114.878 481.274 113.453 478.704 111.855 476.228C109.783 473.017 107.362 470.031 104.883 467.128C97.0439 457.953 88.4296 449.427 79.9433 440.859C73.8534 434.711 67.7451 428.583 61.6536 422.436C55.1893 415.911 48.8874 409.027 41.5902 403.407C36.6095 399.57 30.1275 395.834 23.6245 397.681C20.4672 398.577 17.802 400.658 15.3152 402.728C13.0349 404.626 10.8924 406.816 9.38773 409.388C7.91169 411.912 7.09033 414.765 7.2143 417.699C7.36887 421.329 8.68964 424.739 10.5084 427.855C12.6588 431.538 15.4548 434.836 18.1499 438.125C20.3361 440.793 22.5892 443.408 24.9068 445.963C31.2119 452.914 37.9747 459.441 44.605 466.078C45.2513 466.724 46.2218 466.913 46.9691 466.289C47.6246 465.741 47.8256 464.574 47.1794 463.927C41.5756 458.316 35.8958 452.774 30.4467 447.011C25.5562 441.838 20.9681 436.403 16.5866 430.795C14.2079 427.751 11.956 424.288 11.0054 420.604C10.2892 417.831 10.4059 415.345 11.4067 412.828C11.9091 411.563 12.4189 410.743 13.313 409.542C14.2243 408.319 14.9623 407.56 16.0851 406.516C17.2345 405.447 18.4653 404.468 19.724 403.533C20.9958 402.589 22.032 401.853 23.5138 401.241C25.8489 400.278 28.5387 400.407 30.9868 401.19C34.1957 402.218 36.9527 404.081 39.648 406.141C43.0223 408.719 46.1199 411.644 49.1517 414.61C52.6426 418.024 56.0483 421.526 59.4857 424.997C70.3437 435.953 81.3255 446.798 91.9743 457.959C95.5632 461.72 99.1102 465.528 102.484 469.485C103.821 471.053 105.126 472.646 106.377 474.282C106.929 475.003 107.467 475.734 107.991 476.475C108.227 476.808 108.459 477.144 108.689 477.483C108.8 477.647 108.91 477.811 109.018 477.976C109.097 478.095 109.51 478.736 109.206 478.262C109.988 479.483 110.711 480.744 111.338 482.053C111.612 482.624 111.861 483.209 112.086 483.8C112.189 484.067 112.283 484.337 112.372 484.609C112.165 483.978 112.458 484.91 112.512 485.114C112.653 485.635 112.76 486.165 112.84 486.698C112.876 486.942 112.904 487.188 112.925 487.434C112.935 487.555 112.942 487.677 112.95 487.797C112.965 488.073 112.931 487.312 112.94 487.587C112.943 487.666 112.944 487.747 112.944 487.826C112.951 488.314 112.921 488.802 112.861 489.287C112.833 489.516 112.795 489.744 112.75 489.971C112.663 490.421 112.783 489.848 112.765 489.927C112.735 490.059 112.701 490.189 112.665 490.319C112.535 490.79 112.371 491.249 112.181 491.699C112.087 491.92 111.986 492.136 111.88 492.351C111.812 492.489 111.577 492.926 111.888 492.346C111.821 492.473 111.749 492.599 111.677 492.723C111.11 493.704 110.421 494.601 109.686 495.461C109.454 495.733 109.218 496.001 108.98 496.268C108.864 496.397 108.748 496.525 108.63 496.654C108.409 496.896 108.912 496.35 108.691 496.589C108.614 496.67 108.537 496.753 108.46 496.834C108.001 497.316 107.527 497.783 107.038 498.235C106.59 498.648 106.124 499.045 105.642 499.418C105.425 499.587 105.203 499.751 104.978 499.909C104.869 499.986 104.758 500.061 104.647 500.136C104.24 500.407 104.98 499.932 104.568 500.187C104.125 500.461 103.665 500.706 103.192 500.923C102.973 501.024 102.752 501.114 102.529 501.199C102.419 501.241 102.308 501.28 102.196 501.318C101.882 501.425 102.667 501.18 102.166 501.324C101.706 501.458 101.235 501.551 100.761 501.612C100.534 501.64 100.305 501.659 100.077 501.67C100.822 501.632 99.9286 501.662 99.717 501.654C99.2212 501.635 98.7276 501.575 98.2395 501.486C98.1187 501.463 97.998 501.438 97.8776 501.411C98.5471 501.557 98.0457 501.447 97.89 501.408C97.6187 501.338 97.3514 501.256 97.086 501.171C96.5421 500.993 96.0107 500.778 95.4902 500.542C95.2234 500.421 94.9587 500.293 94.6976 500.159C94.6309 500.125 94.5643 500.09 94.4961 500.055C94.2237 499.913 94.8827 500.262 94.6106 500.115C94.4499 500.03 94.291 499.94 94.1336 499.85C91.3515 498.27 88.8489 496.209 86.4567 494.1C86.1051 493.79 85.7568 493.477 85.4088 493.161C85.2292 492.998 85.051 492.836 84.8729 492.673C84.8168 492.621 84.5085 492.336 84.8266 492.631C84.7046 492.518 84.5828 492.404 84.461 492.291C83.6642 491.547 82.876 490.792 82.0942 490.032C80.3326 488.319 78.6045 486.571 76.8912 484.809C67.1627 474.811 57.7744 464.484 48.1832 454.357C44.9986 450.995 41.8024 447.645 38.5911 444.31C37.1056 442.767 35.4821 441.29 34.1925 439.573C33.7681 439.008 33.5235 438.588 33.1787 437.895C32.8302 437.193 32.6353 436.622 32.4951 436.084C32.3335 435.463 32.2432 434.825 32.1954 434.186C32.2242 434.561 32.1924 434.05 32.193 434.009C32.1901 433.855 32.1948 433.699 32.1996 433.543C32.2103 433.185 32.2451 432.828 32.292 432.471C32.3116 432.32 32.3371 432.169 32.3641 432.02C32.3727 431.974 32.4774 431.48 32.3886 431.863C32.4574 431.567 32.5423 431.278 32.6348 430.989C32.7256 430.702 32.8356 430.421 32.9485 430.141C33.0048 430.002 33.067 429.865 33.1293 429.728C33.1556 429.672 33.4353 429.119 33.2625 429.442C33.5446 428.914 33.8774 428.413 34.2357 427.933C34.7384 427.261 34.8072 427.203 35.3437 426.698C36.3753 425.724 36.9872 425.342 38.1806 424.8C38.4494 424.677 38.7258 424.571 39.0047 424.472C39.4653 424.307 38.684 424.563 39.1531 424.423C39.2948 424.381 39.4392 424.344 39.582 424.308C39.8706 424.235 40.162 424.181 40.4545 424.133C40.6022 424.109 40.7495 424.091 40.8966 424.073C40.9657 424.064 41.5945 424.02 41.1925 424.038C41.8016 424.012 42.4106 424.054 43.0127 424.139C43.1671 424.16 43.3192 424.189 43.4713 424.218C43.9771 424.313 43.1423 424.131 43.6451 424.259C44.0099 424.352 44.3662 424.473 44.7186 424.605C45.9061 425.048 47.0863 425.813 48.0578 426.724C49.5066 428.083 50.8001 429.636 52.1608 431.082C58.42 437.73 64.8302 444.232 71.2687 450.707C74.7461 454.205 78.2367 457.69 81.7258 461.176C82.3721 461.822 83.3427 462.011 84.0899 461.387C84.748 460.844 84.9507 459.675 84.303 459.028Z" fill="#8BD092"/>
<path d="M480.017 62.3709C474.59 69.0736 469.163 75.7763 463.652 82.4087C461.133 85.4392 458.594 88.4537 456.023 91.4404C453.877 93.9318 451.47 96.2477 450.378 99.4235C448.693 104.324 451.155 109.515 455.339 112.224C457.361 113.533 459.859 114.187 462.26 114.039C465.075 113.866 467.619 112.58 469.665 110.679C471.086 109.358 472.257 107.729 473.505 106.248C474.871 104.627 476.239 103.011 477.612 101.396C480.145 98.4157 482.692 95.4455 485.245 92.4834C489.547 87.4923 493.878 82.5251 498.187 77.5393C503.986 70.8282 510.009 64.1325 514.93 56.7302C517.523 52.8306 520.16 48.1553 519.274 43.2995C518.468 38.873 514.375 35.6488 510.823 33.3626C507.333 31.1159 503.274 30.5574 499.396 32.1359C496.944 33.1335 494.793 34.6381 492.741 36.2884C490.081 38.4286 487.652 40.8569 485.303 43.3299C477.878 51.1488 471.102 59.5962 464.277 67.9337C459.38 73.9168 454.502 79.9144 449.606 85.8988C444.408 92.2497 438.877 98.4896 434.561 105.497C431.614 110.279 428.896 116.387 431.142 121.994C432.232 124.716 434.329 126.891 436.4 128.908C438.298 130.758 440.443 132.459 442.869 133.557C445.249 134.634 447.86 135.099 450.456 134.716C453.667 134.241 456.575 132.75 459.175 130.845C462.248 128.591 464.919 125.8 467.591 123.1C469.759 120.909 471.873 118.664 473.928 116.367C479.519 110.118 484.691 103.501 489.972 96.9926C490.486 96.3583 490.564 95.4783 489.94 94.8723C489.392 94.3407 488.336 94.2706 487.821 94.9049C483.356 100.406 478.96 105.968 474.344 111.346C470.202 116.173 465.799 120.755 461.223 125.17C458.739 127.567 455.87 129.89 452.685 131.077C450.287 131.971 448.068 132.098 445.738 131.443C444.567 131.114 443.791 130.737 442.641 130.054C441.469 129.358 440.726 128.773 439.694 127.872C438.637 126.95 437.653 125.947 436.705 124.916C435.748 123.874 434.998 123.021 434.316 121.761C433.243 119.776 433.108 117.373 433.576 115.125C434.192 112.178 435.59 109.555 437.171 106.968C439.148 103.73 441.459 100.706 443.813 97.7359C446.523 94.3164 449.319 90.9645 452.083 87.5874C460.81 76.9201 469.427 66.1534 478.355 55.6532C481.363 52.1144 484.417 48.6086 487.62 45.2423C488.889 43.9092 490.184 42.6013 491.521 41.3374C492.11 40.7802 492.71 40.2336 493.32 39.6991C493.594 39.4586 493.871 39.2208 494.151 38.9856C494.286 38.8715 494.422 38.7587 494.558 38.6473C494.657 38.5661 495.188 38.1394 494.795 38.4532C495.808 37.6452 496.86 36.8851 497.965 36.2066C498.448 35.9103 498.944 35.634 499.449 35.3792C499.676 35.2636 499.908 35.1547 500.141 35.0499C499.6 35.2931 500.401 34.946 500.577 34.8785C501.027 34.7055 501.488 34.5607 501.954 34.4401C502.167 34.3856 502.384 34.3376 502.6 34.2965C502.707 34.276 502.814 34.2581 502.92 34.2403C503.164 34.2014 502.491 34.3022 502.735 34.2688C502.805 34.2583 502.876 34.2504 502.946 34.2426C503.38 34.1914 503.816 34.1725 504.252 34.1806C504.459 34.1842 504.665 34.1972 504.871 34.2157C505.278 34.2512 504.758 34.1985 504.83 34.2068C504.95 34.2211 505.069 34.2396 505.188 34.2594C505.618 34.331 506.042 34.4338 506.459 34.5611C506.664 34.6241 506.866 34.6939 507.067 34.7677C507.196 34.8157 507.606 34.9836 507.061 34.7611C507.181 34.8092 507.299 34.8614 507.416 34.9136C508.341 35.3259 509.201 35.8554 510.034 36.4285C510.297 36.6094 510.558 36.7943 510.817 36.9807C510.942 37.0719 511.067 37.1631 511.192 37.2557C511.428 37.4303 510.896 37.0335 511.129 37.2081C511.209 37.269 511.289 37.3298 511.368 37.3907C511.839 37.7534 512.298 38.1311 512.745 38.5238C513.154 38.8834 513.55 39.2606 513.927 39.6544C514.097 39.8314 514.263 40.0137 514.425 40.1989C514.503 40.2881 514.58 40.3802 514.657 40.4721C514.936 40.808 514.445 40.1945 514.709 40.5374C514.994 40.9056 515.255 41.2918 515.492 41.6918C515.601 41.8764 515.703 42.0652 515.799 42.2554C515.846 42.3492 515.89 42.4444 515.935 42.5395C516.059 42.809 515.768 42.1344 515.944 42.5664C516.105 42.9622 516.231 43.372 516.329 43.7876C516.375 43.9867 516.414 44.1886 516.445 44.3907C516.342 43.7321 516.451 44.5229 516.464 44.7117C516.493 45.154 516.485 45.5983 516.452 46.0402C516.443 46.1497 516.432 46.2593 516.419 46.3688C516.486 45.7603 516.435 46.216 516.415 46.3581C516.378 46.6057 516.331 46.8508 516.279 47.0946C516.172 47.5944 516.03 48.0866 515.869 48.5711C515.786 48.8194 515.697 49.0665 515.602 49.311C515.578 49.3734 515.553 49.4359 515.528 49.4997C515.427 49.7551 515.677 49.137 515.571 49.3924C515.51 49.5432 515.445 49.6927 515.38 49.8409C514.235 52.46 512.636 54.8755 510.984 57.1973C510.741 57.5385 510.495 57.8771 510.247 58.2157C510.119 58.3905 509.991 58.564 509.863 58.7374C509.822 58.792 509.597 59.0925 509.829 58.7825C509.741 58.9013 509.651 59.0201 509.561 59.1389C508.974 59.9161 508.376 60.6868 507.775 61.452C506.416 63.1767 505.023 64.8748 503.617 66.561C495.636 76.1354 487.331 85.438 479.224 94.9023C476.532 98.0447 473.852 101.196 471.187 104.36C469.954 105.824 468.793 107.403 467.387 108.709C466.924 109.139 466.573 109.395 465.99 109.766C465.398 110.141 464.909 110.367 464.444 110.542C463.907 110.743 463.348 110.883 462.785 110.984C463.116 110.924 462.665 111 462.629 111.003C462.491 111.02 462.352 111.03 462.214 111.04C461.894 111.064 461.573 111.066 461.252 111.058C461.116 111.055 460.98 111.046 460.845 111.036C460.803 111.032 460.354 110.985 460.703 111.029C460.434 110.995 460.169 110.946 459.904 110.891C459.64 110.837 459.38 110.765 459.121 110.691C458.992 110.654 458.865 110.611 458.737 110.569C458.684 110.551 458.167 110.353 458.47 110.477C457.975 110.275 457.499 110.026 457.039 109.753C456.395 109.368 456.337 109.312 455.838 108.883C454.877 108.056 454.481 107.548 453.888 106.538C453.754 106.311 453.634 106.075 453.52 105.836C453.33 105.442 453.631 106.113 453.463 105.709C453.412 105.587 453.366 105.462 453.321 105.339C453.229 105.089 453.154 104.835 453.084 104.579C453.049 104.45 453.019 104.321 452.99 104.192C452.976 104.132 452.878 103.577 452.931 103.932C452.851 103.394 452.832 102.849 452.852 102.305C452.856 102.166 452.868 102.029 452.879 101.891C452.917 101.432 452.832 102.191 452.9 101.732C452.948 101.4 453.023 101.072 453.107 100.746C453.391 99.6498 453.96 98.53 454.68 97.582C455.753 96.1682 457.013 94.8744 458.171 93.5309C463.497 87.3508 468.679 81.0502 473.834 74.727C476.62 71.3117 479.393 67.8858 482.166 64.4614C482.68 63.827 482.758 62.947 482.133 62.341C481.59 61.8067 480.532 61.7352 480.017 62.3709Z" fill="#EF4C41"/>
<path d="M274.5 267C278.589 267 282 263.587 282 259.5C282 255.413 278.587 252 274.5 252C270.413 252 267 255.413 267 259.5C267 263.587 270.413 267 274.5 267Z" fill="#989898"/>
<path d="M72.7326 147.054C69.1231 146.786 65.3715 147.502 62.3039 149.488C59.4011 151.366 57.4171 154.126 56.1604 157.312C53.7706 163.37 55.188 170.626 59.3475 175.533C64.191 181.249 72.8645 182.355 79.4797 179.447C85.4893 176.805 88.8948 170.16 88.9978 163.802C89.0638 159.65 87.6216 155.637 84.9496 152.481C81.9252 148.91 77.2753 147.31 72.7326 147.054C71.1751 146.967 69.871 148.425 69.871 149.921C69.871 151.55 71.1751 152.7 72.7326 152.789C73.1838 152.814 73.6329 152.853 74.08 152.904C73.2827 152.811 74.5827 153.003 74.799 153.049C75.6457 153.224 76.476 153.482 77.2794 153.8C76.476 153.482 77.5947 153.961 77.7904 154.062C78.1138 154.228 78.427 154.415 78.736 154.607C79.0368 154.795 79.3252 155.004 79.6095 155.216C78.8905 154.675 79.9041 155.499 80.0854 155.67C80.3327 155.906 80.5655 156.154 80.7941 156.409C80.9074 156.535 81.0146 156.665 81.1217 156.798C81.5131 157.272 80.722 156.259 81.0846 156.752C81.5152 157.336 81.8799 157.964 82.2054 158.61C82.2795 158.759 82.3496 158.911 82.4176 159.062C82.671 159.619 82.16 158.422 82.3867 158.992C82.5103 159.302 82.6154 159.617 82.7163 159.935C82.9347 160.627 83.0892 161.337 83.2025 162.051C83.2993 162.666 83.116 161.335 83.1881 161.954C83.2066 162.121 83.221 162.289 83.2334 162.456C83.2602 162.792 83.2705 163.129 83.2767 163.465C83.289 164.196 83.2375 164.927 83.1489 165.653C83.2705 164.656 83.1036 165.825 83.0583 166.058C82.9924 166.39 82.912 166.719 82.8234 167.045C82.7369 167.371 82.6339 167.693 82.5268 168.013C82.4732 168.174 82.4135 168.331 82.3558 168.49C82.0756 169.239 82.5268 168.12 82.3228 168.585C82.0529 169.204 81.7315 169.798 81.3813 170.372C81.2062 170.659 81.0146 170.938 80.8189 171.212C80.7159 171.359 80.3347 171.834 80.858 171.169C80.7179 171.347 80.5716 171.516 80.4233 171.687C79.9762 172.199 79.4818 172.668 78.9626 173.105C78.8267 173.219 78.3343 173.586 79.0038 173.081C78.8658 173.184 78.7236 173.283 78.5836 173.382C78.2498 173.613 77.8996 173.822 77.5452 174.022C77.2362 174.195 76.9169 174.35 76.5934 174.497C76.0083 174.763 77.2135 174.249 76.6119 174.484C76.4409 174.55 76.27 174.61 76.0969 174.67C75.3202 174.936 74.5126 175.114 73.703 175.24C74.5888 175.104 73.295 175.263 73.0664 175.277C72.6481 175.302 72.2299 175.302 71.8117 175.296C71.377 175.287 70.9423 175.256 70.5096 175.217C70.3593 175.203 69.632 175.1 70.4272 175.215C70.1553 175.176 69.8833 175.124 69.6135 175.071C68.8409 174.918 68.0869 174.689 67.3493 174.412C66.723 174.177 67.9426 174.678 67.3369 174.412C67.168 174.338 67.0011 174.255 66.8343 174.173C66.4531 173.985 66.0843 173.77 65.7238 173.547C65.421 173.359 65.1305 173.153 64.8441 172.94C65.5652 173.477 64.6443 172.752 64.4795 172.604C64.2219 172.371 63.9788 172.123 63.7419 171.871C63.573 171.691 62.7489 170.665 63.3051 171.396C62.891 170.851 62.5285 170.269 62.1988 169.668C62.034 169.369 61.8857 169.061 61.7435 168.752C61.4839 168.186 61.999 169.386 61.7641 168.808C61.6776 168.597 61.6014 168.382 61.5251 168.168C61.2965 167.524 61.1234 166.859 60.9812 166.19C60.9318 165.959 60.7546 164.78 60.8865 165.771C60.8329 165.375 60.802 164.976 60.7773 164.578C60.7361 163.895 60.7505 163.211 60.7958 162.53C60.8123 162.293 60.9648 161.116 60.8247 162.107C60.8803 161.715 60.9586 161.327 61.043 160.939C61.1893 160.278 61.3892 159.632 61.622 158.998C61.6858 158.827 61.9207 158.259 61.5828 159.058C61.6487 158.903 61.7188 158.75 61.7888 158.6C61.9537 158.245 62.1391 157.902 62.3327 157.561C62.582 157.126 62.8643 156.711 63.1609 156.306C62.615 157.047 63.2104 156.263 63.3463 156.106C63.5297 155.895 63.7254 155.693 63.9232 155.495C64.121 155.295 64.3311 155.107 64.5433 154.921C64.6299 154.847 64.7164 154.775 64.805 154.702C65.2829 154.308 64.2673 155.101 64.7679 154.735C65.2355 154.393 65.7362 154.093 66.2492 153.823C66.4593 153.711 66.6756 153.61 66.8919 153.513C66.074 153.887 67.0341 153.468 67.2257 153.4C67.8232 153.187 68.4412 153.032 69.0634 152.906C69.1932 152.882 69.323 152.859 69.4528 152.836C70.1429 152.716 68.7853 152.911 69.4898 152.828C69.8339 152.787 70.1821 152.766 70.5282 152.747C71.2637 152.71 72.0012 152.737 72.7367 152.791C74.2942 152.906 75.5983 151.399 75.5983 149.924C75.5921 148.27 74.286 147.17 72.7326 147.054Z" fill="#B3DA4C"/>
<path fill-rule="evenodd" clip-rule="evenodd" d="M310.162 122.196C308.446 128.943 302.589 129.333 297.31 130.868C300.267 134.923 302 139.58 301.293 144.815C300.496 150.762 291.888 151.588 285.934 152.056C287.187 161.659 284.231 171.42 275.717 173.393C337.517 212.828 436.592 268.004 522.697 320.726C540.465 306.01 555.254 281.378 558.041 257.759C514.693 231.943 366.119 144.058 310.618 113.492C311.047 116.198 310.96 119.053 310.162 122.196Z" fill="#FFA446"/>
<path fill-rule="evenodd" clip-rule="evenodd" d="M299.417 146.809C295.132 153.33 290.963 154.522 284.216 154.253C346.623 192.167 450.013 251.467 538.824 304.336C543.65 302.319 553.57 287.465 551.859 279.529C507.529 253.416 351.144 161.581 298.941 131.849C302.981 136.631 303.326 140.866 299.417 146.809Z" fill="#B3DA4C"/>
<path fill-rule="evenodd" clip-rule="evenodd" d="M275.729 172.724C283.946 172.547 289.753 165.271 286.897 157.524C285.699 154.279 289.26 151.829 292.078 152.351C298.319 153.504 307.093 144.785 301.521 138.303C299.898 136.413 299.811 132.817 302.473 131.655C309.404 128.634 314.834 121.972 311.905 114.191C309.011 112.597 306.355 111.145 303.964 109.851C288.565 106.639 246.465 102.08 220.764 100.605C236.872 125.831 269.824 169.602 269.824 169.602C271.466 170.663 273.15 171.745 274.854 172.829C275.127 172.77 275.416 172.732 275.729 172.724Z" fill="white"/>
<path fill-rule="evenodd" clip-rule="evenodd" d="M249.054 102.192C221.487 97.6177 216.561 95.4565 215.881 97.7661C214.755 99.6111 218.908 103.015 235.714 123.829C243.528 120.076 248.104 111.086 249.054 102.192Z" fill="#343434"/>
<path d="M285.874 155.32C301.399 165.074 317.089 174.566 332.793 184.029C353.328 196.402 373.928 208.67 394.553 220.891C416.084 233.647 437.648 246.346 459.244 258.993C477.786 269.851 496.349 280.676 514.958 291.421C521.213 295.033 527.471 298.635 533.743 302.216C536.247 303.647 538.659 299.854 536.137 298.413C520.124 289.271 504.179 280.013 488.247 270.733C467.492 258.644 446.773 246.496 426.08 234.303C404.534 221.606 383.017 208.859 361.546 196.036C343.164 185.056 324.808 174.033 306.551 162.845C300.439 159.099 294.337 155.334 288.267 151.519C285.818 149.979 283.417 153.776 285.874 155.32Z" fill="#343434"/>
<path d="M297.13 135.213C313.666 144.762 330.215 154.29 346.757 163.835C367.989 176.086 389.211 188.355 410.408 200.667C432.287 213.375 454.144 226.125 475.943 238.971C494.435 249.87 512.899 260.822 531.218 272.009C535.745 274.773 540.259 277.554 544.756 280.368C547.209 281.902 549.611 278.104 547.15 276.565C530.822 266.35 514.281 256.473 497.723 246.637C476.593 234.084 455.385 221.662 434.152 209.285C412.321 196.56 390.456 183.891 368.576 171.248C350.105 160.574 331.622 149.922 313.141 139.266C308.602 136.648 304.064 134.032 299.526 131.411C297.024 129.967 294.614 133.76 297.13 135.213Z" fill="#343434"/>
<path d="M268.094 172.439C272.953 175.678 279.471 177.172 284.64 173.721C289.096 170.747 291.462 165.371 291.032 160.064C290.668 155.558 288.613 151.43 285.3 148.35C284.349 149.488 283.397 150.626 282.444 151.766C286.889 155.238 292.901 157.405 298.287 154.771C302.59 152.668 305.042 147.873 305.08 143.2C305.13 136.953 301.137 131.62 295.739 128.798C295.118 130.148 294.496 131.496 293.875 132.845C299.657 134.994 306.404 134.653 311.207 130.485C313.185 128.768 314.653 126.381 315.293 123.843C316.022 120.951 315.688 118.047 314.649 115.283C313.442 112.068 311.041 109.463 308.429 107.317C307.481 106.538 305.921 107.086 305.331 108.021C304.616 109.154 305.089 110.343 306.035 111.12C306.594 111.578 305.701 110.829 306.236 111.294C306.395 111.433 306.55 111.576 306.707 111.719C307.009 111.997 307.299 112.288 307.582 112.584C308.159 113.182 308.689 113.827 309.178 114.5C309.542 114.999 308.908 114.094 309.245 114.602C309.343 114.75 309.436 114.902 309.53 115.053C309.711 115.347 309.876 115.652 310.036 115.957C310.191 116.254 310.329 116.559 310.462 116.865C310.526 117.015 310.587 117.168 310.645 117.32C310.732 117.554 310.722 117.522 310.615 117.225C310.649 117.325 310.682 117.426 310.713 117.527C310.902 118.115 311.036 118.72 311.133 119.33C311.156 119.478 311.174 119.627 311.192 119.776C311.254 120.295 311.162 119.275 311.195 119.794C311.219 120.134 311.219 120.476 311.211 120.816C311.203 121.103 311.179 121.391 311.15 121.676C311.135 121.818 311.115 121.959 311.095 122.1C311.024 122.601 311.192 121.598 311.096 122.091C310.978 122.687 310.799 123.271 310.583 123.838C310.534 123.969 310.48 124.097 310.425 124.226C310.229 124.688 310.654 123.752 310.434 124.203C310.312 124.452 310.175 124.696 310.034 124.935C309.893 125.176 309.739 125.409 309.579 125.638C309.462 125.806 308.783 126.636 309.276 126.06C308.907 126.491 308.499 126.887 308.072 127.258C307.855 127.447 307.627 127.622 307.397 127.795C306.98 128.106 307.85 127.493 307.417 127.783C307.255 127.892 307.089 127.995 306.922 128.095C306.411 128.404 305.872 128.666 305.323 128.897C305.183 128.957 305.041 129.01 304.899 129.066C305.483 128.844 304.984 129.034 304.867 129.073C304.519 129.187 304.164 129.281 303.81 129.366C303.179 129.517 302.535 129.612 301.889 129.674C302.464 129.618 301.893 129.668 301.791 129.673C301.621 129.682 301.45 129.687 301.28 129.689C300.873 129.697 300.466 129.681 300.059 129.658C299.638 129.633 299.22 129.585 298.802 129.531C298.729 129.521 298.121 129.421 298.634 129.512C298.385 129.467 298.137 129.413 297.891 129.36C296.978 129.159 296.085 128.877 295.21 128.552C292.841 127.673 291.078 131.414 293.345 132.599C293.996 132.94 294.628 133.31 295.239 133.718C295.529 133.911 295.809 134.117 296.086 134.326C296.221 134.429 296.354 134.535 296.485 134.641C295.977 134.231 296.557 134.711 296.652 134.795C297.126 135.221 297.569 135.682 297.985 136.163C298.185 136.395 298.374 136.636 298.558 136.88C298.639 136.988 298.946 137.425 298.564 136.872C298.677 137.034 298.782 137.2 298.887 137.368C299.194 137.855 299.461 138.366 299.702 138.889C299.818 139.144 299.924 139.403 300.023 139.665C300.202 140.132 299.854 139.166 300.012 139.637C300.07 139.81 300.122 139.984 300.171 140.16C300.319 140.678 300.426 141.205 300.507 141.738C300.533 141.911 300.616 142.817 300.559 142.082C300.582 142.386 300.589 142.689 300.589 142.994C300.591 143.507 300.552 144.02 300.489 144.529C300.473 144.656 300.453 144.781 300.434 144.906C300.539 144.236 300.47 144.693 300.44 144.836C300.383 145.123 300.31 145.406 300.232 145.688C300.099 146.164 299.928 146.629 299.736 147.085C299.556 147.51 299.974 146.585 299.775 147.001C299.722 147.111 299.666 147.219 299.61 147.327C299.48 147.577 299.337 147.822 299.187 148.062C299.059 148.266 298.922 148.464 298.78 148.659C298.666 148.818 298.108 149.479 298.646 148.852C298.31 149.244 297.936 149.603 297.543 149.935C297.361 150.088 297.171 150.233 296.978 150.372C297.646 149.89 296.942 150.381 296.772 150.482C296.321 150.749 295.843 150.966 295.353 151.15C296.068 150.882 295.368 151.135 295.2 151.183C295 151.241 294.795 151.287 294.592 151.331C294.385 151.375 294.174 151.408 293.965 151.439C293.837 151.457 293.708 151.469 293.58 151.484C294.242 151.416 293.77 151.465 293.628 151.473C293.175 151.494 292.721 151.477 292.268 151.439C292.032 151.421 291.797 151.388 291.563 151.354C291.055 151.279 292.064 151.451 291.553 151.35C291.407 151.321 291.261 151.286 291.116 151.252C290.607 151.132 290.108 150.971 289.616 150.794C289.356 150.701 289.099 150.596 288.844 150.487C288.31 150.261 289.28 150.698 288.748 150.446C288.589 150.37 288.43 150.289 288.273 150.209C287.051 149.583 285.912 148.806 284.832 147.962C282.839 146.405 280.129 149.66 281.976 151.378C282.515 151.88 283.025 152.407 283.503 152.967C283.733 153.235 283.949 153.513 284.161 153.795C284.227 153.882 284.565 154.37 284.217 153.864C284.346 154.051 284.467 154.243 284.588 154.435C284.938 154.996 285.244 155.584 285.52 156.186C285.653 156.478 285.775 156.777 285.89 157.077C286.087 157.594 285.731 156.606 285.906 157.126C285.972 157.324 286.032 157.526 286.09 157.727C286.261 158.32 286.385 158.923 286.48 159.533C286.505 159.697 286.604 160.672 286.551 160.011C286.579 160.358 286.589 160.706 286.592 161.054C286.597 161.64 286.556 162.226 286.488 162.809C286.471 162.954 286.45 163.096 286.428 163.24C286.352 163.748 286.524 162.741 286.427 163.241C286.364 163.568 286.285 163.892 286.198 164.215C286.052 164.76 285.863 165.292 285.651 165.812C285.598 165.942 285.541 166.068 285.484 166.196C285.755 165.593 285.55 166.045 285.487 166.168C285.342 166.456 285.184 166.736 285.018 167.01C284.737 167.477 284.418 167.922 284.078 168.346C284.563 167.74 283.969 168.456 283.839 168.593C283.624 168.82 283.394 169.034 283.16 169.243C282.96 169.422 282.75 169.589 282.537 169.751C282.417 169.842 282.012 170.121 282.596 169.719C282.486 169.795 282.371 169.867 282.257 169.938C281.762 170.25 281.235 170.51 280.695 170.734C280.566 170.788 280.102 170.951 280.731 170.731C280.602 170.777 280.47 170.817 280.339 170.858C280.073 170.938 279.802 171.004 279.53 171.064C279.252 171.124 278.972 171.168 278.691 171.205C278.564 171.222 278.059 171.266 278.69 171.215C278.494 171.232 278.299 171.237 278.103 171.243C277.492 171.257 276.881 171.211 276.276 171.13C276.167 171.116 275.63 171.017 276.212 171.125C276.051 171.094 275.892 171.06 275.733 171.024C275.347 170.938 274.969 170.828 274.592 170.71C274.254 170.604 273.922 170.48 273.591 170.351C273.421 170.284 273.252 170.211 273.084 170.139C272.852 170.035 272.858 170.039 273.102 170.149C272.987 170.094 272.872 170.039 272.758 169.981C271.968 169.59 271.213 169.131 270.481 168.643C269.463 167.964 268.022 168.332 267.382 169.347C266.723 170.396 267.076 171.761 268.094 172.439Z" fill="#343434"/>
</svg>
